<?xml version="1.0" encoding="UTF-8"?>
<svg width="435px" height="576px" viewBox="0 0 435 576" version="1.1" xmlns="http://www.w3.org/2000/svg" xmlns:xlink="http://www.w3.org/1999/xlink">
    <!-- Generator: Sketch 63.1 (92452) - https://sketch.com -->
    <title>01_HEADER_BLOGGER</title>
    <desc>Created with Sketch.</desc>
    <defs>
        <linearGradient x1="51.639261%" y1="94.5649955%" x2="49.2180624%" y2="5.25729348%" id="linearGradient-1">
            <stop stop-color="#779DEA" offset="0%"></stop>
            <stop stop-color="#8BABED" offset="12%"></stop>
            <stop stop-color="#AFC5F3" offset="38%"></stop>
            <stop stop-color="#C8D7F7" offset="61%"></stop>
            <stop stop-color="#D8E2F9" offset="83%"></stop>
            <stop stop-color="#DDE6FA" offset="100%"></stop>
        </linearGradient>
        <linearGradient x1="42.1924689%" y1="56.3886477%" x2="60.6319145%" y2="47.778904%" id="linearGradient-2">
            <stop stop-color="#366FE0" offset="0%"></stop>
            <stop stop-color="#366FE0" offset="25%"></stop>
            <stop stop-color="#2F63D1" offset="45%"></stop>
            <stop stop-color="#1B43A9" offset="84%"></stop>
            <stop stop-color="#123597" offset="100%"></stop>
        </linearGradient>
        <linearGradient x1="38.5134015%" y1="54.0128061%" x2="61.120869%" y2="45.7269344%" id="linearGradient-3">
            <stop stop-color="#123597" offset="0%"></stop>
            <stop stop-color="#1B43A9" offset="16%"></stop>
            <stop stop-color="#2F63D1" offset="55%"></stop>
            <stop stop-color="#366FE0" offset="75%"></stop>
            <stop stop-color="#366FE0" offset="100%"></stop>
        </linearGradient>
        <linearGradient x1="10.4845689%" y1="53.4407929%" x2="90.9467941%" y2="47.7859854%" id="linearGradient-4">
            <stop stop-color="#DDE6FA" offset="0%"></stop>
            <stop stop-color="#D8E2F9" offset="17%"></stop>
            <stop stop-color="#C8D7F7" offset="39%"></stop>
            <stop stop-color="#AFC5F3" offset="62%"></stop>
            <stop stop-color="#8BABED" offset="88%"></stop>
            <stop stop-color="#779DEA" offset="100%"></stop>
        </linearGradient>
        <linearGradient x1="5.92918549%" y1="58.1857833%" x2="102.901064%" y2="46.2896159%" id="linearGradient-5">
            <stop stop-color="#4E54C8" offset="0%"></stop>
            <stop stop-color="#8F94FB" offset="100%"></stop>
        </linearGradient>
        <linearGradient x1="42.6396809%" y1="58.9295361%" x2="66.3306388%" y2="33.0738717%" id="linearGradient-6">
            <stop stop-color="#4E54C8" offset="0%"></stop>
            <stop stop-color="#8F94FB" offset="100%"></stop>
        </linearGradient>
        <linearGradient x1="23.8650797%" y1="66.9749288%" x2="57.2469843%" y2="35.5982313%" id="linearGradient-7">
            <stop stop-color="#DDE6FA" offset="0%"></stop>
            <stop stop-color="#D8E2F9" offset="17%"></stop>
            <stop stop-color="#C8D7F7" offset="39%"></stop>
            <stop stop-color="#AFC5F3" offset="62%"></stop>
            <stop stop-color="#8BABED" offset="88%"></stop>
            <stop stop-color="#779DEA" offset="100%"></stop>
        </linearGradient>
        <linearGradient x1="83.3840684%" y1="87.8233239%" x2="18.6991216%" y2="12.6992936%" id="linearGradient-8">
            <stop stop-color="#4E54C8" offset="0%"></stop>
            <stop stop-color="#8F94FB" offset="100%"></stop>
        </linearGradient>
        <linearGradient x1="61.8529269%" y1="76.681638%" x2="61.8529269%" y2="-22.6155878%" id="linearGradient-9">
            <stop stop-color="#4E54C8" offset="0%"></stop>
            <stop stop-color="#8F94FB" offset="100%"></stop>
        </linearGradient>
        <linearGradient x1="1.32761232%" y1="54.3004602%" x2="102.048622%" y2="47.071067%" id="linearGradient-10">
            <stop stop-color="#366FE0" offset="0%"></stop>
            <stop stop-color="#94CBFF" offset="70%"></stop>
            <stop stop-color="#94CBFF" offset="100%"></stop>
        </linearGradient>
        <linearGradient x1="51.6373802%" y1="-177.632986%" x2="150.678914%" y2="-177.632986%" id="linearGradient-11">
            <stop stop-color="#4E54C8" offset="0%"></stop>
            <stop stop-color="#8F94FB" offset="100%"></stop>
        </linearGradient>
        <linearGradient x1="60.7323031%" y1="95.493729%" x2="39.2905026%" y2="-1.14011599%" id="linearGradient-12">
            <stop stop-color="#4E54C8" offset="0%"></stop>
            <stop stop-color="#555ACD" offset="22%"></stop>
            <stop stop-color="#676DDC" offset="53%"></stop>
            <stop stop-color="#858AF3" offset="90%"></stop>
            <stop stop-color="#8F94FB" offset="100%"></stop>
        </linearGradient>
        <linearGradient x1="-0.839410081%" y1="51.6180127%" x2="100.942739%" y2="48.9798373%" id="linearGradient-13">
            <stop stop-color="#779DEA" offset="0%"></stop>
            <stop stop-color="#8BABED" offset="12%"></stop>
            <stop stop-color="#AFC5F3" offset="38%"></stop>
            <stop stop-color="#C8D7F7" offset="61%"></stop>
            <stop stop-color="#D8E2F9" offset="83%"></stop>
            <stop stop-color="#DDE6FA" offset="100%"></stop>
        </linearGradient>
        <linearGradient x1="-0.997536543%" y1="51.2218123%" x2="101.009562%" y2="48.775609%" id="linearGradient-14">
            <stop stop-color="#123597" offset="0%"></stop>
            <stop stop-color="#1B43A9" offset="16%"></stop>
            <stop stop-color="#2F63D1" offset="55%"></stop>
            <stop stop-color="#366FE0" offset="75%"></stop>
            <stop stop-color="#366FE0" offset="100%"></stop>
        </linearGradient>
        <linearGradient x1="3.20621275%" y1="54.6232291%" x2="100.924182%" y2="43.3525772%" id="linearGradient-15">
            <stop stop-color="#DDE6FA" offset="0%"></stop>
            <stop stop-color="#D8E2F9" offset="17%"></stop>
            <stop stop-color="#C8D7F7" offset="39%"></stop>
            <stop stop-color="#AFC5F3" offset="62%"></stop>
            <stop stop-color="#8BABED" offset="88%"></stop>
            <stop stop-color="#779DEA" offset="100%"></stop>
        </linearGradient>
        <linearGradient x1="5.03275242%" y1="55.0593367%" x2="95.2943965%" y2="48.2144724%" id="linearGradient-16">
            <stop stop-color="#123597" offset="0%"></stop>
            <stop stop-color="#1B43A9" offset="16%"></stop>
            <stop stop-color="#2F63D1" offset="55%"></stop>
            <stop stop-color="#366FE0" offset="75%"></stop>
            <stop stop-color="#366FE0" offset="100%"></stop>
        </linearGradient>
        <linearGradient x1="6.76193625%" y1="54.8373633%" x2="93.3468482%" y2="46.1970293%" id="linearGradient-17">
            <stop stop-color="#123597" offset="0%"></stop>
            <stop stop-color="#1B43A9" offset="16%"></stop>
            <stop stop-color="#2F63D1" offset="55%"></stop>
            <stop stop-color="#366FE0" offset="75%"></stop>
            <stop stop-color="#366FE0" offset="100%"></stop>
        </linearGradient>
        <linearGradient x1="34.1658598%" y1="66.1747604%" x2="63.6802906%" y2="41.0859173%" id="linearGradient-18">
            <stop stop-color="#FB9F02" offset="0%"></stop>
            <stop stop-color="#FB9F02" offset="32%"></stop>
            <stop stop-color="#FC4C5C" offset="100%"></stop>
        </linearGradient>
        <linearGradient x1="-201.224168%" y1="44.4253873%" x2="-102.887166%" y2="44.4253873%" id="linearGradient-19">
            <stop stop-color="#FB9F02" offset="0%"></stop>
            <stop stop-color="#FB9F02" offset="32%"></stop>
            <stop stop-color="#FC4C5C" offset="100%"></stop>
        </linearGradient>
        <linearGradient x1="27.3893662%" y1="69.0669248%" x2="73.8660829%" y2="20.7855898%" id="linearGradient-20">
            <stop stop-color="#123597" offset="0%"></stop>
            <stop stop-color="#1B43A9" offset="16%"></stop>
            <stop stop-color="#2F63D1" offset="55%"></stop>
            <stop stop-color="#366FE0" offset="75%"></stop>
            <stop stop-color="#366FE0" offset="100%"></stop>
        </linearGradient>
        <linearGradient x1="20.1972986%" y1="52.3650998%" x2="79.8075992%" y2="47.6524977%" id="linearGradient-21">
            <stop stop-color="#FFFFFF" offset="0%"></stop>
            <stop stop-color="#F8FEFC" offset="12%"></stop>
            <stop stop-color="#E5FCF2" offset="30%"></stop>
            <stop stop-color="#C5F8E2" offset="51%"></stop>
            <stop stop-color="#99F3CC" offset="75%"></stop>
            <stop stop-color="#64EDB2" offset="100%"></stop>
        </linearGradient>
        <linearGradient x1="-1.16081666%" y1="51.8280746%" x2="101.14467%" y2="47.9806936%" id="linearGradient-22">
            <stop stop-color="#94CBFF" offset="0%"></stop>
            <stop stop-color="#94CBFF" offset="30%"></stop>
            <stop stop-color="#366FE0" offset="100%"></stop>
        </linearGradient>
        <linearGradient x1="-0.254907226%" y1="52.7413677%" x2="100.271393%" y2="47.2681493%" id="linearGradient-23">
            <stop stop-color="#4E54C8" offset="0%"></stop>
            <stop stop-color="#8F94FB" offset="100%"></stop>
        </linearGradient>
        <linearGradient x1="-3.25622578%" y1="53.7261716%" x2="100.353411%" y2="44.703669%" id="linearGradient-24">
            <stop stop-color="#DDE6FA" offset="0%"></stop>
            <stop stop-color="#D8E2F9" offset="17%"></stop>
            <stop stop-color="#C8D7F7" offset="39%"></stop>
            <stop stop-color="#AFC5F3" offset="62%"></stop>
            <stop stop-color="#8BABED" offset="88%"></stop>
            <stop stop-color="#779DEA" offset="100%"></stop>
        </linearGradient>
        <linearGradient x1="2.4700565%" y1="57.2126724%" x2="97.33258%" y2="46.3119644%" id="linearGradient-25">
            <stop stop-color="#DDE6FA" offset="0%"></stop>
            <stop stop-color="#D8E2F9" offset="17%"></stop>
            <stop stop-color="#C8D7F7" offset="39%"></stop>
            <stop stop-color="#AFC5F3" offset="62%"></stop>
            <stop stop-color="#8BABED" offset="88%"></stop>
            <stop stop-color="#779DEA" offset="100%"></stop>
        </linearGradient>
        <linearGradient x1="29.2807536%" y1="67.6340318%" x2="75.2063047%" y2="27.0479789%" id="linearGradient-26">
            <stop stop-color="#123597" offset="0%"></stop>
            <stop stop-color="#1B43A9" offset="16%"></stop>
            <stop stop-color="#2F63D1" offset="55%"></stop>
            <stop stop-color="#366FE0" offset="75%"></stop>
            <stop stop-color="#366FE0" offset="100%"></stop>
        </linearGradient>
        <linearGradient x1="10.5087625%" y1="69.6629419%" x2="59.7403617%" y2="32.2418662%" id="linearGradient-27">
            <stop stop-color="#DDE6FA" offset="0%"></stop>
            <stop stop-color="#D8E2F9" offset="17%"></stop>
            <stop stop-color="#C8D7F7" offset="39%"></stop>
            <stop stop-color="#AFC5F3" offset="62%"></stop>
            <stop stop-color="#8BABED" offset="88%"></stop>
            <stop stop-color="#779DEA" offset="100%"></stop>
        </linearGradient>
        <linearGradient x1="22.9980852%" y1="54.3834526%" x2="80.9589521%" y2="36.4072306%" id="linearGradient-28">
            <stop stop-color="#123597" offset="0%"></stop>
            <stop stop-color="#1B43A9" offset="16%"></stop>
            <stop stop-color="#2F63D1" offset="55%"></stop>
            <stop stop-color="#366FE0" offset="75%"></stop>
            <stop stop-color="#366FE0" offset="100%"></stop>
        </linearGradient>
        <linearGradient x1="34.398349%" y1="52.0920025%" x2="60.6333831%" y2="33.1072105%" id="linearGradient-29">
            <stop stop-color="#123597" offset="0%"></stop>
            <stop stop-color="#1B43A9" offset="16%"></stop>
            <stop stop-color="#2F63D1" offset="55%"></stop>
            <stop stop-color="#366FE0" offset="75%"></stop>
            <stop stop-color="#366FE0" offset="100%"></stop>
        </linearGradient>
        <linearGradient x1="53.211931%" y1="100.825493%" x2="48.726325%" y2="2.06050499%" id="linearGradient-30">
            <stop stop-color="#123597" offset="0%"></stop>
            <stop stop-color="#1B43A9" offset="16%"></stop>
            <stop stop-color="#2F63D1" offset="55%"></stop>
            <stop stop-color="#366FE0" offset="75%"></stop>
            <stop stop-color="#366FE0" offset="100%"></stop>
        </linearGradient>
        <linearGradient x1="1.01252973e-13%" y1="50%" x2="100.017813%" y2="50%" id="linearGradient-31">
            <stop stop-color="#779DEA" offset="0%"></stop>
            <stop stop-color="#8BABED" offset="12%"></stop>
            <stop stop-color="#AFC5F3" offset="38%"></stop>
            <stop stop-color="#C8D7F7" offset="61%"></stop>
            <stop stop-color="#D8E2F9" offset="83%"></stop>
            <stop stop-color="#DDE6FA" offset="100%"></stop>
        </linearGradient>
        <linearGradient x1="-0.0054591999%" y1="49.9729608%" x2="99.9577018%" y2="49.9729608%" id="linearGradient-32">
            <stop stop-color="#64EDB2" offset="0%"></stop>
            <stop stop-color="#99F3CC" offset="25%"></stop>
            <stop stop-color="#C5F8E2" offset="49%"></stop>
            <stop stop-color="#E5FCF2" offset="70%"></stop>
            <stop stop-color="#F8FEFC" offset="88%"></stop>
            <stop stop-color="#FFFFFF" offset="100%"></stop>
        </linearGradient>
        <linearGradient x1="99.8892753%" y1="37.518933%" x2="-3.24837163%" y2="57.2879568%" id="linearGradient-33">
            <stop stop-color="#2A5BC7" offset="0%"></stop>
            <stop stop-color="#2452BC" offset="13%"></stop>
            <stop stop-color="#1A42A7" offset="42%"></stop>
            <stop stop-color="#14389B" offset="71%"></stop>
            <stop stop-color="#123597" offset="100%"></stop>
        </linearGradient>
        <linearGradient x1="103.361969%" y1="39.0377358%" x2="-4.89197452%" y2="56.0946515%" id="linearGradient-34">
            <stop stop-color="#366FE0" offset="0%"></stop>
            <stop stop-color="#94CBFF" offset="70%"></stop>
            <stop stop-color="#94CBFF" offset="100%"></stop>
        </linearGradient>
        <linearGradient x1="102.168898%" y1="36.3138373%" x2="-5.37181902%" y2="53.4861558%" id="linearGradient-35">
            <stop stop-color="#366FE0" offset="0%"></stop>
            <stop stop-color="#94CBFF" offset="70%"></stop>
            <stop stop-color="#94CBFF" offset="100%"></stop>
        </linearGradient>
        <linearGradient x1="99.6085573%" y1="45.6174811%" x2="-0.69062673%" y2="53.1903724%" id="linearGradient-36">
            <stop stop-color="#366FE0" offset="0%"></stop>
            <stop stop-color="#94CBFF" offset="70%"></stop>
            <stop stop-color="#94CBFF" offset="100%"></stop>
        </linearGradient>
        <linearGradient x1="93.8033331%" y1="40.22242%" x2="-3.94532792%" y2="47.7662209%" id="linearGradient-37">
            <stop stop-color="#366FE0" offset="0%"></stop>
            <stop stop-color="#94CBFF" offset="70%"></stop>
            <stop stop-color="#94CBFF" offset="100%"></stop>
        </linearGradient>
        <linearGradient x1="52.9672974%" y1="27.2791622%" x2="45.1460968%" y2="35.0253005%" id="linearGradient-38">
            <stop stop-color="#366FE0" offset="0%"></stop>
            <stop stop-color="#94CBFF" offset="70%"></stop>
            <stop stop-color="#94CBFF" offset="100%"></stop>
        </linearGradient>
        <linearGradient x1="54.8649293%" y1="5.29712392%" x2="35.8295304%" y2="15.4775291%" id="linearGradient-39">
            <stop stop-color="#366FE0" offset="0%"></stop>
            <stop stop-color="#94CBFF" offset="70%"></stop>
            <stop stop-color="#94CBFF" offset="100%"></stop>
        </linearGradient>
        <linearGradient x1="18.3944444%" y1="-74.3388889%" x2="17.4244444%" y2="-74.0988889%" id="linearGradient-40">
            <stop stop-color="#366FE0" offset="0%"></stop>
            <stop stop-color="#94CBFF" offset="70%"></stop>
            <stop stop-color="#94CBFF" offset="100%"></stop>
        </linearGradient>
        <linearGradient x1="62.9018765%" y1="-23.4819292%" x2="12.0088251%" y2="-7.18878293%" id="linearGradient-41">
            <stop stop-color="#366FE0" offset="0%"></stop>
            <stop stop-color="#94CBFF" offset="70%"></stop>
            <stop stop-color="#94CBFF" offset="100%"></stop>
        </linearGradient>
        <linearGradient x1="18.06%" y1="-72.47%" x2="17.09%" y2="-72.23%" id="linearGradient-42">
            <stop stop-color="#366FE0" offset="0%"></stop>
            <stop stop-color="#94CBFF" offset="70%"></stop>
            <stop stop-color="#94CBFF" offset="100%"></stop>
        </linearGradient>
        <linearGradient x1="38.7016726%" y1="15.0808436%" x2="61.2431095%" y2="83.440803%" id="linearGradient-43">
            <stop stop-color="#9CB7F0" offset="0%"></stop>
            <stop stop-color="#9FB9F1" offset="3%"></stop>
            <stop stop-color="#BACDF5" offset="26%"></stop>
            <stop stop-color="#CEDBF8" offset="50%"></stop>
            <stop stop-color="#D9E3F9" offset="75%"></stop>
            <stop stop-color="#DDE6FA" offset="100%"></stop>
        </linearGradient>
    </defs>
    <g id="Page-1" stroke="none" stroke-width="1" fill="none" fill-rule="evenodd">
        <g id="Project4" transform="translate(-149.000000, -6868.000000)">
            <g id="01_HEADER_BLOGGER" transform="translate(149.000000, 6868.000000)">
                <path d="M285.364797,104.349599 C293.337117,122.061024 310.640273,133.740514 330.047996,134.510398 C360.071996,135.727198 397.367995,144.035998 397.490754,177.782398 C397.706395,234.295197 300.225597,434.102395 161.164798,405.878395 C22.1039997,377.654396 83.872799,271.238397 99.7919988,247.845597 C115.711199,224.452797 4.42799995,209.447998 50.3999994,155.728798 C92.0735989,107.056799 248.126397,20.8799998 285.364797,104.349599 Z" id="Path" fill="url(#linearGradient-1)" fill-rule="nonzero"></path>
                <path d="M180.619198,225.575997 C180.619198,225.575997 239.551197,212.695198 268.797597,233.999997 C298.043997,255.304797 347.997596,246.124797 383.176796,180.122398 L362.635196,175.996798 L427.773595,119.879999 L434.469595,188.143198 L413.647195,183.333598 C365.039996,274.629597 272.159997,294.393597 231.681597,264.916797 C191.203198,235.439997 145.756798,257.421597 145.756798,257.421597 L180.619198,225.575997 Z" id="Path" fill="#FFFFFF" fill-rule="nonzero"></path>
                <path d="M139.255198,122.270399 L108.863999,145.598398 L117.093599,163.677598 L161.819998,261.921597 C161.823047,261.933403 161.823047,261.945791 161.819998,261.957597 L147.059998,267.933597 C143.973367,269.185341 140.515731,269.158691 137.448761,267.859516 C134.381791,266.560342 131.957094,264.095225 130.708798,261.007197 L91.7711989,164.527198 C87.5242565,153.973337 91.775429,141.907282 101.699999,136.346398 L144.122398,112.643999 L147.002398,118.187999 L139.255198,122.270399 Z" id="Path" fill="url(#linearGradient-2)" fill-rule="nonzero"></path>
                <path d="M161.834398,261.957597 L147.074398,267.933597 C143.987767,269.185341 140.530131,269.158691 137.463161,267.859516 C134.396191,266.560342 131.971494,264.095225 130.723198,261.007197 L91.7855989,164.527198 C90.0824186,160.296756 89.710665,155.647324 90.7199989,151.199998 C93.9566307,148.644306 97.7891659,146.952243 101.858399,146.282398 C105.263999,145.670398 110.779199,152.762398 117.122399,163.691998 C135.611998,195.559198 161.128798,260.099997 161.848798,261.935997 C161.845346,261.94401 161.840467,261.951329 161.834398,261.957597 L161.834398,261.957597 Z" id="Path" fill="url(#linearGradient-3)" fill-rule="nonzero"></path>
                <path d="M173.059198,122.039999 C166.636798,125.575199 141.040798,122.039999 141.040798,122.039999 L142.084798,104.399999 L143.755198,107.027999 L167.515198,112.103999 L170.783998,117.957599 L171.655198,119.519999 L172.483198,121.003199 L173.059198,122.039999 Z" id="Path" fill="#F0BEB4" fill-rule="nonzero"></path>
                <path d="M171.655198,119.519999 C163.411198,122.471999 146.779198,114.753599 143.805598,107.380799 C143.780324,107.264566 143.76348,107.146659 143.755198,107.027999 L167.515198,112.103999 L170.783998,117.957599 L171.655198,119.519999 Z" id="Path" fill="#B48F87" fill-rule="nonzero"></path>
                <path d="M166.478398,72.9071992 C166.478398,72.9071992 151.415998,71.1143992 145.929598,75.7223991 L142.329598,80.1647991 C142.329598,80.1647991 134.517598,84.131999 135.467998,86.867999 C135.467998,86.867999 130.643998,97.2575989 135.799198,100.231199 C137.807998,103.363199 142.624798,107.431199 142.624798,107.431199 C145.569598,112.363199 156.023998,115.948799 162.518398,115.271999 C169.012798,114.595199 170.834398,108.712799 172.159198,99.8207988 C173.483998,90.9287989 166.478398,72.9071992 166.478398,72.9071992 Z" id="Path" fill="#F0BEB4" fill-rule="nonzero"></path>
                <path d="M307.475996,70.5599992 L299.102397,78.7319991 C301.939197,80.0639991 302.659196,80.8199991 303.847196,84.023999 C303.984067,84.5132053 304.087506,85.0111544 304.156796,85.514399 C305.380796,91.2167989 300.923997,95.9183989 300.923997,95.9183989 C300.061192,97.118276 298.749733,97.918136 297.287997,98.1359989 L293.925597,98.6255989 L280.648797,113.356799 L280.180797,113.889599 L278.114397,116.179199 L265.550397,102.556799 C266.126397,102.139199 266.990397,101.447999 268.106397,100.555199 L268.653597,100.115999 C272.440797,97.0127989 278.359197,91.9655989 283.247997,87.767999 L283.845597,87.249599 C288.259197,83.447999 291.707997,80.4527991 291.707997,80.4527991 C291.707997,80.4527991 292.247997,79.9631991 293.147997,79.1711991 L293.147997,79.1711991 L293.680797,78.6887991 C296.791197,75.9167991 302.745596,70.6031992 305.330396,68.2775992 C305.656077,67.9872739 306.087903,67.845606 306.522273,67.8865843 C306.956643,67.9275626 307.354357,68.147489 307.619996,68.4935992 C308.104431,69.1188057 308.042465,70.0080264 307.475996,70.5599992 Z" id="Path" fill="url(#linearGradient-4)" fill-rule="nonzero"></path>
                <polygon id="Path" fill="#64EDFF" fill-rule="nonzero" points="280.648797 113.342399 280.180797 113.875199 268.106397 100.540799 268.653597 100.101599"></polygon>
                <path d="M295.408797,82.943999 C295.025074,82.5244167 294.878869,81.939594 295.019997,81.3887991 C295.123366,80.3034511 294.604996,79.2527764 293.680797,78.6743991 L293.147997,79.1567991 C293.93619,79.5763238 294.3959,80.4276383 294.314397,81.3167991 C294.15813,82.0625268 294.366727,82.8380776 294.875997,83.404799 C295.13388,83.639301 295.222368,84.0075259 295.099197,84.333599 C294.904797,85.053599 288.928797,87.307199 285.155997,87.371999 C284.71525,87.3915552 284.273974,87.3479125 283.845597,87.242399 L283.247997,87.760799 C283.931299,88.0410933 284.673471,88.1474713 285.407997,88.070399 L285.616797,88.070399 C288.971997,87.861599 295.473597,85.910399 295.775997,84.470399 C295.951465,83.9330733 295.809449,83.3427297 295.408797,82.943999 L295.408797,82.943999 Z" id="Path" fill="#999999" fill-rule="nonzero"></path>
                <path d="M279.835197,114.199199 L255.304797,147.880798 L255.074397,148.197598 L254.887197,148.442398 L251.287197,153.395998 L251.099997,153.647998 C248.271855,157.151294 244.010381,159.186744 239.507998,159.1848 L238.593597,159.1848 C236.750397,159.1848 234.662397,159.112798 232.415997,158.997598 L232.163997,158.997598 C232.019997,158.997598 231.875997,158.997598 231.731997,158.997598 C229.809597,158.889598 227.793597,158.723998 225.719997,158.493598 C213.638398,157.147198 204.199198,155.987998 204.199198,155.987998 L181.007998,119.743199 C181.007998,119.743199 190.317598,119.973599 211.147198,125.114399 C224.827197,128.491199 238.096797,133.199998 238.096797,133.199998 L265.377597,102.607199 L279.835197,114.199199 Z" id="Path" fill="url(#linearGradient-5)" fill-rule="nonzero"></path>
                <path d="M239.637597,144.662398 C236.914012,145.252668 234.095583,145.252668 231.371997,144.662398 L199.907998,137.879998 C199.772447,137.866755 199.656626,137.776671 199.610424,137.648551 C199.564222,137.52043 199.595893,137.377159 199.691793,137.280451 C199.787694,137.183743 199.930695,137.150872 200.059198,137.195998 L231.523197,143.978398 C238.432265,145.481724 245.601138,142.987357 250.084797,137.519998 L273.506397,109.123199 C273.676767,109.283278 273.85713,109.432378 274.046397,109.569599 L250.624797,137.966398 C247.822949,141.374308 243.950679,143.734211 239.637597,144.662398 Z" id="Path" fill="#64EDFF" fill-rule="nonzero"></path>
                <path d="M276.695997,278.589597 C276.832931,279.438129 276.919482,280.294028 276.955197,281.152797 L277.163997,285.587997 L277.163997,285.919197 L277.163997,286.293597 L280.663197,361.051196 C280.663197,361.051196 269.229597,370.706396 256.147197,363.211196 L234.928797,292.319997 L180.035998,230.075997 C180.035998,230.075997 187.293598,211.111198 204.263998,212.795998 L260.459997,257.594397 L260.639997,257.731197 L261.014397,258.026397 L266.327997,262.267197 L268.005597,263.599197 C272.680618,267.328634 275.78263,272.679412 276.695997,278.589597 L276.695997,278.589597 Z" id="Path" fill="url(#linearGradient-6)" fill-rule="nonzero"></path>
                <rect id="Rectangle" fill="#64EDFF" fill-rule="nonzero" transform="translate(264.634715, 341.439074) rotate(-8.300000) translate(-264.634715, -341.439074) " x="264.285515" y="316.624274" width="1" height="49.6295994"></rect>
                <path d="M277.199997,285.587997 L277.199997,285.919197 L277.199997,286.293597 C270.467997,287.207997 263.519997,284.349597 259.739997,279.057597 C255.311997,272.836797 255.628797,263.894397 260.459997,257.623197 L260.639997,257.759997 L261.014397,258.055197 C256.370397,264.081597 256.053597,272.685597 260.294397,278.647197 C263.944797,283.751997 270.669597,286.502397 277.199997,285.587997 Z" id="Path" fill="#64EDFF" fill-rule="nonzero"></path>
                <path d="M276.695997,278.589597 C272.446318,279.649014 267.995324,277.871793 265.644054,274.176707 C263.292784,270.48162 263.568231,265.696853 266.327997,262.295997 L268.005597,263.627997 C272.674425,267.350401 275.775804,272.689809 276.695997,278.589597 Z" id="Path" fill="url(#linearGradient-7)" fill-rule="nonzero"></path>
                <path d="M287.135997,290.498397 C288.094476,292.311461 288.933853,294.185026 289.648797,296.107197 L289.994397,297.028797 L290.131197,297.388797 L290.246397,297.705597 L306.719996,341.690396 C295.732797,352.663196 285.724797,353.253596 280.022397,352.303196 C275.342397,343.151996 263.339997,323.164796 258.868797,318.823196 C253.663197,313.783197 258.501597,306.583196 216.388797,300.823197 C178.646398,295.617597 151.797598,254.851197 151.797598,254.851197 L166.543198,230.263197 L188.863198,223.783197 L267.458397,270.791997 L267.674397,270.914397 L268.070397,271.151997 L269.647197,272.095197 C271.140252,272.973128 272.582547,273.934658 273.967197,274.975197 C279.432289,279.131582 283.926118,284.428846 287.135997,290.498397 Z" id="Path" fill="url(#linearGradient-8)" fill-rule="nonzero"></path>
                <path d="M222.832797,222.206397 C223.963197,228.081597 224.733597,235.713597 224.733597,235.713597 L155.354398,259.286397 L151.754398,254.836797 C143.671087,244.776007 137.300205,233.452428 132.897598,221.320797 L105.674399,146.239198 L130.370398,126.266399 L184.463998,123.026399 C184.463998,123.026399 193.867198,125.373599 201.023998,139.442398 C206.639998,150.479998 218.714397,200.793598 222.832797,222.206397 Z" id="Path" fill="url(#linearGradient-9)" fill-rule="nonzero"></path>
                <path d="M166.413598,129.859198 C166.413598,129.859198 206.380798,213.379198 200.066398,240.292797" id="Path" stroke="#64EDFF" stroke-width="0.698399992"></path>
                <path d="M145.216798,245.807997 C145.216798,245.807997 206.855998,235.072797 223.387197,224.344797" id="Path" stroke="#808080" stroke-width="0.698399992" stroke-linecap="round"></path>
                <path d="M202.687198,267.623997 L201.671998,267.343197 C201.513598,267.299997 184.139998,272.455197 168.609598,252.943197 L169.156798,252.503997 C182.260798,268.984797 197.474398,267.868797 200.973598,266.824797 C191.131198,253.295997 185.990398,243.669597 185.954398,243.475197 L186.674398,243.345597 C186.674398,243.539997 191.836798,253.382397 202.082398,266.810397 L202.687198,267.623997 Z" id="Path" fill="#64EDFF" fill-rule="nonzero"></path>
                <path d="M225.100797,226.843197 C211.175998,231.393597 172.742398,243.453597 148.334398,246.283197 C146.761394,246.478232 145.383221,247.430271 144.644103,248.832442 C143.904985,250.234613 143.898373,251.909634 144.626398,253.317597 L144.763198,253.583997 C145.694796,255.45799 147.736962,256.508247 149.803198,256.175997 C161.935198,254.123997 203.198398,246.664797 228.419997,236.015997 C230.493268,235.135752 231.686623,232.942962 231.299997,230.723997 L231.299997,230.723997 C231.095357,229.331303 230.289996,228.098514 229.096857,227.35159 C227.903719,226.604666 226.442953,226.418822 225.100797,226.843197 Z" id="Path" fill="url(#linearGradient-10)" fill-rule="nonzero"></path>
                <path d="M184.463998,123.026399 C183.74809,123.587628 182.995186,124.099988 182.210398,124.559999 L181.763998,124.826399 C179.416866,126.162214 176.936094,127.248155 174.362398,128.066399 C174.211198,128.109599 174.052798,128.159999 173.901598,128.217599 C171.067709,129.087499 168.157986,129.687765 165.211198,130.010398 L164.707198,130.060798 C161.980049,130.333621 159.23595,130.396206 156.499198,130.247998 L156.398398,130.247998 L155.973598,130.247998 C153.287998,130.103998 150.832798,129.909598 148.600798,129.686398 L148.060798,129.628798 C145.317598,129.347999 142.927198,129.031199 140.860798,128.692799 L140.349598,128.620799 C137.851198,128.210399 135.856798,127.785599 134.330398,127.418399 C134.143198,127.382399 133.977598,127.339199 133.811998,127.295999 C132.649055,127.028147 131.502382,126.694002 130.377598,126.295199 L138.815998,118.173599 C139.723607,117.403941 141.000127,117.242964 142.070398,117.763199 L142.408798,117.928799 L142.941598,118.173599 C144.072069,118.679571 145.228022,119.126572 146.404798,119.512799 L146.908798,119.663999 C149.023049,120.330646 151.191191,120.812455 153.388798,121.103999 L153.935998,121.175999 C155.772909,121.396419 157.623211,121.485445 159.472798,121.442399 L159.998398,121.442399 L161.027998,121.399199 C162.813598,121.283999 164.399998,121.127999 165.787198,120.931199 L166.291198,120.859199 C167.73113,120.638564 169.156803,120.333235 170.560798,119.944799 L171.035998,119.807999 C172.226347,119.457645 173.373548,118.974613 174.455998,118.367999 C174.635998,118.267199 174.794398,118.166399 174.931198,118.079999 C175.071096,117.991939 175.205726,117.895775 175.334398,117.791999 C175.802901,117.446834 176.410636,117.352716 176.961598,117.539999 C179.006398,118.187999 182.879998,120.700799 184.463998,123.026399 Z" id="Path" fill="url(#linearGradient-11)" fill-rule="nonzero"></path>
                <path d="M140.248798,241.135197 C138.579858,243.665422 135.627138,245.038716 132.616798,244.684797 C131.724703,244.57214 130.941801,244.035906 130.514398,243.244797 C129.988798,242.099997 130.571998,240.631197 131.860798,239.414397 C133.246733,238.128596 135.018442,237.336389 136.900798,237.160797 C138.614398,237.016797 140.039998,237.535197 140.551198,238.643997 C140.867143,239.473485 140.754021,240.405389 140.248798,241.135197 L140.248798,241.135197 Z" id="Path" fill="#878787" fill-rule="nonzero"></path>
                <path d="M167.716798,226.288797 C167.824798,226.843197 170.099998,240.134397 157.701598,252.885597 C155.044798,255.614397 152.467198,256.895997 150.206398,257.378397 C148.741512,257.694724 147.22755,257.709423 145.756798,257.421597 C138.895198,256.046397 134.416798,248.407197 132.616798,244.684797 C132.148798,243.727197 131.896798,243.028797 131.759998,242.762397 C131.322939,241.686532 131.359534,240.476289 131.860798,239.428797 C133.246733,238.142996 135.018442,237.350789 136.900798,237.175197 C138.140399,237.531515 139.143653,238.444291 139.615198,239.644797 C139.802398,240.112797 140.032798,240.616797 140.284798,241.135197 C141.041179,242.650778 141.930249,244.096422 142.941598,245.455197 C144.381598,247.327197 145.958398,248.831997 147.441598,249.119997 C148.651198,249.364797 150.083998,248.644797 151.703998,246.959997 C160.948798,237.448797 159.487198,227.851197 159.479998,227.764797 C159.058494,225.480327 160.568727,223.286701 162.853198,222.865197 C165.137669,222.443694 167.331294,223.953927 167.752798,226.238397 L167.716798,226.288797 Z" id="Path" fill="#FFFFFF" fill-rule="nonzero"></path>
                <path d="M198.899998,211.478398 L166.031998,228.002397 L165.736798,228.153597 L165.326398,228.355197 L160.444798,230.810397 L158.486398,231.796797 C151.299938,235.420689 142.538313,233.0793 138.117598,226.353597 C137.901598,226.036797 137.692798,225.705597 137.469598,225.374397 L137.239198,225.021597 L137.001598,224.668797 C126.921599,209.354398 111.326399,184.953598 106.480799,173.735998 C102.628799,164.829598 101.606399,158.615998 102.095999,154.115998 C102.530012,150.044182 104.677046,146.349713 107.999999,143.956798 L108.583199,143.531998 C109.130399,143.171998 109.655999,142.855198 110.159999,142.588798 C116.337599,139.269598 120.959999,138.715198 126.395999,142.660798 C128.606399,144.259198 130.874398,146.721598 133.293598,150.271198 C139.888798,159.962398 155.066398,200.577598 155.066398,200.577598 L189.734398,192.275998 L194.320798,201.916798 L194.471998,202.233598 L198.899998,211.478398 Z" id="Path" fill="url(#linearGradient-12)" fill-rule="nonzero"></path>
                <polygon id="Path" fill="url(#linearGradient-13)" fill-rule="nonzero" points="313.163996 167.392798 310.003196 170.171998 283.730397 170.539198 210.059998 211.175998 201.931198 211.175998 202.795198 215.186398 237.981597 214.689598 318.916796 170.042398 318.059996 166.031998"></polygon>
                <polygon id="Path" fill="url(#linearGradient-14)" fill-rule="nonzero" points="318.059996 166.031998 237.124797 210.679198 201.931198 211.175998 282.866397 166.535998"></polygon>
                <polygon id="Path" stroke="#64EDFF" stroke-width="0.719999992" points="246.095997 199.310398 236.534397 204.595198 222.969597 204.767998 232.531197 199.490398"></polygon>
                <polygon id="Path" stroke="#64EDFF" stroke-width="0.719999992" points="263.051997 189.683998 253.490397 194.961598 239.925597 195.134398 249.487197 189.856798"></polygon>
                <polygon id="Path" stroke="#64EDFF" stroke-width="0.719999992" points="280.879197 180.244798 271.317597 185.522398 257.752797 185.695198 267.314397 180.417598"></polygon>
                <polygon id="Path" stroke="#64EDFF" stroke-width="0.719999992" points="298.331997 171.669598 288.763197 176.947198 275.198397 177.127198 284.759997 171.849598"></polygon>
                <path d="M251.639997,184.903198 L251.639997,184.939198 C251.385479,185.726227 250.601207,186.215637 249.782397,186.098398 C247.031997,185.695198 241.185597,184.903198 240.818397,184.852798 L251.467197,189.172798 C252.13108,189.439408 252.453356,190.193534 252.187197,190.857598 L252.187197,190.857598 C251.957318,191.458289 251.327342,191.805232 250.696797,191.678398 L237.167997,189.021598 L243.547197,196.466398 C244.005343,196.927391 244.172883,197.602965 243.983228,198.224611 C243.793574,198.846256 243.277452,199.313256 242.639997,199.439998 C242.092652,199.560236 241.520739,199.413248 241.099197,199.043998 L239.407197,197.546398 L240.127197,199.310398 C240.510679,200.294492 240.028432,201.403659 239.047197,201.794398 C238.950623,201.831088 238.852069,201.862337 238.751997,201.887998 C238.092988,202.026436 237.409271,201.813966 236.944797,201.326398 L235.965597,199.749598 C235.762136,199.422841 235.469982,199.160652 235.123197,198.993598 L230.954397,196.991998 C230.954397,196.991998 223.149597,201.088798 217.828797,200.210398 L202.168798,209.570398 L201.448798,210.009598 L198.957598,211.492798 L189.813598,192.290398 L192.196798,191.649598 L193.039198,191.419198 L216.122397,185.205598 L216.496797,185.011198 L216.914397,184.787998 L217.310397,184.571998 L227.109597,179.279998 L227.469597,179.078398 L227.757597,178.927198 L229.075197,178.207198 C229.689298,177.873622 230.40653,177.783646 231.083997,177.955198 L231.321597,178.012798 L250.459197,182.728798 C250.915767,182.842468 251.303617,183.142646 251.528153,183.55612 C251.752688,183.969594 251.793269,184.458356 251.639997,184.903198 L251.639997,184.903198 Z" id="Path" fill="url(#linearGradient-15)" fill-rule="nonzero"></path>
                <line x1="240.789597" y1="184.845598" x2="235.915197" y2="183.671998" id="Path"></line>
                <path d="M237.146397,189.043198 L236.390397,188.215198 C235.998575,187.777523 235.402749,187.582576 234.827997,187.703998 L233.265597,188.027998 L237.146397,189.043198 Z" id="Path" fill="url(#linearGradient-16)" fill-rule="nonzero"></path>
                <path d="M239.385597,197.553598 L235.267197,193.334398 C234.593923,192.642579 233.653314,192.27737 232.689597,192.333598 L228.153597,192.585598 L239.385597,197.553598 Z" id="Path" fill="url(#linearGradient-17)" fill-rule="nonzero"></path>
                <path d="M312.026396,339.883196 C312.761367,340.916916 313.314135,342.06872 313.660796,343.288796 C313.702626,343.456884 313.753093,343.622704 313.811996,343.785596 L325.864796,381.599996 L327.643196,387.201596 C327.994808,388.288518 328.625395,389.264189 329.471996,390.031195 L361.771196,419.119195 C362.258097,419.55987 362.706152,420.041649 363.110396,420.559195 C363.225596,420.703195 363.340796,420.861595 363.455996,421.019995 C365.942645,424.505927 366.307955,429.077831 364.406396,432.914395 C363.160411,435.429995 360.921819,437.312042 358.229588,438.107411 C355.537357,438.902781 352.6354,438.539414 350.222396,437.104795 L323.726396,422.906395 L314.366396,417.866395 C313.919989,417.64151 313.489396,417.386522 313.077596,417.103195 C312.106688,416.418625 311.24286,415.59362 310.514396,414.655195 C310.007517,414.00856 309.572929,413.308391 309.218396,412.567195 C308.563196,411.227995 307.519196,408.967195 306.287996,406.331995 C304.307996,402.062395 301.867197,396.770395 299.879997,392.687995 C293.983197,380.548796 287.229597,366.595196 285.839997,363.599996 C284.76641,361.282837 283.093599,359.294355 280.994397,357.839996 C279.217344,356.571513 278.324518,354.396823 278.697597,352.245596 L278.999997,350.409596 L278.999997,350.409596 C279.345597,351.093596 279.669597,351.727196 279.964797,352.295996 C285.667197,353.246396 295.675197,352.655996 306.662396,341.683196 L304.250396,335.239196 C307.374621,335.640806 310.191325,337.323004 312.026396,339.883196 L312.026396,339.883196 Z" id="Path" fill="url(#linearGradient-18)" fill-rule="nonzero"></path>
                <path d="M280.619997,359.596796 C286.077597,368.085596 287.510397,395.467195 287.877597,406.202395 C287.963997,408.916795 287.985597,410.565595 287.985597,410.565595 C305.654396,438.811195 308.145596,453.945595 306.539996,461.966395 C306.543365,461.99991 306.543365,462.033679 306.539996,462.067195 C306.008385,464.422669 304.128102,466.237124 301.755185,466.68449 C299.382268,467.131856 296.970385,466.126603 295.617597,464.126395 L276.451197,441.705595 L271.691997,436.139995 C269.210114,433.295351 267.307338,429.99362 266.090397,426.419995 C266.018397,426.189595 265.946397,425.966395 265.881597,425.699995 C265.515079,424.520707 265.228824,423.317956 265.024797,422.099995 C264.902397,421.379995 264.743997,420.170395 264.556797,418.715995 C264.031197,414.518395 263.332797,408.268795 262.821597,405.446395 C260.805597,394.315195 258.141597,380.671196 256.175997,374.831996 C252.575997,364.168796 255.045597,361.562396 255.045597,361.562396 L255.607197,361.202396 L256.197597,363.182396 C269.279997,370.655996 280.713597,361.022396 280.713597,361.022396 L280.619997,359.596796 Z" id="Path" fill="url(#linearGradient-19)" fill-rule="nonzero"></path>
                <path d="M281.519997,356.990396 C286.999197,365.522396 288.827997,391.276795 289.439997,404.899195 C289.533095,407.246985 287.947585,409.330798 285.659997,409.867195 C278.713352,411.614491 271.410994,411.329594 264.621597,409.046395 C262.873979,408.452679 261.584653,406.959487 261.251997,405.143995 C259.091997,393.371995 256.399197,379.943996 254.383197,373.953596 C252.367197,367.963196 252.079197,364.319996 252.266397,362.159996 C252.419692,360.560507 253.305032,359.122162 254.663997,358.264796 L254.663997,358.264796 L255.571197,361.295996 C270.093597,369.590396 281.599197,358.646396 281.599197,358.646396 L281.519997,356.990396 Z" id="Path" fill="url(#linearGradient-20)" fill-rule="nonzero"></path>
                <path d="M121.679999,132.479998 C121.679999,132.479998 145.101598,147.139198 172.663198,140.147998 C200.224798,133.156798 196.423198,132.112798 196.423198,132.112798" id="Path" stroke="#64EDFF" stroke-width="0.698399992"></path>
                <path d="M370.151996,6.73199992 L375.724796,97.0775989 C375.876081,99.5875228 374.543796,101.953525 372.319196,103.125599 L266.939997,158.565598 C265.018692,159.572695 262.718056,159.53815 260.827854,158.473821 C258.937653,157.409492 257.715146,155.460237 257.579997,153.295198 L251.999997,62.9639993 C251.839231,60.4406533 253.175639,58.0582375 255.412797,56.8799993 L360.784796,1.43999998 C362.70997,0.428400419 365.017082,0.463519756 366.910573,1.53324783 C368.804065,2.60297591 370.024861,4.56094838 370.151996,6.73199992 Z" id="Path" fill="url(#linearGradient-21)" fill-rule="nonzero" opacity="0.8"></path>
                <path d="M370.151996,6.73199992 L370.411196,10.9151999 L252.619197,72.8999992 L251.999997,62.9639993 C251.839231,60.4406533 253.175639,58.0582375 255.412797,56.8799993 L360.784796,1.43999998 C362.70997,0.428400419 365.017082,0.463519756 366.910573,1.53324783 C368.804065,2.60297591 370.024861,4.56094838 370.151996,6.73199992 Z" id="Path" fill="url(#linearGradient-22)" fill-rule="nonzero"></path>
                <path d="M302.716796,152.063998 L349.999196,127.209599 C351.502616,126.416898 352.401532,124.816321 352.295996,123.119999 L351.259196,106.343999 C351.166359,104.885773 350.342681,103.573303 349.06993,102.855564 C347.79718,102.137826 346.24787,102.112104 344.951996,102.787199 L297.669597,127.655999 C296.168659,128.447605 295.270168,130.04461 295.372797,131.738398 L296.409597,148.514398 C296.504715,149.971327 297.329303,151.281632 298.601674,151.997704 C299.874046,152.713776 301.42202,152.738714 302.716796,152.063998 L302.716796,152.063998 Z" id="Path" fill="url(#linearGradient-23)" fill-rule="nonzero" opacity="0.5"></path>
                <path d="M255.304797,147.880798 L255.074397,148.197598 L254.887197,148.442398 C251.586438,146.117771 247.488796,145.21987 243.518397,145.951198 C237.592797,147.218398 232.891197,152.783998 232.415997,159.004798 L232.163997,159.004798 C232.019997,159.004798 231.875997,159.004798 231.731997,159.004798 C232.207197,152.481598 237.139197,146.642398 243.367197,145.324798 C247.528426,144.516644 251.839286,145.439657 255.304797,147.880798 L255.304797,147.880798 Z" id="Path" fill="#64EDFF" fill-rule="nonzero"></path>
                <path d="M253.223997,152.323198 L252.928797,152.675998 C248.57703,157.513953 242.268795,160.121427 235.771197,159.767998 L234.453597,159.703198 C234.889392,155.481369 237.643407,151.855064 241.593337,150.302062 C245.543266,148.749059 250.029566,149.528673 253.223997,152.323198 L253.223997,152.323198 Z" id="Path" fill="url(#linearGradient-24)" fill-rule="nonzero"></path>
                <path d="M166.031998,228.002397 L165.736798,228.153597 L165.326398,228.355197 C162.640798,221.025597 154.907998,216.547197 147.520798,218.138397 C143.358105,219.148873 139.746716,221.728436 137.440798,225.338397 L137.210398,224.985597 L136.972798,224.632797 C139.382623,220.986194 143.080387,218.383873 147.326398,217.346397 C155.080798,215.726397 163.180798,220.363197 166.031998,228.002397 Z" id="Path" fill="#64EDFF" fill-rule="nonzero"></path>
                <path d="M160.444798,230.810397 L158.486398,231.796797 C152.89752,234.605689 146.180456,233.872816 141.328798,229.924797 C142.787054,225.758675 146.807382,223.044065 151.216617,223.248335 C155.625853,223.452604 159.377976,226.527294 160.444798,230.810397 L160.444798,230.810397 Z" id="Path" fill="url(#linearGradient-25)" fill-rule="nonzero"></path>
                <path d="M194.623198,202.564798 L165.499198,213.839998 C164.38176,214.275794 163.230777,214.620125 162.057598,214.869598 C151.674271,217.067742 141.122091,211.945786 136.425598,202.427998 L107.999999,143.956798 L108.583199,143.531998 L137.030398,202.125598 C142.166984,212.535325 154.377819,217.331103 165.225598,213.199198 L194.320798,201.916798 L194.320798,201.916798 L194.443198,202.247998 L194.623198,202.564798 Z" id="Path" fill="#64EDFF" fill-rule="nonzero"></path>
                <path d="M296.143197,349.509596 L295.538397,349.862396 L271.886397,309.110396 C267.916549,302.248237 261.983513,296.731466 254.851197,293.270397 L201.513598,267.263997 L201.815998,266.637597 L255.160797,292.629597 C262.417639,296.158358 268.454937,301.774449 272.498397,308.757596 L296.143197,349.509596 Z" id="Path" fill="#64EDFF" fill-rule="nonzero"></path>
                <path d="M312.710396,337.557596 C313.518415,338.684596 314.12275,339.944439 314.495996,341.279996 C314.546396,341.467196 314.603996,341.647196 314.661596,341.819996 L326.901596,380.239196 C327.486965,382.078996 326.897346,384.089967 325.411196,385.322396 C315.374396,393.623995 307.504796,395.539195 302.457596,395.582395 C300.651873,395.58043 299.007851,394.541364 298.231197,392.911195 C292.089597,380.231996 285.487197,366.580796 284.083197,363.513596 C282.905896,360.979215 281.074194,358.804535 278.776797,357.213596 C276.833813,355.825474 275.859523,353.445743 276.271197,351.093596 L276.602397,349.084796 L277.214397,346.924796 C277.595997,347.644796 278.697597,349.768796 279.021597,350.395196 C285.263997,351.431996 293.860797,351.755996 305.884796,339.753596 L303.249596,332.704796 C306.719996,333.187196 310.751996,334.799996 312.710396,337.557596 Z" id="Path" fill="url(#linearGradient-26)" fill-rule="nonzero"></path>
                <polygon id="Path" fill="#64EDFF" fill-rule="nonzero" points="202.125598 209.555998 201.391198 209.995198 192.139198 191.635198 192.981598 191.404798"></polygon>
                <path d="M289.994397,297.028797 L290.131197,297.388797 L290.246397,297.705597 C282.095997,302.903996 271.245597,301.010397 265.766397,293.327997 C261.007197,286.653597 261.755997,277.055997 267.458397,270.791997 L267.674397,270.914397 L268.070397,271.151997 C262.504797,277.185597 261.741597,286.473597 266.342397,292.924797 C271.533597,300.239997 282.239997,302.032796 289.994397,297.028797 Z" id="Path" fill="#64EDFF" fill-rule="nonzero"></path>
                <path d="M287.135997,290.498397 C286.834329,290.780687 286.51444,291.042852 286.178397,291.283197 C281.68302,294.663179 275.298779,293.758974 271.918797,289.263597 C268.538814,284.76822 269.44302,278.383979 273.938397,275.003997 C279.410714,279.148983 283.914337,284.436378 287.135997,290.498397 Z" id="Path" fill="url(#linearGradient-27)" fill-rule="nonzero"></path>
                <path d="M276.098397,439.091995 L276.429597,441.705595 L271.670397,436.139995 C269.188514,433.295351 267.285738,429.99362 266.068797,426.419995 C265.608199,425.025192 265.252016,423.598053 265.003197,422.150395 C264.880797,421.430395 264.722397,420.220795 264.535197,418.766395 L270.295197,425.721595 C273.468659,429.531574 275.482698,434.171862 276.098397,439.091995 L276.098397,439.091995 Z" id="Path" stroke="#64EDFF" stroke-width="0.698399992"></path>
                <path d="M322.487996,420.321595 L323.726396,422.913595 L314.366396,417.873595 C313.919989,417.64871 313.489396,417.393722 313.077596,417.110395 C311.428849,415.948484 310.101183,414.387981 309.218396,412.574395 C308.563196,411.235195 307.519196,408.974395 306.287996,406.339195 L313.804796,410.788795 C317.579535,413.036172 320.601722,416.354062 322.487996,420.321595 L322.487996,420.321595 Z" id="Path" stroke="#64EDFF" stroke-width="0.698399992"></path>
                <circle id="Oval" fill="#FFFFFF" fill-rule="nonzero" cx="362.397596" cy="8.5967999" r="1.93679998"></circle>
                <circle id="Oval" fill="#FFFFFF" fill-rule="nonzero" cx="354.376796" cy="12.7727999" r="1.93679998"></circle>
                <circle id="Oval" fill="#FFFFFF" fill-rule="nonzero" cx="346.291196" cy="17.1503998" r="1.93679998"></circle>
                <path d="M142.934398,118.144799 C138.880798,120.736799 136.195198,124.624799 134.575198,127.029599 L134.323198,127.389599 C134.135998,127.353599 133.970398,127.310399 133.804798,127.267199 C133.919998,127.094399 134.042398,126.928799 134.157598,126.748799 C135.770398,124.394399 138.419998,120.542399 142.401598,117.899999 L142.934398,118.144799 Z" id="Path" fill="#64EDFF" fill-rule="nonzero"></path>
                <path d="M146.879998,119.635199 L146.483998,120.160799 C143.834398,123.688799 142.444798,125.524799 140.831998,128.663999 L140.320798,128.591999 C141.976798,125.330399 143.380798,123.465599 146.080798,119.865599 L146.368798,119.483999 L146.879998,119.635199 Z" id="Path" fill="#64EDFF" fill-rule="nonzero"></path>
                <path d="M153.943198,121.139999 C153.403198,121.982399 152.891998,122.759999 152.423998,123.501599 C150.782398,126.043199 149.543998,128.001599 148.600798,129.657598 L148.060798,129.599998 C149.011198,127.893599 150.299998,125.877599 152.006398,123.227999 C152.438398,122.551199 152.906398,121.838399 153.395998,121.067999 L153.943198,121.139999 Z" id="Path" fill="#64EDFF" fill-rule="nonzero"></path>
                <path d="M160.005598,121.391999 C158.903998,124.559999 157.679998,127.439999 156.715198,129.736798 C156.650398,129.909598 156.571198,130.082398 156.499198,130.247998 L156.398398,130.247998 L155.973598,130.247998 L156.261598,129.571198 C157.226398,127.303199 158.421598,124.531199 159.479998,121.435199 L160.005598,121.391999 Z" id="Path" fill="#64EDFF" fill-rule="nonzero"></path>
                <path d="M166.319998,120.808799 C166.23107,123.902162 165.867237,126.981489 165.232798,130.010398 L164.728798,130.060798 C165.360776,127.038777 165.72459,123.96684 165.815998,120.880799 L166.319998,120.808799 Z" id="Path" fill="#64EDFF" fill-rule="nonzero"></path>
                <path d="M174.362398,128.066399 C174.211198,128.109599 174.052798,128.159999 173.901598,128.217599 C172.931493,125.388748 171.818871,122.610796 170.567998,119.894399 L171.043198,119.757599 C172.245598,122.399999 173.455198,125.423999 174.362398,128.066399 Z" id="Path" fill="#64EDFF" fill-rule="nonzero"></path>
                <path d="M182.210398,124.559999 L181.763998,124.826399 C179.653627,122.327574 177.194859,120.145236 174.463198,118.346399 C174.643198,118.245599 174.801598,118.144799 174.938398,118.058399 C177.660298,119.867393 180.109149,122.056811 182.210398,124.559999 L182.210398,124.559999 Z" id="Path" fill="#64EDFF" fill-rule="nonzero"></path>
                <polygon id="Path" fill="#64EDFF" fill-rule="nonzero" points="183.599998 127.346399 183.383998 127.303199 183.383998 127.303199"></polygon>
                <path d="M230.637597,190.439998 C230.052396,190.87636 229.918616,191.698154 230.335197,192.297598 C230.335197,192.347998 230.378397,192.398398 230.399997,192.463198 C230.590927,192.80814 230.590927,193.227056 230.399997,193.571998 C230.383203,193.600066 230.363926,193.626572 230.342397,193.651198 C230.217845,193.803275 230.063475,193.928241 229.888797,194.018398 C229.790366,194.07576 229.683427,194.117078 229.571997,194.140798 C228.851997,194.291998 228.038397,193.751998 227.030397,193.089598 C225.460797,192.067198 223.516797,190.792798 221.270397,191.613598 C220.191553,192.010012 218.9803,191.727009 218.188797,190.893598 C216.744756,189.296995 216.113125,187.126096 216.475197,185.003998 L216.892797,184.780798 L217.288797,184.564798 C216.75398,186.616666 217.274885,188.800149 218.678397,190.389598 C219.273065,191.042776 220.20552,191.268049 221.032797,190.958398 C223.631997,190.015198 225.835197,191.462398 227.440797,192.513598 C228.369597,193.118398 229.168797,193.643998 229.600797,193.413598 C229.669676,193.3806 229.732866,193.336853 229.787997,193.283998 C229.812521,193.268364 229.834396,193.24892 229.852797,193.226398 C229.946397,193.111198 229.924797,192.988798 229.766397,192.621598 L229.723197,192.506398 C229.226606,191.65288 229.432075,190.564204 230.205597,189.950398 C230.889597,189.273598 230.623197,188.906398 229.960797,188.128798 C229.406397,187.487998 228.715197,186.688798 229.240797,185.579998 C229.615197,184.780798 229.240797,184.341598 228.801597,183.736798 C228.126557,183.071286 227.833954,182.10949 228.023997,181.180798 C228.107569,180.443507 227.785171,179.718801 227.181597,179.287198 L227.541597,179.085598 L227.829597,178.934398 C228.527771,179.523486 228.859666,180.439625 228.700797,181.339198 C228.562912,182.061577 228.811171,182.803626 229.355997,183.297598 C229.859997,183.952798 230.435997,184.687198 229.874397,185.875198 C229.571997,186.523198 229.910397,186.983998 230.500797,187.667998 C231.091197,188.351998 231.839997,189.273598 230.637597,190.439998 Z" id="Path" fill="#64EDFF" fill-rule="nonzero"></path>
                <path d="M363.455996,421.027195 C365.942645,424.513127 366.307955,429.085031 364.406396,432.921595 C363.160411,435.437195 360.921819,437.319242 358.229588,438.114611 C355.537357,438.909981 352.6354,438.546614 350.222396,437.111995 L323.726396,422.913595 L314.366396,417.873595 C313.919989,417.64871 313.489396,417.393722 313.077596,417.110395 C312.106688,416.425825 311.24286,415.60082 310.514396,414.662395 C319.024796,418.694395 352.951196,437.702395 360.914396,431.301595 C364.845596,428.147995 364.615196,424.511995 363.139196,420.501595 C363.225596,420.710395 363.340796,420.868795 363.455996,421.027195 Z" id="Path" fill="url(#linearGradient-28)" fill-rule="nonzero"></path>
                <path d="M306.518396,462.067195 C305.986785,464.422669 304.106502,466.237124 301.733585,466.68449 C299.360668,467.131856 296.948785,466.126603 295.595997,464.126395 L276.429597,441.705595 L271.670397,436.139995 C269.188514,433.295351 267.285738,429.99362 266.068797,426.419995 C265.996797,426.189595 265.924797,425.966395 265.859997,425.699995 C272.591997,433.879195 292.319997,457.790395 296.560797,462.369595 C300.664797,466.833595 304.682396,464.335195 306.518396,462.067195 Z" id="Path" fill="url(#linearGradient-29)" fill-rule="nonzero"></path>
                <ellipse id="Oval" fill="#1B4736" fill-rule="nonzero" transform="translate(156.129257, 93.307965) rotate(-20.650000) translate(-156.129257, -93.307965) " cx="156.129257" cy="93.3079654" rx="1" ry="2.09519998"></ellipse>
                <ellipse id="Oval" fill="#1B4736" fill-rule="nonzero" transform="translate(166.347696, 89.232348) rotate(-20.650000) translate(-166.347696, -89.232348) " cx="166.347696" cy="89.2323482" rx="1" ry="1.71359998"></ellipse>
                <path d="M150.739198,91.4759989 L151.912798,89.546399 C152.359013,88.8227798 153.073409,88.3051015 153.899998,88.106399 L155.555998,87.688799 C155.985494,87.585865 156.420887,87.8351113 156.549598,88.257599 L156.549598,88.358399 C156.615365,88.5762428 156.588579,88.8115517 156.475534,89.0090407 C156.362488,89.2065298 156.173148,89.3487904 155.951998,89.402399 L154.000798,89.877599 C153.633961,89.9645251 153.285392,90.1156532 152.971198,90.323999 L150.904798,91.6919989 C150.84655,91.7113691 150.782427,91.6916853 150.745079,91.6429705 C150.707731,91.5942556 150.70537,91.5272206 150.739198,91.4759989 L150.739198,91.4759989 Z" id="Path" fill="#1B4736" fill-rule="nonzero"></path>
                <path d="M169.041598,83.426399 L166.550398,82.922399 C165.838628,82.7788836 165.09897,82.9211256 164.491198,83.318399 L162.914398,84.347999 C162.536592,84.5989404 162.419798,85.1008375 162.647998,85.492799 L162.647998,85.543199 C162.767089,85.7454502 162.963935,85.8899918 163.192565,85.9430664 C163.421194,85.996141 163.661586,85.9531013 163.857598,85.823999 L165.578398,84.671999 C165.846202,84.498433 166.140439,84.3695524 166.449598,84.290399 L169.012798,83.663999 C169.070252,83.6587566 169.116244,83.6141069 169.123186,83.556834 C169.130128,83.499561 169.096135,83.4452161 169.041598,83.426399 L169.041598,83.426399 Z" id="Path" fill="#1B4736" fill-rule="nonzero"></path>
                <path d="M162.503998,92.1599989 C162.503998,92.1599989 163.943998,95.5727989 165.959998,96.3503989 C167.975998,97.1279989 168.119998,99.3815988 166.341598,100.036799" id="Path" stroke="#FFFFFF" stroke-width="0.719999992"></path>
                <path d="M157.370398,104.147999 C160.579095,104.587921 163.847064,104.165446 166.838398,102.923999 C167.234398,102.765599 167.277598,102.974399 167.378398,103.327199 C169.775998,111.448799 159.155998,107.647199 156.859198,104.680799 C156.657598,104.399999 156.959998,104.090399 157.370398,104.147999 Z" id="Path" fill="#FFFFFF" fill-rule="nonzero"></path>
                <circle id="Oval" stroke="#64EDB2" stroke-width="1.40399998" cx="150.904798" cy="86.320799" r="49.3199994"></circle>
                <path d="M275.198397,77.2055991 C274.931451,77.2034808 274.687588,77.0538375 274.564797,76.8167991 C274.38001,76.4648725 274.515372,76.0297798 274.867197,75.8447991 L350.200796,36.1727996 C350.552712,35.9859064 350.989503,36.1196837 351.176396,36.4715996 C351.363289,36.8235154 351.229512,37.2603064 350.877596,37.4471996 L275.536797,77.1191991 C275.432797,77.1753356 275.316578,77.2050086 275.198397,77.2055991 L275.198397,77.2055991 Z" id="Path" fill="#FFFFFF" fill-rule="nonzero"></path>
                <path d="M275.198397,89.740799 C274.931451,89.7386806 274.687588,89.5890374 274.564797,89.351999 C274.38001,89.0000724 274.515372,88.5649796 274.867197,88.379999 L350.200796,48.7079994 C350.370499,48.6169653 350.569598,48.5977091 350.753602,48.6545337 C350.937605,48.7113583 351.091176,48.8395272 351.179996,49.0103994 C351.364783,49.362326 351.229421,49.7974188 350.877596,49.9823994 L275.536797,89.654399 C275.432797,89.7105355 275.316578,89.7402084 275.198397,89.740799 L275.198397,89.740799 Z" id="Path" fill="#FFFFFF" fill-rule="nonzero"></path>
                <path d="M275.198397,102.275999 C274.931451,102.27388 274.687588,102.124237 274.564797,101.887199 C274.38001,101.535272 274.515372,101.100179 274.867197,100.915199 L350.200796,61.2431993 C350.370499,61.1521652 350.569598,61.1329089 350.753602,61.1897336 C350.937605,61.2465582 351.091176,61.3747271 351.179996,61.5455993 C351.364783,61.8975259 351.229421,62.3326186 350.877596,62.5175993 L275.536797,102.189599 C275.432797,102.245735 275.316578,102.275408 275.198397,102.275999 Z" id="Path" fill="#FFFFFF" fill-rule="nonzero"></path>
                <path d="M275.198397,114.811205 C274.86525,114.81255 274.574683,114.585172 274.495899,114.261472 C274.417115,113.937773 274.570691,113.602296 274.867197,113.450399 L350.200796,73.7783991 C350.370499,73.687365 350.569598,73.6681088 350.753602,73.7249334 C350.937605,73.781758 351.091176,73.9099269 351.179996,74.0807991 C351.364783,74.4327257 351.229421,74.8678185 350.877596,75.0527991 L275.536797,114.724799 C275.432797,114.780935 275.316578,114.810608 275.198397,114.811205 L275.198397,114.811205 Z" id="Path" fill="#FFFFFF" fill-rule="nonzero"></path>
                <path d="M275.198397,127.346399 C274.870665,127.341557 274.587564,127.115975 274.509663,126.797599 C274.431763,126.479224 274.578726,126.148413 274.867197,125.992799 L324.482396,99.8567988 C324.652099,99.7657647 324.851198,99.7465085 325.035202,99.8033331 C325.219205,99.8601577 325.372776,99.9883266 325.461596,100.159199 C325.646383,100.511125 325.511021,100.946218 325.159196,101.131199 L275.536797,127.259999 C275.432797,127.316135 275.316578,127.345808 275.198397,127.346399 Z" id="Path" fill="#FFFFFF" fill-rule="nonzero"></path>
                <path d="M145.670398,82.562399 C145.670398,82.562399 147.938398,88.963199 146.563198,89.503199 C141.760798,91.3751989 145.015198,95.2631989 145.166398,98.6399989 C145.223998,99.7703988 141.875998,107.999999 141.875998,107.999999 C141.875998,107.999999 128.980799,98.4887989 128.296799,92.6855989 C127.612799,86.882399 145.670398,82.562399 145.670398,82.562399 Z" id="Path" fill="url(#linearGradient-30)" fill-rule="nonzero"></path>
                <circle id="Oval" fill="url(#linearGradient-31)" fill-rule="nonzero" cx="384.062396" cy="315.230396" r="20.2103998"></circle>
                <circle id="Oval" fill="#DDE6FA" fill-rule="nonzero" cx="8.5175999" cy="178.970398" r="8.5175999"></circle>
                <path d="M58.0895993,275.615997 C63.1295993,275.385597 68.6951992,273.297597 70.4015992,268.574397 C70.9546121,266.767092 71.1406593,264.867453 70.9487992,262.987197 C70.8407992,260.927997 70.5671992,258.767997 69.3503992,257.104797 C67.9103992,255.167997 65.5055992,254.289597 63.2375993,253.504797 C57.2615993,251.416797 51.2999994,249.184797 45.7343995,246.196797 C42.7463995,244.583997 39.8231995,242.719197 36.5399996,241.876797 C33.9864843,241.278577 31.3506878,241.113079 28.7423997,241.387197 C26.4772147,241.472819 24.2550897,242.032029 22.2191997,243.028797 C19.3570304,244.630337 17.4449032,247.51596 17.0855998,250.775997 C16.2359998,259.113597 26.9999997,263.980797 32.9255996,267.645597 C40.5071995,272.282397 49.0103994,276.033597 58.0895993,275.615997 Z" id="Path" fill="url(#linearGradient-32)" fill-rule="nonzero"></path>
                <ellipse id="Oval" fill="#F0BEB4" fill-rule="nonzero" transform="translate(141.877707, 101.048497) rotate(-36.010000) translate(-141.877707, -101.048497) " cx="141.877707" cy="101.048497" rx="4.06799995" ry="4.89599994"></ellipse>
                <path d="M169.343998,77.0399991 C168.808591,77.1415017 168.267645,77.2112237 167.723998,77.2487991 C165.203998,77.5007991 164.015998,77.7743991 162.590398,77.8823991 C161.978398,77.9255991 160.999198,77.9399991 161.035198,77.9399991 C159.595198,77.9399991 158.795998,78.0479991 157.744798,78.0407991 C153.424798,78.0407991 156.959998,78.0983991 153.007198,77.9759991 C151.855198,77.9759991 150.623998,77.9759991 149.666398,77.9759991 L149.140798,77.9759991 C149.150221,77.9989335 149.162304,78.0206823 149.176798,78.0407991 C149.500798,78.4583991 149.896798,78.8471991 150.199198,79.2575991 C150.868798,80.0783991 151.041598,80.3303991 151.091998,80.6471991 C151.173967,81.0048399 151.052167,81.3785453 150.775198,81.6191991 C150.432833,81.9007085 150.023659,82.0891762 149.587198,82.166399 C149.112017,82.2629237 148.630964,82.3278659 148.147198,82.360799 L146.707198,82.497599 C145.706124,82.5883814 144.71697,82.7813871 143.755198,83.073599 C143.16604,83.248715 142.590829,83.467728 142.034398,83.728799 C141.771022,83.8491264 141.518145,83.9912192 141.278398,84.153599 C141.138361,84.2508549 141.028565,84.3856046 140.961598,84.542399 C140.920918,84.6577791 140.908571,84.7812481 140.925598,84.902399 C141.001635,85.2557187 141.11258,85.6006118 141.256798,85.931999 C141.548725,86.4606178 141.667104,87.0676255 141.595198,87.667199 C141.534609,87.8792244 141.429009,88.0756902 141.285598,88.243199 C141.031698,88.5357439 140.726742,88.7797082 140.385598,88.963199 L140.291998,89.013599 C140.124502,89.1108118 139.948592,89.1927427 139.766398,89.258399 C139.577437,89.3355567 139.378786,89.3864308 139.175998,89.409599 C138.900951,89.4420323 138.623046,89.4420323 138.347998,89.409599 C138.069666,89.3829103 137.793174,89.3396334 137.519998,89.279999 C137.239198,89.215199 136.965598,89.128799 136.706398,89.056799 L136.540798,88.999199 C136.367998,88.948799 136.195198,88.891199 136.022398,88.855199 L135.950398,88.855199 L135.950398,88.855199 L135.950398,88.855199 L135.950398,88.855199 C135.933892,88.8920427 135.921807,88.9307121 135.914398,88.970399 C135.908194,89.2349125 135.920222,89.4995391 135.950398,89.762399 L135.950398,89.999999 C135.957535,90.1319025 135.957535,90.2640954 135.950398,90.395999 C135.953991,90.4583472 135.953991,90.5208507 135.950398,90.583199 C135.941027,90.7348909 135.904445,90.88366 135.842398,91.0223989 C135.77052,91.1583898 135.66364,91.2727263 135.532798,91.3535989 L135.489598,91.3535989 C135.362358,91.4162715 135.220622,91.443624 135.079198,91.4327989 C134.922184,91.4227289 134.768391,91.3836705 134.625598,91.3175989 C134.459998,91.2455989 134.308798,91.1591989 134.157598,91.0799989 L133.847998,90.9143989 C133.801045,90.8967151 133.752932,90.8822811 133.703998,90.8711989 L133.617598,90.8711989 L133.617598,90.8711989 L133.617598,90.8711989 L133.545598,90.9431989 C133.478205,91.0582473 133.420409,91.178655 133.372798,91.3031989 L133.372798,91.3823989 L133.243198,91.7063989 C133.180174,91.8735237 133.090181,92.0291874 132.976798,92.1671989 C132.890618,92.2806526 132.782977,92.3760609 132.659998,92.4479989 L132.609598,92.4479989 C132.432561,92.535415 132.238224,92.5821545 132.040798,92.5847989 C131.694826,92.5739523 131.356526,92.4801174 131.054398,92.3111989 C130.84654,92.2034841 130.64681,92.0807588 130.456798,91.9439989 L130.456798,92.4695989 C130.456798,92.6783989 130.456798,92.8871989 130.456798,93.0959989 C130.453223,93.3495281 130.429145,93.6023526 130.384798,93.8519989 C130.341605,94.1052189 130.192268,94.327915 129.974398,94.4639989 C129.922332,94.4995693 129.863518,94.5240749 129.801598,94.5359989 C129.448798,94.6295989 129.117599,94.3559989 128.894399,94.1399989 C128.702298,93.9427613 128.528766,93.728256 128.375999,93.4991989 L128.375999,93.4991989 C128.231999,93.2975989 128.109599,93.0887989 127.987199,92.8871989 C127.721924,92.4523792 127.481538,92.0028567 127.267199,91.5407989 C127.051199,91.0655989 126.799199,90.503999 126.597599,89.935199 C126.395999,89.366399 126.251999,88.905599 126.079199,88.315199 C125.90624,87.7649476 125.766784,87.2047208 125.661599,86.637599 C125.563447,86.040037 125.510497,85.4359242 125.503199,84.830399 C125.503199,84.232799 125.503199,83.642399 125.539199,83.066399 C125.607163,81.9344416 125.822583,80.8161965 126.179999,79.7399991 C126.516902,78.6488745 126.98854,77.6040147 127.583999,76.6295991 C128.171067,75.6314192 128.848294,74.689086 129.607198,73.8143991 C130.301097,72.9912639 131.070005,72.2344085 131.903998,71.5535992 C132.314398,71.2223992 132.731998,70.8839992 133.156798,70.5599992 C133.581598,70.2359992 134.042398,69.9191992 134.467198,69.6383992 C135.417598,69.0047992 136.389598,68.4071992 137.311198,67.8527992 L138.751198,66.9671992 C143.179198,64.2671993 143.791198,63.9215993 149.435998,62.1287993 C151.762589,61.4237465 154.042327,60.5724519 156.261598,59.5799993 C157.139998,59.1983993 158.176798,58.7447993 159.184798,58.2191993 C159.710398,57.9455993 160.163998,57.7007993 160.574398,57.4991993 L160.617598,57.4991993 C160.977598,57.2975993 161.337598,57.0887993 161.675998,56.8799993 L162.007198,56.6783993 L162.619198,56.3111993 C163.648798,55.7279994 164.231998,56.2463993 164.303998,57.2255993 C164.338365,57.8976516 164.265451,58.5708879 164.087998,59.2199993 L164.361598,59.0615993 C165.288699,58.5434816 166.25107,58.0911671 167.241598,57.7079993 C168.033598,57.4127993 169.567198,57.0383993 170.344798,57.3263993 C170.799674,57.5000158 171.162099,57.8546195 171.345598,58.3055993 C171.521453,58.6831005 171.571913,59.1069637 171.489598,59.5151993 C171.282361,60.6624635 170.755812,61.7280382 169.970398,62.5895993 C169.392008,63.2869131 168.761387,63.9391967 168.083998,64.5407993 L168.559198,64.5407993 C171.878398,64.4831993 173.167198,64.7207992 174.391198,65.9159992 C174.657983,66.16024 174.888332,66.4415077 175.075198,66.7511992 C175.874398,68.3279992 172.159198,69.1991992 169.984798,70.0919992 L170.099998,70.0919992 L170.517598,70.2143992 C171.48619,70.4370083 172.419123,70.7932192 173.289598,71.2727992 C174.463198,72.0791992 174.455998,73.1447992 173.750398,74.3399991 C173.455346,74.8138124 173.082991,75.2348409 172.648798,75.5855991 C171.698095,76.358872 170.556377,76.8613273 169.343998,77.0399991 L169.343998,77.0399991 Z" id="Path" fill="url(#linearGradient-33)" fill-rule="nonzero"></path>
                <path d="M145.137598,69.7031992 C146.692798,68.9831992 148.226398,68.2631992 149.752798,67.5431992 C151.279198,66.8231992 152.632798,66.0527992 154.015198,65.2175992 C154.214021,65.1062586 154.284939,64.8548218 154.173598,64.6559993 C154.062258,64.4571768 153.810821,64.3862587 153.611998,64.4975993 C153.251998,64.7135992 152.891998,64.9367992 152.510398,65.1455992 C151.070398,65.9519992 149.630398,66.6863992 148.190398,67.3991992 C147.419998,67.7735992 146.649598,68.1191992 145.864798,68.5079992 L143.546398,69.5519992 C142.775998,69.9047992 142.005598,70.2719992 141.256798,70.6463992 C140.507998,71.0207992 139.737598,71.4527992 138.995998,71.8991992 C138.254398,72.3455992 137.555998,72.7919992 136.835998,73.2743992 C136.115998,73.7567991 135.395998,74.2823991 134.711998,74.8367991 C134.380798,75.1103991 134.056798,75.4055991 133.739998,75.6935991 C133.132689,76.258746 132.564951,76.8649752 132.040798,77.5079991 C131.788798,77.8103991 131.572798,78.1415991 131.320798,78.4583991 C131.267294,78.5496317 131.251779,78.6582345 131.277598,78.7607991 C131.337385,78.9763926 131.556458,79.1065667 131.774398,79.0559991 C131.878247,79.0220915 131.967241,78.9534388 132.026398,78.8615991 C132.191998,78.6383991 132.350398,78.4007991 132.523198,78.1415991 C132.985519,77.5663289 133.483286,77.0204683 134.013598,76.5071991 C134.561291,75.9712478 135.140738,75.4687396 135.748798,75.0023991 L136.238398,74.6351991 C136.915198,74.1455991 137.606398,73.6703991 138.311998,73.1951992 C139.017598,72.7199992 139.787998,72.2879992 140.551198,71.8703992 C141.314398,71.4527992 142.048798,71.0711992 142.819198,70.7111992 C143.589598,70.3511992 144.374398,70.0415992 145.137598,69.7031992 Z" id="Path" fill="url(#linearGradient-34)" fill-rule="nonzero"></path>
                <path d="M164.613598,62.7551993 C164.023198,63.1511993 163.439998,63.5543993 162.871198,63.9719993 C162.302398,64.3895993 161.740798,64.8503992 161.171998,65.2823992 L160.401598,65.8439992 C159.7092,66.3139354 158.987759,66.739586 158.241598,67.1183992 C157.521598,67.4999992 156.801598,67.8383992 156.016798,68.1695992 L155.375998,68.4215992 C155.281442,68.4743588 155.211567,68.5623491 155.181598,68.6663992 C155.15205,68.7710982 155.167718,68.8833878 155.224798,68.9759992 C155.276287,69.0716274 155.364792,69.141911 155.469598,69.1703992 C155.572163,69.1962182 155.680766,69.1807035 155.771998,69.1271992 L155.894398,69.0767992 L156.614398,68.7959992 L157.334398,68.4791992 C157.816798,68.2559992 158.291998,68.0183992 158.774398,67.7591992 L159.263998,67.4927992 C159.833827,67.1713095 160.386572,66.8204368 160.919998,66.4415992 C162.194398,65.5559992 162.741598,64.9583992 164.995198,63.4535993 C165.088927,63.4021504 165.157869,63.3149861 165.186346,63.2119269 C165.214822,63.1088676 165.200415,62.9986726 165.146398,62.9063993 C165.039437,62.7195338 164.80277,62.6523716 164.613598,62.7551993 L164.613598,62.7551993 Z" id="Path" fill="url(#linearGradient-35)" fill-rule="nonzero"></path>
                <path d="M163.857598,70.8119992 C162.227711,71.7852443 160.54513,72.6673974 158.817598,73.4543991 C158.003751,73.7862014 157.148827,74.0065924 156.275998,74.1095991 C155.271077,74.2082175 154.259946,74.2274771 153.251998,74.1671991 C152.398769,74.1115473 151.543254,74.0995317 150.688798,74.1311991 C149.83327,74.1962703 148.987874,74.3581033 148.168798,74.6135991 C147.369366,74.8647222 146.613916,75.2388038 145.929598,75.7223991 C145.736642,75.8351956 145.669425,76.0816581 145.778398,76.2767991 C145.893632,76.4665489 146.137186,76.5329727 146.332798,76.4279991 C146.555998,76.2695991 146.786398,76.1183991 147.052798,75.9815991 C148.061342,75.4498454 149.160054,75.1104654 150.292798,74.9807991 C150.651602,74.9434654 151.012059,74.924241 151.372798,74.9231991 C152.474398,74.9231991 153.755998,75.0239991 154.929598,75.0023991 C156.677425,75.0181204 158.404269,74.6209461 159.969598,73.8431991 C160.689598,73.4903991 161.445598,73.1231992 162.165598,72.6911992 L164.275198,71.5175992 C164.467227,71.4076016 164.534708,71.1633849 164.426398,70.9703992 C164.373382,70.8725012 164.282868,70.8003429 164.175617,70.7704757 C164.068367,70.7406084 163.953584,70.7555955 163.857598,70.8119992 L163.857598,70.8119992 Z" id="Path" fill="url(#linearGradient-36)" fill-rule="nonzero"></path>
                <path d="M142.739998,80.6399991 C142.019998,80.6903991 141.299998,80.7479991 140.623198,80.8415991 C140.28685,80.8786679 139.95276,80.9339491 139.622398,81.0071991 C139.348111,81.0606015 139.083505,81.1552772 138.837598,81.2879991 C138.64557,81.3979967 138.578089,81.6422133 138.686398,81.8351991 C138.796738,82.0307857 139.043785,82.1013707 139.240798,81.993599 C139.288226,81.9637994 139.338969,81.939636 139.391998,81.9215991 C139.914144,81.7581555 140.452504,81.6519321 140.997598,81.6047991 C141.573598,81.5399991 142.149598,81.4895991 142.725598,81.4463991 C142.798438,81.4484337 142.870507,81.4310379 142.934398,81.3959991 C143.058048,81.3246177 143.134727,81.1931674 143.135998,81.0503991 C143.134991,80.9412222 143.094007,80.8362001 143.020798,80.7551991 C142.944578,80.6835306 142.844591,80.6425102 142.739998,80.6399991 L142.739998,80.6399991 Z" id="Path" fill="url(#linearGradient-37)" fill-rule="nonzero"></path>
                <path d="M130.687198,84.679199 C130.740426,84.5852412 130.755873,84.4745386 130.730398,84.369599 C130.683337,84.2218322 130.555698,84.1141521 130.402115,84.0926506 C130.248533,84.0711491 130.09623,84.1396372 130.010398,84.268799 C129.935261,84.4258372 129.884286,84.5933281 129.859198,84.765599 C129.794498,85.3132949 129.794498,85.8667032 129.859198,86.414399 C129.935493,87.1585983 130.060562,87.8969861 130.233598,88.624799 C130.264356,88.746966 130.350448,88.8477352 130.466314,88.8971904 C130.582181,88.9466456 130.714503,88.9391019 130.823998,88.876799 C131.219998,88.653599 130.931998,88.459199 130.694398,86.651999 C130.629588,86.0802297 130.629588,85.5029683 130.694398,84.931199 C130.68408,84.8476123 130.681669,84.7632385 130.687198,84.679199 Z" id="Path" fill="url(#linearGradient-38)" fill-rule="nonzero"></path>
                <path d="M132.076798,85.787999 C131.875198,85.903199 131.803198,86.111999 131.918398,86.824799 C131.963859,87.106135 132.02394,87.3849126 132.098398,87.659999 C132.158185,87.8755925 132.377258,88.0057666 132.595198,87.955199 C132.808431,87.8923489 132.937146,87.6757301 132.890398,87.458399 C132.757433,87.0365497 132.687084,86.5974733 132.681598,86.155199 L132.681598,86.155199 C132.69394,86.070216 132.676106,85.9835953 132.631198,85.910399 C132.511315,85.7243522 132.263871,85.6697216 132.076798,85.787999 L132.076798,85.787999 Z" id="Path" fill="url(#linearGradient-39)" fill-rule="nonzero"></path>
                <path d="M134.207998,85.773599 L134.207998,85.773599 C134.207998,85.773599 134.193598,85.737599 134.207998,85.773599 Z" id="Path" fill="url(#linearGradient-40)" fill-rule="nonzero"></path>
                <path d="M134.164798,85.463999 C134.114398,85.672799 134.265598,85.931999 134.459998,86.335199 C134.543547,86.4649339 134.693814,86.5356052 134.847025,86.5172199 C135.000236,86.4988346 135.129516,86.3946177 135.179998,86.248799 C135.237598,86.039999 135.136798,85.960799 134.920798,85.449599 C134.889693,85.3148504 134.782728,85.2107006 134.647198,85.183199 C134.437703,85.1362051 134.227393,85.2586244 134.164798,85.463999 Z" id="Path" fill="url(#linearGradient-41)" fill-rule="nonzero"></path>
                <path d="M134.186398,85.723199 L134.186398,85.672799 L134.186398,85.723199 Z" id="Path" fill="url(#linearGradient-42)" fill-rule="nonzero"></path>
                <path d="M207.539998,342.777596 C207.539998,342.777596 217.281597,349.912796 222.695997,357.040796 L222.926397,353.771996 C223.019381,352.522614 222.661786,351.281248 221.918397,350.272796 L213.883198,339.307196 C213.040983,338.163946 211.775175,337.406537 210.369598,337.204796 L202.730398,336.110396 L207.539998,342.777596 L207.539998,342.777596 Z" id="Path" fill="#FFFFFF" fill-rule="nonzero"></path>
                <path d="M114.040799,321.523196 L106.639199,323.279996 C106.639199,323.279996 119.383199,314.639996 128.311199,312.976796 L124.531199,311.536796 C123.362761,311.082543 122.070212,311.062107 120.887999,311.479196 L108.057599,315.979196 C106.71776,316.452811 105.623463,317.443383 105.019199,318.729596 L101.750399,325.713596 L114.040799,321.523196 Z" id="Path" fill="#FFFFFF" fill-rule="nonzero"></path>
                <circle id="Oval" fill="#FFFFFF" fill-rule="nonzero" cx="145.223998" cy="398.116795" r="84.563999"></circle>
                <text id="What-You-Get" font-family="Poppins-Medium, Poppins Medium" font-size="30" font-weight="normal" fill="#302727">
                    <tspan x="107.1" y="575">What You Get</tspan>
                </text>
                <path d="M187.091998,351.633596 C188.675998,352.936796 190.439998,354.254396 192.484798,354.376796 C194.875198,354.520796 197.020798,353.023196 198.964798,351.597596 C199.511367,351.380004 199.91989,350.912764 200.062571,350.342039 C200.205252,349.771315 200.064668,349.166798 199.684798,348.717596 L196.559998,342.719996 C195.916521,341.261703 195.013917,339.932191 193.895998,338.795996 C191.786398,336.895196 188.719198,336.571196 185.882398,336.57828 C170.193598,336.563996 180.719998,346.399196 187.091998,351.633596 Z" id="Path" fill="url(#linearGradient-43)" fill-rule="nonzero"></path>
                <path d="M116.409599,348.242396 C118.267199,347.371196 120.211199,346.341596 121.197599,344.548796 C122.356799,342.446396 121.917599,339.868796 121.463999,337.521596 C121.493063,336.940213 121.244704,336.379492 120.794619,336.010338 C120.344535,335.641183 119.746057,335.507338 119.181599,335.649596 L112.399199,335.858396 C110.806112,335.812945 109.217996,336.056895 107.711999,336.578396 C105.091199,337.672796 103.478399,340.300796 102.268799,342.871196 C95.5511989,357.040796 108.950399,351.755996 116.409599,348.242396 Z" id="Path" fill="#DDE6FA" fill-rule="nonzero"></path>
                <path d="M150.731998,329.867996 C149.540483,329.007017 148.196866,328.379182 146.771998,328.017596 C137.527198,325.627196 134.107198,330.595196 143.171998,334.051196 C147.247198,335.606396 160.250398,336.758396 150.731998,329.867996 Z" id="Path" fill="#DDE6FA" fill-rule="nonzero"></path>
                <path d="M201.707998,379.245596 C202.168798,383.507996 204.451198,387.698396 208.187998,389.793595 C208.505898,390.011752 208.892453,390.106471 209.275198,390.059995 C209.583531,389.941556 209.851065,389.736531 210.045598,389.469595 C211.226448,388.08836 212.334357,386.646396 213.364798,385.149596 C213.909838,384.448241 214.297797,383.637949 214.502398,382.773596 C214.589457,381.814292 214.461555,380.847645 214.127998,379.943996 C213.069598,376.228796 211.895998,372.333596 209.145598,369.619196 C206.265598,366.796796 204.659998,366.220796 203.018398,369.719996 C201.772133,372.730332 201.320885,376.010562 201.707998,379.245596 L201.707998,379.245596 Z" id="Path" fill="#DDE6FA" fill-rule="nonzero"></path>
                <path d="M159.782398,363.391196 C161.806152,364.868555 164.409634,365.301134 166.802398,364.557596 C167.017021,364.504498 167.204309,364.373654 167.327998,364.190396 C167.382237,364.009576 167.382237,363.816816 167.327998,363.635996 C167.169598,362.599196 166.960798,361.576796 166.701598,360.561596 C166.603058,360.061301 166.399362,359.587646 166.103998,359.171996 C165.722686,358.774874 165.25788,358.467463 164.743198,358.271996 C162.727198,357.328796 160.603198,356.363996 158.385598,356.536796 C156.167998,356.709596 155.224798,357.191996 156.117598,359.222396 C156.957092,360.906239 158.220016,362.342846 159.782398,363.391196 Z" id="Path" fill="#DDE6FA" fill-rule="nonzero"></path>
                <circle id="Oval" stroke="#FFFFFF" stroke-width="1.74239998" cx="40.3559995" cy="202.384798" r="20.7359998"></circle>
                <path d="M252.971997,369.043196 C256.845605,372.328234 261.96019,373.75874 266.975997,372.959996 L270.835197,401.399995 C270.835197,401.399995 262.915197,404.323195 260.697597,401.399995" id="Path" stroke="#64EDFF" stroke-width="0.698399992"></path>
                <path d="M281.613597,358.603196 C286.555652,359.16044 291.558052,358.441561 296.143197,356.515196 L307.915196,390.081595 C307.915196,390.081595 302.875196,394.495195 298.231197,392.911195" id="Path" stroke="#64EDFF" stroke-width="0.698399992"></path>
            </g>
        </g>
    </g>
</svg>