<?xml version="1.0" encoding="UTF-8"?>
<svg width="489px" height="499px" viewBox="0 0 489 499" version="1.1" xmlns="http://www.w3.org/2000/svg" xmlns:xlink="http://www.w3.org/1999/xlink">
    <!-- Generator: Sketch 63.1 (92452) - https://sketch.com -->
    <title>02_MONETIZE</title>
    <desc>Created with Sketch.</desc>
    <defs>
        <linearGradient x1="50.0005313%" y1="100.001316%" x2="50.0005313%" y2="-0.00342193071%" id="linearGradient-1">
            <stop stop-color="#779DEA" offset="0%"></stop>
            <stop stop-color="#91B0EE" offset="10%"></stop>
            <stop stop-color="#ADC3F2" offset="23%"></stop>
            <stop stop-color="#C2D3F6" offset="38%"></stop>
            <stop stop-color="#D1DEF8" offset="54%"></stop>
            <stop stop-color="#DAE4FA" offset="72%"></stop>
            <stop stop-color="#DDE6FA" offset="100%"></stop>
        </linearGradient>
        <linearGradient x1="50%" y1="100.002251%" x2="50%" y2="0%" id="linearGradient-2">
            <stop stop-color="#779DEA" offset="0%"></stop>
            <stop stop-color="#9BB7F0" offset="20%"></stop>
            <stop stop-color="#B8CBF4" offset="40%"></stop>
            <stop stop-color="#CCDAF7" offset="61%"></stop>
            <stop stop-color="#D9E3F9" offset="81%"></stop>
            <stop stop-color="#DDE6FA" offset="100%"></stop>
        </linearGradient>
        <linearGradient x1="-0.0458169288%" y1="49.9484962%" x2="100.05421%" y2="50.0450462%" id="linearGradient-3">
            <stop stop-color="#4E54C8" offset="0%"></stop>
            <stop stop-color="#8F94FB" offset="100%"></stop>
        </linearGradient>
        <linearGradient x1="50%" y1="100%" x2="50%" y2="0%" id="linearGradient-4">
            <stop stop-color="#366FE0" offset="0%"></stop>
            <stop stop-color="#366FE0" offset="25%"></stop>
            <stop stop-color="#2F63D1" offset="45%"></stop>
            <stop stop-color="#1B43A9" offset="84%"></stop>
            <stop stop-color="#123597" offset="100%"></stop>
        </linearGradient>
        <linearGradient x1="49.9907407%" y1="100%" x2="49.9907407%" y2="0.00154021587%" id="linearGradient-5">
            <stop stop-color="#FFFFFF" stop-opacity="0.4" offset="0%"></stop>
            <stop stop-color="#D8FBEC" stop-opacity="0.55" offset="18%"></stop>
            <stop stop-color="#A6F5D3" stop-opacity="0.74" offset="44%"></stop>
            <stop stop-color="#82F0C1" stop-opacity="0.88" offset="67%"></stop>
            <stop stop-color="#6CEEB6" stop-opacity="0.97" offset="86%"></stop>
            <stop stop-color="#64EDB2" offset="100%"></stop>
        </linearGradient>
        <linearGradient x1="50%" y1="100%" x2="50%" y2="-0.0197433366%" id="linearGradient-6">
            <stop stop-color="#FFFFFF" stop-opacity="0.4" offset="0%"></stop>
            <stop stop-color="#D8FBEC" stop-opacity="0.55" offset="18%"></stop>
            <stop stop-color="#A6F5D3" stop-opacity="0.74" offset="44%"></stop>
            <stop stop-color="#82F0C1" stop-opacity="0.88" offset="67%"></stop>
            <stop stop-color="#6CEEB6" stop-opacity="0.97" offset="86%"></stop>
            <stop stop-color="#64EDB2" offset="100%"></stop>
        </linearGradient>
        <linearGradient x1="-0.00183374952%" y1="49.9977353%" x2="100.001155%" y2="50.0019541%" id="linearGradient-7">
            <stop stop-color="#366FE0" offset="0%"></stop>
            <stop stop-color="#94CBFF" offset="70%"></stop>
            <stop stop-color="#94CBFF" offset="100%"></stop>
        </linearGradient>
        <linearGradient x1="49.9888053%" y1="100.010931%" x2="49.9888053%" y2="0.0139227969%" id="linearGradient-8">
            <stop stop-color="#DDE6FA" offset="0%"></stop>
            <stop stop-color="#D8E2F9" offset="17%"></stop>
            <stop stop-color="#C8D7F7" offset="39%"></stop>
            <stop stop-color="#AFC5F3" offset="62%"></stop>
            <stop stop-color="#8BABED" offset="88%"></stop>
            <stop stop-color="#779DEA" offset="100%"></stop>
        </linearGradient>
        <linearGradient x1="50.0058769%" y1="100%" x2="50.0058769%" y2="0.0222851345%" id="linearGradient-9">
            <stop stop-color="#DDE6FA" stop-opacity="0" offset="0%"></stop>
            <stop stop-color="#DBE5FA" stop-opacity="0.03" offset="4%"></stop>
            <stop stop-color="#D6E1F9" stop-opacity="0.12" offset="10%"></stop>
            <stop stop-color="#CEDBF8" stop-opacity="0.27" offset="18%"></stop>
            <stop stop-color="#C3D3F6" stop-opacity="0.47" offset="27%"></stop>
            <stop stop-color="#B5C9F4" stop-opacity="0.73" offset="36%"></stop>
            <stop stop-color="#A7BFF2" offset="45%"></stop>
            <stop stop-color="#98B5F0" offset="61%"></stop>
            <stop stop-color="#779DEA" offset="100%"></stop>
        </linearGradient>
        <linearGradient x1="-0.0138843805%" y1="49.9906562%" x2="100.017316%" y2="49.9906562%" id="linearGradient-10">
            <stop stop-color="#DDE6FA" offset="0%"></stop>
            <stop stop-color="#D8E2F9" offset="17%"></stop>
            <stop stop-color="#C8D7F7" offset="39%"></stop>
            <stop stop-color="#AFC5F3" offset="62%"></stop>
            <stop stop-color="#8BABED" offset="88%"></stop>
            <stop stop-color="#779DEA" offset="100%"></stop>
        </linearGradient>
        <linearGradient x1="0.00510396489%" y1="49.9552636%" x2="99.9987877%" y2="49.9552636%" id="linearGradient-11">
            <stop stop-color="#779DEA" offset="0%"></stop>
            <stop stop-color="#8BABED" offset="12%"></stop>
            <stop stop-color="#AFC5F3" offset="38%"></stop>
            <stop stop-color="#C8D7F7" offset="61%"></stop>
            <stop stop-color="#D8E2F9" offset="83%"></stop>
            <stop stop-color="#DDE6FA" offset="100%"></stop>
        </linearGradient>
        <linearGradient x1="-0.0160513644%" y1="50%" x2="100%" y2="50%" id="linearGradient-12">
            <stop stop-color="#FFFFFF" stop-opacity="0.4" offset="0%"></stop>
            <stop stop-color="#D8FBEC" stop-opacity="0.55" offset="18%"></stop>
            <stop stop-color="#A6F5D3" stop-opacity="0.74" offset="44%"></stop>
            <stop stop-color="#82F0C1" stop-opacity="0.88" offset="67%"></stop>
            <stop stop-color="#6CEEB6" stop-opacity="0.97" offset="86%"></stop>
            <stop stop-color="#64EDB2" offset="100%"></stop>
        </linearGradient>
    </defs>
    <g id="Page-1" stroke="none" stroke-width="1" fill="none" fill-rule="evenodd">
        <g id="Project4" transform="translate(-122.000000, -6246.000000)">
            <g id="02_MONETIZE" transform="translate(122.000000, 6246.000000)">
                <path d="M444.463195,174.959998 C409.492795,195.076798 410.140795,177.652798 366.249596,190.079998 C342.597596,196.775998 328.989596,213.299998 318.398396,232.984797 C303.811196,260.107197 294.955197,293.241597 273.463197,314.992796 C271.615197,316.864796 269.668797,318.647996 267.623997,320.342396 C259.985511,326.653239 251.148991,331.35315 241.646397,334.159196 C215.999997,341.949596 191.044798,344.591996 168.364798,342.986396 C160.329443,342.441156 152.344854,341.30772 144.475198,339.595196 C134.092134,337.371426 124.002235,333.950138 114.407999,329.399996 C89.402399,317.411996 71.7335992,298.382397 65.8295992,274.903197 C56.3903993,237.369597 79.1999991,216.986397 66.6359992,171.266398 C53.4815994,123.285599 13.0895998,123.947999 21.0095998,82.907999 C38.2463996,-6.37199993 133.408798,54.3455994 238.874397,40.4279995 C298.173597,32.5943996 452.923195,-30.9383996 484.516794,65.6279992 C496.936794,103.579199 477.359994,156.045598 444.463195,174.959998 Z" id="Path" fill="url(#linearGradient-1)" fill-rule="nonzero"></path>
                <path d="M318.398396,233.013597 C303.811196,260.135997 294.955197,293.270397 273.463197,315.021596 C271.615197,316.893596 269.668797,318.676796 267.623997,320.371196 C259.985511,326.682039 251.148991,331.38195 241.646397,334.187996 C215.999997,341.949596 191.044798,344.591996 168.364798,342.986396 L254.159997,158.263198 L304.703996,169.408798 L318.398396,233.013597 Z" id="Path" fill="url(#linearGradient-2)" fill-rule="nonzero"></path>
                <text id="Monetize" font-family="Poppins-Medium, Poppins Medium" font-size="30" font-weight="normal" fill="#302727">
                    <tspan x="169.455" y="498">Monetize</tspan>
                </text>
                <polygon id="Path" fill="#BFBFBF" fill-rule="nonzero" points="158.291998 233.143197 131.896798 256.903197 111.751199 198.367198 113.435999 158.263198"></polygon>
                <path d="M384.307196,236.743197 L127.195199,237.110405 C119.733037,237.118361 113.675088,231.079746 113.659199,223.617597 L113.435981,66.4199992 C113.430265,62.8357561 114.848604,59.3960373 117.378996,56.8575439 C119.909388,54.3190505 123.344555,52.8897235 126.928799,52.8839994 L384.040796,52.5167821 C387.625039,52.5110661 391.064757,53.9294051 393.603251,56.4597969 C396.141744,58.9901887 397.571071,62.4253561 397.576795,66.0095992 L397.800026,223.199997 C397.807641,226.785487 396.390147,230.227056 393.859548,232.767107 C391.328949,235.307159 387.892688,236.737475 384.307196,236.743197 Z" id="Path" fill="#FFFFFF" fill-rule="nonzero"></path>
                <rect id="Rectangle" fill="url(#linearGradient-3)" fill-rule="nonzero" transform="translate(260.291131, 144.817213) rotate(-0.080000) translate(-260.291131, -144.817213) " x="141.638732" y="62.8524137" width="237.304797" height="163.929598"></rect>
                <polygon id="Path" fill="url(#linearGradient-4)" fill-rule="nonzero" points="379.051196 226.612797 379.022396 226.612797 145.763998 226.951197 145.735198 207.367198 145.727998 200.613598 145.540798 73.6919991 378.835196 73.3607991 379.007996 196.898398"></polygon>
                <polygon id="Path" fill="#F7F7F7" fill-rule="nonzero" points="237.866397 127.634399 220.658397 144.856798 283.262397 144.842398 300.448797 127.634399"></polygon>
                <rect id="Rectangle" fill="#F7F7F7" fill-rule="nonzero" x="241.516797" y="148.521598" width="41.7239995" height="17.2223998"></rect>
                <polygon id="Path" fill="#F7F7F7" fill-rule="nonzero" points="304.113596 123.962399 304.127996 103.075199 283.240797 103.125599 262.403997 123.962399"></polygon>
                <polygon id="Path" fill="#F7F7F7" fill-rule="nonzero" points="262.403997 169.408798 262.403997 186.551998 279.539997 169.408798"></polygon>
                <path d="M379.051196,226.612797 L145.771198,226.951197 L145.771198,193.593598 C152.611198,188.553598 163.007998,206.675998 168.177598,204.443998 C174.506398,201.715198 165.729598,187.833598 182.361598,187.833598 C196.041598,187.833598 190.778398,216.071997 203.781598,204.213598 C215.524798,193.514398 218.951997,198.201598 224.121597,205.833598 C228.902397,212.889598 235.526397,210.700798 239.745597,207.993598 C242.291554,206.328138 244.479825,204.171687 246.182397,201.650398 L255.599997,187.833598 L269.063997,186.033598 C269.063997,186.033598 274.103997,197.193598 279.863997,207.583198 C285.623997,217.972797 301.003197,188.099998 309.743996,198.633598 C323.783996,215.553598 317.023196,190.317598 325.900796,183.513598 C332.423996,178.516798 344.303996,187.473598 351.863996,195.753598 C359.423996,204.033598 363.023996,177.868798 372.023996,186.148798 C379.627196,193.139998 372.081596,203.471998 378.993596,207.813598 L379.051196,226.612797 Z" id="Path" fill="url(#linearGradient-5)" fill-rule="nonzero" opacity="0.8"></path>
                <path d="M379.022396,226.612797 L145.742398,226.951197 L145.742398,207.367198 C152.582398,202.370398 162.971998,220.449597 168.141598,218.217597 C174.470398,215.488798 165.686398,201.614398 182.325598,201.614398 C196.005598,201.614398 190.742398,229.845597 203.745598,217.994397 C215.481598,207.287998 218.915997,211.975198 224.085597,219.614397 C228.866397,226.670397 235.490397,224.481597 239.709597,221.774397 C242.255554,220.108937 244.443825,217.952487 246.146397,215.431198 L259.451997,193.629598 L266.687997,190.483198 C266.687997,190.483198 274.125597,210.981598 279.885597,221.371197 C285.645597,231.760797 301.024797,201.880798 309.765596,212.421598 C323.805596,229.341597 317.044796,204.105598 325.922396,197.301598 C332.445596,192.297598 344.325596,201.261598 351.885596,209.541598 C359.445596,217.821597 363.045596,191.649598 372.045596,199.929598 C379.648796,206.920798 372.103196,217.252797 379.015196,221.594397 L379.022396,226.612797 Z" id="Path" fill="url(#linearGradient-6)" fill-rule="nonzero" opacity="0.8"></path>
                <rect id="Rectangle" fill="url(#linearGradient-7)" fill-rule="nonzero" transform="translate(262.184683, 70.010248) rotate(-0.080000) translate(-262.184683, -70.010248) " x="145.537484" y="66.4858476" width="233.294397" height="7.04879992"></rect>
                <rect id="Rectangle" fill="#64EDFF" fill-rule="nonzero" transform="translate(127.588328, 144.998901) rotate(-0.080000) translate(-127.588328, -144.998901) " x="121.205528" y="138.616101" width="12.7655999" height="12.7655999" rx="6.01919993"></rect>
                <path d="M127.195199,237.110397 C119.733037,237.118361 113.675088,231.079746 113.659199,223.617597 L113.543999,142.977598 C111.657599,145.046398 109.823999,147.143998 108.043199,149.270398 C77.2703991,185.990398 90.6335989,207.554398 66.2831992,262.641597 C64.0655993,267.681597 49.5503994,292.384797 36.5615996,308.959196 L35.1215996,310.809596 C34.1279996,312.069596 33.1703996,313.264796 32.2415996,314.409596 C27.8135997,319.975196 30.6647996,327.254396 38.3399996,330.019196 L90.129599,348.645596 C98.1287989,351.525596 107.654399,348.991196 111.628799,342.921596 L112.003199,342.352796 L113.277599,340.415996 C125.906399,321.191996 148.154398,288.014397 151.768798,287.359197 C164.325598,285.083997 176.104798,267.688797 182.966398,258.083997 C187.732798,251.416797 189.957598,244.583997 190.886398,236.995197 L127.195199,237.110397 Z" id="Path" fill="url(#linearGradient-8)" fill-rule="nonzero"></path>
                <path d="M126.669599,305.488796 C132.983998,298.893597 149.997598,265.838397 150.911998,257.673597 C151.826398,249.508797 150.623998,241.300797 148.924798,233.193597 C147.736798,227.512797 146.296798,221.774397 147.059998,216.050397 C148.499998,205.315198 157.744798,196.610398 160.235998,186.062398 C162.280798,177.422398 165.218398,167.839198 158.615998,159.839998 C156.376798,157.118398 152.459998,154.799998 148.298398,156.578398 C144.136798,158.356798 142.761598,163.288798 140.723998,166.219198 C137.944798,170.222398 135.163198,174.223198 132.379198,178.221598 C126.753599,186.328798 121.125599,194.431198 115.495199,202.528798 L113.234399,205.797598 C113.061599,206.056798 112.881599,206.308798 112.701599,206.567998 C100.619999,224.157597 74.9807991,266.752797 65.5415992,285.299997 L126.669599,305.488796 Z" id="Path" fill="url(#linearGradient-9)" fill-rule="nonzero"></path>
                <path d="M398.311195,373.773596 L332.755196,379.843196 C326.383196,380.433596 320.651996,376.444796 319.852796,370.864796 C319.715996,369.856796 319.557596,368.798396 319.399196,367.682396 C319.298396,366.962396 319.190396,366.278396 319.082396,365.522396 C316.871996,350.639996 313.199996,328.996796 309.599996,319.370396 C291.851997,301.219197 273.923997,284.133597 264.182397,250.718397 C259.502397,234.647997 254.865597,219.722397 259.739997,216.691197 C263.577597,214.300798 268.343997,215.344798 273.866397,221.011197 C277.149597,224.359197 281.663997,231.328797 284.399997,235.756797 C284.579997,236.051997 284.767197,236.332797 284.925597,236.606397 C285.184797,237.009597 285.407997,237.391197 285.609597,237.729597 C286.228797,238.744797 286.646397,239.450397 286.783197,239.673597 L286.783197,239.723997 C286.783197,239.723997 286.783197,239.723997 286.783197,239.723997 C286.502397,238.939197 280.663197,222.335997 276.580797,197.913598 C271.663197,168.451198 264.290397,147.045598 277.019997,143.431198 C287.265597,140.551198 290.836797,151.631998 296.992797,170.301598 C302.831996,188.006398 315.878396,221.594397 315.878396,221.594397 C315.878396,221.594397 314.128796,204.868798 326.584796,204.429598 C344.498396,203.788798 343.288796,220.953597 346.024796,221.299197 C351.669596,222.019197 353.908796,216.871197 362.822396,220.190397 C373.240796,224.071197 371.606396,229.694397 376.991996,231.415197 C380.678396,232.588797 385.055996,227.159997 395.366395,234.388797 C408.110395,243.316797 401.083195,279.381597 394.171195,305.222396 C392.731195,310.694396 399.513595,339.926396 404.042395,358.142396 C404.222395,358.862396 404.402395,359.582396 404.567995,360.266396 C404.978395,361.871996 405.352795,363.369596 405.698395,364.730396 C406.843195,369.071996 403.372795,373.305596 398.311195,373.773596 Z" id="Path" fill="url(#linearGradient-10)" fill-rule="nonzero"></path>
                <path d="M293.219997,269.776797 C293.063608,263.299937 292.096068,256.868213 290.339997,250.631997 C287.812797,242.193597 286.775997,239.723997 286.775997,239.723997 C286.775997,239.723997 285.839997,238.082397 284.399997,235.727997 C284.968797,237.535197 287.114397,244.367997 288.928797,250.711197 C290.347197,255.671997 293.219997,269.776797 293.219997,269.776797 Z" id="Path" fill="#BFBFBF" fill-rule="nonzero"></path>
                <path d="M404.639995,360.237596 L319.399196,367.682396 C319.298396,366.962396 319.190396,366.278396 319.082396,365.522396 L404.078395,358.091996 C404.258395,358.840796 404.438395,359.553596 404.639995,360.237596 Z" id="Path" fill="#64EDFF" fill-rule="nonzero"></path>
                <path d="M384.839996,251.445597 C385.430396,261.489597 381.009596,279.035997 377.747996,290.397597 C375.883196,296.877597 369.511196,301.571997 361.907996,302.032796 L336.239996,303.587996 C325.699196,304.228796 316.079996,298.252797 313.322396,289.310397 C307.799996,271.576797 299.332797,243.842397 297.835197,235.749597 L298.814397,234.583197 C302.968796,229.651197 310.334396,227.721597 316.886396,229.859997 L328.154396,233.539197 L328.211996,233.488797 C332.603996,229.370397 339.825596,228.830397 344.959196,232.221597 L350.279996,235.749597 L353.080796,234.626397 C357.512107,232.839461 362.571581,233.693839 366.170396,236.836797 L373.838396,243.878397 L375.782396,243.878397 C380.584796,243.878397 384.595196,247.204797 384.839996,251.445597 Z" id="Path" stroke="#FFFFFF" stroke-width="1.43999998"></path>
                <polygon id="Path" fill="#64EDFF" fill-rule="nonzero" points="113.277599 340.437596 112.003199 342.374396 35.0927996 310.838396 36.5327996 308.987996"></polygon>
                <path d="M5.80319993,149.039998 C9.64799989,145.072798 49.5575994,161.560798 52.7399994,192.405598 C54.1367994,205.948798 48.9095994,226.763997 33.2567996,231.544797 C19.1375998,235.864797 1.07999999,225.741597 0.0431999995,215.942397 C-1.00799999,205.919998 16.3079998,203.119198 19.9295998,187.768798 C24.4295997,168.717598 2.64239997,152.265598 5.80319993,149.039998 Z" id="Path" fill="url(#linearGradient-11)" fill-rule="nonzero"></path>
                <circle id="Oval" fill="url(#linearGradient-12)" fill-rule="nonzero" opacity="0.8" cx="425.289595" cy="256.903197" r="22.4279997"></circle>
                <circle id="Oval" fill="#FFFFFF" fill-rule="nonzero" cx="430.689595" cy="129.398399" r="8.8703999"></circle>
                <circle id="Oval" fill="#DEDEDE" fill-rule="nonzero" cx="178.034398" cy="373.557596" r="8.8703999"></circle>
                <circle id="Oval" fill="#DDE6FA" fill-rule="nonzero" cx="214.711198" cy="13.2551998" r="13.2551998"></circle>
                <circle id="Oval" stroke="#FFFFFF" stroke-width="1.43999998" cx="90.6335989" cy="94.8095989" r="8.8703999"></circle>
                <circle id="Oval" fill="#FFFFFF" fill-rule="nonzero" cx="40.4639995" cy="61.1855993" r="30.0023997"></circle>
                <circle id="Oval" stroke="#FFFFFF" stroke-width="1.43999998" cx="443.649595" cy="68.7455992" r="24.4799997"></circle>
                <path d="M191.073598,93.5999989 C192.091654,93.596432 193.106062,93.4780844 194.097598,93.2471989 C193.106062,93.0163134 192.091654,92.8979658 191.073598,92.8943989 C191.070031,91.8763427 190.951683,90.8619347 190.720798,89.870399 C190.489912,90.8619347 190.371565,91.8763427 190.367998,92.8943989 C189.349942,92.8979658 188.335534,93.0163134 187.343998,93.2471989 C188.334912,93.4816361 189.349729,93.6000315 190.367998,93.5999989 C190.367965,94.6182676 190.486361,95.633085 190.720798,96.6239989 C190.951683,95.6324631 191.070031,94.6180552 191.073598,93.5999989 Z" id="Path" fill="#CFCFCF" fill-rule="nonzero"></path>
                <path d="M314.495996,98.5319989 C315.514265,98.5320314 316.529082,98.4136361 317.519996,98.1791989 C316.528195,97.9506761 315.513784,97.8347434 314.495996,97.8335989 C314.496029,96.8153302 314.377634,95.8005128 314.143196,94.8095989 C313.914674,95.8014002 313.798741,96.8158115 313.797596,97.8335989 C312.779605,97.8311415 311.764784,97.9471211 310.773596,98.1791989 C311.76451,98.4136361 312.779328,98.5320314 313.797596,98.5319989 C313.795139,99.5499902 313.911119,100.564811 314.143196,101.555999 C314.377634,100.565085 314.496029,99.5502675 314.495996,98.5319989 Z" id="Path" fill="#CFCFCF" fill-rule="nonzero"></path>
                <path d="M357.400796,138.621598 C358.418852,138.618031 359.43326,138.499684 360.424796,138.268798 C359.43326,138.037913 358.418852,137.919565 357.400796,137.915998 C357.400828,136.89773 357.282433,135.882912 357.047996,134.891998 C356.819473,135.8838 356.70354,136.898211 356.702396,137.915998 C355.681964,137.919574 354.665172,138.037918 353.671196,138.268798 C354.66211,138.503236 355.676927,138.621631 356.695196,138.621598 C356.698763,139.639655 356.81711,140.654063 357.047996,141.645598 C357.282433,140.654685 357.400828,139.639867 357.400796,138.621598 L357.400796,138.621598 Z" id="Path" fill="#CFCFCF" fill-rule="nonzero"></path>
                <path d="M206.639998,135.244798 C207.658266,135.244831 208.673084,135.126436 209.663998,134.891998 C208.672196,134.663476 207.657785,134.547543 206.639998,134.546398 C206.64003,133.52813 206.521635,132.513312 206.287198,131.522398 C206.058675,132.5142 205.942742,133.528611 205.941598,134.546398 C204.92381,134.547543 203.909399,134.663476 202.917598,134.891998 C203.908511,135.126436 204.923329,135.244831 205.941598,135.244798 C205.93914,136.26279 206.05512,137.277611 206.287198,138.268798 C206.521635,137.277885 206.64003,136.263067 206.639998,135.244798 Z" id="Path" fill="#CFCFCF" fill-rule="nonzero"></path>
                <path d="M353.915996,90.093599 C354.614211,90.0903824 355.309826,90.0082612 355.989596,89.848799 C355.30956,89.6916995 354.613942,89.6119932 353.915996,89.611199 C353.916315,88.9127719 353.834146,88.2167512 353.671196,87.537599 C353.514096,88.2176348 353.43439,88.9132531 353.433596,89.611199 C352.73565,89.6119932 352.040032,89.6916995 351.359996,89.848799 C352.039148,90.0117487 352.735169,90.0939178 353.433596,90.093599 C353.434378,90.7891689 353.514088,91.4824038 353.671196,92.1599989 C353.83418,91.4832952 353.916354,90.7896533 353.915996,90.093599 L353.915996,90.093599 Z" id="Path" fill="#CFCFCF" fill-rule="nonzero"></path>
                <path d="M168.479998,121.031999 C169.497785,121.030854 170.512197,120.914921 171.503998,120.686399 C170.513084,120.451961 169.498267,120.333566 168.479998,120.333599 C168.476431,119.315542 168.358084,118.301134 168.127198,117.309599 C167.896313,118.301134 167.777965,119.315542 167.774398,120.333599 C166.756129,120.333566 165.741312,120.451961 164.750398,120.686399 C165.741585,120.918476 166.756407,121.034456 167.774398,121.031999 C167.774365,122.050267 167.892761,123.065085 168.127198,124.055999 C168.358084,123.064463 168.476431,122.050055 168.479998,121.031999 L168.479998,121.031999 Z" id="Path" fill="#CFCFCF" fill-rule="nonzero"></path>
                <circle id="Oval" stroke="#FFFFFF" stroke-width="4.31999995" fill="#2FDD96" fill-rule="nonzero" cx="383.097596" cy="61.7399993" r="21.3839998"></circle>
                <path d="M378.827996,69.1847992 C377.59953,68.3694112 376.859367,66.9944371 376.855196,65.5199992 L379.015196,65.5199992 C379.12913,66.3560179 379.5407,67.1229193 380.174396,67.6799992 C381.053864,68.3218645 382.134867,68.6259764 383.219996,68.5367992 C384.659996,68.5367992 385.653596,68.2631992 386.251196,67.7231992 C386.831152,67.2277604 387.158736,66.498621 387.143996,65.7359992 C387.160524,65.096387 386.925241,64.4758589 386.488796,64.0079993 C385.765937,63.409794 384.895572,63.0168867 383.968796,62.8703993 L382.089596,62.4239993 C380.771057,62.1741555 379.534522,61.6028762 378.489596,60.7607993 C377.669119,59.9984525 377.226549,58.9131034 377.279996,57.7943993 C377.22966,56.4194167 377.859846,55.107876 378.964796,54.2879994 C380.18652,53.3905239 381.676379,52.9336677 383.191196,52.9919994 C384.690347,52.9432737 386.161161,53.4081426 387.359996,54.3095994 C388.495835,55.1579362 389.165497,56.4919234 389.167195,57.9095993 L387.007196,57.9095993 C386.954923,57.0479418 386.518899,56.2551697 385.819196,55.7495994 C385.0528,55.2421374 384.14552,54.9901152 383.227196,55.0295994 C382.234799,54.9631558 381.251422,55.2543375 380.455196,55.8503994 C379.87198,56.2956966 379.522391,56.981632 379.504796,57.7151993 C379.524325,58.2923322 379.757874,58.8415573 380.159996,59.2559993 C380.810467,59.8249505 381.605166,60.2036158 382.456796,60.3503993 L384.328796,60.8039993 C385.690351,61.0628985 386.973951,61.6320184 388.079996,62.4671993 C388.951158,63.2355591 389.423228,64.3600414 389.361595,65.5199992 C389.44562,66.9909356 388.744286,68.3963432 387.518396,69.2135992 C384.859705,70.8959258 381.464153,70.8734201 378.827996,69.1559992 L378.827996,69.1847992 Z M382.427996,72.6407992 L382.427996,67.0103992 L382.427996,50.8391994 L383.939996,50.8391994 L383.939996,72.6407992 L382.427996,72.6407992 Z" id="Shape" fill="#FFFFFF" fill-rule="nonzero"></path>
                <circle id="Oval" fill="#2FDD96" fill-rule="nonzero" cx="90.6335989" cy="58.0751993" r="17.7191998"></circle>
                <path d="M87.119999,64.2455993 C86.0896337,63.5738338 85.4649763,62.4299808 85.456799,61.1999993 L87.271199,61.1999993 C87.3604379,61.9002863 87.7037765,62.5434056 88.235999,63.0071993 C88.9594471,63.5477758 89.8561629,63.8039803 90.7559989,63.7271993 C91.6467531,63.8120461 92.5383822,63.5744486 93.2687989,63.0575993 C93.7371622,62.6388623 94.0000039,62.0369547 93.9887989,61.4087993 C94.0077417,60.8760412 93.8133776,60.3577369 93.4487989,59.9687993 C92.8495821,59.4747933 92.1282784,59.1514502 91.3607989,59.0327993 L89.805599,58.6583993 C88.7172744,58.4487617 87.6965484,57.9767068 86.831999,57.2831993 C86.145063,56.6561408 85.7707601,55.7572867 85.809599,54.8279994 C85.7765704,53.6990757 86.2949607,52.6246917 87.199199,51.9479994 C88.2119475,51.186095 89.4531303,50.7901349 90.7199989,50.8247994 C91.9604384,50.7879715 93.1765567,51.1738796 94.1687989,51.9191994 C95.1052566,52.6186934 95.6596174,53.7167543 95.6663989,54.8855994 L93.8519989,54.8855994 C93.8173001,54.1654127 93.460336,53.4990798 92.8799989,53.0711994 C92.246048,52.6363419 91.4880544,52.4190504 90.7199989,52.4519994 C89.8922811,52.4044236 89.0756348,52.6604255 88.423199,53.1719994 C87.9401448,53.5388997 87.6511225,54.1063381 87.638399,54.7127994 C87.6352329,55.2128521 87.8292481,55.6940099 88.178399,56.0519994 C88.7156283,56.5247909 89.3737397,56.8388895 90.079199,56.9591993 L91.6343989,57.3335993 C92.7588341,57.5506301 93.8181995,58.023649 94.7303989,58.7159993 C95.4714389,59.3519288 95.8734703,60.2971019 95.8175989,61.2719993 C95.879309,62.4720666 95.3119302,63.6177353 94.3199989,64.2959993 C92.1154283,65.6843641 89.3049174,65.6646905 87.119999,64.2455993 L87.119999,64.2455993 Z M90.100799,67.1255992 L90.100799,49.0463994 L91.3463989,49.0463994 L91.3463989,67.1183992 L90.100799,67.1255992 Z" id="Shape" fill="#FFFFFF" fill-rule="nonzero"></path>
            </g>
        </g>
    </g>
</svg>