<?xml version="1.0" encoding="UTF-8"?>
<svg width="597px" height="512px" viewBox="0 0 597 512" version="1.1" xmlns="http://www.w3.org/2000/svg" xmlns:xlink="http://www.w3.org/1999/xlink">
    <!-- Generator: Sketch 63.1 (92452) - https://sketch.com -->
    <title>02_WHAT_WE_DO</title>
    <desc>Created with Sketch.</desc>
    <defs>
        <linearGradient x1="50.0003491%" y1="99.9992615%" x2="50.0003491%" y2="-0.000532399129%" id="linearGradient-1">
            <stop stop-color="#779DEA" offset="0%"></stop>
            <stop stop-color="#91B0EE" offset="10%"></stop>
            <stop stop-color="#ADC3F2" offset="23%"></stop>
            <stop stop-color="#C2D3F6" offset="38%"></stop>
            <stop stop-color="#D1DEF8" offset="54%"></stop>
            <stop stop-color="#DAE4FA" offset="72%"></stop>
            <stop stop-color="#DDE6FA" offset="100%"></stop>
        </linearGradient>
        <linearGradient x1="50.0092556%" y1="99.9999906%" x2="50.0092556%" y2="0.00797188886%" id="linearGradient-2">
            <stop stop-color="#366FE0" offset="0%"></stop>
            <stop stop-color="#366FE0" offset="25%"></stop>
            <stop stop-color="#2F63D1" offset="45%"></stop>
            <stop stop-color="#1B43A9" offset="84%"></stop>
            <stop stop-color="#123597" offset="100%"></stop>
        </linearGradient>
        <linearGradient x1="0%" y1="50%" x2="100%" y2="50%" id="linearGradient-3">
            <stop stop-color="#366FE0" offset="0%"></stop>
            <stop stop-color="#366FE0" offset="25%"></stop>
            <stop stop-color="#2F63D1" offset="45%"></stop>
            <stop stop-color="#1B43A9" offset="84%"></stop>
            <stop stop-color="#123597" offset="100%"></stop>
        </linearGradient>
        <linearGradient x1="50.0001251%" y1="99.9978693%" x2="50.0001251%" y2="-0.0047312035%" id="linearGradient-4">
            <stop stop-color="#4E54C8" offset="0%"></stop>
            <stop stop-color="#8F94FB" offset="100%"></stop>
        </linearGradient>
        <linearGradient x1="33.0487985%" y1="45.5751268%" x2="64.3752914%" y2="52.6445435%" id="linearGradient-5">
            <stop stop-color="#366FE0" offset="0%"></stop>
            <stop stop-color="#366FE0" offset="25%"></stop>
            <stop stop-color="#2F63D1" offset="45%"></stop>
            <stop stop-color="#1B43A9" offset="84%"></stop>
            <stop stop-color="#123597" offset="100%"></stop>
        </linearGradient>
        <linearGradient x1="49.9952745%" y1="100%" x2="49.9952745%" y2="0.00940420319%" id="linearGradient-6">
            <stop stop-color="#4E54C8" offset="0%"></stop>
            <stop stop-color="#8F94FB" offset="100%"></stop>
        </linearGradient>
        <linearGradient x1="0.00860591189%" y1="50.0572519%" x2="100%" y2="50.0572519%" id="linearGradient-7">
            <stop stop-color="#DDE6FA" offset="0%"></stop>
            <stop stop-color="#D8E2F9" offset="17%"></stop>
            <stop stop-color="#C8D7F7" offset="39%"></stop>
            <stop stop-color="#AFC5F3" offset="62%"></stop>
            <stop stop-color="#8BABED" offset="88%"></stop>
            <stop stop-color="#779DEA" offset="100%"></stop>
        </linearGradient>
        <linearGradient x1="0.284982962%" y1="51.6097435%" x2="99.513338%" y2="48.4997023%" id="linearGradient-8">
            <stop stop-color="#366FE0" offset="0%"></stop>
            <stop stop-color="#366FE0" offset="25%"></stop>
            <stop stop-color="#2F63D1" offset="45%"></stop>
            <stop stop-color="#1B43A9" offset="84%"></stop>
            <stop stop-color="#123597" offset="100%"></stop>
        </linearGradient>
        <linearGradient x1="0%" y1="49.9600958%" x2="100.015172%" y2="49.9600958%" id="linearGradient-9">
            <stop stop-color="#366FE0" offset="0%"></stop>
            <stop stop-color="#366FE0" offset="25%"></stop>
            <stop stop-color="#2F63D1" offset="45%"></stop>
            <stop stop-color="#1B43A9" offset="84%"></stop>
            <stop stop-color="#123597" offset="100%"></stop>
        </linearGradient>
        <linearGradient x1="-0.00822842097%" y1="49.9846955%" x2="100%" y2="49.9846955%" id="linearGradient-10">
            <stop stop-color="#DDE6FA" offset="0%"></stop>
            <stop stop-color="#D8E2F9" offset="17%"></stop>
            <stop stop-color="#C8D7F7" offset="39%"></stop>
            <stop stop-color="#AFC5F3" offset="62%"></stop>
            <stop stop-color="#8BABED" offset="88%"></stop>
            <stop stop-color="#779DEA" offset="100%"></stop>
        </linearGradient>
        <linearGradient x1="-0.00244085139%" y1="50.0035252%" x2="100%" y2="50.0035252%" id="linearGradient-11">
            <stop stop-color="#FB9F02" offset="0%"></stop>
            <stop stop-color="#FB9F02" offset="32%"></stop>
            <stop stop-color="#FC4C5C" offset="100%"></stop>
        </linearGradient>
        <linearGradient x1="0%" y1="49.9970375%" x2="100.008156%" y2="49.9970375%" id="linearGradient-12">
            <stop stop-color="#DDE6FA" offset="0%"></stop>
            <stop stop-color="#D8E2F9" offset="17%"></stop>
            <stop stop-color="#C8D7F7" offset="39%"></stop>
            <stop stop-color="#AFC5F3" offset="62%"></stop>
            <stop stop-color="#8BABED" offset="88%"></stop>
            <stop stop-color="#779DEA" offset="100%"></stop>
        </linearGradient>
        <linearGradient x1="-0.0434940498%" y1="50.0306787%" x2="99.9578565%" y2="50.0306787%" id="linearGradient-13">
            <stop stop-color="#DDE6FA" offset="0%"></stop>
            <stop stop-color="#D8E2F9" offset="17%"></stop>
            <stop stop-color="#C8D7F7" offset="39%"></stop>
            <stop stop-color="#AFC5F3" offset="62%"></stop>
            <stop stop-color="#8BABED" offset="88%"></stop>
            <stop stop-color="#779DEA" offset="100%"></stop>
        </linearGradient>
        <linearGradient x1="0%" y1="49.9964801%" x2="100%" y2="49.9964801%" id="linearGradient-14">
            <stop stop-color="#366FE0" offset="0%"></stop>
            <stop stop-color="#366FE0" offset="25%"></stop>
            <stop stop-color="#2F63D1" offset="45%"></stop>
            <stop stop-color="#1B43A9" offset="84%"></stop>
            <stop stop-color="#123597" offset="100%"></stop>
        </linearGradient>
        <linearGradient x1="0%" y1="50.0283406%" x2="99.9534884%" y2="50.0283406%" id="linearGradient-15">
            <stop stop-color="#DDE6FA" offset="0%"></stop>
            <stop stop-color="#D8E2F9" offset="17%"></stop>
            <stop stop-color="#C8D7F7" offset="39%"></stop>
            <stop stop-color="#AFC5F3" offset="62%"></stop>
            <stop stop-color="#8BABED" offset="88%"></stop>
            <stop stop-color="#779DEA" offset="100%"></stop>
        </linearGradient>
        <linearGradient x1="50%" y1="100.246914%" x2="50%" y2="-0.12345679%" id="linearGradient-16">
            <stop stop-color="#4E54C8" offset="0%"></stop>
            <stop stop-color="#8F94FB" offset="100%"></stop>
        </linearGradient>
        <linearGradient x1="49.9628805%" y1="100%" x2="49.9628805%" y2="-1.80799678e-13%" id="linearGradient-17">
            <stop stop-color="#4E54C8" offset="0%"></stop>
            <stop stop-color="#8F94FB" offset="100%"></stop>
        </linearGradient>
        <linearGradient x1="50%" y1="100.339751%" x2="50%" y2="0.113250283%" id="linearGradient-18">
            <stop stop-color="#4E54C8" offset="0%"></stop>
            <stop stop-color="#8F94FB" offset="100%"></stop>
        </linearGradient>
        <linearGradient x1="49.8734177%" y1="100%" x2="49.8734177%" y2="0%" id="linearGradient-19">
            <stop stop-color="#4E54C8" offset="0%"></stop>
            <stop stop-color="#8F94FB" offset="100%"></stop>
        </linearGradient>
        <linearGradient x1="49.9108734%" y1="100%" x2="49.9108734%" y2="0%" id="linearGradient-20">
            <stop stop-color="#4E54C8" offset="0%"></stop>
            <stop stop-color="#8F94FB" offset="100%"></stop>
        </linearGradient>
        <linearGradient x1="50.2590674%" y1="99.7382199%" x2="50.2590674%" y2="-0.261780105%" id="linearGradient-21">
            <stop stop-color="#4E54C8" offset="0%"></stop>
            <stop stop-color="#8F94FB" offset="100%"></stop>
        </linearGradient>
        <linearGradient x1="49.8830865%" y1="100%" x2="49.8830865%" y2="-2.08370304e-13%" id="linearGradient-22">
            <stop stop-color="#4E54C8" offset="0%"></stop>
            <stop stop-color="#8F94FB" offset="100%"></stop>
        </linearGradient>
        <linearGradient x1="50.0365764%" y1="100%" x2="50.0365764%" y2="0%" id="linearGradient-23">
            <stop stop-color="#4E54C8" offset="0%"></stop>
            <stop stop-color="#8F94FB" offset="100%"></stop>
        </linearGradient>
        <linearGradient x1="0%" y1="50%" x2="100%" y2="50%" id="linearGradient-24">
            <stop stop-color="#FFFFFF" offset="16%"></stop>
            <stop stop-color="#FBFFFD" stop-opacity="0.97" offset="23%"></stop>
            <stop stop-color="#EFFDF7" stop-opacity="0.9" offset="34%"></stop>
            <stop stop-color="#DCFBEE" stop-opacity="0.77" offset="47%"></stop>
            <stop stop-color="#C1F8E0" stop-opacity="0.6" offset="61%"></stop>
            <stop stop-color="#9FF4CF" stop-opacity="0.38" offset="77%"></stop>
            <stop stop-color="#76EFBB" stop-opacity="0.11" offset="93%"></stop>
            <stop stop-color="#64EDB2" stop-opacity="0" offset="100%"></stop>
        </linearGradient>
        <linearGradient x1="0%" y1="50%" x2="100.028831%" y2="50%" id="linearGradient-25">
            <stop stop-color="#FFFFFF" offset="30%"></stop>
            <stop stop-color="#FDFEFF" stop-opacity="0.99" offset="44%"></stop>
            <stop stop-color="#F8FAFE" stop-opacity="0.96" offset="54%"></stop>
            <stop stop-color="#F0F4FD" stop-opacity="0.9" offset="62%"></stop>
            <stop stop-color="#E4EBFB" stop-opacity="0.82" offset="69%"></stop>
            <stop stop-color="#D4E0F8" stop-opacity="0.72" offset="76%"></stop>
            <stop stop-color="#C1D2F5" stop-opacity="0.59" offset="83%"></stop>
            <stop stop-color="#AAC2F2" stop-opacity="0.44" offset="89%"></stop>
            <stop stop-color="#91B0EE" stop-opacity="0.27" offset="95%"></stop>
            <stop stop-color="#779DEA" stop-opacity="0.1" offset="100%"></stop>
        </linearGradient>
    </defs>
    <g id="Page-1" stroke="none" stroke-width="1" fill="none" fill-rule="evenodd">
        <g id="Project4" transform="translate(-727.000000, -7590.000000)">
            <g id="02_WHAT_WE_DO" transform="translate(727.000000, 7590.000000)">
                <path d="M554.696107,197.170203 C549.180007,284.998504 455.365806,325.401304 352.050305,320.703304 C344.117705,320.346904 336.150004,319.725904 328.147204,318.840304 C289.745104,314.595904 250.857003,304.260304 215.468103,287.914504 C152.482502,258.851703 113.408102,225.244803 94.5027013,190.034103 C89.6719864,181.118504 86.0362384,171.605645 83.6892011,161.740802 C75.775501,128.061002 84.8556011,93.6036012 107.932501,60.8472008 C118.997102,45.1170006 131.795102,35.2593005 145.103402,29.5083004 C170.577902,18.4923002 198.012603,22.5423003 219.339903,29.5083004 C225.406803,31.4928004 230.963403,33.6879004 235.863903,35.8506005 C243.128376,39.029729 250.143809,42.7499931 256.851003,46.9800006 C335.907004,99.0954013 379.161005,87.1317012 411.463805,80.0685011 C434.718906,74.989801 502.718407,72.154801 536.122807,118.179002 C549.180007,136.136702 556.915507,161.546402 554.696107,197.170203 Z" id="Path" fill="url(#linearGradient-1)" fill-rule="nonzero"></path>
                <circle id="Oval" fill="#FFFFFF" fill-rule="nonzero" cx="128.960102" cy="116.631902" r="116.631902"></circle>
                <path d="M224.985603,116.640002 C224.985603,118.349102 224.937003,120.025802 224.847903,121.710602 C222.179437,172.716929 180.028074,212.696459 128.952002,212.665521 C125.825402,212.665521 122.723102,212.511603 119.669402,212.220003 C68.0696936,207.222581 29.7481094,162.176885 33.0851903,110.44326 C36.4222711,58.7096346 80.2135428,18.9606342 132.027674,20.6339287 C183.841805,22.3072231 224.977183,64.7988592 224.969403,116.640002 L224.985603,116.640002 Z" id="Path" fill="url(#linearGradient-2)" fill-rule="nonzero"></path>
                <polygon id="Path" fill="url(#linearGradient-3)" fill-rule="nonzero" points="458.630106 327.167104 426.222006 256.745703 409.033805 319.237204 434.824206 320.444104"></polygon>
                <path d="M411.350405,319.237204 L240.740103,319.237204 L228.347103,211.758303 C228.347103,211.758303 242.052303,188.883903 254.469603,172.578602 C259.097647,166.502451 265.496283,162.011237 272.783704,159.723902 C301.271404,150.716702 380.894405,131.373902 453.664806,167.475602 C453.664806,167.475602 477.308706,177.811202 498.133807,263.412003 C509.473807,310.092304 510.097507,351.191705 501.827407,378.229505 C501.665407,378.764105 501.511507,379.282505 501.333307,379.800905 C501.228007,380.157305 501.114607,380.489405 500.993107,380.853905 C499.627058,384.983817 497.886418,388.980239 495.792907,392.793305 C488.397606,406.061105 477.608406,413.043305 463.919406,411.480005 C462.931917,411.370078 461.950578,411.210577 460.979106,411.002105 C456.610029,410.105298 452.407136,408.533996 448.521306,406.344605 C448.189206,406.166405 447.849006,405.963905 447.533106,405.785705 C447.030906,405.486005 446.561106,405.210605 446.083206,404.894705 C415.303206,385.932605 393.157805,333.614704 393.157805,333.614704 C393.157805,333.614704 419.774406,326.178904 432.669606,302.834704 L453.502806,326.146504 L426.724206,263.412003" id="Path" fill="url(#linearGradient-4)" fill-rule="nonzero"></path>
                <path d="M392.412605,84.1671011 C392.412605,84.1671011 390.128405,110.200501 377.022605,118.948502 C363.916805,127.696502 374.155205,87.2856012 374.155205,87.2856012 L392.412605,84.1671011 Z" id="Path" fill="url(#linearGradient-5)" fill-rule="nonzero"></path>
                <path d="M419.936406,288.068404 L411.350405,319.237204 L386.572505,319.237204 C386.572505,319.237204 368.930705,314.514904 365.958005,300.153604 L336.960004,315.762304 L334.230304,286.002904 L351.426605,260.439303 C356.739502,252.544489 366.040069,248.307563 375.483605,249.480003 L379.622705,249.990303 C385.033831,250.669189 390.002301,253.326541 393.570905,257.450403 L419.936406,288.068404 Z" id="Path" fill="url(#linearGradient-6)" fill-rule="nonzero"></path>
                <path d="M383.130005,150.749102 C377.711105,156.670202 364.864505,166.827602 337.559404,172.327502 C335.357443,172.765866 333.076888,172.154486 331.389488,170.673447 C329.702087,169.192408 328.800061,167.010422 328.949104,164.770202 L329.953504,149.736602 L331.152304,131.827502 L331.549204,125.882102 L368.687705,95.8473013 L374.625005,85.1472011 L378.172805,91.5867012 C378.172805,91.5867012 377.419505,118.316702 385.057805,141.806702 C386.076862,144.916937 385.34,148.334985 383.130005,150.749102 L383.130005,150.749102 Z" id="Path" fill="#F0BEB4" fill-rule="nonzero"></path>
                <path d="M367.885805,118.179002 C367.885805,118.179002 361.405805,150.303602 337.761904,150.165902 C335.158808,150.158349 332.557876,150.015054 329.969704,149.736602 L331.168504,131.827502 L367.885805,118.179002 Z" id="Path" fill="#B48F87" fill-rule="nonzero"></path>
                <path d="M386.823605,101.817001 C385.770605,114.930902 370.153805,109.285201 370.153805,109.285201 C368.655305,139.976102 330.893104,152.822702 318.888904,129.713402 C314.976604,122.188502 315.810904,110.524501 318.313804,99.0792013 C322.234204,81.0162011 330.285604,63.4392008 330.285604,63.4392008 L365.156105,65.2536009 L375.402605,93.8628012 C375.402605,93.8628012 387.876605,88.7031012 386.823605,101.817001 Z" id="Path" fill="#F0BEB4" fill-rule="nonzero"></path>
                <ellipse id="Oval" fill="#1B4736" fill-rule="nonzero" transform="translate(329.490496, 97.263138) rotate(-76.230000) translate(-329.490496, -97.263138) " cx="329.490496" cy="97.2631377" rx="2.57580003" ry="1.23120002"></ellipse>
                <ellipse id="Oval" fill="#1B4736" fill-rule="nonzero" transform="translate(348.920783, 102.831201) rotate(-76.230000) translate(-348.920783, -102.831201) " cx="348.920783" cy="102.831201" rx="2.57580003" ry="1.23120002"></ellipse>
                <path d="M324.745204,89.6508012 C324.891004,87.0993012 334.935004,88.5816012 334.935004,88.5816012 C335.403152,88.5320057 335.871026,88.6777074 336.228243,88.984331 C336.585459,89.2909546 336.800382,89.7313448 336.822304,90.2016012 L336.870904,91.0116012 C336.896171,91.4711023 336.684684,91.9116084 336.310319,92.1792467 C335.935954,92.446885 335.450716,92.5044755 335.024104,92.3319012 L335.024104,92.3319012 C334.505704,92.1213012 333.987304,91.9269012 333.452704,91.7487012 C331.902654,91.2565012 330.291298,90.9838522 328.665604,90.9387012 C326.940304,90.8577012 324.688504,90.5742012 324.745204,89.6508012 Z" id="Path" fill="#1B4736" fill-rule="nonzero"></path>
                <path d="M356.886005,96.1713013 C357.696005,93.7413012 347.724905,91.3113012 347.724905,91.3113012 C347.341492,91.1165935 346.896397,91.0823145 346.487692,91.2160174 C346.078987,91.3497202 345.740209,91.6404332 345.546005,92.0241012 L345.238205,92.6802012 C345.016375,93.1457968 345.048119,93.6925091 345.322346,94.1293014 C345.596573,94.5660936 346.075171,94.8322626 346.590905,94.8348013 L346.882505,94.8348013 C348.853961,94.878786 350.804895,95.2454413 352.657805,95.9202013 C354.342605,96.4872013 356.578205,97.0704013 356.886005,96.1713013 Z" id="Path" fill="#1B4736" fill-rule="nonzero"></path>
                <path d="M339.390004,95.7177013 L333.201604,103.987801 C331.515347,106.2322 331.4373,109.298831 333.007204,111.626101 L333.363604,112.160701" id="Path" stroke="#FFFFFF" stroke-width="1.53900002"></path>
                <path d="M329.597104,119.531702 C329.597104,119.531702 337.697104,120.390302 342.046805,119.410202 C342.046805,119.410202 342.370805,127.008002 335.842204,126.854102 C329.313604,126.700202 329.597104,119.531702 329.597104,119.531702 Z" id="Path" fill="#FFFFFF" fill-rule="nonzero"></path>
                <path d="M392.161505,148.626902 C392.161505,148.626902 389.601905,151.291802 385.300805,154.977302 L384.490805,155.690102 C381.672005,158.120102 378.205205,160.849802 374.276705,163.587602 C374.018926,163.795958 373.7484,163.988031 373.466705,164.162702 C369.896961,166.639421 366.17735,168.892829 362.329205,170.910002 C362.029505,171.047702 361.729805,171.209702 361.438205,171.363602 C358.366743,172.927784 355.192295,174.280916 351.936905,175.413602 C350.365505,175.948202 348.858905,176.442302 347.433305,176.863502 L346.356005,177.179402 C342.362773,178.444004 338.236828,179.2431 334.060204,179.560802 C333.703804,179.560802 333.363604,179.560802 333.047704,179.560802 C328.187704,179.560802 325.215004,178.054202 323.700304,175.041002 C323.48469,174.631698 323.300557,174.206569 323.149504,173.769302 C322.686529,172.250746 322.438421,170.674853 322.412404,169.087502 C322.323877,166.649359 322.652607,164.214015 323.384404,161.886602 C323.652118,161.057498 323.971339,160.245919 324.340204,159.456602 L324.340204,159.456602 C325.566443,156.770468 327.425896,154.421831 329.759104,152.612102 C329.848034,153.523357 329.985934,154.429166 330.172204,155.325602 C330.253204,155.682002 330.334204,156.022202 330.415204,156.338102 C330.884999,158.538909 331.876736,160.594611 333.306904,162.332102 C333.549904,162.591302 333.801004,162.842402 334.044004,163.061102 C335.601634,164.398004 337.565653,165.168767 339.616804,165.248102 C339.997505,165.248102 340.426805,165.248102 340.823705,165.248102 C343.4789,165.082713 346.085261,164.457845 348.526805,163.401302 L349.539305,162.988202 C352.390936,161.700455 355.141867,160.20044 357.768905,158.500802 C358.068605,158.322602 358.360205,158.128202 358.659905,157.925702 C361.300505,156.200402 363.916805,154.313102 366.395405,152.369102 C366.678905,152.174702 366.938105,151.972202 367.205405,151.777802 C369.983705,149.574602 372.600005,147.371402 374.884205,145.346402 C375.159605,145.111502 375.443105,144.876602 375.694205,144.633602 C377.638205,142.908302 379.298705,141.345002 380.554205,140.113802 C380.837705,139.854602 381.096905,139.595402 381.364205,139.360502 C382.814105,137.967302 383.648405,137.116802 383.648405,137.116802 C387.698405,137.926802 389.950205,141.677102 391.068005,144.674102 C391.319105,145.289702 391.497305,145.881002 391.659305,146.399402 C391.865194,147.132697 392.03282,147.876201 392.161505,148.626902 Z" id="Path" fill="url(#linearGradient-7)" fill-rule="nonzero"></path>
                <path d="M358.522205,74.868301 C358.522205,74.868301 330.237004,92.4453012 319.172404,74.738701 C308.107804,57.0321008 325.944004,29.0304004 348.178505,36.3771005 C370.413005,43.7238006 384.272105,44.3961006 383.648405,57.0888008 C383.648405,57.0888008 419.288406,77.225401 375.426905,99.6219048 C375.426905,99.6300013 352.568705,85.5765011 358.522205,74.868301 Z" id="Path" fill="url(#linearGradient-8)" fill-rule="nonzero"></path>
                <path d="M331.095604,179.504102 C331.095604,179.504102 318.192304,252.582303 330.666304,322.347604" id="Path" stroke="#64EDFF" stroke-width="1.53900002" stroke-linecap="round"></path>
                <rect id="Rectangle" fill="url(#linearGradient-9)" fill-rule="nonzero" x="345.886205" y="314.709304" width="53.3871007" height="10.1493001"></rect>
                <path d="M432.669606,302.867104 C419.774406,326.178904 393.157805,333.647104 393.157805,333.647104 L386.572505,319.269604 C386.572505,319.269604 368.930705,314.547304 365.958005,300.186004 L336.960004,315.762304 L334.230304,286.002904 L351.426605,260.439303 C356.739502,252.544489 366.040069,248.307563 375.483605,249.480003 L379.622705,249.990303 C385.033831,250.669189 390.002301,253.326541 393.570905,257.450403 L419.936406,288.060304 L432.669606,302.867104 Z" id="Path" fill="url(#linearGradient-10)" fill-rule="nonzero"></path>
                <path d="M154.272602,209.789991 L292.653004,209.789991 L350.843405,324.850504 L210.138303,324.850504 C206.347233,324.846513 202.879235,322.715009 201.163503,319.334404 L149.607002,217.387803 C148.780217,215.766385 148.856832,213.831548 149.809238,212.280582 C150.761643,210.729616 152.452559,209.786077 154.272602,209.789991 L154.272602,209.789991 Z" id="Path" fill="url(#linearGradient-11)" fill-rule="nonzero"></path>
                <path d="M182.055602,291.454204 L189.062103,267.381004 C189.31587,266.502221 190.016645,265.823935 190.903234,265.598955 C191.789823,265.373974 192.729223,265.636051 193.371303,266.287504 C196.092903,269.057704 199.170903,275.351404 197.267403,289.477804 L188.835303,295.261204 L182.055602,291.454204 Z" id="Path" fill="url(#linearGradient-12)" fill-rule="nonzero"></path>
                <path d="M227.018703,334.764904 C222.555603,337.583704 203.050803,337.923904 192.998703,337.583704 C186.138002,337.348804 180.597602,332.780404 177.527702,327.904204 C176.195218,325.891134 175.321409,323.60983 174.968102,321.221704 C174.312002,314.928004 177.624902,306.641704 177.624902,306.641704 C175.340702,300.275104 178.321502,295.479904 180.403202,293.098504 C180.909771,292.489358 181.473991,291.930564 182.088002,291.429904 L197.283603,289.445404 C234.972903,297.043204 228.371403,306.641704 228.371403,306.641704 C235.467003,309.938404 232.834503,315.729904 232.834503,315.729904 C232.834503,315.729904 236.957403,315.389704 237.791703,322.015504 C238.626003,328.641304 231.481803,331.970404 227.018703,334.764904 Z" id="Path" fill="url(#linearGradient-13)" fill-rule="nonzero"></path>
                <path d="M354.885305,324.850504 L350.835305,324.850504 L292.661104,209.790003 L295.285504,209.790003 C296.146052,209.790003 296.932735,210.276315 297.318604,211.045503 L354.885305,324.850504 Z" id="Path" fill="url(#linearGradient-14)" fill-rule="nonzero"></path>
                <ellipse id="Oval" fill="#F2F2F2" fill-rule="nonzero" transform="translate(241.756410, 267.666124) rotate(-34.804012) translate(-241.756410, -267.666124) " cx="241.75641" cy="267.666124" rx="8.53395589" ry="13.0719173"></ellipse>
                <path d="M446.933706,165.240002 C446.933706,165.240002 312.789604,284.075104 272.467804,159.804902" id="Path" stroke="#64EDFF" stroke-width="1.53900002" stroke-linecap="round"></path>
                <path d="M484.469106,374.219752 C466.048833,374.154199 450.072431,386.933971 446.091306,404.919005 C446.569206,405.243005 447.030906,405.518405 447.533106,405.810005 C449.934675,394.362454 457.511916,384.677145 468.045122,379.591329 C478.578328,374.505512 490.875149,374.5949 501.333307,379.833305 C501.511507,379.306805 501.665407,378.796505 501.819307,378.261905 C496.420167,375.60813 490.485185,374.225517 484.469106,374.219752 Z" id="Path" stroke="#64EDFF" stroke-width="1.53900002" stroke-linecap="round"></path>
                <path d="M495.792907,392.793305 C488.397606,406.061105 477.608406,413.043305 463.919406,411.480005 C462.931917,411.370078 461.950578,411.210577 460.979106,411.002105 C461.374876,402.929164 466.017831,395.670082 473.180683,391.925409 C480.343535,388.180737 488.954124,388.51099 495.809107,392.793305 L495.792907,392.793305 Z" id="Path" fill="url(#linearGradient-15)" fill-rule="nonzero"></path>
                <path d="M453.332706,170.100002 C453.332706,170.100002 532.818007,368.501405 474.757206,359.915405 C425.565906,352.625405 411.577205,324.866704 411.577205,324.866704" id="Path" stroke="#64EDFF" stroke-width="1.53900002" stroke-linecap="round"></path>
                <path d="M330.431404,156.330002 C327.778286,157.766826 325.394053,159.652288 323.384404,161.902802 C323.652118,161.073698 323.971339,160.262119 324.340204,159.472802 L324.340204,159.472802 C326.118073,157.875106 328.075131,156.488856 330.172204,155.341802 C330.269404,155.690102 330.350404,156.030302 330.431404,156.330002 Z" id="Path" fill="url(#linearGradient-16)" fill-rule="nonzero"></path>
                <path d="M334.060204,163.069202 C332.019004,164.462402 326.041204,169.022702 323.700304,175.073402 C323.48469,174.664098 323.300557,174.238969 323.149504,173.801702 C325.725304,168.050702 331.160404,163.846802 333.323104,162.340202 C333.566104,162.599402 333.817204,162.850502 334.060204,163.069202 Z" id="Path" fill="url(#linearGradient-17)" fill-rule="nonzero"></path>
                <path d="M340.839905,165.240002 C339.276604,167.402702 335.485804,173.097002 334.060204,179.544602 C333.703804,179.544602 333.363604,179.544602 333.047704,179.544602 C334.359904,173.340002 337.770004,167.832002 339.633004,165.240002 C340.013705,165.240002 340.426805,165.240002 340.839905,165.240002 Z" id="Path" fill="url(#linearGradient-18)" fill-rule="nonzero"></path>
                <path d="M349.555505,162.996302 C349.187267,167.664275 348.477974,172.299049 347.433305,176.863502 L346.356005,177.179402 C347.402962,172.645578 348.13372,168.044504 348.543005,163.409402 L349.555505,162.996302 Z" id="Path" fill="url(#linearGradient-19)" fill-rule="nonzero"></path>
                <path d="M362.329205,170.910002 C362.029505,171.047702 361.729805,171.209702 361.438205,171.363602 C359.769605,165.985202 358.376405,160.752602 357.785105,158.508902 C358.084805,158.330702 358.376405,158.136302 358.676105,157.933802 C359.194505,159.902102 360.620105,165.312902 362.329205,170.910002 Z" id="Path" fill="url(#linearGradient-20)" fill-rule="nonzero"></path>
                <path d="M374.220005,163.620002 C373.962226,163.828358 373.6917,164.020431 373.410005,164.195102 C372.062222,159.757681 369.657954,155.713507 366.403505,152.409602 C366.687005,152.215202 366.946205,152.012702 367.213505,151.818302 C370.472779,155.124818 372.877594,159.175472 374.220005,163.620002 Z" id="Path" fill="url(#linearGradient-21)" fill-rule="nonzero"></path>
                <path d="M385.300805,154.977302 L384.490805,155.690102 C382.708805,150.020102 377.370905,146.666702 374.908505,145.354502 C375.183905,145.119602 375.467405,144.884702 375.718505,144.641702 C378.359105,146.091602 383.373005,149.404502 385.300805,154.977302 Z" id="Path" fill="url(#linearGradient-22)" fill-rule="nonzero"></path>
                <path d="M391.667405,146.407502 C387.957605,143.337602 382.838405,141.053402 380.594705,140.121902 C380.878205,139.862702 381.137405,139.603502 381.404705,139.368602 C384.839005,140.758553 388.100742,142.541636 391.124705,144.682202 C391.327205,145.297802 391.505405,145.889102 391.667405,146.407502 Z" id="Path" fill="url(#linearGradient-23)" fill-rule="nonzero"></path>
                <path d="M391.230005,258.446703 C388.226681,255.529372 383.809133,254.607997 379.890005,256.081503 C376.455605,257.369403 373.272305,259.167603 374.859905,261.046803 C377.929805,264.683704 364.913105,276.736504 371.093405,284.261404 C377.273705,291.786304 404.797505,301.708804 411.536705,291.956404 C416.647806,284.585404 399.767405,266.724904 391.230005,258.446703 Z" id="Path" stroke="#FFFFFF" stroke-width="1.49040002"></path>
                <text id="What-We-Do" font-family="Poppins-Medium, Poppins Medium" font-size="30" font-weight="normal" fill="#302727">
                    <tspan x="206.145" y="511">What We Do</tspan>
                </text>
                <path d="M183.213902,300.550504 C181.067402,308.480404 178.750802,316.750504 180.395102,323.044204 C181.051202,325.474204 179.585102,326.972704 177.503402,327.904204 C176.170918,325.891134 175.297109,323.60983 174.943802,321.221704 C174.287702,314.928004 177.600602,306.641704 177.600602,306.641704 C175.316402,300.275104 178.297202,295.479904 180.378902,293.098504 C182.120402,293.568304 184.680002,295.131604 183.213902,300.550504 Z" id="Path" stroke="#FFFFFF" stroke-width="1.49040002"></path>
                <path d="M228.347103,306.674104 C222.863403,306.674104 217.404003,306.423004 211.944603,306.074704 C206.485203,305.726404 201.042003,305.264704 195.615003,304.454704 C201.090603,304.454704 206.558103,304.705804 212.009403,305.062204 C217.460703,305.418604 222.912003,305.920804 228.347103,306.674104 Z" id="Path" fill="#666666" fill-rule="nonzero"></path>
                <path d="M232.810203,315.762304 C227.391303,316.418404 221.964303,316.782904 216.529203,317.066404 C211.094103,317.349904 205.650903,317.495704 200.199603,317.374204 C205.618503,316.718104 211.045503,316.353604 216.480603,316.070104 C221.915703,315.786604 227.350803,315.640804 232.810203,315.762304 Z" id="Path" fill="#666666" fill-rule="nonzero"></path>
                <path d="M231.951603,331.703104 C226.670689,332.636265 221.294144,332.908357 215.946003,332.513104 C218.580867,332.024922 221.247073,331.724466 223.924503,331.614004 C226.599127,331.461606 229.281021,331.491375 231.951603,331.703104 Z" id="Path" fill="#666666" fill-rule="nonzero"></path>
                <circle id="Oval" fill="url(#linearGradient-24)" fill-rule="nonzero" cx="556.866907" cy="199.786503" r="39.9654005"></circle>
                <circle id="Oval" fill="#DDE6FA" fill-rule="nonzero" cx="190.819803" cy="131.066102" r="3.11040004"></circle>
                <circle id="Oval" fill="#DDE6FA" fill-rule="nonzero" cx="115.165802" cy="180.144002" r="3.11040004"></circle>
                <circle id="Oval" fill="#DDE6FA" fill-rule="nonzero" cx="69.8382009" cy="85.8438011" r="1.51470002"></circle>
                <circle id="Oval" fill="#DDE6FA" fill-rule="nonzero" cx="164.527202" cy="67.6188009" r="1.51470002"></circle>
                <circle id="Oval" fill="#DDE6FA" fill-rule="nonzero" cx="65.5533009" cy="145.800002" r="1.51470002"></circle>
                <path d="M346.250705,350.624705 C347.888761,351.307177 349.412943,352.235891 350.770505,353.378705 C353.500205,355.760105 355.063505,359.210705 356.059805,362.693705 C356.869805,365.569205 357.250505,369.027905 355.249805,371.223005 C352.981805,373.653005 348.915605,373.215605 345.942905,371.692805 C342.970205,370.170005 340.418705,367.804805 337.243504,366.776105 C332.804704,365.350505 328.041904,366.776105 323.473504,367.529405 C318.208504,368.388005 312.003904,367.950605 308.723404,363.754805 C307.848887,362.59445 307.197908,361.281506 306.803704,359.883005 C301.652104,343.018805 337.770004,346.898705 346.250705,350.624705 Z" id="Path" fill="#64EDB2" fill-rule="nonzero"></path>
                <polygon id="Path" fill="#F7F7F7" fill-rule="nonzero" points="100.674901 100.982701 82.2150011 119.458802 149.380202 119.450702 167.815802 100.982701"></polygon>
                <rect id="Rectangle" fill="#F7F7F7" fill-rule="nonzero" x="104.595301" y="123.387302" width="44.7606006" height="18.4761002"></rect>
                <polygon id="Path" fill="#F7F7F7" fill-rule="nonzero" points="171.744302 97.0461013 171.760502 74.633401 149.355902 74.690101 126.999902 97.0461013"></polygon>
                <polygon id="Path" fill="#F7F7F7" fill-rule="nonzero" points="126.999902 145.800002 126.999902 164.187002 145.386902 145.800002"></polygon>
                <path d="M109.957501,154.936802 C110.532601,154.888202 111.115801,154.847702 111.699001,154.750502 C111.42288,155.452681 111.072596,156.12338 110.654101,156.751202 C105.097501,165.361502 95.9769013,172.951202 89.2458012,180.735302 C75.351601,196.832703 62.0001008,213.372903 49.1913007,230.355903 C41.8797006,240.043503 34.7544005,249.858003 27.8154004,259.799403 C37.4942565,236.568194 49.1157684,214.194954 62.5563008,192.917703 C56.7535309,193.823205 51.3542912,196.443839 47.0529006,200.442603 C50.1309007,196.117203 53.2089007,191.808003 56.2707007,187.482602 C55.4607007,187.344902 55.5174007,186.129902 55.7928007,185.328002 C37.2114005,199.297803 18.6138002,213.270303 0,227.245503 C28.5629439,194.656153 59.7970371,164.508533 93.3768012,137.116802 C93.5469012,138.599102 93.7008012,140.057102 93.8547012,141.523202 C94.6647013,141.782402 95.4747013,142.057802 96.2847013,142.333202 C95.2317013,144.439202 94.1706012,146.569502 93.1257012,148.691702 C93.5145012,147.881702 98.5122013,147.987002 102.643201,148.278602 C102.626756,148.326755 102.605023,148.372938 102.578401,148.416302 C101.549701,150.400802 100.521001,152.369102 99.6705013,154.450802 C102.963716,153.922581 106.184674,153.014733 109.269001,151.745402 C109.034249,152.046607 108.924071,152.426431 108.961201,152.806502 C109.9703,152.70223 110.971457,152.531763 111.958201,152.296202 C112.003115,152.563829 112.024796,152.834839 112.023104,153.106202 C111.302686,153.679532 110.613221,154.290587 109.957501,154.936802 Z" id="Path" fill="url(#linearGradient-25)" fill-rule="nonzero"></path>
            </g>
        </g>
    </g>
</svg>