<?xml version="1.0" encoding="UTF-8"?>
<svg width="566px" height="512px" viewBox="0 0 566 512" version="1.1" xmlns="http://www.w3.org/2000/svg" xmlns:xlink="http://www.w3.org/1999/xlink">
    <!-- Generator: Sketch 63.1 (92452) - https://sketch.com -->
    <title>03_CHANNEL_GROWTH</title>
    <desc>Created with Sketch.</desc>
    <defs>
        <linearGradient x1="47.7890447%" y1="77.2322686%" x2="54.2600244%" y2="24.2191936%" id="linearGradient-1">
            <stop stop-color="#779DEA" offset="0%"></stop>
            <stop stop-color="#8DADED" offset="6%"></stop>
            <stop stop-color="#B8CCF4" offset="20%"></stop>
            <stop stop-color="#D3DFF8" offset="30%"></stop>
            <stop stop-color="#DDE6FA" offset="36%"></stop>
            <stop stop-color="#FFFFFF" offset="100%"></stop>
        </linearGradient>
        <linearGradient x1="49.9845451%" y1="100%" x2="49.9845451%" y2="0%" id="linearGradient-2">
            <stop stop-color="#779DEA" offset="0%"></stop>
            <stop stop-color="#8AABED" offset="17%"></stop>
            <stop stop-color="#C6D5F6" offset="73%"></stop>
            <stop stop-color="#DDE6FA" offset="100%"></stop>
        </linearGradient>
        <linearGradient x1="0.0202090867%" y1="50.0027882%" x2="99.9743518%" y2="50.0027882%" id="linearGradient-3">
            <stop stop-color="#779DEA" offset="0%"></stop>
            <stop stop-color="#7A9FEB" offset="1%"></stop>
            <stop stop-color="#99B5EF" offset="11%"></stop>
            <stop stop-color="#B2C7F3" offset="22%"></stop>
            <stop stop-color="#C5D5F6" offset="35%"></stop>
            <stop stop-color="#D3DFF8" offset="49%"></stop>
            <stop stop-color="#DBE4FA" offset="67%"></stop>
            <stop stop-color="#DDE6FA" offset="100%"></stop>
        </linearGradient>
        <linearGradient x1="50.0008303%" y1="99.9999926%" x2="50.0008303%" y2="-0.0082179944%" id="linearGradient-4">
            <stop stop-color="#366FE0" offset="0%"></stop>
            <stop stop-color="#366FE0" offset="25%"></stop>
            <stop stop-color="#2F63D1" offset="45%"></stop>
            <stop stop-color="#1B43A9" offset="84%"></stop>
            <stop stop-color="#123597" offset="100%"></stop>
        </linearGradient>
        <linearGradient x1="0%" y1="49.9912349%" x2="100%" y2="49.9912349%" id="linearGradient-5">
            <stop stop-color="#4E54C8" offset="0%"></stop>
            <stop stop-color="#8F94FB" offset="100%"></stop>
        </linearGradient>
        <linearGradient x1="50.003922%" y1="100%" x2="50.003922%" y2="-2.66320366e-14%" id="linearGradient-6">
            <stop stop-color="#4E54C8" offset="0%"></stop>
            <stop stop-color="#8F94FB" offset="100%"></stop>
        </linearGradient>
        <linearGradient x1="49.9537888%" y1="100.020745%" x2="49.9537888%" y2="-2.79249562e-14%" id="linearGradient-7">
            <stop stop-color="#123597" offset="0%"></stop>
            <stop stop-color="#1B43A9" offset="16%"></stop>
            <stop stop-color="#2F63D1" offset="55%"></stop>
            <stop stop-color="#366FE0" offset="75%"></stop>
            <stop stop-color="#366FE0" offset="100%"></stop>
        </linearGradient>
        <linearGradient x1="-0.238902583%" y1="46.8876226%" x2="101.086769%" y2="52.5199528%" id="linearGradient-8">
            <stop stop-color="#2A5BC7" offset="0%"></stop>
            <stop stop-color="#2452BC" offset="13%"></stop>
            <stop stop-color="#1A42A7" offset="42%"></stop>
            <stop stop-color="#14389B" offset="71%"></stop>
            <stop stop-color="#123597" offset="100%"></stop>
        </linearGradient>
        <linearGradient x1="-1.42074906%" y1="47.9069913%" x2="101.426748%" y2="51.9407133%" id="linearGradient-9">
            <stop stop-color="#366FE0" offset="0%"></stop>
            <stop stop-color="#94CBFF" offset="70%"></stop>
            <stop stop-color="#94CBFF" offset="100%"></stop>
        </linearGradient>
        <linearGradient x1="-791.020614%" y1="322.141781%" x2="-688.15108%" y2="322.141781%" id="linearGradient-10">
            <stop stop-color="#366FE0" offset="0%"></stop>
            <stop stop-color="#94CBFF" offset="70%"></stop>
            <stop stop-color="#94CBFF" offset="100%"></stop>
        </linearGradient>
        <linearGradient x1="-437.85575%" y1="505.512004%" x2="-337.657115%" y2="505.512004%" id="linearGradient-11">
            <stop stop-color="#366FE0" offset="0%"></stop>
            <stop stop-color="#94CBFF" offset="70%"></stop>
            <stop stop-color="#94CBFF" offset="100%"></stop>
        </linearGradient>
        <linearGradient x1="-1854.47506%" y1="1277.89716%" x2="-1754.72965%" y2="1277.89716%" id="linearGradient-12">
            <stop stop-color="#366FE0" offset="0%"></stop>
            <stop stop-color="#94CBFF" offset="70%"></stop>
            <stop stop-color="#94CBFF" offset="100%"></stop>
        </linearGradient>
        <linearGradient x1="-6691.46788%" y1="267.080592%" x2="-6567.80216%" y2="267.080592%" id="linearGradient-13">
            <stop stop-color="#366FE0" offset="0%"></stop>
            <stop stop-color="#94CBFF" offset="70%"></stop>
            <stop stop-color="#94CBFF" offset="100%"></stop>
        </linearGradient>
        <linearGradient x1="-9545.35071%" y1="516.819028%" x2="-9437.73338%" y2="516.819028%" id="linearGradient-14">
            <stop stop-color="#366FE0" offset="0%"></stop>
            <stop stop-color="#94CBFF" offset="70%"></stop>
            <stop stop-color="#94CBFF" offset="100%"></stop>
        </linearGradient>
        <linearGradient x1="-16094.5774%" y1="2133.4411%" x2="-16094.5774%" y2="2133.4411%" id="linearGradient-15">
            <stop stop-color="#366FE0" offset="0%"></stop>
            <stop stop-color="#94CBFF" offset="70%"></stop>
            <stop stop-color="#94CBFF" offset="100%"></stop>
        </linearGradient>
        <linearGradient x1="-8681.88418%" y1="825.148894%" x2="-8587.72155%" y2="825.148894%" id="linearGradient-16">
            <stop stop-color="#366FE0" offset="0%"></stop>
            <stop stop-color="#94CBFF" offset="70%"></stop>
            <stop stop-color="#94CBFF" offset="100%"></stop>
        </linearGradient>
        <linearGradient x1="-16095%" y1="2136.4413%" x2="-16094%" y2="2136.4413%" id="linearGradient-17">
            <stop stop-color="#366FE0" offset="0%"></stop>
            <stop stop-color="#94CBFF" offset="70%"></stop>
            <stop stop-color="#94CBFF" offset="100%"></stop>
        </linearGradient>
        <linearGradient x1="0.0121127598%" y1="50.0729267%" x2="99.9714144%" y2="50.0729267%" id="linearGradient-18">
            <stop stop-color="#4E54C8" offset="0%"></stop>
            <stop stop-color="#8F94FB" offset="100%"></stop>
        </linearGradient>
        <linearGradient x1="50.0226456%" y1="99.9800192%" x2="50.0226456%" y2="-0.000607463207%" id="linearGradient-19">
            <stop stop-color="#4E54C8" offset="0%"></stop>
            <stop stop-color="#555ACD" offset="22%"></stop>
            <stop stop-color="#676DDC" offset="53%"></stop>
            <stop stop-color="#858AF3" offset="90%"></stop>
            <stop stop-color="#8F94FB" offset="100%"></stop>
        </linearGradient>
        <linearGradient x1="0.0057306115%" y1="50.0271199%" x2="100%" y2="50.0271199%" id="linearGradient-20">
            <stop stop-color="#FB9F02" offset="0%"></stop>
            <stop stop-color="#FB9F02" offset="32%"></stop>
            <stop stop-color="#FC4C5C" offset="100%"></stop>
        </linearGradient>
        <linearGradient x1="0%" y1="50%" x2="100%" y2="50%" id="linearGradient-21">
            <stop stop-color="#FFFFFF" offset="0%"></stop>
            <stop stop-color="#FAFAFA" stop-opacity="0" offset="100%"></stop>
        </linearGradient>
        <linearGradient x1="50.0033556%" y1="100%" x2="50.0033556%" y2="0%" id="linearGradient-22">
            <stop stop-color="#779DEA" offset="0%"></stop>
            <stop stop-color="#8AABED" offset="17%"></stop>
            <stop stop-color="#C6D5F6" offset="73%"></stop>
            <stop stop-color="#DDE6FA" offset="100%"></stop>
        </linearGradient>
        <linearGradient x1="49.9974953%" y1="99.9999732%" x2="49.9974953%" y2="-0.0013791673%" id="linearGradient-23">
            <stop stop-color="#779DEA" offset="0%"></stop>
            <stop stop-color="#7A9FEB" offset="1%"></stop>
            <stop stop-color="#99B5EF" offset="11%"></stop>
            <stop stop-color="#B2C7F3" offset="22%"></stop>
            <stop stop-color="#C5D5F6" offset="35%"></stop>
            <stop stop-color="#D3DFF8" offset="49%"></stop>
            <stop stop-color="#DBE4FA" offset="67%"></stop>
            <stop stop-color="#DDE6FA" offset="100%"></stop>
        </linearGradient>
        <linearGradient x1="50.0219422%" y1="100%" x2="50.0219422%" y2="0%" id="linearGradient-24">
            <stop stop-color="#779DEA" offset="0%"></stop>
            <stop stop-color="#8BABED" offset="12%"></stop>
            <stop stop-color="#AFC5F3" offset="38%"></stop>
            <stop stop-color="#C8D7F7" offset="61%"></stop>
            <stop stop-color="#D8E2F9" offset="83%"></stop>
            <stop stop-color="#DDE6FA" offset="100%"></stop>
        </linearGradient>
        <linearGradient x1="-4.46447008e-15%" y1="50.0063794%" x2="100%" y2="50.0063794%" id="linearGradient-25">
            <stop stop-color="#366FE0" offset="0%"></stop>
            <stop stop-color="#366FE0" offset="25%"></stop>
            <stop stop-color="#2F63D1" offset="45%"></stop>
            <stop stop-color="#1B43A9" offset="84%"></stop>
            <stop stop-color="#123597" offset="100%"></stop>
        </linearGradient>
        <linearGradient x1="0.0684061933%" y1="49.7854592%" x2="100%" y2="49.7854592%" id="linearGradient-26">
            <stop stop-color="#DDE6FA" offset="0%"></stop>
            <stop stop-color="#D8E2F9" offset="17%"></stop>
            <stop stop-color="#C8D7F7" offset="39%"></stop>
            <stop stop-color="#AFC5F3" offset="62%"></stop>
            <stop stop-color="#8BABED" offset="88%"></stop>
            <stop stop-color="#779DEA" offset="100%"></stop>
        </linearGradient>
        <linearGradient x1="-2.27282762e-13%" y1="49.9808784%" x2="100%" y2="49.9808784%" id="linearGradient-27">
            <stop stop-color="#DDE6FA" offset="0%"></stop>
            <stop stop-color="#D8E2F9" offset="17%"></stop>
            <stop stop-color="#C8D7F7" offset="39%"></stop>
            <stop stop-color="#AFC5F3" offset="62%"></stop>
            <stop stop-color="#8BABED" offset="88%"></stop>
            <stop stop-color="#779DEA" offset="100%"></stop>
        </linearGradient>
        <linearGradient x1="71.0993746%" y1="-25.0458365%" x2="42.4195553%" y2="84.2318595%" id="linearGradient-28">
            <stop stop-color="#FFFFFF" offset="16%"></stop>
            <stop stop-color="#FBFFFD" stop-opacity="0.97" offset="23%"></stop>
            <stop stop-color="#EFFDF7" stop-opacity="0.9" offset="34%"></stop>
            <stop stop-color="#DCFBEE" stop-opacity="0.77" offset="47%"></stop>
            <stop stop-color="#C1F8E0" stop-opacity="0.6" offset="61%"></stop>
            <stop stop-color="#9FF4CF" stop-opacity="0.38" offset="77%"></stop>
            <stop stop-color="#76EFBB" stop-opacity="0.11" offset="93%"></stop>
            <stop stop-color="#64EDB2" stop-opacity="0" offset="100%"></stop>
        </linearGradient>
        <linearGradient x1="74.5560268%" y1="-10.7678571%" x2="39.7320472%" y2="87.5535714%" id="linearGradient-29">
            <stop stop-color="#FFFFFF" offset="16%"></stop>
            <stop stop-color="#FBFFFD" stop-opacity="0.97" offset="23%"></stop>
            <stop stop-color="#EFFDF7" stop-opacity="0.9" offset="34%"></stop>
            <stop stop-color="#DCFBEE" stop-opacity="0.77" offset="47%"></stop>
            <stop stop-color="#C1F8E0" stop-opacity="0.6" offset="61%"></stop>
            <stop stop-color="#9FF4CF" stop-opacity="0.38" offset="77%"></stop>
            <stop stop-color="#76EFBB" stop-opacity="0.11" offset="93%"></stop>
            <stop stop-color="#64EDB2" stop-opacity="0" offset="100%"></stop>
        </linearGradient>
        <linearGradient x1="0%" y1="50%" x2="100%" y2="50%" id="linearGradient-30">
            <stop stop-color="#779DEA" offset="0%"></stop>
            <stop stop-color="#7A9FEB" offset="1%"></stop>
            <stop stop-color="#99B5EF" offset="11%"></stop>
            <stop stop-color="#B2C7F3" offset="22%"></stop>
            <stop stop-color="#C5D5F6" offset="35%"></stop>
            <stop stop-color="#D3DFF8" offset="49%"></stop>
            <stop stop-color="#DBE4FA" offset="67%"></stop>
            <stop stop-color="#DDE6FA" offset="100%"></stop>
        </linearGradient>
        <linearGradient x1="0%" y1="50%" x2="100%" y2="50%" id="linearGradient-31">
            <stop stop-color="#779DEA" offset="0%"></stop>
            <stop stop-color="#7A9FEB" offset="1%"></stop>
            <stop stop-color="#99B5EF" offset="11%"></stop>
            <stop stop-color="#B2C7F3" offset="22%"></stop>
            <stop stop-color="#C5D5F6" offset="35%"></stop>
            <stop stop-color="#D3DFF8" offset="49%"></stop>
            <stop stop-color="#DBE4FA" offset="67%"></stop>
            <stop stop-color="#DDE6FA" offset="100%"></stop>
        </linearGradient>
        <linearGradient x1="50.0499704%" y1="100.377841%" x2="50.0499704%" y2="3.95139867e-13%" id="linearGradient-32">
            <stop stop-color="#4E54C8" offset="0%"></stop>
            <stop stop-color="#8F94FB" offset="100%"></stop>
        </linearGradient>
        <linearGradient x1="-0.0186951719%" y1="49.9710119%" x2="100.085669%" y2="49.9710119%" id="linearGradient-33">
            <stop stop-color="#4E54C8" offset="0%"></stop>
            <stop stop-color="#8F94FB" offset="100%"></stop>
        </linearGradient>
        <linearGradient x1="0%" y1="50%" x2="100%" y2="50%" id="linearGradient-34">
            <stop stop-color="#FB9F02" offset="0%"></stop>
            <stop stop-color="#FB9F02" offset="32%"></stop>
            <stop stop-color="#FC4C5C" offset="100%"></stop>
        </linearGradient>
        <linearGradient x1="50%" y1="100%" x2="50%" y2="0%" id="linearGradient-35">
            <stop stop-color="#4E54C8" offset="0%"></stop>
            <stop stop-color="#555ACD" offset="22%"></stop>
            <stop stop-color="#676DDC" offset="53%"></stop>
            <stop stop-color="#858AF3" offset="90%"></stop>
            <stop stop-color="#8F94FB" offset="100%"></stop>
        </linearGradient>
        <linearGradient x1="-0.276434001%" y1="49.9133552%" x2="99.7926745%" y2="49.9133552%" id="linearGradient-36">
            <stop stop-color="#FB9F02" offset="0%"></stop>
            <stop stop-color="#FB9F02" offset="32%"></stop>
            <stop stop-color="#FC4C5C" offset="100%"></stop>
        </linearGradient>
        <linearGradient x1="0%" y1="50%" x2="100.010229%" y2="50%" id="linearGradient-37">
            <stop stop-color="#DDE6FA" offset="0%"></stop>
            <stop stop-color="#D8E2F9" offset="17%"></stop>
            <stop stop-color="#C8D7F7" offset="39%"></stop>
            <stop stop-color="#AFC5F3" offset="62%"></stop>
            <stop stop-color="#8BABED" offset="88%"></stop>
            <stop stop-color="#779DEA" offset="100%"></stop>
        </linearGradient>
        <linearGradient x1="71.0448971%" y1="16.2660361%" x2="32.613763%" y2="76.9034583%" id="linearGradient-38">
            <stop stop-color="#FFFFFF" offset="16%"></stop>
            <stop stop-color="#FBFFFD" stop-opacity="0.97" offset="23%"></stop>
            <stop stop-color="#EFFDF7" stop-opacity="0.9" offset="34%"></stop>
            <stop stop-color="#DCFBEE" stop-opacity="0.77" offset="47%"></stop>
            <stop stop-color="#C1F8E0" stop-opacity="0.6" offset="61%"></stop>
            <stop stop-color="#9FF4CF" stop-opacity="0.38" offset="77%"></stop>
            <stop stop-color="#76EFBB" stop-opacity="0.11" offset="93%"></stop>
            <stop stop-color="#64EDB2" stop-opacity="0" offset="100%"></stop>
        </linearGradient>
    </defs>
    <g id="Page-1" stroke="none" stroke-width="1" fill="none" fill-rule="evenodd">
        <g id="Project4" transform="translate(-114.000000, -7590.000000)">
            <g id="03_CHANNEL_GROWTH" transform="translate(114.000000, 7590.000000)">
                <path d="M487.223994,321.508796 C472.161595,336.556796 451.339195,346.867196 427.046395,353.512796 C355.255196,373.139996 332.423996,321.652796 233.863197,344.368796 C146.483998,364.528796 81.5039991,332.128796 53.6471994,282.499197 C50.0902971,276.167665 47.1280221,269.520021 44.7983995,262.641597 C24.3719997,202.255198 51.6743994,198.907198 71.8487992,112.031999 C92.0231989,25.1567997 168.177598,-12.3767999 243.590397,18.4319998 C274.987808,31.2015282 308.096822,39.2707436 341.848796,42.3791995 C389.944795,46.7855995 433.655995,72.3095992 460.569595,112.413599 C471.167995,128.203199 481.910394,147.477598 492.112794,170.992798 C524.037594,244.562397 516.664794,292.089597 487.223994,321.508796 Z" id="Path" fill="url(#linearGradient-1)" fill-rule="nonzero"></path>
                <circle id="Oval" stroke="#FFFFFF" stroke-width="1.36799998" cx="49.3343994" cy="220.787997" r="48.6503994"></circle>
                <polyline id="Path" stroke="#FFFFFF" stroke-width="1.36799998" points="265.931997 53.3663994 265.931997 126.295199 284.335197 126.295199"></polyline>
                <polyline id="Path" stroke="#FFFFFF" stroke-width="1.36799998" points="433.799995 199.159198 468.676795 199.159198 468.676795 256.024797"></polyline>
                <line x1="429.695995" y1="256.024797" x2="513.460794" y2="256.024797" id="Path" stroke="#FFFFFF" stroke-width="1.36799998"></line>
                <path d="M443.635195,200.390398 L443.635195,200.390398 L439.005595,183.729598 L435.837595,191.102398 C433.884618,190.175779 431.749647,189.696148 429.587995,189.698398 L405.568795,189.698398 L372.959996,318.815996 L421.919995,318.218396 L443.879995,207.100798 C444.324817,204.875675 444.240967,202.577194 443.635195,200.390398 Z" id="Path" fill="url(#linearGradient-2)" fill-rule="nonzero"></path>
                <path d="M400.759195,172.317598 L424.799995,172.317598 C429.16024,172.317598 433.290937,174.272016 436.058229,177.64156 C438.825521,181.011104 439.938624,185.442738 439.091995,189.719998 L417.074395,300.837597 L368.114396,301.435197 L400.759195,172.317598 Z" id="Path" fill="url(#linearGradient-3)" fill-rule="nonzero"></path>
                <circle id="Oval" fill="#FFFFFF" fill-rule="nonzero" cx="477.172794" cy="88.322399" r="88.322399"></circle>
                <path d="M549.885594,88.315199 C549.885594,89.603999 549.849594,90.8783989 549.784794,92.1527989 C549.214588,102.893229 546.263374,113.3725 541.144794,122.831999 C528.464319,146.379019 503.873873,161.056952 477.129594,161.042409 C474.760794,161.042409 472.413595,160.927198 470.102395,160.703998 C431.045268,156.892407 402.057183,122.779422 404.598205,83.6191032 C407.139227,44.4587845 440.292694,14.3780193 479.514883,15.6457904 C518.737072,16.9135615 549.878776,49.072527 549.885594,88.315199 L549.885594,88.315199 Z" id="Path" fill="url(#linearGradient-4)" fill-rule="nonzero"></path>
                <path d="M102.059999,173.750398 L102.059999,173.807998 C102.045675,174.875724 102.813701,175.793683 103.867199,175.967998 C107.395199,176.594398 114.883199,177.991198 115.387199,178.077598 L100.583999,179.071198 C99.6635383,179.129036 98.9641289,179.921914 99.0215989,180.842398 L99.0215989,180.842398 C99.0644784,181.670338 99.6962427,182.347663 100.519199,182.447998 C104.925599,182.995198 118.173599,184.672798 118.173599,184.672798 L107.373599,191.217598 C106.307252,191.825851 105.884756,193.149671 106.401599,194.263198 C106.598025,194.649652 106.903413,194.970058 107.279999,195.184798 C107.898378,195.553182 108.655526,195.604015 109.317599,195.321598 L112.003199,194.183998 L110.440799,196.055998 C109.571486,197.10749 109.712923,198.663304 110.757599,199.540798 C110.860328,199.626945 110.968557,199.706313 111.081599,199.778398 C111.833076,200.213586 112.755992,200.229921 113.522399,199.821598 L115.358399,198.287998 C115.74588,197.973603 116.21104,197.769629 116.704799,197.697598 L122.623199,196.941598 C122.623199,196.941598 131.342398,204.141598 138.218398,205.243198 L162.316798,224.639997 L174.556798,201.743998 L145.519198,188.560798 L145.151998,188.179198 L144.727198,187.732798 L144.323998,187.307998 L134.387998,176.846398 L134.020798,176.450398 L133.739998,176.147998 L132.407998,174.707998 C131.791213,174.052428 130.951218,173.651697 130.053598,173.584798 L129.736798,173.584798 L104.399999,171.590398 C103.796638,171.539939 103.1998,171.745032 102.754901,172.155708 C102.310002,172.566384 102.057893,173.144935 102.059999,173.750398 Z" id="Path" fill="#C4C4C4" fill-rule="nonzero"></path>
                <path d="M308.527196,157.751998 L293.983197,216.071997 L248.399997,249.119997 L247.679997,249.623997 L244.576797,251.870397 C243.681428,252.623994 242.717184,253.291732 241.696797,253.864797 C236.303256,256.868358 229.786709,257.064365 224.222397,254.390397 L223.689597,254.131197 L217.209597,251.006397 L216.424797,250.624797 L162.309598,224.639997 C164.181598,217.533597 174.549598,201.736798 174.549598,201.736798 C195.847198,210.103198 231.263997,220.147197 231.263997,220.147197 C236.757597,214.286398 261.439197,189.122398 272.764797,178.451998 C276.367855,175.04365 280.318237,172.022344 284.551197,169.437598 C299.627997,160.264798 308.527196,157.751998 308.527196,157.751998 Z" id="Path" fill="url(#linearGradient-5)" fill-rule="nonzero"></path>
                <path d="M298.036797,183.729598 L244.173597,229.903197 C237.445294,235.669451 228.079234,237.240622 219.837597,233.985597 L196.077598,224.625597" id="Path" stroke="#64EDFF" stroke-width="0.698399992"></path>
                <path d="M321.242396,152.517598 C321.242396,152.517598 308.239196,156.239998 302.716796,161.999998 C297.194397,167.759998 284.234397,243.957597 287.474397,269.517597 C290.714397,295.077597 289.994397,299.397597 289.994397,299.397597 L374.954396,299.397597 L397.634395,161.157598 C397.634395,161.157598 374.954396,151.948798 369.223196,145.720798 L321.242396,152.517598 Z" id="Path" fill="url(#linearGradient-6)" fill-rule="nonzero"></path>
                <text id="Channel-Growth" font-family="Poppins-Medium, Poppins Medium" font-size="30" font-weight="normal" fill="#302727">
                    <tspan x="121.44" y="511">Channel Growth</tspan>
                </text>
                <path d="M338.234396,157.751998 C338.234396,157.751998 324.179996,248.320797 318.614396,269.157597" id="Path" stroke="#64EDFF" stroke-width="0.698399992"></path>
                <path d="M287.207997,250.559997 C287.207997,250.559997 302.500796,259.617597 345.297596,261.597597" id="Path" stroke="#64EDFF" stroke-width="0.698399992"></path>
                <path d="M360.604796,139.823998 C360.604796,139.823998 333.777596,155.087998 323.999996,153.712798 L324.223196,152.128798 L324.561596,149.875198 L324.914396,147.463198 L326.224796,138.491998 L353.836796,120.657599 L356.536796,118.907999 L360.604796,139.823998 Z" id="Path" fill="#F0BEB4" fill-rule="nonzero"></path>
                <path d="M324.532796,149.875198 L324.885596,147.463198 L326.195996,138.491998 L353.807996,120.657599 C353.858396,120.895199 353.915996,121.103999 353.908796,121.132799 C353.692796,131.875198 336.369596,149.630398 324.532796,149.875198 Z" id="Path" fill="#B48F87" fill-rule="nonzero"></path>
                <path d="M370.259996,100.540799 C370.259996,100.540799 364.255196,121.420799 354.607196,123.616799 C344.959196,125.812799 345.967196,116.589599 345.967196,116.589599 L347.896796,87.314399 C347.896796,87.314399 370.799996,96.6599989 370.259996,100.540799 Z" id="Path" fill="url(#linearGradient-7)" fill-rule="nonzero"></path>
                <path d="M313.919996,83.987999 C313.919996,83.987999 309.722396,110.685599 313.790396,122.147999 C317.858396,133.610398 321.487196,140.011198 330.285596,139.219198 C339.083996,138.427198 352.022396,130.931998 354.643196,123.616799 C354.643196,123.616799 360.784796,124.912799 361.843196,117.813599 C362.901596,110.714399 357.134396,108.791999 353.635196,112.190399 C350.135996,115.588799 348.328796,117.230399 348.328796,117.230399 C350.964711,113.508391 352.63022,109.187473 353.174396,104.659199 C353.541596,100.727999 347.745596,102.239999 348.422396,99.7991988 C354.520796,77.8463991 313.919996,83.987999 313.919996,83.987999 Z" id="Path" fill="#F0BEB4" fill-rule="nonzero"></path>
                <ellipse id="Oval" fill="#FFFFFF" fill-rule="nonzero" transform="translate(325.477283, 126.736475) rotate(-80.310000) translate(-325.477283, -126.736475) " cx="325.477283" cy="126.736475" rx="4.29839995" ry="3.05279996"></ellipse>
                <ellipse id="Oval" fill="#1B4736" fill-rule="nonzero" transform="translate(334.842180, 108.638537) rotate(-80.310000) translate(-334.842180, -108.638537) " cx="334.84218" cy="108.638537" rx="3.24719996" ry="1.41119998"></ellipse>
                <ellipse id="Oval" fill="#1B4736" fill-rule="nonzero" transform="translate(320.055119, 105.716358) rotate(-86.190000) translate(-320.055119, -105.716358) " cx="320.055119" cy="105.716358" rx="2.65679997" ry="1.15919999"></ellipse>
                <path d="M342.575996,104.335199 L340.516796,102.081599 C339.738101,101.221642 338.651238,100.704088 337.492796,100.641599 L335.188796,100.526399 C334.593107,100.496735 334.079377,100.940699 334.022396,101.534399 L334.022396,101.678399 C333.9903,101.983278 334.085863,102.28784 334.286381,102.519732 C334.486899,102.751624 334.774477,102.890149 335.080796,102.902399 L337.802396,103.024799 C338.309611,103.04524 338.809253,103.154918 339.278396,103.348799 L342.381596,104.623199 C342.456354,104.639301 342.53339,104.608313 342.576174,104.544929 C342.618959,104.481545 342.618888,104.39851 342.575996,104.335199 L342.575996,104.335199 Z" id="Path" fill="#1B4736" fill-rule="nonzero"></path>
                <path d="M314.510396,97.7327989 L317.685596,96.4151989 C318.5935,96.0375978 319.614493,96.0375978 320.522396,96.4151989 L322.883996,97.3727989 C323.44945,97.6031849 323.734576,98.236798 323.531996,98.8127989 L323.531996,98.8847989 C323.427377,99.1833425 323.204593,99.4257275 322.915908,99.5550907 C322.627224,99.684454 322.298045,99.689411 322.005596,99.5687988 L319.413596,98.4959989 C319.013484,98.3297163 318.586639,98.23703 318.153596,98.2223989 L314.553596,98.0567989 C314.472478,98.0544152 314.405039,97.9935982 314.394313,97.9131566 C314.383588,97.832715 314.432736,97.756353 314.510396,97.7327989 Z" id="Path" fill="#1B4736" fill-rule="nonzero"></path>
                <path d="M325.807196,108.237599 C325.807196,108.237599 324.770396,113.147999 322.315196,114.717599 C319.859996,116.287199 320.219996,119.311199 322.761596,119.707199" id="Path" stroke="#FFFFFF" stroke-width="1.43999998"></path>
                <path d="M311.716796,87.991199 C312.471014,88.0109023 313.225745,87.9892698 313.977596,87.926399 C317.476796,87.717599 319.161596,87.832799 321.134396,87.667199 C321.969596,87.602399 323.294396,87.407999 323.294396,87.415199 C325.252796,87.155999 326.375996,87.076799 327.808796,86.839199 C333.705596,85.888799 328.888796,86.745599 334.288796,85.715999 C335.843996,85.420799 337.550396,85.240799 338.846396,84.995999 C339.083996,84.952799 339.328796,84.909599 339.566396,84.887999 C339.557234,84.9191332 339.542606,84.9483891 339.523196,84.974399 C339.170396,85.615199 338.759996,86.227199 338.392796,86.860799 C337.672796,88.120799 337.478396,88.509599 337.471196,88.948799 C337.43918,89.4559791 337.688019,89.9398327 338.119196,90.208799 C338.63939,90.5241204 339.232019,90.7001731 339.839996,90.7199989 C340.502593,90.7519448 341.166613,90.7375096 341.827196,90.6767989 L343.785596,90.561599 C345.171674,90.4672406 346.563778,90.5154938 347.939996,90.7055989 C348.781839,90.8179298 349.614424,90.9911845 350.431196,91.2239989 C350.81914,91.3309422 351.197299,91.4706444 351.561596,91.6415989 C351.771672,91.7444642 351.948755,91.9040881 352.072796,92.1023989 C352.151657,92.251433 352.195952,92.4163096 352.202396,92.5847989 C352.174227,93.0708332 352.099484,93.5530431 351.979196,94.0247989 C351.689983,94.8081976 351.659699,95.6637113 351.892796,96.4655989 C352.022349,96.7415212 352.208835,96.9868984 352.439996,97.1855989 C352.849687,97.5355325 353.317574,97.8109037 353.822396,97.9991989 L353.966396,98.0495989 C354.21622,98.1462496 354.473997,98.2209324 354.736796,98.2727989 C355.011158,98.3316588 355.291461,98.3582392 355.571996,98.3519989 C355.954735,98.3384053 356.334365,98.2779547 356.702396,98.1719989 C357.102856,98.0603379 357.495013,97.9207973 357.875996,97.7543989 C358.243196,97.5959989 358.595996,97.4303989 358.927196,97.2719989 L359.150396,97.1567989 C359.366396,97.0487989 359.596796,96.9407989 359.819996,96.8471989 L359.899196,96.8471989 L359.899196,96.8471989 L359.942396,96.8471989 L359.985596,96.8831989 L359.985596,96.8831989 C360.014243,96.9312516 360.038347,96.9818707 360.057596,97.0343989 C360.126007,97.3933469 360.169312,97.7566276 360.187196,98.1215989 L360.187196,98.2943989 C360.187196,98.4743989 360.187196,98.6543989 360.237596,98.8415989 C360.237596,98.9207989 360.237596,99.0071989 360.280796,99.0935989 C360.327849,99.2985137 360.410721,99.4935083 360.525596,99.6695988 C360.65643,99.8383532 360.827144,99.9719555 361.022396,100.058399 L361.079996,100.058399 C361.268551,100.109832 361.46744,100.109832 361.655996,100.058399 C361.870728,100.006596 362.075192,99.9189685 362.260796,99.7991988 C362.462396,99.6623988 362.656796,99.5183988 362.843996,99.3743988 C363.031196,99.2303988 363.103196,99.1727989 363.232796,99.0863989 C363.291165,99.0457978 363.35397,99.0119797 363.419996,98.9855989 L363.499196,98.9855989 L363.535196,98.9855989 L363.585596,98.9855989 L363.585596,98.9855989 L363.700796,99.0719989 C363.818532,99.2118025 363.924494,99.3611123 364.017596,99.5183988 L364.075196,99.6263988 L364.312796,100.036799 C364.440261,100.248323 364.595211,100.442011 364.773596,100.612799 C364.920636,100.745005 365.091748,100.847672 365.277596,100.915199 L365.349596,100.915199 C365.610415,100.995547 365.885692,101.017668 366.155996,100.979999 C366.627657,100.888125 367.069939,100.683045 367.444796,100.382399 C367.699624,100.19128 367.940255,99.9819305 368.164796,99.7559988 L368.251196,100.259999 L368.287196,100.475999 C368.330396,100.763999 368.380796,101.044799 368.431196,101.325599 C368.491272,101.670892 368.580389,102.010497 368.697596,102.340799 C368.828596,102.669452 369.088943,102.929799 369.417596,103.060799 C369.499699,103.087515 369.584039,103.106792 369.669596,103.118399 C370.173596,103.168799 370.569596,102.722399 370.821596,102.398399 C371.041722,102.088172 371.232162,101.757916 371.390396,101.411999 L371.390396,101.361599 C371.541596,101.059199 371.671196,100.749599 371.786396,100.454399 C372.044404,99.8032711 372.263196,99.1372795 372.441596,98.4599989 C372.635996,97.7399989 372.851996,96.9407989 373.010396,96.1199989 C373.147196,95.3999989 373.262396,94.6439989 373.370396,93.7943989 C373.481149,93.0066988 373.548451,92.2134985 373.572404,91.4183989 C373.577882,90.5776387 373.520117,89.7376389 373.399196,88.905599 C373.291196,88.091999 373.139996,87.285599 372.959996,86.507999 C372.625702,84.9779071 372.090671,83.498702 371.368796,82.108799 C370.671986,80.6916199 369.798649,79.3683094 368.769596,78.1703991 C367.751056,76.9316336 366.620691,75.7892175 365.392796,74.7575991 C364.275629,73.7840101 363.070454,72.9162836 361.792796,72.1655992 C361.159196,71.7983992 360.503996,71.4455992 359.855996,71.0855992 C359.207996,70.7255992 358.559996,70.5599992 357.883196,70.2647992 C356.443196,69.6095992 355.003196,69.0047992 353.606396,68.4503992 L351.446396,67.5503992 C344.815196,64.8287992 343.857596,64.4903993 335.807996,63.2735993 C332.476942,62.8082301 329.177848,62.1373502 325.929596,61.2647993 C324.647996,60.9407993 323.135996,60.5447993 321.609596,60.0407993 C320.839196,59.7887993 320.169596,59.5511993 319.557596,59.3207993 L319.485596,59.3207993 C318.959996,59.1191993 318.427196,58.9031993 317.915996,58.6943993 L317.419196,58.4927993 L316.497596,58.1327993 C314.963996,57.5567993 314.287196,58.3919993 314.402396,59.7383993 C314.491834,60.6627062 314.735189,61.5655538 315.122396,62.4095993 L314.711996,62.2583993 C313.346509,61.7499781 311.946061,61.3409124 310.521596,61.0343993 C309.376796,60.8039993 307.195196,60.6239993 306.201596,61.1783993 C305.622588,61.5209482 305.208944,62.0854814 305.056796,62.7407993 C304.896461,63.2947313 304.919188,63.8856189 305.121596,64.4255993 C305.658528,65.9446096 306.605501,67.2853236 307.857596,68.2991992 C308.805235,69.1271926 309.813666,69.882914 310.874396,70.5599992 L310.219196,70.6391992 C305.675996,71.2799992 303.962396,71.8847992 302.543996,73.7783991 C302.245898,74.1728624 302.003616,74.6065467 301.823997,75.0671991 C301.103997,77.3927991 306.338396,77.7815991 309.506396,78.5231991 L309.355196,78.5879991 L308.815196,78.8399991 C307.540107,79.3556102 306.343016,80.0462401 305.258396,80.8919991 C303.818396,82.245599 304.063196,83.699999 305.258396,85.211999 C305.76632,85.7882583 306.367496,86.2750402 307.036796,86.651999 C308.451384,87.5033391 310.065988,87.9653643 311.716796,87.991199 L311.716796,87.991199 Z" id="Path" fill="url(#linearGradient-8)" fill-rule="nonzero"></path>
                <path d="M343.180796,72.7199992 C340.905596,72.1151992 338.651996,71.4383992 336.405596,70.7255992 C334.159196,70.0127992 332.150396,69.2855992 330.076796,68.4719992 C329.786515,68.3626468 329.639844,68.0386801 329.749196,67.7483992 C329.858549,67.4581184 330.182515,67.3114468 330.472796,67.4207992 C331.019996,67.6439992 331.567196,67.8599992 332.121596,68.0687992 C334.223996,68.8607992 336.362396,69.5519992 338.500796,70.2287992 C339.638396,70.5839992 340.778396,70.9199992 341.920796,71.2367992 C343.051196,71.5607992 344.188796,71.8487992 345.311996,72.1655992 C346.435196,72.4823992 347.572796,72.7919992 348.688796,73.1591992 C349.804796,73.5263991 350.935196,73.9367991 352.043996,74.3759991 C353.152796,74.8151991 354.203996,75.2831991 355.269596,75.8159991 C356.335196,76.3487991 357.429596,76.8887991 358.509596,77.4935991 C359.020796,77.7959991 359.524796,78.1271991 360.021596,78.4583991 C360.973857,79.0956801 361.880828,79.7981616 362.735996,80.5607991 C363.146396,80.9207991 363.513596,81.2807991 363.902396,81.7055991 C364.000116,81.815677 364.044831,81.9629737 364.024796,82.108799 C364.01202,82.256076 363.940954,82.3921514 363.827388,82.4867899 C363.713822,82.5814283 363.567162,82.6267912 363.419996,82.612799 C363.269761,82.5965308 363.131059,82.5246112 363.031196,82.411199 C362.757596,82.137599 362.483996,81.8567991 362.203196,81.5831991 C361.447165,80.8977373 360.64879,80.2604806 359.812796,79.6751991 C358.950781,79.0323961 358.051622,78.4409702 357.119996,77.9039991 L356.399996,77.5151991 C355.367996,76.9919991 354.323996,76.4975991 353.267996,76.0319991 C352.166396,75.5495991 351.050396,75.1103991 349.919996,74.6999991 C348.789596,74.2895991 347.702396,73.9799991 346.571996,73.6127991 C345.441596,73.2455992 344.303996,72.9863992 343.180796,72.7199992 Z" id="Path" fill="url(#linearGradient-9)" fill-rule="nonzero"></path>
                <path d="M315.079196,67.4279992 C315.964796,67.8383992 316.850396,68.2559992 317.714396,68.7095992 C318.578396,69.1631992 319.456796,69.6599992 320.327996,70.1495992 C320.716796,70.3511992 321.105596,70.5527992 321.501596,70.7399992 C322.545838,71.2295777 323.620924,71.6504724 324.719996,71.9999992 C325.792796,72.3599992 326.879996,72.7199992 327.988796,72.9503992 C328.298396,73.0151992 328.615196,73.0727992 328.917596,73.1519992 C329.058847,73.2033857 329.173179,73.3099226 329.234396,73.4471991 C329.288518,73.5836275 329.288518,73.7355707 329.234396,73.8719991 C329.18528,74.0146266 329.078006,74.1297495 328.939196,74.1887991 C328.802768,74.2429212 328.650825,74.2429212 328.514396,74.1887991 L328.319996,74.1599991 L327.268796,73.9295991 L326.231996,73.6559991 C325.511996,73.4543991 324.791996,73.2311992 324.122396,72.9935992 L323.402396,72.7271992 C322.552796,72.4103992 321.724796,72.0575992 320.903996,71.6615992 C318.974396,70.7255992 318.095996,70.0199992 314.697596,68.4647992 C314.407802,68.3569104 314.259747,68.0350522 314.366396,67.7447992 C314.482771,67.4672557 314.795202,67.3283976 315.079196,67.4279992 Z" id="Path" fill="url(#linearGradient-10)" fill-rule="nonzero"></path>
                <path d="M317.858396,78.2639991 C320.295289,79.2373498 322.782901,80.0785713 325.310396,80.7839991 C326.490106,81.0553885 327.700972,81.1667882 328.910396,81.1151991 C330.30626,81.037327 331.693344,80.8446764 333.057596,80.5391991 C334.210294,80.2788122 335.375909,80.0793357 336.549596,79.9415991 C337.732834,79.842048 338.923514,79.8758604 340.099196,80.0423991 C341.243159,80.2151302 342.353254,80.5649194 343.389596,81.0791991 C343.597936,81.1332686 343.757045,81.3016583 343.799229,81.512726 C343.841413,81.7237937 343.759251,81.940404 343.587698,82.0703991 C343.416145,82.2003942 343.185385,82.2209027 342.993596,82.123199 C342.655196,81.9647991 342.309596,81.8063991 341.949596,81.6767991 C340.461527,81.1571303 338.887093,80.9297663 337.312796,81.0071991 C336.815996,81.0071991 336.326396,81.0863991 335.829596,81.1583991 C334.317596,81.3959991 332.596796,81.8207991 330.991196,82.043999 C328.586046,82.4484114 326.119459,82.2806835 323.791196,81.5543991 C322.689596,81.2375991 321.631196,80.8343991 320.543996,80.4599991 L317.404796,79.3151991 C317.114516,79.2038584 316.969456,78.8782799 317.080796,78.5879991 C317.192137,78.2977183 317.517715,78.1526586 317.807996,78.2639991 L317.858396,78.2639991 Z" id="Path" fill="url(#linearGradient-11)" fill-rule="nonzero"></path>
                <path d="M348.839996,87.119999 C349.811996,87.040799 350.791196,86.961599 351.770396,86.939999 C352.238396,86.939999 352.706396,86.939999 353.174396,86.939999 C353.559999,86.9539934 353.9412,87.0268342 354.304796,87.155999 C354.591745,87.2667747 354.736192,87.5877682 354.628796,87.875999 C354.517856,88.1629444 354.198871,88.3096775 353.908796,88.207199 L353.692796,88.135199 C352.94133,88.0332218 352.181545,88.0066896 351.424796,88.055999 C350.625596,88.099199 349.826396,88.149599 349.034396,88.221599 C348.934436,88.2399993 348.831956,88.2399993 348.731996,88.221599 C348.547125,88.1507264 348.414959,87.9855179 348.386396,87.789599 C348.359244,87.6433521 348.391999,87.4923286 348.477299,87.3704711 C348.562599,87.2486135 348.693289,87.1661446 348.839996,87.141599 L348.839996,87.119999 Z" id="Path" fill="url(#linearGradient-12)" fill-rule="nonzero"></path>
                <path d="M366.163196,89.999999 C366.071611,89.8865793 366.027718,89.7419912 366.040796,89.596799 C366.06242,89.370255 366.218624,89.1791564 366.436338,89.1128956 C366.654052,89.0466349 366.890231,89.1183125 367.034396,89.294399 C367.171787,89.4923351 367.276331,89.7111487 367.343996,89.942399 C367.562291,90.6753034 367.690436,91.4320843 367.725596,92.1959989 C367.797271,93.2243515 367.797271,94.2564463 367.725596,95.2847989 C367.707035,95.4503823 367.615907,95.5991752 367.476844,95.6909568 C367.337781,95.7827383 367.165143,95.8080314 367.005596,95.7599989 C366.415196,95.5439989 366.760796,95.2127989 366.688796,92.6927989 C366.666563,91.8976266 366.553018,91.1076436 366.350396,90.338399 C366.298562,90.220069 366.235895,90.1067866 366.163196,89.999999 L366.163196,89.999999 Z" id="Path" fill="url(#linearGradient-13)" fill-rule="nonzero"></path>
                <path d="M364.507196,91.8143989 C364.809596,91.9295989 364.946396,92.1959989 364.953596,93.1967989 C364.953596,93.5927989 364.917596,93.9815989 364.881596,94.3775989 C364.87713,94.5874227 364.756043,94.777248 364.567658,94.8697524 C364.379273,94.9622567 364.155028,94.9420024 363.986267,94.8172397 C363.817506,94.692477 363.732393,94.4840271 363.765596,94.2767989 C363.85205,93.6702642 363.85205,93.0545337 363.765596,92.4479989 L363.765596,92.4911989 C363.726065,92.3793901 363.726065,92.2574078 363.765596,92.1455989 C363.815346,91.9997736 363.923539,91.8812298 364.064225,91.8183992 C364.204911,91.7555687 364.365398,91.7541194 364.507196,91.8143989 Z" id="Path" fill="url(#linearGradient-14)" fill-rule="nonzero"></path>
                <path d="M361.598396,92.2607989 L361.598396,92.2607989 C361.605596,92.2175989 361.612796,92.2103989 361.598396,92.2607989 Z" id="Path" fill="url(#linearGradient-15)" fill-rule="nonzero"></path>
                <path d="M361.583996,91.8287989 C361.706396,92.0951989 361.547996,92.4911989 361.375196,93.0815989 C361.295515,93.2941701 361.095692,93.4378639 360.868815,93.4457416 C360.641937,93.4536193 360.432629,93.3241314 360.338396,93.1175989 C360.215996,92.8511989 360.338396,92.7143989 360.525596,91.9799989 C360.542226,91.7898299 360.664869,91.625377 360.842396,91.5551989 C361.122796,91.4275398 361.453692,91.5496182 361.583996,91.8287989 L361.583996,91.8287989 Z" id="Path" fill="url(#linearGradient-16)" fill-rule="nonzero"></path>
                <path d="M361.612796,92.1599989 L361.612796,92.0807989 C361.619996,92.1599989 361.605596,92.2319989 361.612796,92.1599989 Z" id="Path" fill="url(#linearGradient-17)" fill-rule="nonzero"></path>
                <path d="M369.071996,147.455998 C368.215196,148.096798 367.365596,148.701598 366.508796,149.255998 L366.062396,149.558398 C363.445568,151.267631 360.673278,152.726096 357.782396,153.914398 L357.278396,154.115998 C354.410994,155.261155 351.437304,156.119739 348.400796,156.679198 L347.867996,156.772798 C345.350115,157.219087 342.800111,157.459881 340.243196,157.492804 L339.695996,157.492804 C337.40127,157.493864 335.109013,157.34233 332.834396,157.039198 L332.301596,156.959998 C330.534756,156.705118 328.782691,156.356628 327.052796,155.915998 L326.527196,155.779198 C325.031577,155.377552 323.558308,154.896877 322.113596,154.339198 L321.796796,154.216798 L321.616796,154.130398 C321.347851,153.965542 321.156595,153.699357 321.086158,153.391871 C321.01572,153.084385 321.072033,152.761489 321.242396,152.495998 L324.122396,147.895198 C324.336068,147.564365 324.700617,147.361838 325.094396,147.355198 L325.245596,147.355198 L325.677596,147.398398 C326.577596,147.484798 327.463196,147.535198 328.348796,147.549598 C328.535996,147.549598 328.715996,147.549598 328.895996,147.549598 C330.78335,147.566072 332.669548,147.45059 334.540796,147.203998 L335.116796,147.117598 C337.289798,146.805009 339.43825,146.340674 341.546396,145.727998 L342.129596,145.562398 C344.073574,144.980453 345.984406,144.293034 347.853596,143.503198 L348.386396,143.272798 C350.301596,142.451998 352.051196,141.587998 353.577596,140.759998 L354.059996,140.493598 C355.701596,139.586398 357.083996,138.729598 358.142396,138.031198 L358.595996,137.735998 C359.056796,137.419198 359.445596,137.152798 359.755196,136.929598 C360.238816,136.58535 360.903339,136.656439 361.303196,137.095198 L369.223196,145.684798 C369.459569,145.930015 369.578545,146.265355 369.549575,146.604714 C369.520606,146.944072 369.346512,147.254394 369.071996,147.455998 L369.071996,147.455998 Z" id="Path" fill="url(#linearGradient-18)" fill-rule="nonzero"></path>
                <path d="M410.831995,203.039998 C407.908795,216.043197 398.159995,252.165597 392.162395,274.125597 C392.111995,274.334397 392.054395,274.543197 391.996795,274.744797 L391.931995,274.996797 C391.291195,277.351197 390.693595,279.518397 390.160795,281.476797 C390.017941,282.004109 389.839943,282.521265 389.627995,283.024797 C387.486078,288.328354 382.277882,291.745964 376.559996,291.599997 L371.303996,291.470397 L364.053596,291.290397 L363.542396,291.290397 L363.196796,291.290397 L309.916796,289.965597 L309.916796,261.597597 C309.916796,261.597597 346.233596,256.319997 352.115996,258.717597 C352.115996,258.717597 354.830396,250.077597 360.035996,252.957597 C360.035996,252.957597 368.603996,205.495198 371.966396,188.697598 C375.328796,171.899998 381.326396,159.357598 397.619995,161.157598 C412.034395,162.719998 415.151995,183.837598 410.831995,203.039998 Z" id="Path" fill="url(#linearGradient-19)" fill-rule="nonzero"></path>
                <path d="M309.952796,261.597597 L309.952796,289.915197 L305.121596,289.958397 L304.401596,289.958397 L277.351197,290.217597 C269.935197,293.356797 256.953597,291.585597 256.953597,291.585597 L251.596797,295.948797 C251.155938,296.318128 250.82474,296.801229 250.639197,297.345597 L249.767997,299.980797 C249.265819,300.851246 248.346236,301.396993 247.341597,301.420797 C247.187371,301.418986 247.033434,301.40696 246.880797,301.384797 C245.321981,301.158028 244.234562,299.720967 244.439997,298.159197 L244.828797,295.358397 L242.891997,298.123197 C242.407864,298.802905 241.631101,299.213975 240.796797,299.231997 C240.290569,299.250183 239.790059,299.12005 239.356797,298.857597 C238.15891,298.079901 237.763321,296.510102 238.449597,295.257597 L245.109597,282.239997 L226.389597,290.829597 C225.51336,291.239719 224.469055,290.956569 223.919997,290.159997 L223.919997,290.159997 C223.621979,289.743756 223.50158,289.226148 223.585303,288.721111 C223.669025,288.216075 223.950007,287.765006 224.366397,287.467197 L238.319997,277.430397 C237.801597,277.631997 229.586397,280.835997 225.734397,282.376797 C224.589417,282.83498 223.280941,282.399836 222.638397,281.347197 L222.602397,281.296797 C222.232675,280.703812 222.127386,279.983369 222.311947,279.309378 C222.496508,278.635388 222.954149,278.069094 223.574397,277.747197 L249.710397,264.189597 L250.041597,264.023997 C250.965289,263.541089 252.035988,263.420411 253.043997,263.685597 L255.203997,264.254397 L255.671997,264.376797 L256.269597,264.542397 L272.433597,268.747197 L273.081597,268.919997 L273.801597,269.099997 L274.399197,269.251197 L305.647196,262.526397 L306.367196,262.375197 L309.952796,261.597597 Z" id="Path" fill="url(#linearGradient-20)" fill-rule="nonzero"></path>
                <path d="M273.599997,276.292797 C274.155704,274.056695 273.047487,271.740613 270.957597,270.770397 C266.119197,268.531197 256.658397,264.592797 253.879197,266.630397 C250.084797,269.402397 251.251197,270.129597 252.856797,271.007997 C254.462397,271.886397 251.251197,274.507197 253.576797,276.983997 C255.902397,279.460797 253.043997,284.306397 258.710397,285.969597 C263.519997,287.387997 271.857597,283.492797 273.599997,276.292797 Z" id="Path" stroke="#FFFFFF" stroke-width="0.87839999"></path>
                <polygon id="Path" fill="#64EDFF" fill-rule="nonzero" points="306.352796 262.375197 305.121596 289.958397 304.401596 289.965597 305.618396 262.526397"></polygon>
                <line x1="238.348797" y1="277.415997" x2="245.023197" y2="274.003197" id="Path"></line>
                <polygon id="cahaya" fill="url(#linearGradient-21)" fill-rule="nonzero" points="65.5919992 130.586398 275.335197 106.077599 267.544797 269.157597 61.2575993 229.723197"></polygon>
                <path d="M190.511998,118.569599 L181.871998,250.559997 L48.6719994,227.995197 C39.0743995,184.557598 53.2367994,123.595199 53.2367994,123.595199 L190.511998,118.569599 Z" id="Path" fill="url(#linearGradient-22)" fill-rule="nonzero"></path>
                <path d="M87.076799,186.479998 C87.076799,186.479998 103.636799,179.517598 121.636799,186.479998 C121.636799,186.479998 104.140799,247.341597 101.145599,276.955197 C100.923506,279.231658 101.696428,281.49298 103.265462,283.157232 C104.834495,284.821484 107.046413,285.72614 109.331999,285.638397 C121.571999,285.163197 143.171998,286.293597 149.954398,299.397628 L75.7943991,299.397628 C72.9963794,299.404671 70.3314344,298.203853 68.4831652,296.103171 C66.634896,294.002488 65.7831447,291.206345 66.1463992,288.431997 C69.4583992,263.275197 78.1919991,202.355998 87.076799,186.479998 Z" id="Path" fill="url(#linearGradient-23)" fill-rule="nonzero"></path>
                <path d="M190.511998,118.569599 L181.871998,250.559997 C161.236798,181.195198 190.511998,118.569599 190.511998,118.569599 Z" id="Path" fill="url(#linearGradient-24)" fill-rule="nonzero"></path>
                <path d="M504.518394,299.397597 C490.118394,316.598396 469.281595,329.378396 444.434395,338.637596 C370.994396,365.997596 342.194396,314.157596 240.976797,347.277596 C151.243198,376.639196 80.0495991,348.854396 46.1519995,299.397597 L504.518394,299.397597 Z" id="Path" fill="url(#linearGradient-25)" fill-rule="nonzero"></path>
                <line x1="122.212799" y1="47.4623994" x2="122.212799" y2="101.383199" id="Path" stroke="#FFFFFF" stroke-width="1.36799998"></line>
                <line x1="160.509598" y1="101.383199" x2="83.923199" y2="101.383199" id="Path" stroke="#FFFFFF" stroke-width="1.36799998"></line>
                <circle id="Oval" stroke="#FFFFFF" stroke-width="0.669599992" cx="107.229599" cy="107.697599" r="2.56319997"></circle>
                <circle id="Oval" stroke="#FFFFFF" stroke-width="0.669599992" cx="116.092799" cy="107.697599" r="2.56319997"></circle>
                <circle id="Oval" stroke="#FFFFFF" stroke-width="0.669599992" cx="490.449594" cy="262.101597" r="2.56319997"></circle>
                <circle id="Oval" stroke="#FFFFFF" stroke-width="0.669599992" cx="499.319994" cy="262.101597" r="2.56319997"></circle>
                <path d="M302.716796,161.999998 C302.716796,161.999998 322.459196,177.631198 382.132796,165.599998" id="Path" stroke="#64EDFF" stroke-width="0.698399992"></path>
                <rect id="Rectangle" fill="#FFFFFF" fill-rule="nonzero" transform="translate(110.763546, 141.355489) rotate(0.450000) translate(-110.763546, -141.355489) " x="80.6135463" y="139.184689" width="60.2999993" height="4.34159995" rx="2.17079997"></rect>
                <rect id="Rectangle" fill="#FFFFFF" fill-rule="nonzero" transform="translate(110.699140, 149.555527) rotate(0.450000) translate(-110.699140, -149.555527) " x="80.54914" y="147.384727" width="60.2999993" height="4.34159995" rx="2.17079997"></rect>
                <rect id="Rectangle" fill="#FFFFFF" fill-rule="nonzero" transform="translate(110.634790, 157.748366) rotate(0.450000) translate(-110.634790, -157.748366) " x="80.4847903" y="155.577566" width="60.2999993" height="4.34159995" rx="2.17079997"></rect>
                <polygon id="Path" fill="#FFFFFF" fill-rule="nonzero" points="325.691996 147.427198 322.091996 154.360798 321.775196 154.238398 321.595196 154.151998 325.087196 147.376798 325.238396 147.376798"></polygon>
                <path d="M328.910396,147.599998 L327.052796,155.923198 L326.527196,155.786398 L328.363196,147.599998 C328.550396,147.599998 328.730396,147.599998 328.910396,147.599998 Z" id="Path" fill="#FFFFFF" fill-rule="nonzero"></path>
                <polygon id="Path" fill="#FFFFFF" fill-rule="nonzero" points="335.131196 147.153598 332.834396 157.031998 332.301596 156.952798 334.555196 147.239998"></polygon>
                <polygon id="Path" fill="#FFFFFF" fill-rule="nonzero" points="342.143996 145.598398 340.243196 157.478398 339.695996 157.478398 341.560796 145.756798"></polygon>
                <polygon id="Path" fill="#FFFFFF" fill-rule="nonzero" points="348.400796 143.279998 348.400796 156.650398 347.867996 156.743998 347.867996 143.539198"></polygon>
                <polygon id="Path" fill="#FFFFFF" fill-rule="nonzero" points="357.782396 153.914398 357.278396 154.115998 353.591996 140.795998 354.074396 140.529598"></polygon>
                <polygon id="Path" fill="#FFFFFF" fill-rule="nonzero" points="366.479996 149.255998 366.033596 149.558398 358.113596 138.038398 358.567196 137.743198"></polygon>
                <path d="M392.162395,274.125597 C392.111995,274.334397 392.054395,274.543197 391.996795,274.744797 L391.931995,274.996797 C388.800957,272.968982 385.170708,271.845274 381.441596,271.749597 C371.742348,271.757537 363.881536,279.618349 363.873596,289.317597 C363.873596,289.684797 363.974396,290.541597 364.060796,291.261597 L363.549596,291.261597 L363.203996,291.261597 C363.105339,290.624673 363.040448,289.982977 363.009596,289.339197 C363.025454,279.16606 371.268459,270.923055 381.441596,270.907197 C385.239073,270.999659 388.941872,272.111245 392.162395,274.125597 Z" id="Path" fill="#64EDFF" fill-rule="nonzero"></path>
                <path d="M389.627995,283.017597 C387.488392,288.323986 382.279672,291.744809 376.559996,291.599997 L371.303996,291.470397 C370.312836,286.748566 372.71921,281.968926 377.102594,279.952983 C381.485979,277.93704 386.680938,279.220783 389.620795,283.046397 L389.627995,283.017597 Z" id="Path" fill="url(#linearGradient-26)" fill-rule="nonzero"></path>
                <path d="M248.399997,249.119997 L247.679997,249.623997 C245.795733,246.938851 243.284704,244.754058 240.364797,243.259197 C231.803596,239.132973 221.513314,242.566258 217.144797,251.006397 L216.359997,250.624797 C220.949369,241.767158 231.745456,238.157834 240.739197,242.474397 C243.793726,244.03588 246.422827,246.316576 248.399997,249.119997 Z" id="Path" fill="#64EDFF" fill-rule="nonzero"></path>
                <path d="M241.675197,253.843197 C236.281656,256.846758 229.765109,257.042765 224.200797,254.368797 L223.667997,254.109597 C225.453973,250.837593 228.862991,248.780304 232.590279,248.72514 C236.317566,248.669976 239.785974,250.62548 241.667997,253.843197 L241.675197,253.843197 Z" id="Path" fill="url(#linearGradient-27)" fill-rule="nonzero"></path>
                <rect id="Rectangle" fill="#858585" fill-rule="nonzero" x="159.674398" y="292.831197" width="102.117599" height="6.57359992"></rect>
                <rect id="Rectangle" fill="#999999" fill-rule="nonzero" x="159.674398" y="286.257597" width="102.117599" height="6.57359992"></rect>
                <path d="M423.676795,116.582399 C423.308069,116.455166 422.926644,116.368259 422.539195,116.323199 C422.271736,116.287303 422.002555,116.265673 421.732795,116.258399 C421.732795,115.984799 421.732795,115.718399 421.667995,115.444799 C421.623825,115.058857 421.534411,114.67945 421.401595,114.314399 C421.274377,114.680661 421.187463,115.0597 421.142395,115.444799 C421.106501,115.71467 421.084871,115.986248 421.077595,116.258399 C420.807836,116.265673 420.538655,116.287303 420.271195,116.323199 C419.88303,116.364013 419.501127,116.451029 419.133595,116.582399 C419.500881,116.716025 419.882768,116.805454 420.271195,116.848799 C420.537595,116.848799 420.803995,116.899199 421.077595,116.906399 C421.084871,117.17855 421.106501,117.450127 421.142395,117.719999 C421.188275,118.107306 421.275163,118.488645 421.401595,118.857599 C421.533702,118.489862 421.623089,118.108156 421.667995,117.719999 C421.703995,117.446399 421.718395,117.179999 421.732795,116.906399 C422.002555,116.899125 422.271736,116.877494 422.539195,116.841599 C422.927227,116.799984 423.309036,116.712989 423.676795,116.582399 L423.676795,116.582399 Z" id="Path" fill="#FFFFFF" fill-rule="nonzero"></path>
                <path d="M494.078394,154.490398 C493.710804,154.357797 493.32904,154.268396 492.940794,154.223998 C492.667194,154.223998 492.400794,154.173598 492.134394,154.166398 C492.134394,153.892798 492.134394,153.626398 492.069594,153.352798 C492.024688,152.964641 491.935301,152.582935 491.803194,152.215198 C491.676762,152.584152 491.589875,152.965491 491.543994,153.352798 C491.5081,153.62267 491.48647,153.894247 491.479194,154.166398 C491.205594,154.166398 490.939194,154.166398 490.672794,154.223998 C490.284367,154.267343 489.90248,154.356772 489.535194,154.490398 C489.903698,154.618407 490.28521,154.705334 490.672794,154.749598 C490.940223,154.785784 491.209419,154.807416 491.479194,154.814398 C491.48647,155.086549 491.5081,155.358127 491.543994,155.627998 C491.589063,156.013097 491.675976,156.392136 491.803194,156.758398 C491.93601,156.393347 492.025424,156.01394 492.069594,155.627998 C492.105594,155.354398 492.119994,155.087998 492.134394,154.814398 C492.404154,154.807124 492.673335,154.785494 492.940794,154.749598 C493.328243,154.704538 493.709669,154.617631 494.078394,154.490398 Z" id="Path" fill="#FFFFFF" fill-rule="nonzero"></path>
                <path d="M428.709595,52.8983994 C428.340869,52.7711667 427.959444,52.6842595 427.571995,52.6391994 C427.304504,52.6035959 427.035339,52.5819665 426.765595,52.5743994 C426.765595,52.3007994 426.729595,52.0343994 426.700795,51.7607994 C426.656625,51.3748573 426.567211,50.9954504 426.434395,50.6303994 C426.307177,50.9966615 426.220263,51.3757003 426.175195,51.7607994 C426.139301,52.030671 426.117671,52.3022485 426.110395,52.5743994 C425.84062,52.581382 425.571423,52.6030139 425.303995,52.6391994 C424.91641,52.6834634 424.534899,52.7703902 424.166395,52.8983994 C424.533681,53.0320255 424.915568,53.1214547 425.303995,53.1647994 C425.570395,53.1647994 425.836795,53.2151994 426.110395,53.2223994 C426.117671,53.4945503 426.139301,53.7661278 426.175195,54.0359994 C426.221075,54.4233067 426.307963,54.8046457 426.434395,55.1735994 C426.566502,54.8058628 426.655889,54.4241563 426.700795,54.0359994 C426.736795,53.7623994 426.751195,53.4959994 426.765595,53.2223994 C427.031995,53.2223994 427.305595,53.2223994 427.571995,53.1647994 C427.96024,53.1204015 428.342005,53.0310009 428.709595,52.8983994 Z" id="Path" fill="#FFFFFF" fill-rule="nonzero"></path>
                <path d="M483.451194,105.724799 C482.932072,105.540456 482.393239,105.417225 481.845594,105.357599 C481.463994,105.307199 481.082394,105.278399 480.707994,105.263999 C480.707994,104.882399 480.664794,104.500799 480.614394,104.119199 C480.549721,103.572415 480.426618,103.034139 480.247194,102.513599 C480.062112,103.032928 479.93651,103.571568 479.872794,104.119199 C479.822394,104.500799 479.800794,104.882399 479.786394,105.263999 C479.407194,105.263999 479.025594,105.292799 478.641594,105.350399 C478.094286,105.415951 477.555848,105.541506 477.035994,105.724799 C477.554875,105.911407 478.093692,106.03705 478.641594,106.099199 C479.020794,106.142399 479.402394,106.171199 479.786394,106.185599 C479.793699,106.568517 479.822545,106.950721 479.872794,107.330399 C479.935705,107.878169 480.061328,108.4169 480.247194,108.935999 C480.427374,108.415674 480.550496,107.877316 480.614394,107.330399 C480.664794,106.948799 480.693594,106.567199 480.707994,106.185599 C481.089594,106.185599 481.463994,106.142399 481.845594,106.091999 C482.393239,106.032373 482.932072,105.909142 483.451194,105.724799 L483.451194,105.724799 Z" id="Path" fill="#FFFFFF" fill-rule="nonzero"></path>
                <path d="M515.908794,89.733599 C515.489266,89.5853191 515.054623,89.4839024 514.612794,89.431199 C514.310394,89.431199 514.000794,89.373599 513.691194,89.359199 C513.685158,89.0508592 513.661117,88.7431351 513.619194,88.437599 C513.582269,87.9900976 513.495327,87.5481414 513.359994,87.119999 C513.208315,87.5385254 513.106806,87.9735635 513.057594,88.415999 C513.057594,88.725599 512.999994,89.027999 512.985594,89.337599 C512.675994,89.337599 512.366394,89.337599 512.063994,89.409599 C511.621559,89.4588108 511.186521,89.5603197 510.767994,89.711999 C511.187755,89.8579988 511.622411,89.9570037 512.063994,90.007199 C512.369505,90.0493529 512.677243,90.0733949 512.985594,90.079199 C512.991676,90.3899277 513.015716,90.7000451 513.057594,91.0079989 C513.106006,91.4482297 513.207545,91.8809791 513.359994,92.2967989 C513.506752,91.8797263 513.605783,91.4473689 513.655194,91.0079989 C513.697072,90.7000451 513.721112,90.3899277 513.727194,90.079199 C514.035545,90.0733949 514.343283,90.0493529 514.648794,90.007199 C515.077388,89.9614305 515.499816,89.8697031 515.908794,89.733599 L515.908794,89.733599 Z" id="Path" fill="#FFFFFF" fill-rule="nonzero"></path>
                <path d="M464.745595,71.2799176 C464.745595,71.2799176 430.804795,71.0783992 438.314395,90.7199989 C445.823995,110.361599 414.763195,126.626399 414.763195,126.626399 L445.615195,148.694398 C445.615195,148.694398 459.712795,113.594399 451.375195,95.8463989 C443.037595,78.0983991 464.745595,71.2799176 464.745595,71.2799176 Z" id="Path" fill="url(#linearGradient-28)" fill-rule="nonzero"></path>
                <path d="M464.745595,71.2799992 C464.745595,71.2799992 434.505595,74.3327991 442.036795,93.9527989 C449.567995,113.572799 418.492795,129.851998 418.492795,129.851998 L449.337595,151.919998 C449.337595,151.919998 463.442395,116.819999 455.061595,99.0647989 C446.680795,81.3095991 464.745595,71.2799992 464.745595,71.2799992 Z" id="Path" fill="url(#linearGradient-29)" fill-rule="nonzero"></path>
                <polygon id="Path" fill="url(#linearGradient-30)" fill-rule="nonzero" points="459.093595 69.8615992 458.056795 68.8751992 457.955995 68.7815992 452.534395 63.6191993 460.324795 59.9255993 464.630395 61.6823993 466.646395 62.5103993 462.751195 66.3047992 461.188795 67.8239992 460.634395 68.3639992 459.741595 69.2351992 459.525595 69.4439992"></polygon>
                <polygon id="Path" fill="url(#linearGradient-31)" fill-rule="nonzero" points="469.583995 79.4735991 461.793595 83.159999 461.217595 75.4343991 461.167195 74.8079991 461.116795 74.1311991 461.714395 74.0663991 462.016795 74.0303991 462.571195 73.9655991 463.255195 73.8935991 464.018395 73.7999991 471.592795 72.9503992 471.009595 74.8367991"></polygon>
                <path d="M462.679195,75.4343991 L462.484795,75.4343991 L461.584795,75.4343991 C461.463091,75.4528636 461.339298,75.4528636 461.217595,75.4343991 C461.006118,75.3854843 460.814969,75.2723039 460.670395,75.1103991 C460.620589,75.0476829 460.577173,74.9801475 460.540795,74.9087991 L458.063995,69.6743992 C457.952133,69.4197419 457.952133,69.1298565 458.063995,68.8751992 C458.118874,68.7403409 458.196841,68.6160811 458.294395,68.5079992 L458.884795,67.8311992 L459.014395,67.6799992 L462.679195,75.4343991 Z" id="Path" fill="url(#linearGradient-32)" fill-rule="nonzero"></path>
                <path d="M460.209595,65.7503992 L459.273595,66.8087992 C458.88725,67.2089874 458.776777,67.8010084 458.992795,68.3135992 L460.583995,71.6831992 L460.583995,71.6831992 L462.182395,75.0527991 C462.444871,75.5387865 462.971442,75.8218894 463.521595,75.7727991 L464.961595,75.7295991 L460.209595,65.7503992 Z" id="Path" fill="#BABABA" fill-rule="nonzero"></path>
                <path d="M471.009595,74.8367991 C468.676795,75.6863991 466.804795,76.2767991 465.717595,76.5359991 C465.143333,76.7275074 464.514526,76.478415 464.227195,75.9455991 L459.590395,66.1535992 C459.359684,65.5951422 459.563054,64.9516457 460.072795,64.6271993 C460.979995,63.9863993 462.549595,62.9207993 464.630395,61.6823993 C466.394395,60.6311993 468.539995,59.4575993 470.959195,58.3127993 C476.530472,55.5898233 482.503625,53.7811029 488.649594,52.9559994 L489.160794,52.8983994 L489.160794,52.8983994 C489.907078,53.7383757 490.554512,54.6612115 491.090394,55.6487994 C492.092433,57.4375251 492.776958,59.3863507 493.113594,61.4087993 L493.113594,61.5167993 L492.818394,61.7975993 L492.818394,61.7975993 C485.834394,68.6015992 476.920794,72.6767992 471.009595,74.8367991 Z" id="Path" fill="url(#linearGradient-33)" fill-rule="nonzero"></path>
                <circle id="Oval" fill="url(#linearGradient-34)" fill-rule="nonzero" cx="481.874394" cy="61.5959993" r="3.41279996"></circle>
                <circle id="Oval" fill="#7C7C7C" fill-rule="nonzero" cx="481.730394" cy="61.7687993" r="2.61359997"></circle>
                <circle id="Oval" fill="#EAEAEA" fill-rule="nonzero" cx="481.802394" cy="61.5455993" r="2.58479997"></circle>
                <polygon id="Path" fill="url(#linearGradient-35)" fill-rule="nonzero" points="455.090395 74.2823991 468.295195 67.1327992 468.986395 68.5943992"></polygon>
                <path d="M493.142394,61.5527993 L493.142394,61.4447993 C493.091994,61.1495993 493.034394,60.8543993 492.969594,60.5735993 C492.589854,58.8548954 491.961652,57.2007108 491.104794,55.6631994 C490.557021,54.6865088 489.915605,53.7653774 489.189594,52.9127994 L489.189594,52.9127994 C492.472598,52.5464592 495.789774,52.6190981 499.053594,53.1287994 L499.607994,53.2223994 L499.607994,53.2223994 L499.283994,53.7911994 C498.923994,54.3959994 498.563994,54.9863994 498.167994,55.5623994 C497.0866,57.1648537 495.883019,58.6813662 494.567994,60.0983993 C494.135994,60.5591993 493.703994,61.0127993 493.257594,61.4519993 L493.163994,61.5455993 L493.142394,61.5527993 Z" id="Path" fill="url(#linearGradient-36)" fill-rule="nonzero"></path>
                <circle id="Oval" fill="url(#linearGradient-37)" fill-rule="nonzero" cx="432.194395" cy="345.758396" r="35.1935996"></circle>
                <path d="M206.099998,384.710396 C194.227198,391.823995 200.959198,410.320795 214.739998,408.851995 L215.503198,408.765595 C240.904797,405.770395 266.889597,388.000796 285.134397,394.487995 C303.379196,400.975195 350.618396,391.607995 326.080796,368.063996 C301.543197,344.519996 267.184797,361.871996 253.591197,369.359996 C222.760797,386.337596 220.319997,376.214396 206.099998,384.710396 Z" id="Path" fill="#DDE6FA" fill-rule="nonzero"></path>
                <path d="M397.634395,161.157598 L373.125596,259.919997 C371.91583,264.802877 367.71521,268.362381 362.699996,268.754397 L309.959996,272.879997" id="Path" stroke="#64EDFF" stroke-width="0.698399992"></path>
                <line x1="269.445597" y1="36.7343996" x2="222.227997" y2="36.7343996" id="Path" stroke="#FFFFFF" stroke-width="1.43999998"></line>
                <path d="M538.300794,122.831999 C525.620319,146.379019 501.029873,161.056952 474.285595,161.042409 C471.916795,161.042409 469.569595,160.927198 467.258395,160.703998 C467.568838,143.992666 476.904114,128.759661 491.65344,120.896941 C506.402767,113.034221 524.253355,113.774711 538.300794,122.831999 L538.300794,122.831999 Z" id="Path" fill="url(#linearGradient-38)" fill-rule="nonzero"></path>
                <circle id="Oval" fill="#FFFFFF" fill-rule="nonzero" cx="59.7383993" cy="78.2351991" r="29.0231997"></circle>
            </g>
        </g>
    </g>
</svg>