<?xml version="1.0" encoding="UTF-8"?>
<svg width="511px" height="496px" viewBox="0 0 511 496" version="1.1" xmlns="http://www.w3.org/2000/svg" xmlns:xlink="http://www.w3.org/1999/xlink">
    <!-- Generator: Sketch 63.1 (92452) - https://sketch.com -->
    <title>03_DEAL</title>
    <desc>Created with Sketch.</desc>
    <defs>
        <linearGradient x1="0.00832767173%" y1="50.0014446%" x2="99.9963229%" y2="50.0014446%" id="linearGradient-1">
            <stop stop-color="#9CB7F0" offset="0%"></stop>
            <stop stop-color="#9FB9F1" offset="3%"></stop>
            <stop stop-color="#BACDF5" offset="26%"></stop>
            <stop stop-color="#CEDBF8" offset="50%"></stop>
            <stop stop-color="#D9E3F9" offset="75%"></stop>
            <stop stop-color="#DDE6FA" offset="100%"></stop>
        </linearGradient>
        <linearGradient x1="0.0833333333%" y1="50%" x2="100%" y2="50%" id="linearGradient-2">
            <stop stop-color="#9CB7F0" offset="0%"></stop>
            <stop stop-color="#9FB9F1" offset="3%"></stop>
            <stop stop-color="#BACDF5" offset="26%"></stop>
            <stop stop-color="#CEDBF8" offset="50%"></stop>
            <stop stop-color="#D9E3F9" offset="75%"></stop>
            <stop stop-color="#DDE6FA" offset="100%"></stop>
        </linearGradient>
        <linearGradient x1="-0.0834724541%" y1="50%" x2="100%" y2="50%" id="linearGradient-3">
            <stop stop-color="#366FE0" offset="0%"></stop>
            <stop stop-color="#2C5ECB" offset="20%"></stop>
            <stop stop-color="#1E48AF" offset="52%"></stop>
            <stop stop-color="#153A9D" offset="79%"></stop>
            <stop stop-color="#123597" offset="100%"></stop>
        </linearGradient>
        <linearGradient x1="0.0833333333%" y1="50%" x2="100%" y2="50%" id="linearGradient-4">
            <stop stop-color="#366FE0" offset="0%"></stop>
            <stop stop-color="#2C5ECB" offset="20%"></stop>
            <stop stop-color="#1E48AF" offset="52%"></stop>
            <stop stop-color="#153A9D" offset="79%"></stop>
            <stop stop-color="#123597" offset="100%"></stop>
        </linearGradient>
        <linearGradient x1="50%" y1="100%" x2="50%" y2="-0.0834724541%" id="linearGradient-5">
            <stop stop-color="#DDE6FA" offset="0%"></stop>
            <stop stop-color="#D9E3F9" offset="25%"></stop>
            <stop stop-color="#CEDBF8" offset="50%"></stop>
            <stop stop-color="#BACDF5" offset="74%"></stop>
            <stop stop-color="#9FB9F1" offset="97%"></stop>
            <stop stop-color="#9CB7F0" offset="100%"></stop>
        </linearGradient>
        <linearGradient x1="0%" y1="50.004076%" x2="100%" y2="50.004076%" id="linearGradient-6">
            <stop stop-color="#366FE0" offset="0%"></stop>
            <stop stop-color="#2C5ECB" offset="20%"></stop>
            <stop stop-color="#1E48AF" offset="52%"></stop>
            <stop stop-color="#153A9D" offset="79%"></stop>
            <stop stop-color="#123597" offset="100%"></stop>
        </linearGradient>
        <linearGradient x1="0%" y1="49.9737557%" x2="100.002142%" y2="49.9737557%" id="linearGradient-7">
            <stop stop-color="#4E54C8" offset="0%"></stop>
            <stop stop-color="#8F94FB" offset="100%"></stop>
        </linearGradient>
        <linearGradient x1="0.0630914826%" y1="50.0440284%" x2="100%" y2="50.0440284%" id="linearGradient-8">
            <stop stop-color="#366FE0" offset="0%"></stop>
            <stop stop-color="#2C5ECB" offset="20%"></stop>
            <stop stop-color="#1E48AF" offset="52%"></stop>
            <stop stop-color="#153A9D" offset="79%"></stop>
            <stop stop-color="#123597" offset="100%"></stop>
        </linearGradient>
        <linearGradient x1="0%" y1="49.9425961%" x2="100%" y2="49.9425961%" id="linearGradient-9">
            <stop stop-color="#366FE0" offset="0%"></stop>
            <stop stop-color="#2C5ECB" offset="20%"></stop>
            <stop stop-color="#1E48AF" offset="52%"></stop>
            <stop stop-color="#153A9D" offset="79%"></stop>
            <stop stop-color="#123597" offset="100%"></stop>
        </linearGradient>
        <linearGradient x1="0%" y1="49.9700429%" x2="100.024664%" y2="49.9700429%" id="linearGradient-10">
            <stop stop-color="#366FE0" offset="0%"></stop>
            <stop stop-color="#2C5ECB" offset="20%"></stop>
            <stop stop-color="#1E48AF" offset="52%"></stop>
            <stop stop-color="#153A9D" offset="79%"></stop>
            <stop stop-color="#123597" offset="100%"></stop>
        </linearGradient>
        <linearGradient x1="0%" y1="49.9885423%" x2="99.9575419%" y2="49.9885423%" id="linearGradient-11">
            <stop stop-color="#366FE0" offset="0%"></stop>
            <stop stop-color="#2C5ECB" offset="20%"></stop>
            <stop stop-color="#1E48AF" offset="52%"></stop>
            <stop stop-color="#153A9D" offset="79%"></stop>
            <stop stop-color="#123597" offset="100%"></stop>
        </linearGradient>
        <linearGradient x1="0%" y1="49.9130889%" x2="100%" y2="49.9130889%" id="linearGradient-12">
            <stop stop-color="#366FE0" offset="0%"></stop>
            <stop stop-color="#2C5ECB" offset="20%"></stop>
            <stop stop-color="#1E48AF" offset="52%"></stop>
            <stop stop-color="#153A9D" offset="79%"></stop>
            <stop stop-color="#123597" offset="100%"></stop>
        </linearGradient>
        <linearGradient x1="0%" y1="50%" x2="100%" y2="50%" id="linearGradient-13">
            <stop stop-color="#366FE0" offset="0%"></stop>
            <stop stop-color="#2C5ECB" offset="20%"></stop>
            <stop stop-color="#1E48AF" offset="52%"></stop>
            <stop stop-color="#153A9D" offset="79%"></stop>
            <stop stop-color="#123597" offset="100%"></stop>
        </linearGradient>
        <linearGradient x1="0.0216229092%" y1="49.974494%" x2="100%" y2="49.974494%" id="linearGradient-14">
            <stop stop-color="#9CB7F0" offset="0%"></stop>
            <stop stop-color="#9FB9F1" offset="3%"></stop>
            <stop stop-color="#BACDF5" offset="26%"></stop>
            <stop stop-color="#CEDBF8" offset="50%"></stop>
            <stop stop-color="#D9E3F9" offset="75%"></stop>
            <stop stop-color="#DDE6FA" offset="100%"></stop>
        </linearGradient>
        <linearGradient x1="-0.0794324627%" y1="50.0272613%" x2="100.092898%" y2="50.0272613%" id="linearGradient-15">
            <stop stop-color="#9CB7F0" offset="0%"></stop>
            <stop stop-color="#9FB9F1" offset="3%"></stop>
            <stop stop-color="#BACDF5" offset="26%"></stop>
            <stop stop-color="#CEDBF8" offset="50%"></stop>
            <stop stop-color="#D9E3F9" offset="75%"></stop>
            <stop stop-color="#DDE6FA" offset="100%"></stop>
        </linearGradient>
        <linearGradient x1="-0.0409294967%" y1="50.0074629%" x2="100%" y2="50.0074629%" id="linearGradient-16">
            <stop stop-color="#9CB7F0" offset="0%"></stop>
            <stop stop-color="#9FB9F1" offset="3%"></stop>
            <stop stop-color="#BACDF5" offset="26%"></stop>
            <stop stop-color="#CEDBF8" offset="50%"></stop>
            <stop stop-color="#D9E3F9" offset="75%"></stop>
            <stop stop-color="#DDE6FA" offset="100%"></stop>
        </linearGradient>
        <linearGradient x1="-0.0687390239%" y1="50.0207012%" x2="100.03588%" y2="50.0207012%" id="linearGradient-17">
            <stop stop-color="#9CB7F0" offset="0%"></stop>
            <stop stop-color="#9FB9F1" offset="3%"></stop>
            <stop stop-color="#BACDF5" offset="26%"></stop>
            <stop stop-color="#CEDBF8" offset="50%"></stop>
            <stop stop-color="#D9E3F9" offset="75%"></stop>
            <stop stop-color="#DDE6FA" offset="100%"></stop>
        </linearGradient>
        <linearGradient x1="0%" y1="49.9631476%" x2="99.9388537%" y2="49.9631476%" id="linearGradient-18">
            <stop stop-color="#9CB7F0" offset="0%"></stop>
            <stop stop-color="#9FB9F1" offset="3%"></stop>
            <stop stop-color="#BACDF5" offset="26%"></stop>
            <stop stop-color="#CEDBF8" offset="50%"></stop>
            <stop stop-color="#D9E3F9" offset="75%"></stop>
            <stop stop-color="#DDE6FA" offset="100%"></stop>
        </linearGradient>
        <linearGradient x1="0%" y1="50.010686%" x2="100%" y2="50.010686%" id="linearGradient-19">
            <stop stop-color="#366FE0" offset="0%"></stop>
            <stop stop-color="#2C5ECB" offset="20%"></stop>
            <stop stop-color="#1E48AF" offset="52%"></stop>
            <stop stop-color="#153A9D" offset="79%"></stop>
            <stop stop-color="#123597" offset="100%"></stop>
        </linearGradient>
        <linearGradient x1="0.603503536%" y1="50.2070802%" x2="101.289355%" y2="50.2070802%" id="linearGradient-20">
            <stop stop-color="#366FE0" offset="0%"></stop>
            <stop stop-color="#2C5ECB" offset="20%"></stop>
            <stop stop-color="#1E48AF" offset="52%"></stop>
            <stop stop-color="#153A9D" offset="79%"></stop>
            <stop stop-color="#123597" offset="100%"></stop>
        </linearGradient>
        <linearGradient x1="0%" y1="50%" x2="100.083472%" y2="50%" id="linearGradient-21">
            <stop stop-color="#9CB7F0" offset="0%"></stop>
            <stop stop-color="#9FB9F1" offset="3%"></stop>
            <stop stop-color="#BACDF5" offset="26%"></stop>
            <stop stop-color="#CEDBF8" offset="50%"></stop>
            <stop stop-color="#D9E3F9" offset="75%"></stop>
            <stop stop-color="#DDE6FA" offset="100%"></stop>
        </linearGradient>
        <linearGradient x1="0.166666667%" y1="50%" x2="100%" y2="50%" id="linearGradient-22">
            <stop stop-color="#9CB7F0" offset="0%"></stop>
            <stop stop-color="#9FB9F1" offset="3%"></stop>
            <stop stop-color="#BACDF5" offset="26%"></stop>
            <stop stop-color="#CEDBF8" offset="50%"></stop>
            <stop stop-color="#D9E3F9" offset="75%"></stop>
            <stop stop-color="#DDE6FA" offset="100%"></stop>
        </linearGradient>
        <linearGradient x1="-0.0834724541%" y1="50%" x2="100%" y2="50%" id="linearGradient-23">
            <stop stop-color="#9CB7F0" offset="0%"></stop>
            <stop stop-color="#9FB9F1" offset="3%"></stop>
            <stop stop-color="#BACDF5" offset="26%"></stop>
            <stop stop-color="#CEDBF8" offset="50%"></stop>
            <stop stop-color="#D9E3F9" offset="75%"></stop>
            <stop stop-color="#DDE6FA" offset="100%"></stop>
        </linearGradient>
        <linearGradient x1="0.0833333333%" y1="50.3333333%" x2="100%" y2="50.3333333%" id="linearGradient-24">
            <stop stop-color="#9CB7F0" offset="0%"></stop>
            <stop stop-color="#9FB9F1" offset="3%"></stop>
            <stop stop-color="#BACDF5" offset="26%"></stop>
            <stop stop-color="#CEDBF8" offset="50%"></stop>
            <stop stop-color="#D9E3F9" offset="75%"></stop>
            <stop stop-color="#DDE6FA" offset="100%"></stop>
        </linearGradient>
        <linearGradient x1="0%" y1="50%" x2="100%" y2="50%" id="linearGradient-25">
            <stop stop-color="#9CB7F0" offset="0%"></stop>
            <stop stop-color="#9FB9F1" offset="3%"></stop>
            <stop stop-color="#BACDF5" offset="26%"></stop>
            <stop stop-color="#CEDBF8" offset="50%"></stop>
            <stop stop-color="#D9E3F9" offset="75%"></stop>
            <stop stop-color="#DDE6FA" offset="100%"></stop>
        </linearGradient>
    </defs>
    <g id="Page-1" stroke="none" stroke-width="1" fill="none" fill-rule="evenodd">
        <g id="Project4" transform="translate(-771.000000, -4999.000000)">
            <g id="03_DEAL" transform="translate(773.000000, 4999.000000)">
                <path d="M455.643992,205.905996 C436.267993,187.593997 406.643993,180.201997 393.035993,157.227997 C372.399994,122.227998 401.099993,72.0799988 377.775994,38.8719993 C349.999994,-0.664000006 283.583995,17.2979997 252.713996,43.2819992 C208.053996,80.8859986 163.701997,111.881998 105.713998,125.531998 C79.2259987,131.775998 49.3919992,135.807998 32.0599995,156.779997 C24.2339996,166.257997 19.9919997,178.199997 17.3179997,190.183997 C8.04999986,231.735996 19.7119997,281.421995 56.419999,302.953995 C84.8399986,319.627995 120.133998,315.861995 153.019997,317.807995 C182.77663,319.571242 212.013584,326.403457 239.469996,338.009994 C243.669996,339.759994 247.701996,341.621994 251.789996,343.539994 C331.365994,304.199995 394.799993,315.847995 394.799993,315.847995 C358.203994,319.291995 320.053995,342.587994 293.397995,362.593994 C297.779995,364.301994 302.231995,365.869994 306.753995,367.213994 C344.929726,378.320478 385.973941,373.523824 420.559993,353.913994 C446.095992,339.241994 467.417992,315.847995 475.565992,287.539995 C483.713992,259.231996 477.049992,226.149996 455.643992,205.905996 Z" id="Path" fill="url(#linearGradient-1)" fill-rule="nonzero"></path>
                <text id="Dealing" font-family="Poppins-Medium, Poppins Medium" font-size="30" font-weight="normal" fill="#302727">
                    <tspan x="194.25" y="487">Dealing</tspan>
                </text>
                <path d="M426.187993,61.4259989 C426.187993,66.0651908 422.427185,69.8259988 417.787993,69.8259988 C413.148801,69.8259988 409.387993,66.0651908 409.387993,61.4259989 C409.387993,56.7868071 413.148801,53.0259991 417.787993,53.0259991 C422.427185,53.0259991 426.187993,56.7868071 426.187993,61.4259989 Z" id="Path" fill="url(#linearGradient-2)" fill-rule="nonzero"></path>
                <path d="M411.599993,59.815999 C411.58547,59.6951002 411.58547,59.5728977 411.599993,59.451999 C411.730085,58.9333051 411.917926,58.430833 412.159993,57.953999 C412.814659,56.5015099 414.057011,55.3966311 415.575993,54.915999 C416.858938,54.6009783 418.199048,54.6009783 419.481993,54.915999 C419.481993,54.915999 422.757993,55.447999 422.799993,56.679999 C422.799993,57.043999 420.685993,57.113999 420.419993,57.127999 C417.80632,57.060594 415.28886,58.115481 413.503993,60.025999 C412.985993,60.7119989 412.285993,61.8739989 411.655993,60.501999 C411.573287,60.2831259 411.55388,60.0453879 411.599993,59.815999 L411.599993,59.815999 Z" id="Path" fill="#4C4C4C" fill-rule="nonzero" style="mix-blend-mode: screen;"></path>
                <circle id="Oval" fill="url(#linearGradient-3)" fill-rule="nonzero" cx="450.407992" cy="143.493998" r="8.38599986"></circle>
                <path d="M458.793992,144.767998 C458.793992,149.407189 455.033184,153.167997 450.393992,153.167997 C445.754801,153.167997 441.993992,149.407189 441.993992,144.767998 C441.993992,140.128806 445.754801,136.367998 450.393992,136.367998 C455.033184,136.367998 458.793992,140.128806 458.793992,144.767998 Z" id="Path" fill="url(#linearGradient-2)" fill-rule="nonzero"></path>
                <path d="M444.121992,143.199998 C444.115211,143.074089 444.115211,142.947906 444.121992,142.821998 C444.254476,142.308545 444.44224,141.810971 444.681992,141.337998 C445.333545,139.888481 446.570289,138.784063 448.083992,138.299998 C449.372373,137.990842 450.715612,137.990842 452.003992,138.299998 C452.003992,138.299998 455.279992,138.831998 455.321992,140.077998 C455.321992,140.427998 453.207992,140.497998 452.941992,140.511998 C450.324778,140.440887 447.804098,141.502226 446.025992,143.423998 C445.507992,144.095998 444.807992,145.271998 444.177992,143.899998 C444.09485,143.676355 444.075463,143.434014 444.121992,143.199998 L444.121992,143.199998 Z" id="Path" fill="#4C4C4C" fill-rule="nonzero" style="mix-blend-mode: screen;"></path>
                <path d="M458.793992,159.005997 C458.793992,163.645189 455.033184,167.405997 450.393992,167.405997 C445.754801,167.405997 441.993992,163.645189 441.993992,159.005997 C441.993992,154.366805 445.754801,150.605997 450.393992,150.605997 C455.033184,150.605997 458.793992,154.366805 458.793992,159.005997 Z" id="Path" fill="url(#linearGradient-4)" fill-rule="nonzero"></path>
                <circle id="Oval" fill="url(#linearGradient-5)" fill-rule="nonzero" cx="450.407992" cy="160.279997" r="8.38599986"></circle>
                <path d="M444.121992,158.669997 C444.114097,158.548792 444.114097,158.427202 444.121992,158.305997 C444.252085,157.787303 444.439925,157.284831 444.681992,156.807997 C445.333545,155.358481 446.570289,154.254063 448.083992,153.769997 C449.372373,153.460842 450.715612,153.460842 452.003992,153.769997 C452.003992,153.769997 455.279992,154.301997 455.321992,155.547997 C455.321992,155.897997 453.207992,155.967997 452.941992,155.981997 C450.326156,155.918189 447.808359,156.978314 446.025992,158.893997 C445.507992,159.565997 444.807992,160.741997 444.177992,159.369997 C444.09485,159.146355 444.075463,158.904014 444.121992,158.669997 L444.121992,158.669997 Z" id="Path" fill="#4C4C4C" fill-rule="nonzero" style="mix-blend-mode: screen;"></path>
                <path d="M170.407997,231.007996 L301.587995,114.233998 L410.311993,190.113997 C410.311993,190.113997 345.463994,276.913995 282.911995,285.971995 L170.407997,231.007996 Z" id="Path" fill="url(#linearGradient-6)" fill-rule="nonzero"></path>
                <path d="M144.829998,88.3339985 C144.829998,88.3339985 172.087997,109.235998 192.989997,106.967998 C192.989997,106.967998 247.505996,100.611998 293.411995,124.229998 C293.411995,124.229998 328.411994,134.225998 346.611994,152.859997 L394.715993,183.799997 C394.715993,183.799997 409.261993,192.899997 409.709993,208.803996 C409.709993,208.803996 414.721993,235.599996 395.625993,240.597996 C395.625993,240.597996 387.449993,248.773996 371.545999,215.607996 L332.471994,190.169997 C332.471994,190.169997 324.295994,191.569997 342.467994,202.433997 L368.367994,221.067996 C368.367994,221.067996 389.269993,241.969996 379.273994,252.413996 C379.273994,252.413996 366.547994,270.613995 354.731994,262.409996 L316.119995,230.209996 C316.119995,230.209996 305.899995,223.391996 312.479995,232.477996 L350.419994,263.151996 C350.419994,263.151996 356.551994,271.775995 348.837994,279.041995 C348.837994,279.041995 340.437994,297.451995 316.805995,281.085995 L290.205995,260.421996 C290.205995,260.421996 280.895995,254.737996 288.385995,263.151996 L313.375995,282.457995 C313.375995,282.457995 323.833994,293.811995 311.107995,302.449995 C311.107995,302.449995 299.207995,315.399995 277.507995,297.675995 C277.507995,297.675995 241.107996,276.395995 235.031996,276.101995 C235.031996,276.101995 168.405997,245.805996 156.883997,237.923996 C145.361998,230.041996 115.093998,214.473996 102.983998,197.729997 L32.0459995,157.199997 L92.3999984,96.7759983 C106.175846,83.025336 127.190482,79.599894 144.619998,88.2639985 L144.829998,88.3339985 Z" id="Path" fill="url(#linearGradient-7)" fill-rule="nonzero"></path>
                <path d="M201.333997,116.739998 C201.333997,116.739998 289.127995,125.741998 313.879995,139.251998 C338.631994,152.761997 311.639995,179.767997 304.877995,177.513997 C304.877995,177.513997 309.385995,202.279997 286.873995,209.041996 C286.873995,209.041996 293.621995,238.301996 268.855995,245.049996 C268.855995,245.049996 268.855995,269.815995 250.851996,272.069995 C232.847996,274.323995 147.251997,202.279997 145.053998,200.025997 C142.855998,197.771997 205.799996,136.997998 201.333997,116.739998 Z" id="Path" stroke="#E6E6E6" stroke-width="3.98999993" stroke-linecap="round" stroke-linejoin="round"></path>
                <path d="M216.999996,139.125998 C216.999996,139.125998 246.287996,144.599998 261.379996,121.499998 C261.379996,121.499998 253.021996,153.517997 216.999996,139.125998 Z" id="Path" fill="url(#linearGradient-8)" fill-rule="nonzero"></path>
                <path d="M259.195996,121.499998 C259.195996,121.499998 279.957995,110.551998 314.551995,132.181998 C314.551995,132.181998 274.455995,117.831998 260.413996,123.515998 L259.195996,121.499998 Z" id="Path" fill="url(#linearGradient-9)" fill-rule="nonzero"></path>
                <path d="M406.671993,197.085997 C406.671993,197.085997 395.975993,181.293997 372.973994,169.799997 L347.507994,153.461997 C347.507994,153.461997 325.877994,132.335998 297.261995,125.461998 C297.261995,125.461998 279.999995,117.425998 261.379996,121.513998 C261.379996,121.513998 252.741996,137.655998 238.881996,139.923998 C238.881996,139.923998 210.489996,145.201998 218.441996,129.703998 C220.373996,125.909998 226.001996,122.129998 232.665996,104.867998 C232.665996,104.867998 236.291996,86.6679985 256.899996,90.0279984 L288.399995,87.8859985 C288.399995,87.8859985 299.011995,83.0419986 313.851995,92.4359984 L362.319994,103.033998 C362.319994,103.033998 371.993994,107.233998 377.453994,99.9959983 L427.433993,53.7959991 L488.767992,129.675998" id="Path" fill="#ECFDF6" fill-rule="nonzero"></path>
                <path d="M232.511996,290.073995 C232.511996,290.073995 232.189996,278.075995 244.845996,279.755995 L272.383995,294.581995 C272.383995,294.581995 234.793996,299.607995 232.511996,290.073995 Z" id="Path" fill="#ECFDF6" fill-rule="nonzero"></path>
                <path d="M162.525997,233.079996 C162.525997,233.079996 171.765997,225.645996 174.383997,239.211996 C174.383997,239.211996 180.263997,247.247996 179.983997,250.075996 L171.247997,249.319996 L162.525997,233.079996 Z" id="Path" fill="url(#linearGradient-10)" fill-rule="nonzero"></path>
                <path d="M194.403997,241.045996 C194.403997,241.045996 201.403997,239.127996 203.461997,246.295996 C203.461997,246.295996 207.115996,251.209996 206.541996,254.261996 L205.505997,262.283996 L201.501997,260.407996 L194.403997,241.045996 Z" id="Path" fill="url(#linearGradient-11)" fill-rule="nonzero"></path>
                <path d="M210.503996,254.163996 C217.389832,251.76648 225.031399,254.209042 229.249996,260.155996 L236.123996,276.199995 L228.451996,273.035995 L210.503996,254.163996 Z" id="Path" fill="url(#linearGradient-12)" fill-rule="nonzero"></path>
                <path d="M232.511996,272.881995 C232.511996,272.881995 266.111995,288.281995 273.195995,293.993995 L274.707995,295.897995 C274.707995,295.897995 236.809996,274.981995 233.197996,274.897995 L232.511996,272.881995 Z" id="Path" fill="url(#linearGradient-13)" fill-rule="nonzero"></path>
                <path d="M212.295996,280.749995 C212.295996,280.749995 199.121997,262.339996 207.073996,257.579996 C207.073996,257.579996 223.873996,248.045996 230.873996,269.171995 C230.873996,269.171995 240.421996,287.371995 226.323996,288.771995 C220.570012,288.723574 215.255786,285.6846 212.295996,280.749995 L212.295996,280.749995 Z" id="Path" fill="#ECFDF6" fill-rule="nonzero"></path>
                <path d="M156.645997,248.045996 C156.645997,248.045996 154.601997,236.411996 164.135997,235.865996 C164.135997,235.865996 179.129997,242.361996 179.129997,253.267996 C179.129997,253.267996 184.631997,265.993995 167.803997,261.219996 C167.803997,261.219996 158.913997,256.669996 156.645997,248.045996 Z" id="Path" fill="#ECFDF6" fill-rule="nonzero"></path>
                <path d="M181.999997,264.299995 C180.151997,259.931996 182.377997,248.465996 188.873997,246.449996 C188.873997,246.449996 203.923997,244.363996 204.497997,255.423996 C204.497997,255.423996 200.955997,262.549996 208.277996,276.171995 C209.341996,278.145995 195.677997,287.231995 185.877997,272.069995 C185.891997,272.069995 182.895997,266.315995 181.999997,264.299995 Z" id="Path" fill="#ECFDF6" fill-rule="nonzero"></path>
                <path d="M215.403996,138.775998 C216.663996,132.783998 223.285996,123.025998 227.891996,119.693998 C227.891996,119.693998 236.291996,113.939998 238.419996,122.717998 C238.419996,122.717998 235.829996,137.501998 227.891996,141.463998 C227.891996,141.463998 214.199996,144.305998 215.403996,138.775998 Z" id="Path" fill="url(#linearGradient-14)" fill-rule="nonzero"></path>
                <path d="M160.075997,245.931996 C159.389997,243.439996 160.075997,241.297996 160.271997,237.209996 C160.677997,229.663996 173.011997,230.209996 172.143997,239.533996 C171.975997,241.339996 172.437997,245.931996 172.143997,247.555996 C171.569997,251.139996 162.763997,255.787996 160.075997,245.931996 Z" id="Path" fill="url(#linearGradient-15)" fill-rule="nonzero"></path>
                <path d="M185.429997,257.103996 C185.817904,253.087653 186.677836,249.131027 187.991997,245.315996 C189.195997,241.913996 198.953997,236.103996 201.501997,249.081996 C201.501997,249.081996 200.101997,258.125996 199.457997,260.421996 C198.211997,264.621995 185.065997,264.117995 185.429997,257.103996 Z" id="Path" fill="url(#linearGradient-16)" fill-rule="nonzero"></path>
                <path d="M206.023996,255.437996 C206.023996,255.437996 204.805997,267.351995 208.585996,271.439995 C208.585996,271.439995 213.961996,277.697995 218.021996,272.069995 C218.021996,272.069995 219.869996,270.221995 218.021996,258.573996 C218.021996,258.573996 212.351996,251.321996 206.023996,255.437996 Z" id="Path" fill="url(#linearGradient-17)" fill-rule="nonzero"></path>
                <path d="M232.511996,290.073995 C232.511996,290.073995 233.729996,293.251995 241.149996,291.277995 C241.149996,291.277995 252.657996,294.007995 251.607996,295.897995 C251.607996,295.897995 232.511996,297.493995 232.511996,290.073995 Z" id="Path" fill="url(#linearGradient-18)" fill-rule="nonzero"></path>
                <path d="M216.285996,135.933998 L230.999996,139.195998 L227.933996,141.463998 C227.933996,141.463998 216.915996,144.193998 215.333996,139.867998 C215.296865,138.495446 215.625427,137.137711 216.285996,135.933998 Z" id="Path" fill="#E6E6E6" fill-rule="nonzero"></path>
                <path d="M215.333996,139.867998 C215.333996,139.867998 223.201996,124.817998 226.883996,122.381998 C227.317996,122.087998 232.161996,118.181998 228.675996,124.201998 L217.475996,141.771998 C217.475996,141.771998 215.333996,140.931998 215.333996,139.867998 Z" id="Path" fill="#4C4C4C" fill-rule="nonzero" style="mix-blend-mode: screen;"></path>
                <path d="M160.299997,236.999996 C160.299997,236.999996 165.129997,234.059996 172.171997,239.267996 C172.476909,236.678932 171.217909,234.155434 168.965997,232.841996 C166.585763,231.580265 163.668663,231.956122 161.685997,233.779996 C160.96762,234.723832 160.491716,235.829468 160.299997,236.999996 Z" id="Path" fill="#E6E6E6" fill-rule="nonzero"></path>
                <path d="M187.669997,246.295996 C187.669997,246.295996 195.719997,244.195996 201.403997,249.739996 C201.403997,249.739996 201.221997,245.063996 198.533997,242.585996 C198.533997,242.585996 195.313997,239.113996 190.329997,242.585996 C188.986395,243.420951 188.029551,244.755497 187.669997,246.295996 Z" id="Path" fill="#E6E6E6" fill-rule="nonzero"></path>
                <path d="M205.799996,259.301996 C210.181001,258.467667 214.713969,259.409517 218.399996,261.919996 L217.937996,258.573996 C217.937996,258.573996 213.135996,252.413996 207.059996,254.807996 C207.059996,254.807996 205.659996,255.283996 205.743996,256.207996 L205.799996,259.301996 Z" id="Path" fill="#E6E6E6" fill-rule="nonzero"></path>
                <path d="M232.539996,290.409995 C232.539996,290.409995 234.317996,293.055995 241.149996,291.277995 L243.515996,291.893995 C243.515996,291.893995 238.083996,295.995995 233.603996,292.747995 C232.963479,292.133342 232.582729,291.296693 232.539996,290.409995 Z" id="Path" fill="#E6E6E6" fill-rule="nonzero"></path>
                <path d="M161.685997,233.723996 C162.588416,232.89519 163.70309,232.333006 164.905997,232.099996 L164.163997,245.385996 C164.163997,245.385996 162.119997,249.221996 161.363997,244.517996 L161.685997,233.723996 Z" id="Path" fill="#4C4C4C" fill-rule="nonzero" style="mix-blend-mode: screen;"></path>
                <path d="M189.615997,243.103996 C190.763264,241.991289 192.233655,241.270797 193.815997,241.045996 L191.799997,255.437996 C191.799997,255.437996 188.215997,261.877996 187.739997,254.891996 L189.615997,243.103996 Z" id="Path" fill="#4C4C4C" fill-rule="nonzero" style="mix-blend-mode: screen;"></path>
                <path d="M206.555996,255.115996 C206.555996,255.115996 207.549996,254.051996 210.503996,254.163996 L210.951996,268.373995 C210.951996,268.373995 209.411996,272.769995 207.619996,266.637995 C207.059312,262.819147 206.704134,258.972941 206.555996,255.115996 L206.555996,255.115996 Z" id="Path" fill="#4C4C4C" fill-rule="nonzero" style="mix-blend-mode: screen;"></path>
                <path d="M347.507994,153.461997 C347.507994,153.461997 370.201994,163.723997 386.553993,157.367997 C386.553993,157.367997 378.223994,164.955997 353.653994,157.367997 L347.507994,153.461997 Z" id="Path" fill="url(#linearGradient-19)" fill-rule="nonzero"></path>
                <path d="M260.245996,123.207998 L260.245996,123.081998 L262.639996,113.365998 C262.639996,113.365998 263.535996,119.077998 261.239996,123.165998 C258.943996,127.253998 260.245996,123.207998 260.245996,123.207998 Z" id="Path" fill="url(#linearGradient-20)" fill-rule="nonzero"></path>
                <circle id="Oval" fill="url(#linearGradient-21)" fill-rule="nonzero" cx="413.433993" cy="69.5739988" r="8.38599986"></circle>
                <path d="M407.161993,67.9779988 C407.155211,67.8520901 407.155211,67.7259076 407.161993,67.5999988 C407.295869,67.0889318 407.478715,66.5919652 407.707993,66.1159989 C408.370997,64.6666398 409.609397,63.5601999 411.123993,63.0639989 C412.407905,62.7570786 413.746081,62.7570786 415.029993,63.0639989 C415.029993,63.0639989 418.319993,63.5959989 418.361993,64.8419989 C418.361993,65.1919989 416.247993,65.2619989 415.981993,65.2759989 C413.364779,65.204888 410.844098,66.2662272 409.065993,68.1879988 C408.547993,68.8599988 407.833993,70.0359988 407.203993,68.6639988 C407.13321,68.4423741 407.118775,68.2066032 407.161993,67.9779988 L407.161993,67.9779988 Z" id="Path" fill="#4C4C4C" fill-rule="nonzero" style="mix-blend-mode: screen;"></path>
                <path d="M423.933993,83.6159986 C423.933993,88.2551904 420.173185,92.0159984 415.533993,92.0159984 C410.894801,92.0159984 407.133993,88.2551904 407.133993,83.6159986 C407.133993,78.9768067 410.894801,75.2159987 415.533993,75.2159987 C420.173185,75.2159987 423.933993,78.9768067 423.933993,83.6159986 Z" id="Path" fill="url(#linearGradient-22)" fill-rule="nonzero"></path>
                <path d="M409.275993,82.0199986 C409.262454,81.8943623 409.262454,81.7676349 409.275993,81.6419986 C409.394945,81.1263641 409.57839,80.6277711 409.821993,80.1579986 C410.480739,78.7055061 411.720761,77.5976178 413.237993,77.1059987 C414.520938,76.7909779 415.861048,76.7909779 417.143993,77.1059987 C417.143993,77.1059987 420.433993,77.6379987 420.461993,78.8699986 C420.461993,79.2339986 418.361993,79.3039986 418.081993,79.3179986 C415.465469,79.2505526 412.946238,80.3112814 411.165993,82.2299986 C410.647993,82.9019986 409.947993,84.0779986 409.317993,82.6919986 C409.241128,82.476395 409.226571,82.2434952 409.275993,82.0199986 L409.275993,82.0199986 Z" id="Path" fill="#4C4C4C" fill-rule="nonzero" style="mix-blend-mode: screen;"></path>
                <circle id="Oval" fill="url(#linearGradient-23)" fill-rule="nonzero" cx="418.949993" cy="98.6099983" r="8.38599986"></circle>
                <path d="M412.663993,96.9999983 C412.657247,96.8787588 412.657247,96.7572379 412.663993,96.6359983 C412.794085,96.1173045 412.981925,95.6148324 413.223993,95.1379984 C413.875545,93.6884818 415.112289,92.5840642 416.625993,92.0999984 C417.913663,91.7849003 419.258322,91.7849003 420.545993,92.0999984 C420.545993,92.0999984 423.821993,92.6319984 423.863993,93.8639984 C423.863993,94.2279984 421.749993,94.2979984 421.483993,94.3119984 C418.866779,94.2408875 416.346098,95.3022267 414.567993,97.2239983 C414.049993,97.8959983 413.349993,99.0579983 412.719993,97.6859983 C412.638022,97.4669603 412.618632,97.2294307 412.663993,96.9999983 Z" id="Path" fill="#4C4C4C" fill-rule="nonzero" style="mix-blend-mode: screen;"></path>
                <path d="M430.975993,114.023998 C430.975993,118.66319 427.215185,122.423998 422.575993,122.423998 C417.936801,122.423998 414.175993,118.66319 414.175993,114.023998 C414.175993,109.384806 417.936801,105.623998 422.575993,105.623998 C427.215185,105.623998 430.975993,109.384806 430.975993,114.023998 Z" id="Path" fill="url(#linearGradient-2)" fill-rule="nonzero"></path>
                <path d="M416.303993,112.399998 C416.28947,112.279099 416.28947,112.156897 416.303993,112.035998 C416.42296,111.515893 416.606378,111.012671 416.849993,110.537998 C417.504659,109.085509 418.747011,107.98063 420.265993,107.499998 C421.549905,107.193078 422.88808,107.193078 424.171993,107.499998 C424.171993,107.499998 427.461993,108.031998 427.503993,109.277998 C427.503993,109.627998 425.389993,109.711998 425.123993,109.711998 C422.50332,109.644147 419.979623,110.704609 418.193993,112.623998 C417.689993,113.295998 416.975993,114.471998 416.345993,113.099998 C416.266786,112.875188 416.252235,112.632666 416.303993,112.399998 L416.303993,112.399998 Z" id="Path" fill="#4C4C4C" fill-rule="nonzero" style="mix-blend-mode: screen;"></path>
                <path d="M434.545993,126.805998 C434.545993,131.44519 430.785185,135.205998 426.145993,135.205998 C421.506801,135.205998 417.745993,131.44519 417.745993,126.805998 C417.745993,122.166806 421.506801,118.405998 426.145993,118.405998 C430.785185,118.405998 434.545993,122.166806 434.545993,126.805998 Z" id="Path" fill="url(#linearGradient-2)" fill-rule="nonzero"></path>
                <path d="M419.873993,125.195998 C419.867211,125.070089 419.867211,124.943907 419.873993,124.817998 C420.006477,124.304546 420.194241,123.806971 420.433993,123.333998 C421.085545,121.884481 422.322289,120.780064 423.835993,120.295998 C425.118938,119.980977 426.459048,119.980977 427.741993,120.295998 C427.741993,120.295998 431.031993,120.813998 431.073993,122.059998 C431.073993,122.409998 428.959993,122.479998 428.693993,122.493998 C426.076779,122.422887 423.556098,123.484226 421.777993,125.405998 C421.259993,126.077998 420.559993,127.253998 419.915993,125.881998 C419.84521,125.660373 419.830775,125.424602 419.873993,125.195998 L419.873993,125.195998 Z" id="Path" fill="#4C4C4C" fill-rule="nonzero" style="mix-blend-mode: screen;"></path>
                <path d="M437.961993,141.799998 C437.961993,146.439189 434.201185,150.199997 429.561993,150.199997 C424.922801,150.199997 421.161993,146.439189 421.161993,141.799998 C421.161993,137.160806 424.922801,133.399998 429.561993,133.399998 C431.789811,133.399998 433.926384,134.284995 435.50169,135.860301 C437.076995,137.435606 437.961993,139.572179 437.961993,141.799998 L437.961993,141.799998 Z" id="Path" fill="url(#linearGradient-24)" fill-rule="nonzero"></path>
                <path d="M423.289993,140.245998 C423.282098,140.124793 423.282098,140.003203 423.289993,139.881998 C423.420085,139.363304 423.607925,138.860832 423.849993,138.383998 C424.501545,136.934481 425.738289,135.830063 427.251993,135.345998 C428.539663,135.0309 429.884322,135.0309 431.171993,135.345998 C431.171993,135.345998 434.447993,135.863998 434.489993,137.109998 C434.489993,137.459998 432.375993,137.543998 432.109993,137.543998 C429.494156,137.48019 426.97636,138.540314 425.193993,140.455998 C424.675993,141.127998 423.961993,142.303998 423.331993,140.931998 C423.26121,140.710373 423.246775,140.474602 423.289993,140.245998 Z" id="Path" fill="#4C4C4C" fill-rule="nonzero" style="mix-blend-mode: screen;"></path>
                <path d="M440.719992,156.485997 C440.719992,161.125189 436.959184,164.885997 432.319993,164.885997 C427.680801,164.885997 423.919993,161.125189 423.919993,156.485997 C423.919993,151.846805 427.680801,148.085997 432.319993,148.085997 C436.959184,148.085997 440.719992,151.846805 440.719992,156.485997 L440.719992,156.485997 Z" id="Path" fill="url(#linearGradient-2)" fill-rule="nonzero"></path>
                <path d="M426.061993,154.875997 C426.040801,154.755589 426.040801,154.632405 426.061993,154.511997 C426.18096,153.991893 426.364378,153.48867 426.607993,153.013997 C427.262659,151.561508 428.505011,150.45663 430.023993,149.975997 C431.307905,149.669077 432.64608,149.669077 433.929993,149.975997 C433.929993,149.975997 437.205993,150.507997 437.247993,151.753997 C437.247993,152.103997 435.133993,152.187997 434.867993,152.187997 C432.251469,152.120551 429.732238,153.18128 427.951993,155.099997 C427.433993,155.771997 426.733993,156.947997 426.103993,155.575997 C426.024786,155.351187 426.010235,155.108665 426.061993,154.875997 L426.061993,154.875997 Z" id="Path" fill="#4C4C4C" fill-rule="nonzero" style="mix-blend-mode: screen;"></path>
                <path d="M456.035992,173.257997 C456.035992,177.897189 452.275184,181.657997 447.635992,181.657997 C442.996801,181.657997 439.235993,177.897189 439.235993,173.257997 C439.235993,168.618805 442.996801,164.857997 447.635992,164.857997 C452.275184,164.857997 456.035992,168.618805 456.035992,173.257997 Z" id="Path" fill="url(#linearGradient-2)" fill-rule="nonzero"></path>
                <path d="M441.363992,171.661997 C441.357211,171.536088 441.357211,171.409906 441.363992,171.283997 C441.493831,170.769711 441.681704,170.271849 441.923992,169.799997 C442.581021,168.351481 443.814919,167.244527 445.325992,166.747997 C446.614373,166.438841 447.957612,166.438841 449.245992,166.747997 C449.245992,166.747997 452.521992,167.279997 452.563992,168.511997 C452.563992,168.875997 450.449992,168.945997 450.183992,168.959997 C447.566779,168.888886 445.046098,169.950225 443.267992,171.871997 C442.749992,172.543997 442.035992,173.719997 441.405992,172.347997 C441.33521,172.126372 441.320775,171.890601 441.363992,171.661997 Z" id="Path" fill="#4C4C4C" fill-rule="nonzero" style="mix-blend-mode: screen;"></path>
                <circle id="Oval" fill="url(#linearGradient-25)" fill-rule="nonzero" cx="437.961993" cy="168.021997" r="8.38599986"></circle>
                <path d="M431.689993,166.425997 C431.676454,166.300361 431.676454,166.173633 431.689993,166.047997 C431.811283,165.533062 431.994623,165.034752 432.235993,164.563997 C432.890659,163.111508 434.133011,162.006629 435.651993,161.525997 C436.935905,161.219077 438.27408,161.219077 439.557993,161.525997 C439.557993,161.525997 442.833992,162.057997 442.875992,163.303997 C442.875992,163.653997 440.761992,163.723997 440.495992,163.737997 C437.879468,163.670551 435.360237,164.73128 433.579993,166.649997 C433.061993,167.321997 432.361993,168.497997 431.731993,167.125997 C431.652786,166.901187 431.638235,166.658665 431.689993,166.425997 L431.689993,166.425997 Z" id="Path" fill="#4C4C4C" fill-rule="nonzero" style="mix-blend-mode: screen;"></path>
                <polygon id="Path" fill="#F7F7F7" fill-rule="nonzero" points="213.821996 176.799997 201.823997 188.811997 245.461996 188.811997 257.445996 176.799997"></polygon>
                <rect id="Rectangle" fill="#F7F7F7" fill-rule="nonzero" x="216.369996" y="191.373997" width="29.0919995" height="11.9979998"></rect>
                <polygon id="Path" fill="#F7F7F7" fill-rule="nonzero" points="260.007996 174.251997 260.007996 159.691997 245.447996 159.719997 230.929996 174.251997"></polygon>
                <polygon id="Path" fill="#F7F7F7" fill-rule="nonzero" points="230.915996 205.933996 230.915996 217.875996 242.871996 205.933996"></polygon>
                <circle id="Oval" stroke="#ECFDF6" stroke-width="2.79999995" cx="52.9759991" cy="296.695995" r="52.9759991"></circle>
                <path d="M142.225998,54.3279991 C146.705998,59.479999 153.971997,61.3279989 160.789997,61.4119989 C166.473997,61.5239989 173.277997,59.829999 175.125997,54.4119991 C178.037997,45.8859992 185.205997,39.4179993 193.017997,34.9519994 C200.829997,30.4859995 209.467996,27.6299995 217.643996,23.8499996 C222.305996,21.6939996 227.345996,18.5299997 228.101996,13.4479998 C228.689996,9.42999982 226.169996,5.42599989 222.725996,3.26999993 C219.157685,1.28111342 215.119666,0.289743679 211.035996,0.399999976 C206.667996,0.287999978 202.061997,0.77799997 198.435997,3.19999993 C196.123514,5.029354 194.01169,7.09894199 192.135997,9.37399982 C185.786373,15.8775958 177.217453,19.7471079 168.139997,20.2099996 C158.143997,20.6719996 145.641998,19.0899997 139.579998,29.5339995 C135.491998,36.5899994 136.975998,48.2939992 142.225998,54.3279991 Z" id="Path" fill="#DDE6FA" fill-rule="nonzero"></path>
                <path d="M166.893997,359.205994 C170.996092,361.241599 175.641188,361.913593 180.151997,361.123994 C184.589997,360.143994 188.677997,356.811994 189.643997,352.373994 C190.847997,346.773994 187.109997,341.411994 183.357997,337.099994 C182.681059,336.185911 181.77918,335.462478 180.739997,334.999994 C178.681997,334.257994 176.455997,335.671994 175.013997,337.323994 C173.571997,338.975994 172.479997,341.005994 170.617997,342.167994 C166.823997,344.547994 161.797997,342.391994 157.443997,343.399994 C152.599997,344.491994 165.591997,358.617994 166.893997,359.205994 Z" id="Path" fill="#64EDB2" fill-rule="nonzero"></path>
                <circle id="Oval" fill="#32BAAA" fill-rule="nonzero" cx="492.547992" cy="208.873996" r="16.3939997"></circle>
            </g>
        </g>
    </g>
</svg>