<?xml version="1.0" encoding="UTF-8"?>
<svg width="524px" height="520px" viewBox="0 0 524 520" version="1.1" xmlns="http://www.w3.org/2000/svg" xmlns:xlink="http://www.w3.org/1999/xlink">
    <!-- Generator: Sketch 63.1 (92452) - https://sketch.com -->
    <title>04_FIND_</title>
    <desc>Created with Sketch.</desc>
    <defs>
        <linearGradient x1="-0.00413603894%" y1="49.9998787%" x2="99.998328%" y2="49.9998787%" id="linearGradient-1">
            <stop stop-color="#9CB7F0" offset="0%"></stop>
            <stop stop-color="#9FB9F1" offset="3%"></stop>
            <stop stop-color="#BACDF5" offset="26%"></stop>
            <stop stop-color="#CEDBF8" offset="50%"></stop>
            <stop stop-color="#D9E3F9" offset="75%"></stop>
            <stop stop-color="#DDE6FA" offset="100%"></stop>
        </linearGradient>
        <linearGradient x1="0%" y1="50%" x2="100%" y2="50%" id="linearGradient-2">
            <stop stop-color="#366FE0" offset="0%"></stop>
            <stop stop-color="#94CBFF" offset="100%"></stop>
        </linearGradient>
        <linearGradient x1="-0.0126674752%" y1="50.0058649%" x2="99.9567466%" y2="50.0058649%" id="linearGradient-3">
            <stop stop-color="#4E54C8" offset="0%"></stop>
            <stop stop-color="#8F94FB" offset="100%"></stop>
        </linearGradient>
        <linearGradient x1="0.00101875997%" y1="50.016017%" x2="100%" y2="50.016017%" id="linearGradient-4">
            <stop stop-color="#4E54C8" offset="0%"></stop>
            <stop stop-color="#8F94FB" offset="100%"></stop>
        </linearGradient>
        <linearGradient x1="32.025292%" y1="96.6630798%" x2="67.9761185%" y2="3.34888974%" id="linearGradient-5">
            <stop stop-color="#8F94FB" offset="0%"></stop>
            <stop stop-color="#4E54C8" offset="100%"></stop>
        </linearGradient>
        <linearGradient x1="50%" y1="100%" x2="50%" y2="-6.2110379e-14%" id="linearGradient-6">
            <stop stop-color="#366FE0" offset="0%"></stop>
            <stop stop-color="#2C5ECB" offset="20%"></stop>
            <stop stop-color="#1E48AF" offset="52%"></stop>
            <stop stop-color="#153A9D" offset="79%"></stop>
            <stop stop-color="#123597" offset="100%"></stop>
        </linearGradient>
    </defs>
    <g id="Page-1" stroke="none" stroke-width="1" fill="none" fill-rule="evenodd">
        <g id="Project4" transform="translate(-809.000000, -5583.000000)">
            <g id="04_FIND_" transform="translate(809.000000, 5583.000000)">
                <path d="M177.555249,13.1949007 C161.838009,26.4772814 159.359408,28.8829815 162.712809,54.5000429 C201.364391,156.778748 68.2344036,92.4955249 31.8427217,156.341348 C-48.3472826,301.835176 149.474168,268.024154 217.606512,350.984359 C221.257215,355.447368 225.228656,359.638091 229.489212,363.523159 C247.830853,334.465218 263.679314,291.483375 242.611213,244.652413 L268.446974,239.418193 C268.446974,239.418193 319.302017,298.379716 283.843455,385.90536 C308.964796,386.07842 333.313398,374.15198 352.034119,356.655979 C400.658421,311.253856 357.866119,274.599735 392.231181,251.505013 C548.820389,146.456108 291.600015,-53.0712028 177.555249,13.1949007 Z" id="Path" fill="url(#linearGradient-1)" fill-rule="nonzero"></path>
                <text id="Finding" font-family="Poppins-Medium, Poppins Medium" font-size="30" font-weight="normal" fill="#302727">
                    <tspan x="150.81501" y="511">Finding</tspan>
                </text>
                <circle id="Oval" stroke="#FFFFFF" stroke-width="4.00950021" cx="95.076185" cy="53.7710428" r="51.1174827"></circle>
                <path d="M375.77036,30.0785416 C373.00016,35.1669619 373.74374,41.4801022 375.6683,46.9330225 C377.2721,51.4965627 380.64008,56.395443 385.46606,56.264223 C393.120561,56.045523 400.395981,59.8217432 406.271722,64.7060434 C412.147462,69.5903437 416.988022,75.611884 422.440942,80.9919043 C425.531903,84.0537045 429.555983,87.1155046 433.813343,86.1969646 C437.202454,85.2196654 439.730733,82.3852717 440.316023,78.9069642 C440.838199,75.4592771 440.425312,71.9346279 439.120463,68.7009636 C438.115225,65.0957376 436.022689,61.8882017 433.128083,59.5155632 C430.982851,58.2173811 428.705192,57.1518666 426.333803,56.337123 C419.27863,53.2397136 413.650667,47.5961314 410.572822,40.5324021 C407.234002,32.7175217 404.740821,22.2928212 394.666041,20.5869611 C387.828021,19.435141 379.08002,24.1007413 375.77036,30.0785416 Z" id="Path" fill="#DDE6FA" fill-rule="nonzero"></path>
                <path d="M1.45800008,91.3728648 C-0.153735852,95.4914764 -0.409123755,100.01695 0.729000039,104.290746 C1.96173232,108.604072 5.53184302,111.846546 9.94356053,112.659666 C15.4110608,113.344926 20.2662011,109.306266 24.0861613,105.369666 C24.917984,104.644438 25.5461764,103.714713 25.9086614,102.672365 C26.4335414,100.631165 24.9026413,98.6045452 23.1822012,97.3652452 C21.4617611,96.1259451 19.435141,95.236565 18.152101,93.545285 C15.5568608,90.1044048 17.2044009,85.0888845 15.8630408,80.9919043 C14.3904608,76.4429441 1.9099801,90.0898248 1.45800008,91.3728648 Z" id="Path" fill="#32BAAA" fill-rule="nonzero"></path>
                <path d="M125.388007,336.929238 C126.970813,337.570533 128.445949,338.450698 129.762007,339.539058 C132.234991,341.94312 133.97,345.003413 134.762947,348.359958 C135.550267,351.086419 135.900187,354.352339 133.975627,356.437279 C131.832367,358.755499 127.983247,358.318099 125.227627,356.889259 C122.472006,355.460419 119.993406,353.200519 116.989926,352.223659 C112.790886,350.882299 108.241926,352.223659 103.867926,352.938079 C98.8961452,353.754559 93.0204049,353.346319 89.9002848,349.365979 C89.0802991,348.260737 88.4677309,347.015841 88.0923647,345.691818 C83.2080644,329.741297 117.441906,333.400878 125.388007,336.929238 Z" id="Path" fill="#64EDB2" fill-rule="nonzero"></path>
                <rect id="Rectangle" fill="url(#linearGradient-2)" fill-rule="nonzero" x="277.880235" y="112.295166" width="245.395993" height="113.344926"></rect>
                <path d="M334.873458,196.31971 C324.569968,196.31971 315.281301,190.112256 311.339689,180.592508 C307.398078,171.07276 309.579964,160.115973 316.867717,152.832392 C324.15547,145.54881 335.113505,143.373198 344.630994,147.320259 C354.148484,151.267321 360.350617,160.559541 360.344723,170.863029 C360.312621,184.914739 348.925183,196.295658 334.873458,196.31971 Z" id="Path" fill="#ECFDF6"></path>
                <path d="M334.873458,153.162902 C338.879078,153.158487 342.49263,155.568321 344.02804,159.267987 C345.563449,162.967654 344.718103,167.227988 341.886438,170.061129 L341.886438,170.061129 C338.037483,173.882713 331.826073,173.882713 327.977117,170.061129 L327.889637,170.061129 C325.059852,167.229864 324.213581,162.973068 325.74525,159.274726 C327.276919,155.576384 330.885071,153.164387 334.888038,153.162902 L334.873458,153.162902 Z M348.622461,188.59231 L348.622461,187.68835 C348.63913,182.114892 345.285974,177.083949 340.135282,174.954613 C334.984589,172.825276 329.057774,174.019807 325.134017,177.978069 L325.061117,178.065549 C322.52261,180.625112 321.09736,184.08344 321.095357,187.68835 L321.095357,188.60689 L321.095357,188.60689 C329.185861,194.88625 340.502734,194.88625 348.593238,188.60689 L348.622461,188.59231 Z" id="Shape" fill="#10C680"></path>
                <rect id="Rectangle" fill="#ECFDF6" fill-rule="nonzero" x="375.5225" y="147.112208" width="125.242207" height="5.6133003" rx="1.77876009"></rect>
                <rect id="Rectangle" fill="#ECFDF6" fill-rule="nonzero" x="375.5225" y="165.687129" width="57.474363" height="5.6133003" rx="1.77876009"></rect>
                <rect id="Rectangle" fill="#ECFDF6" fill-rule="nonzero" x="445.652304" y="165.687129" width="19.668421" height="5.6133003" rx="1.77876009"></rect>
                <rect id="Rectangle" fill="#ECFDF6" fill-rule="nonzero" x="407.846362" y="185.13685" width="25.4858414" height="5.6133003" rx="1.77876009"></rect>
                <rect id="Rectangle" fill="#ECFDF6" fill-rule="nonzero" x="375.5225" y="185.13685" width="19.668421" height="5.6133003" rx="1.77876009"></rect>
                <path d="M5.83200031,353.550439 L5.83200031,353.550439 C2.58494408,350.304653 0.76066002,345.901661 0.76066002,341.310528 C0.76066002,336.719396 2.58494408,332.316403 5.83200031,329.070617 L111.070446,223.817592 L135.594007,248.297413 L30.2972416,353.550439 C23.5364474,360.294478 12.5927945,360.294478 5.83200031,353.550439 L5.83200031,353.550439 Z" id="Path" fill="url(#linearGradient-3)" fill-rule="nonzero"></path>
                <path d="M193.66615,57.7659631 C134.747383,57.7659631 86.9842846,105.529061 86.9842846,164.447829 C86.9842846,223.366596 134.747383,271.129694 193.66615,271.129694 C252.584918,271.129694 300.348016,223.366596 300.348016,164.447829 C300.348016,136.154039 289.108352,109.019089 269.101621,89.0123581 C249.09489,69.0056273 221.95994,57.7659631 193.66615,57.7659631 Z M193.66615,246.751934 C160.368698,246.75783 130.346921,226.703688 117.601814,195.941981 C104.856706,165.180274 111.898617,129.770005 135.443472,106.22515 C158.988327,82.6802951 194.398596,75.6383845 225.160303,88.3834922 C255.92201,101.1286 275.976152,131.150376 275.970256,164.447829 C275.970256,209.90313 239.121452,246.751934 193.66615,246.751934 Z" id="Shape" fill="#ECFDF6" fill-rule="nonzero"></path>
                <path d="M135.462787,222.651192 C114.224216,201.947732 105.765297,171.419592 113.319944,142.737935 C120.874592,114.056277 143.274599,91.6562702 171.956256,84.1016226 C200.637913,76.546975 231.166053,85.0058945 251.869513,106.244466 C257.599454,100.499945 263.533514,94.886645 269.030174,88.9380047 C253.998193,75.524404 237.960193,65.5079435 218.116812,60.8569232 C199.140826,56.5514211 179.369517,57.2751295 160.759089,62.9564433 C126.895812,74.2932386 100.765452,101.54643 90.8625648,135.856447 C81.0793843,171.037989 91.1395848,211.468331 116.377566,237.916453 C116.989926,238.557973 117.602286,239.184913 118.229226,239.811853 L135.462787,222.651192 Z" id="Path" fill="url(#linearGradient-4)" fill-rule="nonzero"></path>
                <circle id="Oval" fill="#FFFFFF" fill-rule="nonzero" opacity="0.19" transform="translate(193.665520, 164.447217) rotate(-45.000000) translate(-193.665520, -164.447217) " cx="193.66552" cy="164.447217" r="82.3041044"></circle>
                <path d="M262.440014,164.447829 C262.440014,164.447829 231.617892,195.60529 193.60783,195.60529 C155.597768,195.60529 124.761067,164.447829 124.761067,164.447829 C124.761067,164.447829 155.583188,133.290367 193.60783,133.290367 C231.632472,133.290367 262.440014,164.447829 262.440014,164.447829 Z" id="Path" fill="#ECFDF6" fill-rule="nonzero"></path>
                <circle id="Oval" fill="url(#linearGradient-5)" fill-rule="nonzero" transform="translate(193.663491, 164.455982) rotate(-21.070000) translate(-193.663491, -164.455982) " cx="193.663491" cy="164.455982" r="31.1574617"></circle>
                <circle id="Oval" fill="url(#linearGradient-6)" fill-rule="nonzero" cx="193.66615" cy="164.447829" r="16.6795209"></circle>
                <path d="M306.777796,53.3919628 C295.85226,53.3838701 286.998156,44.5275298 286.992821,33.6019918 C286.987491,22.6764537 295.832944,13.811474 306.758467,13.7926855 C317.68399,13.7739567 326.559833,22.6085098 326.592023,33.5340018 C326.600077,44.4875126 317.731298,53.3758695 306.777796,53.3919628 Z" id="Path" fill="#DDE6FA"></path>
                <path d="M306.777796,19.8288011 C309.881871,19.8387787 312.676268,21.7120395 313.864718,24.5796112 C315.053167,27.4471828 314.403126,30.7479723 312.216137,32.9508017 L312.216137,32.9508017 C309.216069,35.9213191 304.383264,35.9213191 301.383196,32.9508017 L301.383196,32.9508017 C299.938179,31.506927 299.12628,29.5479267 299.12628,27.5051715 C299.12628,25.4624162 299.938179,23.5034159 301.383196,22.0595412 C302.83256,20.6197005 304.79313,19.8124067 306.836116,19.814218 L306.777796,19.8288011 Z M317.464938,47.3850025 L317.464938,46.6560025 C317.467194,42.3298487 314.861098,38.4290608 310.863581,36.775136 C306.866063,35.1212111 302.265746,36.0404318 299.210776,39.1035621 L299.210776,39.1035621 C297.205999,41.1059465 296.078467,43.822512 296.076076,46.6560025 L296.076076,47.3558425 L296.076076,47.3558425 C302.375653,52.221187 311.16536,52.221187 317.464938,47.3558425 L317.464938,47.3850025 Z" id="Shape" fill="#FFFFFF"></path>
                <path d="M180.31087,360.228083 C169.276146,360.233977 159.324692,353.591358 155.097799,343.398295 C150.870906,333.205232 153.201197,321.469579 161.00184,313.664764 C168.802483,305.85995 180.536888,303.523385 190.73221,307.744828 C200.927532,311.966272 207.575471,321.914172 207.575471,332.948898 C207.543424,347.995791 195.357744,360.187988 180.31087,360.228083 Z" id="Path" fill="#DDE6FA"></path>
                <path d="M180.31087,313.994897 C184.596926,314.003991 188.45692,316.589955 190.095893,320.550274 C191.734866,324.510594 190.831151,329.068012 187.80499,332.103258 L187.80499,332.103258 C183.694288,336.213293 177.04033,336.245815 172.889649,332.176158 L172.802169,332.103258 C169.77415,329.066132 168.871372,324.505191 170.514079,320.543556 C172.156786,316.581922 176.022161,313.998114 180.31087,313.994897 L180.31087,313.994897 Z M195.03667,351.902899 L195.03667,350.940619 C195.034574,344.986199 191.446773,339.619021 185.945489,337.340647 C180.444205,335.062272 174.112207,336.321136 169.900749,340.530498 L169.900749,340.617978 C167.182848,343.366236 165.658318,347.075401 165.657969,350.940619 L165.657969,351.917479 L165.657969,351.917479 C174.322815,358.644406 186.444724,358.644406 195.10957,351.917479 L195.03667,351.902899 Z" id="Shape" fill="#FFFFFF"></path>
                <polygon id="Path" fill="#ECFDF6" fill-rule="nonzero" points="90.4105848 79.7671842 90.4105848 67.4179236 101.739245 68.4239436"></polygon>
                <polygon id="Path" fill="#ECFDF6" fill-rule="nonzero" points="101.739245 68.4531036 79.0527642 68.4531036 79.0527642 55.3311029 101.753825 57.095283"></polygon>
                <polygon id="Path" fill="#ECFDF6" fill-rule="nonzero" points="113.097066 45.7374624 87.6258046 48.5222426 101.739245 34.4088018 113.097066 34.3796418"></polygon>
                <polygon id="Path" fill="#ECFDF6" fill-rule="nonzero" points="101.753825 57.095283 67.7241036 57.095283 79.0673442 45.7374624 113.082486 45.7374624"></polygon>
            </g>
        </g>
    </g>
</svg>