<?xml version="1.0" encoding="UTF-8"?>
<svg width="507px" height="531px" viewBox="0 0 507 531" version="1.1" xmlns="http://www.w3.org/2000/svg" xmlns:xlink="http://www.w3.org/1999/xlink">
    <!-- Generator: Sketch 63.1 (92452) - https://sketch.com -->
    <title>05_MONETIZES_</title>
    <desc>Created with Sketch.</desc>
    <defs>
        <linearGradient x1="-0.00649636066%" y1="50.0015421%" x2="99.9845791%" y2="50.0015421%" id="linearGradient-1">
            <stop stop-color="#9CB7F0" offset="0%"></stop>
            <stop stop-color="#9FB9F1" offset="3%"></stop>
            <stop stop-color="#BACDF5" offset="26%"></stop>
            <stop stop-color="#CEDBF8" offset="50%"></stop>
            <stop stop-color="#D9E3F9" offset="75%"></stop>
            <stop stop-color="#DDE6FA" offset="100%"></stop>
        </linearGradient>
        <linearGradient x1="0%" y1="50%" x2="99.992798%" y2="50%" id="linearGradient-2">
            <stop stop-color="#4E54C8" offset="0%"></stop>
            <stop stop-color="#8F94FB" offset="100%"></stop>
        </linearGradient>
        <linearGradient x1="0%" y1="50%" x2="100%" y2="50%" id="linearGradient-3">
            <stop stop-color="#4E54C8" offset="0%"></stop>
            <stop stop-color="#8F94FB" offset="100%"></stop>
        </linearGradient>
        <linearGradient x1="0%" y1="50.0060525%" x2="100%" y2="50.0060525%" id="linearGradient-4">
            <stop stop-color="#366FE0" offset="0%"></stop>
            <stop stop-color="#94CBFF" offset="100%"></stop>
        </linearGradient>
    </defs>
    <g id="Page-1" stroke="none" stroke-width="1" fill="none" fill-rule="evenodd">
        <g id="Project4" transform="translate(-122.000000, -5564.000000)">
            <g id="05_MONETIZES_" transform="translate(122.000000, 5564.000000)">
                <path d="M183.54763,54.9811829 C263.110694,24.9172213 206.715251,115.838106 297.271636,91.4311848 C706.386457,24.3631813 388.877781,347.149818 207.706691,399.069201 C91.0666848,428.958203 170.381889,326.169197 114.030186,314.825957 C-124.367407,364.602079 67.0680036,80.1025242 183.54763,54.9811829 Z" id="Path" fill="url(#linearGradient-1)" fill-rule="nonzero"></path>
                <text id="Monetize" font-family="Poppins-Medium, Poppins Medium" font-size="30" font-weight="normal" fill="#302727">
                    <tspan x="159.455" y="530">Monetize</tspan>
                </text>
                <circle id="Oval" stroke="#FFFFFF" stroke-width="3.87828021" cx="96.8549451" cy="119.935086" r="49.3533026"></circle>
                <path d="M72.5646638,18.225001 C71.9814638,24.5527213 75.480664,30.5888416 79.7671842,35.2690219 C83.3684444,39.1618821 88.8942647,42.6465023 93.705665,40.4011821 C101.316425,36.872822 110.283126,37.485182 118.331286,39.8908821 C126.379447,42.2965822 133.873567,46.2331824 141.659288,49.2949826 C146.033288,51.0300027 151.486208,52.3859428 155.379068,49.6157426 C158.470028,47.4141625 159.534368,43.1422223 158.776208,39.4097421 C157.804568,35.726064 155.866688,32.3687491 153.162908,29.6848816 C150.421868,26.6668214 147.112208,23.8528813 143.131868,23.0218212 C140.407348,22.6493775 137.651471,22.561424 134.908747,22.7593812 C126.458132,22.6898523 118.343332,19.44185 112.178526,13.6614607 C105.427986,7.29000039 98.4295852,-2.20158012 87.4800046,0.466560025 C80.1900042,2.24532012 73.2353439,10.7892006 72.5646638,18.225001 Z" id="Path" fill="#DDE6FA" fill-rule="nonzero"></path>
                <path d="M75.816004,370.08416 C79.6404465,371.985585 83.9727817,372.613978 88.1798447,371.8775 C92.4310227,371.05363 95.8516769,367.898274 97.0153251,363.727279 C98.1379852,358.522219 94.653365,353.521279 91.1833248,349.497199 C90.5518578,348.635729 89.7079563,347.952571 88.7338847,347.514318 C86.8093246,346.829058 84.7389645,348.141258 83.3976044,349.686739 C82.2639782,351.388437 80.8831624,352.911757 79.3006242,354.206539 C75.772264,356.422699 71.0920838,354.410659 67.0242636,355.343779 C62.5919433,356.378959 74.649604,369.5447 75.816004,370.08416 Z" id="Path" fill="#32BAAA" fill-rule="nonzero"></path>
                <rect id="Rectangle" fill="url(#linearGradient-2)" fill-rule="nonzero" x="172.904229" y="57.6055831" width="202.443311" height="75.349444"></rect>
                <path d="M194.45347,96.3009051 C193.254822,96.4321433 192.049993,96.1153563 191.07091,95.4115251 C190.321857,94.4439267 189.953555,93.2352759 190.03573,92.0143849 L190.03573,85.6283445 C190.060619,82.4949064 190.491898,79.3779358 191.31877,76.355464 C192.104657,73.6179707 193.22611,70.9881879 194.65759,68.5260036 L199.906391,70.1152237 C199.446345,72.1058447 199.100719,74.1211866 198.871211,76.151344 C198.655246,78.2876614 198.553042,80.4339521 198.565031,82.5811244 C200.897831,82.5811244 202.093391,83.8495844 202.166291,86.3719246 L202.064231,91.9560649 C202.147477,93.1940437 201.738793,94.414856 200.926991,95.3532051 C199.93891,96.0377146 198.74141,96.3525745 197.54443,96.2425851 L194.45347,96.3009051 Z M212.430611,96.3009051 C211.231756,96.4349621 210.025928,96.1179126 209.048051,95.4115251 C208.298998,94.4439267 207.930696,93.2352759 208.012871,92.0143849 L208.012871,85.6283445 C208.03776,82.4949064 208.469039,79.3779358 209.295911,76.355464 C210.07533,73.6156775 211.197119,70.985108 212.634731,68.5260036 L217.883532,70.1152237 C217.423486,72.1058447 217.07786,74.1211866 216.848351,76.151344 C216.632387,78.2876614 216.530183,80.4339521 216.542171,82.5811244 C218.874972,82.5811244 220.070532,83.8495844 220.143432,86.3719246 L220.041372,91.9560649 C220.124618,93.1940437 219.715934,94.414856 218.904132,95.3532051 C217.91051,96.0376148 216.708517,96.3522999 215.506991,96.2425851 L212.430611,96.3009051 Z" id="Shape" fill="#ECFDF6" fill-rule="nonzero"></path>
                <rect id="Rectangle" fill="#F7F7F7" fill-rule="nonzero" x="234.752592" y="74.4746439" width="123.711307" height="2.24532012"></rect>
                <rect id="Rectangle" fill="#F7F7F7" fill-rule="nonzero" x="234.752592" y="86.8384846" width="123.711307" height="2.24532012"></rect>
                <rect id="Rectangle" fill="#F7F7F7" fill-rule="nonzero" x="234.752592" y="99.2169053" width="123.711307" height="2.24532012"></rect>
                <rect id="Rectangle" fill="#F7F7F7" fill-rule="nonzero" x="234.752592" y="111.580746" width="61.8629433" height="2.24532012"></rect>
                <rect id="Rectangle" fill="#ECFDF6" fill-rule="nonzero" x="49.4116226" y="126.700207" width="279.367395" height="198.827471"></rect>
                <rect id="Rectangle" fill="url(#linearGradient-3)" fill-rule="nonzero" x="49.4116226" y="298.219336" width="279.367395" height="27.2937614"></rect>
                <rect id="Rectangle" fill="#F7F7F7" fill-rule="nonzero" x="62.6794233" y="309.139756" width="250.950973" height="6.37146034"></rect>
                <rect id="Rectangle" fill="#64EDB2" fill-rule="nonzero" x="62.6794233" y="309.139756" width="168.734349" height="6.37146034"></rect>
                <circle id="Oval" fill="#DDE6FA" fill-rule="nonzero" cx="189.10261" cy="222.694932" r="45.5041824"></circle>
                <rect id="Rectangle" fill="#ECFDF6" fill-rule="nonzero" x="271.085954" y="230.772252" width="137.664367" height="147.039308"></rect>
                <rect id="Rectangle" fill="url(#linearGradient-4)" fill-rule="nonzero" x="279.688155" y="243.281893" width="120.445386" height="120.445386"></rect>
                <circle id="Oval" fill="#F7F7F7" fill-rule="nonzero" transform="translate(370.569127, 64.198882) rotate(-64.630000) translate(-370.569127, -64.198882) " cx="370.569127" cy="64.1988822" r="21.3597011"></circle>
                <path d="M388.702821,63.7291834 C388.949219,73.7417621 381.03328,82.0588605 371.020752,82.3073319 C361.008225,82.5558033 352.689488,74.6415855 352.438944,64.6291096 C352.1884,54.6166338 360.100896,46.2962589 370.11332,46.0436424 C374.92411,45.9222647 379.585934,47.7177124 383.072474,51.0347105 C386.559014,54.3517086 388.58443,58.9183187 388.702821,63.7291834 Z" id="Path" fill="#10C680" fill-rule="nonzero"></path>
                <path d="M376.30982,69.9840037 C376.499293,71.7182468 375.912197,73.4475127 374.70602,74.707924 C374.000068,75.4013996 373.100123,75.8640831 372.12536,76.034704 L372.12536,77.6676641 L369.20936,77.6676641 L369.20936,75.961804 C367.854277,75.6659451 366.679385,74.8282418 365.958019,73.6435839 C365.263212,72.467702 364.858387,71.1432761 364.777039,69.7798837 L368.11586,69.4591237 C368.164811,70.5295561 368.564417,71.5541869 369.2531,72.3751238 C369.613863,72.7997645 370.155317,73.0271751 370.7111,72.9874839 C371.477474,72.9453588 372.164743,72.5019599 372.51902,71.8210838 C372.760953,71.3437764 372.86688,70.8090989 372.8252,70.2756037 C372.756046,69.164623 372.265921,68.1218033 371.45468,67.3596036 L368.24708,64.4436034 C367.318528,63.6438261 366.508509,62.7159858 365.841379,61.6879833 C365.205376,60.6753241 364.843619,59.5146894 364.791619,58.3200031 C364.75384,57.17269 365.02045,56.0358222 365.564359,55.0249229 C366.183466,53.8223006 367.287013,52.9415852 368.597,52.6046428 L368.597,51.1466427 L371.513,51.0737427 L371.513,52.5317428 C372.393258,52.6895177 373.214442,53.0824769 373.88954,53.6689828 C375.012969,54.6835751 375.697884,56.0952322 375.79952,57.6055831 L372.44612,58.2908431 C372.365209,57.4854061 372.062373,56.7182218 371.57132,56.074683 C371.217408,55.692298 370.704667,55.4979964 370.18622,55.5498029 C369.57062,55.5448269 369.005506,55.8895464 368.72822,56.439183 C368.453792,56.9692984 368.327845,57.5637658 368.36372,58.1596231 C368.456308,59.3715587 368.97246,60.5122528 369.82172,61.3818033 C370.301322,61.9145269 370.828372,62.4025362 371.39636,62.8398033 C371.975195,63.2709101 372.53006,63.7332982 373.05848,64.2249034 C373.84917,64.9646557 374.535834,65.8082706 375.09968,66.7326635 C375.75882,67.7032721 376.173955,68.8186334 376.30982,69.9840037 L376.30982,69.9840037 Z" id="Path" fill="#F7F7F7" fill-rule="nonzero"></path>
                <circle id="Oval" fill="#F7F7F7" fill-rule="nonzero" transform="translate(402.962907, 239.306440) rotate(-64.630000) translate(-402.962907, -239.306440) " cx="402.962907" cy="239.30644" r="21.3597011"></circle>
                <path d="M421.085002,238.834993 C421.271378,246.168836 417.021442,252.892759 410.317056,255.871215 C403.612671,258.849671 395.77425,257.496059 390.457064,252.441604 C385.139877,247.387149 383.391134,239.627316 386.02632,232.780727 C388.661507,225.934139 395.161628,221.349215 402.495501,221.164032 C407.304915,221.038719 411.966791,222.830878 415.453773,226.145561 C418.940754,229.460244 420.966649,234.025402 421.085002,238.834993 Z" id="Path" fill="#10C680" fill-rule="nonzero"></path>
                <path d="M408.692002,245.118973 C408.884597,246.841245 408.314681,248.561647 407.131942,249.828313 C406.414416,250.505601 405.519614,250.96564 404.551281,251.155093 L404.551281,252.773473 L401.635281,252.860953 L401.635281,251.155093 C400.25335,250.847511 399.063518,249.974968 398.354781,248.749393 C397.659929,247.572562 397.250467,246.2493 397.159221,244.885693 L400.512621,244.564933 C400.564765,245.632108 400.958314,246.654315 401.635281,247.480933 C402.006507,247.89105 402.540545,248.115346 403.093281,248.093293 C403.863724,248.05118 404.55305,247.600895 404.901201,246.912313 C405.157343,246.439747 405.268889,245.9023 405.221961,245.366833 C405.134879,244.281593 404.646197,243.267838 403.851441,242.523733 L400.643841,239.607733 C399.713942,238.803778 398.903835,237.870929 398.238141,236.837533 C397.60853,235.798719 397.266368,234.611213 397.246701,233.396652 C397.204449,232.250655 397.466011,231.113865 398.004861,230.101572 C398.612823,228.936823 399.681043,228.080131 400.950021,227.739612 L400.950021,226.281612 L403.866021,226.281612 L403.866021,227.739612 C404.742724,227.894948 405.559831,228.28837 406.227982,228.876852 C407.356814,229.889002 408.04711,231.300973 408.152542,232.813452 L404.784561,233.513292 C404.716784,232.70281 404.418272,231.928701 403.924341,231.282552 C403.53105,230.884768 402.974668,230.693287 402.419872,230.764781 C401.865076,230.836275 401.375417,231.162556 401.095821,231.647052 C400.814176,232.174562 400.687793,232.77109 400.731321,233.367492 C400.818949,234.580692 401.335837,235.723014 402.189321,236.589673 C402.676238,237.115132 403.202655,237.602555 403.763961,238.047673 C404.595021,238.689193 405.149061,239.155753 405.440661,239.432773 C406.219589,240.183423 406.904957,241.025446 407.481862,241.940533 C408.135735,242.88688 408.550928,243.977385 408.692002,245.118973 L408.692002,245.118973 Z" id="Path" fill="#F7F7F7" fill-rule="nonzero"></path>
                <circle id="Oval" fill="#F7F7F7" fill-rule="nonzero" transform="translate(49.700350, 133.022451) rotate(-64.630000) translate(-49.700350, -133.022451) " cx="49.7003495" cy="133.022451" r="21.3597011"></circle>
                <path d="M67.8407436,132.561367 C68.0871424,142.573946 60.1712028,150.891044 50.1586753,151.139516 C40.1461478,151.387987 31.827411,143.473769 31.576867,133.461293 C31.3263231,123.448817 39.2388188,115.128443 49.2512426,114.875826 C59.2663964,114.631192 67.5862365,122.546459 67.8407436,132.561367 Z" id="Path" fill="#10C680" fill-rule="nonzero"></path>
                <path d="M55.4040029,138.830767 C55.6258932,140.537873 55.0936531,142.257008 53.9460029,143.540108 C53.2363334,144.22842 52.3380708,144.690239 51.3653427,144.866888 L51.3653427,146.499848 L48.4493426,146.499848 L48.4493426,144.793988 C47.0714907,144.486531 45.8832985,143.620471 45.1688424,142.402868 C44.4774368,141.224514 44.0682324,139.902085 43.9732823,138.539167 L47.3266825,138.203827 C47.3818607,139.270359 47.775058,140.291651 48.4493426,141.119827 C48.8128991,141.540637 49.3523396,141.767202 49.9073426,141.732188 C50.67095,141.68162 51.3544343,141.240662 51.7152627,140.565787 C51.9598481,140.084164 52.0658481,139.544069 52.0214428,139.005727 C51.930835,137.925646 51.4424364,136.917674 50.6509227,136.177207 C49.9365026,135.535687 48.8575826,134.587987 47.4433225,133.261207 C46.5147713,132.46143 45.704752,131.533589 45.0376224,130.505587 C44.4099382,129.46593 44.0679285,128.278956 44.0461823,127.064707 C43.9988806,125.981347 44.2244844,124.903462 44.7022824,123.930007 C45.3169044,122.723718 46.4223564,121.841482 47.7349225,121.509726 L47.7349225,120.051726 L50.6509227,120.051726 L50.6509227,121.509726 C51.5245395,121.665779 52.3402462,122.053492 53.0128828,122.632386 C54.1417151,123.644537 54.8320118,125.056507 54.9374429,126.568987 L51.5840427,127.268827 C51.5031317,126.46339 51.2002958,125.696205 50.7092427,125.052667 C50.3395205,124.648001 49.7940592,124.451635 49.2512426,124.527787 C48.6337062,124.51573 48.0651193,124.862568 47.7932425,125.417167 C47.518815,125.947282 47.3928685,126.541749 47.4287425,127.137607 C47.5237645,128.348918 48.0395574,129.488821 48.8867426,130.359787 C49.3703236,130.888572 49.8970165,131.37625 50.4613827,131.817787 C51.0421079,132.272496 51.5970103,132.759253 52.1235028,133.275787 C52.9499854,133.945828 53.680904,134.725802 54.2959229,135.594007 C54.9241083,136.566228 55.3045566,137.677537 55.4040029,138.830767 Z" id="Path" fill="#F7F7F7" fill-rule="nonzero"></path>
                <path d="M294.661816,174.391389 C296.629872,182.140215 297.855267,190.058906 298.321396,198.04015 C351.66865,187.199546 407.140057,197.66585 452.869404,227.200152 C466.195525,235.948153 478.471885,246.154153 490.777406,256.360154 C489.319406,255.150014 502.572627,225.844212 503.753607,222.534552 C506.669607,214.136471 509.585607,208.523171 502.178967,202.341251 C494.407826,195.89689 478.238605,193.05379 468.644965,189.81703 C457.520424,186.02623 446.293824,182.52703 434.936003,179.61103 C389.286021,167.465889 340.880418,162.712809 294.661816,174.391389 Z" id="Path" fill="#ECFDF6" fill-rule="nonzero"></path>
                <path d="M426.027623,294.516016 C426.842816,293.111907 427.865204,291.838838 429.060263,290.739795 C431.677967,288.680177 434.829201,287.410579 438.143603,287.080215 C440.840903,286.671975 443.975604,286.759455 445.768944,288.858975 C447.722664,291.206355 446.818704,294.836776 445.083684,297.359116 C443.348663,299.881456 440.884643,301.893496 439.572443,304.649116 C437.749943,308.498236 438.478943,312.988877 438.595583,317.246237 C438.741383,322.115957 437.589563,327.685517 433.390523,330.164117 C432.233878,330.810456 430.969003,331.240316 429.658043,331.432578 C413.765842,334.071558 421.624462,301.806016 426.027623,294.516016 Z" id="Path" fill="#64EDB2" fill-rule="nonzero"></path>
                <polygon id="Path" fill="#DDE6FA" fill-rule="nonzero" points="279.688155 332.773938 327.889637 291.527115 349.788799 313.411697 387.099021 276.086895 401.110401 290.098275 401.110401 365.199859 279.688155 365.199859"></polygon>
                <polygon id="Path" fill="#F7F7F7" fill-rule="nonzero" points="173.618649 215.346611 164.476989 224.502852 197.74855 224.488272 206.890211 215.346611"></polygon>
                <rect id="Rectangle" fill="#F7F7F7" fill-rule="nonzero" x="175.572369" y="226.441992" width="22.1761812" height="9.15624049"></rect>
                <polygon id="Path" fill="#F7F7F7" fill-rule="nonzero" points="208.843931 213.392891 208.843931 202.297511 197.74855 202.312091 186.66775 213.392891"></polygon>
                <polygon id="Path" fill="#F7F7F7" fill-rule="nonzero" points="186.66775 237.551953 186.66775 246.664453 195.78025 237.551953"></polygon>
            </g>
        </g>
    </g>
</svg>