<?xml version="1.0" encoding="UTF-8"?>
<svg width="518px" height="529px" viewBox="0 0 518 529" version="1.1" xmlns="http://www.w3.org/2000/svg" xmlns:xlink="http://www.w3.org/1999/xlink">
    <!-- Generator: Sketch 63.1 (92452) - https://sketch.com -->
    <title>07_ADVERTISER</title>
    <desc>Created with Sketch.</desc>
    <defs>
        <radialGradient cx="50%" cy="50%" fx="50%" fy="50%" r="50%" id="radialGradient-1">
            <stop stop-color="#FFFFFF" offset="0%"></stop>
            <stop stop-color="#FFFFFF" stop-opacity="0" offset="100%"></stop>
        </radialGradient>
        <linearGradient x1="50.0018209%" y1="100.00289%" x2="50.0018209%" y2="0.000647364102%" id="linearGradient-2">
            <stop stop-color="#779DEA" offset="0%"></stop>
            <stop stop-color="#8BABED" offset="12%"></stop>
            <stop stop-color="#AFC5F3" offset="38%"></stop>
            <stop stop-color="#C8D7F7" offset="61%"></stop>
            <stop stop-color="#D8E2F9" offset="83%"></stop>
            <stop stop-color="#DDE6FA" offset="100%"></stop>
        </linearGradient>
        <linearGradient x1="49.986675%" y1="100.001204%" x2="49.986675%" y2="0.000724260834%" id="linearGradient-3">
            <stop stop-color="#366FE0" offset="0%"></stop>
            <stop stop-color="#366FE0" offset="25%"></stop>
            <stop stop-color="#2758C3" offset="44%"></stop>
            <stop stop-color="#1C45AB" offset="65%"></stop>
            <stop stop-color="#14399C" offset="84%"></stop>
            <stop stop-color="#123597" offset="100%"></stop>
        </linearGradient>
        <linearGradient x1="49.9765935%" y1="99.9915618%" x2="49.9765935%" y2="0%" id="linearGradient-4">
            <stop stop-color="#123597" offset="0%"></stop>
            <stop stop-color="#214DB5" offset="44%"></stop>
            <stop stop-color="#366FE0" offset="100%"></stop>
        </linearGradient>
        <linearGradient x1="0%" y1="49.8836668%" x2="100.408441%" y2="49.8836668%" id="linearGradient-5">
            <stop stop-color="#DDE6FA" offset="0%"></stop>
            <stop stop-color="#D8E2F9" offset="17%"></stop>
            <stop stop-color="#C8D7F7" offset="39%"></stop>
            <stop stop-color="#AFC5F3" offset="62%"></stop>
            <stop stop-color="#8BABED" offset="88%"></stop>
            <stop stop-color="#779DEA" offset="100%"></stop>
        </linearGradient>
        <linearGradient x1="0%" y1="49.9909991%" x2="100%" y2="49.9909991%" id="linearGradient-6">
            <stop stop-color="#123597" offset="0%"></stop>
            <stop stop-color="#14389B" offset="24%"></stop>
            <stop stop-color="#1A41A7" offset="47%"></stop>
            <stop stop-color="#2351BA" offset="70%"></stop>
            <stop stop-color="#3167D6" offset="93%"></stop>
            <stop stop-color="#366FE0" offset="100%"></stop>
        </linearGradient>
        <linearGradient x1="49.9840738%" y1="99.9891195%" x2="49.9840738%" y2="-0.0964215231%" id="linearGradient-7">
            <stop stop-color="#FC4C5C" offset="0%"></stop>
            <stop stop-color="#FB9F02" offset="68%"></stop>
            <stop stop-color="#FB9F02" offset="100%"></stop>
        </linearGradient>
        <linearGradient x1="0.00349881125%" y1="49.870711%" x2="99.994619%" y2="49.870711%" id="linearGradient-8">
            <stop stop-color="#4E54C8" offset="0%"></stop>
            <stop stop-color="#8F94FB" offset="100%"></stop>
        </linearGradient>
        <linearGradient x1="49.9883171%" y1="99.7488975%" x2="49.9883171%" y2="-0.943186049%" id="linearGradient-9">
            <stop stop-color="#123597" offset="0%"></stop>
            <stop stop-color="#1B43A9" offset="16%"></stop>
            <stop stop-color="#2F63D1" offset="55%"></stop>
            <stop stop-color="#366FE0" offset="75%"></stop>
            <stop stop-color="#366FE0" offset="100%"></stop>
        </linearGradient>
        <linearGradient x1="-0.00250542107%" y1="50.1087684%" x2="100.28755%" y2="50.1087684%" id="linearGradient-10">
            <stop stop-color="#2A5BC7" offset="0%"></stop>
            <stop stop-color="#2452BC" offset="13%"></stop>
            <stop stop-color="#1A42A7" offset="42%"></stop>
            <stop stop-color="#14389B" offset="71%"></stop>
            <stop stop-color="#123597" offset="100%"></stop>
        </linearGradient>
        <linearGradient x1="0.0186705561%" y1="49.8596218%" x2="99.9999987%" y2="49.8596218%" id="linearGradient-11">
            <stop stop-color="#366FE0" offset="0%"></stop>
            <stop stop-color="#94CBFF" offset="70%"></stop>
            <stop stop-color="#94CBFF" offset="100%"></stop>
        </linearGradient>
        <linearGradient x1="0.397335346%" y1="50.5492212%" x2="100.274816%" y2="50.5492212%" id="linearGradient-12">
            <stop stop-color="#366FE0" offset="0%"></stop>
            <stop stop-color="#94CBFF" offset="70%"></stop>
            <stop stop-color="#94CBFF" offset="100%"></stop>
        </linearGradient>
        <linearGradient x1="-0.198808779%" y1="48.4611118%" x2="99.9997962%" y2="48.4611118%" id="linearGradient-13">
            <stop stop-color="#366FE0" offset="0%"></stop>
            <stop stop-color="#94CBFF" offset="70%"></stop>
            <stop stop-color="#94CBFF" offset="100%"></stop>
        </linearGradient>
        <linearGradient x1="0.556795247%" y1="48.5187549%" x2="100.574247%" y2="48.5187549%" id="linearGradient-14">
            <stop stop-color="#366FE0" offset="0%"></stop>
            <stop stop-color="#94CBFF" offset="70%"></stop>
            <stop stop-color="#94CBFF" offset="100%"></stop>
        </linearGradient>
        <linearGradient x1="0.00325722751%" y1="50.0828386%" x2="100%" y2="50.0828386%" id="linearGradient-15">
            <stop stop-color="#366FE0" offset="0%"></stop>
            <stop stop-color="#94CBFF" offset="70%"></stop>
            <stop stop-color="#94CBFF" offset="100%"></stop>
        </linearGradient>
        <linearGradient x1="5.05836864%" y1="50.8333656%" x2="101.058369%" y2="50.8333656%" id="linearGradient-16">
            <stop stop-color="#366FE0" offset="0%"></stop>
            <stop stop-color="#94CBFF" offset="70%"></stop>
            <stop stop-color="#94CBFF" offset="100%"></stop>
        </linearGradient>
        <linearGradient x1="3.29323378%" y1="49.9662229%" x2="96.2932338%" y2="49.9662229%" id="linearGradient-17">
            <stop stop-color="#366FE0" offset="0%"></stop>
            <stop stop-color="#94CBFF" offset="70%"></stop>
            <stop stop-color="#94CBFF" offset="100%"></stop>
        </linearGradient>
        <linearGradient x1="49.8245553%" y1="50.6938776%" x2="50.8245553%" y2="50.6938776%" id="linearGradient-18">
            <stop stop-color="#366FE0" offset="0%"></stop>
            <stop stop-color="#94CBFF" offset="70%"></stop>
            <stop stop-color="#94CBFF" offset="100%"></stop>
        </linearGradient>
        <linearGradient x1="0.0191136194%" y1="49.9923266%" x2="100.002457%" y2="49.9923266%" id="linearGradient-19">
            <stop stop-color="#123597" offset="0%"></stop>
            <stop stop-color="#214DB5" offset="44%"></stop>
            <stop stop-color="#366FE0" offset="100%"></stop>
        </linearGradient>
        <linearGradient x1="30.7362141%" y1="52.5576843%" x2="67.020616%" y2="44.5074733%" id="linearGradient-20">
            <stop stop-color="#4E54C8" offset="25%"></stop>
            <stop stop-color="#8F94FB" offset="100%"></stop>
        </linearGradient>
        <linearGradient x1="50.0011333%" y1="99.9910436%" x2="50.0011333%" y2="0.00229264732%" id="linearGradient-21">
            <stop stop-color="#123597" offset="0%"></stop>
            <stop stop-color="#214DB5" offset="44%"></stop>
            <stop stop-color="#366FE0" offset="100%"></stop>
        </linearGradient>
        <linearGradient x1="0.0101564087%" y1="49.9203187%" x2="100%" y2="49.9203187%" id="linearGradient-22">
            <stop stop-color="#FC4C5C" offset="0%"></stop>
            <stop stop-color="#FB9F02" offset="68%"></stop>
            <stop stop-color="#FB9F02" offset="100%"></stop>
        </linearGradient>
        <linearGradient x1="0.0208159867%" y1="49.9203187%" x2="100%" y2="49.9203187%" id="linearGradient-23">
            <stop stop-color="#366FE0" offset="0%"></stop>
            <stop stop-color="#94CBFF" offset="70%"></stop>
            <stop stop-color="#94CBFF" offset="100%"></stop>
        </linearGradient>
        <linearGradient x1="50.0088842%" y1="100%" x2="50.0088842%" y2="-0.00897893156%" id="linearGradient-24">
            <stop stop-color="#123597" offset="0%"></stop>
            <stop stop-color="#214DB5" offset="44%"></stop>
            <stop stop-color="#366FE0" offset="100%"></stop>
        </linearGradient>
        <linearGradient x1="0%" y1="49.9516484%" x2="100.088836%" y2="49.9516484%" id="linearGradient-25">
            <stop stop-color="#366FE0" offset="0%"></stop>
            <stop stop-color="#94CBFF" offset="70%"></stop>
            <stop stop-color="#94CBFF" offset="100%"></stop>
        </linearGradient>
        <linearGradient x1="0.00306919447%" y1="50%" x2="100.022496%" y2="50%" id="linearGradient-26">
            <stop stop-color="#123597" offset="0%"></stop>
            <stop stop-color="#1B43A9" offset="16%"></stop>
            <stop stop-color="#2F63D1" offset="55%"></stop>
            <stop stop-color="#366FE0" offset="75%"></stop>
            <stop stop-color="#366FE0" offset="100%"></stop>
        </linearGradient>
        <linearGradient x1="-0.00607290486%" y1="50.0302227%" x2="100.002754%" y2="50.0302227%" id="linearGradient-27">
            <stop stop-color="#FC4C5C" offset="0%"></stop>
            <stop stop-color="#FB9F02" offset="68%"></stop>
            <stop stop-color="#FB9F02" offset="100%"></stop>
        </linearGradient>
        <linearGradient x1="28.489701%" y1="38.3733522%" x2="70.9307092%" y2="66.8091895%" id="linearGradient-28">
            <stop stop-color="#4E54C8" offset="25%"></stop>
            <stop stop-color="#8F94FB" offset="100%"></stop>
        </linearGradient>
        <linearGradient x1="0.216924086%" y1="50%" x2="100.030315%" y2="50%" id="linearGradient-29">
            <stop stop-color="#DDE6FA" offset="0%"></stop>
            <stop stop-color="#D8E2F9" offset="17%"></stop>
            <stop stop-color="#C8D7F7" offset="39%"></stop>
            <stop stop-color="#AFC5F3" offset="62%"></stop>
            <stop stop-color="#8BABED" offset="88%"></stop>
            <stop stop-color="#779DEA" offset="100%"></stop>
        </linearGradient>
        <linearGradient x1="0.0709032116%" y1="50%" x2="99.9652891%" y2="50%" id="linearGradient-30">
            <stop stop-color="#DDE6FA" offset="0%"></stop>
            <stop stop-color="#D8E2F9" offset="17%"></stop>
            <stop stop-color="#C8D7F7" offset="39%"></stop>
            <stop stop-color="#AFC5F3" offset="62%"></stop>
            <stop stop-color="#8BABED" offset="88%"></stop>
            <stop stop-color="#779DEA" offset="100%"></stop>
        </linearGradient>
        <linearGradient x1="49.9964567%" y1="100.000936%" x2="49.9964567%" y2="-0.002635616%" id="linearGradient-31">
            <stop stop-color="#123597" offset="0%"></stop>
            <stop stop-color="#214DB5" offset="44%"></stop>
            <stop stop-color="#366FE0" offset="100%"></stop>
        </linearGradient>
        <linearGradient x1="49.9796513%" y1="99.9865544%" x2="49.9796513%" y2="0%" id="linearGradient-32">
            <stop stop-color="#123597" offset="0%"></stop>
            <stop stop-color="#214DB5" offset="44%"></stop>
            <stop stop-color="#366FE0" offset="100%"></stop>
        </linearGradient>
        <linearGradient x1="49.9805959%" y1="100%" x2="49.9805959%" y2="0.025126858%" id="linearGradient-33">
            <stop stop-color="#DDE6FA" offset="0%"></stop>
            <stop stop-color="#D8E2F9" offset="17%"></stop>
            <stop stop-color="#C8D7F7" offset="39%"></stop>
            <stop stop-color="#AFC5F3" offset="62%"></stop>
            <stop stop-color="#8BABED" offset="88%"></stop>
            <stop stop-color="#779DEA" offset="100%"></stop>
        </linearGradient>
        <linearGradient x1="49.9067563%" y1="99.997352%" x2="49.9067563%" y2="0%" id="linearGradient-34">
            <stop stop-color="#DDE6FA" offset="0%"></stop>
            <stop stop-color="#D8E2F9" offset="17%"></stop>
            <stop stop-color="#C8D7F7" offset="39%"></stop>
            <stop stop-color="#AFC5F3" offset="62%"></stop>
            <stop stop-color="#8BABED" offset="88%"></stop>
            <stop stop-color="#779DEA" offset="100%"></stop>
        </linearGradient>
        <linearGradient x1="0%" y1="50.0446684%" x2="100.008388%" y2="50.0446684%" id="linearGradient-35">
            <stop stop-color="#DDE6FA" offset="0%"></stop>
            <stop stop-color="#D8E2F9" offset="17%"></stop>
            <stop stop-color="#C8D7F7" offset="39%"></stop>
            <stop stop-color="#AFC5F3" offset="62%"></stop>
            <stop stop-color="#8BABED" offset="88%"></stop>
            <stop stop-color="#779DEA" offset="100%"></stop>
        </linearGradient>
        <linearGradient x1="50.003964%" y1="100%" x2="50.003964%" y2="0.00750241131%" id="linearGradient-36">
            <stop stop-color="#DDE6FA" offset="0%"></stop>
            <stop stop-color="#D8E2F9" offset="17%"></stop>
            <stop stop-color="#C8D7F7" offset="39%"></stop>
            <stop stop-color="#AFC5F3" offset="62%"></stop>
            <stop stop-color="#8BABED" offset="88%"></stop>
            <stop stop-color="#779DEA" offset="100%"></stop>
        </linearGradient>
        <linearGradient x1="0.0133135241%" y1="49.9620578%" x2="99.9962868%" y2="49.9620578%" id="linearGradient-37">
            <stop stop-color="#DDE6FA" offset="0%"></stop>
            <stop stop-color="#D8E2F9" offset="17%"></stop>
            <stop stop-color="#C8D7F7" offset="39%"></stop>
            <stop stop-color="#AFC5F3" offset="62%"></stop>
            <stop stop-color="#8BABED" offset="88%"></stop>
            <stop stop-color="#779DEA" offset="100%"></stop>
        </linearGradient>
        <linearGradient x1="49.9851371%" y1="100.080741%" x2="49.9851371%" y2="0.0357367989%" id="linearGradient-38">
            <stop stop-color="#123597" offset="0%"></stop>
            <stop stop-color="#214DB5" offset="44%"></stop>
            <stop stop-color="#366FE0" offset="100%"></stop>
        </linearGradient>
        <linearGradient x1="-3.71085297%" y1="42.6808495%" x2="103.749984%" y2="57.3063514%" id="linearGradient-39">
            <stop stop-color="#123597" offset="0%"></stop>
            <stop stop-color="#14389B" offset="24%"></stop>
            <stop stop-color="#1A41A7" offset="47%"></stop>
            <stop stop-color="#2351BA" offset="70%"></stop>
            <stop stop-color="#3167D6" offset="93%"></stop>
            <stop stop-color="#366FE0" offset="100%"></stop>
        </linearGradient>
        <linearGradient x1="0.0033486349%" y1="50%" x2="100.003133%" y2="50%" id="linearGradient-40">
            <stop stop-color="#DDE6FA" offset="0%"></stop>
            <stop stop-color="#D8E2F9" offset="17%"></stop>
            <stop stop-color="#C8D7F7" offset="39%"></stop>
            <stop stop-color="#AFC5F3" offset="62%"></stop>
            <stop stop-color="#8BABED" offset="88%"></stop>
            <stop stop-color="#779DEA" offset="100%"></stop>
        </linearGradient>
        <linearGradient x1="0.263179677%" y1="50.0961538%" x2="99.9511021%" y2="50.0961538%" id="linearGradient-41">
            <stop stop-color="#4E54C8" offset="0%"></stop>
            <stop stop-color="#8F94FB" offset="100%"></stop>
        </linearGradient>
        <linearGradient x1="-0.0221202963%" y1="49.9879107%" x2="100%" y2="49.9879107%" id="linearGradient-42">
            <stop stop-color="#4E54C8" offset="0%"></stop>
            <stop stop-color="#8F94FB" offset="100%"></stop>
        </linearGradient>
        <linearGradient x1="1.72252784e-13%" y1="49.9598464%" x2="100%" y2="49.9598464%" id="linearGradient-43">
            <stop stop-color="#366FE0" offset="0%"></stop>
            <stop stop-color="#94CBFF" offset="70%"></stop>
            <stop stop-color="#94CBFF" offset="100%"></stop>
        </linearGradient>
        <linearGradient x1="-0.0254517689%" y1="50.0018492%" x2="100%" y2="50.0018492%" id="linearGradient-44">
            <stop stop-color="#2A5BC7" offset="0%"></stop>
            <stop stop-color="#2452BC" offset="13%"></stop>
            <stop stop-color="#1A42A7" offset="42%"></stop>
            <stop stop-color="#14389B" offset="71%"></stop>
            <stop stop-color="#123597" offset="100%"></stop>
        </linearGradient>
        <linearGradient x1="0.0722543353%" y1="50%" x2="100%" y2="50%" id="linearGradient-45">
            <stop stop-color="#366FE0" offset="0%"></stop>
            <stop stop-color="#94CBFF" offset="70%"></stop>
            <stop stop-color="#94CBFF" offset="100%"></stop>
        </linearGradient>
        <linearGradient x1="50%" y1="100%" x2="50%" y2="-0.0847457627%" id="linearGradient-46">
            <stop stop-color="#123597" offset="0%"></stop>
            <stop stop-color="#1B43A9" offset="16%"></stop>
            <stop stop-color="#2F63D1" offset="55%"></stop>
            <stop stop-color="#366FE0" offset="75%"></stop>
            <stop stop-color="#366FE0" offset="100%"></stop>
        </linearGradient>
        <linearGradient x1="50.0263171%" y1="99.9392707%" x2="50.0263171%" y2="-0.0959533256%" id="linearGradient-47">
            <stop stop-color="#9CB7F0" offset="0%"></stop>
            <stop stop-color="#9FB9F1" offset="3%"></stop>
            <stop stop-color="#BACDF5" offset="26%"></stop>
            <stop stop-color="#CEDBF8" offset="50%"></stop>
            <stop stop-color="#D9E3F9" offset="75%"></stop>
            <stop stop-color="#DDE6FA" offset="100%"></stop>
        </linearGradient>
        <linearGradient x1="50.0898788%" y1="100.076627%" x2="50.0898788%" y2="-0.391806964%" id="linearGradient-48">
            <stop stop-color="#9CB7F0" offset="0%"></stop>
            <stop stop-color="#9FB9F1" offset="3%"></stop>
            <stop stop-color="#BACDF5" offset="26%"></stop>
            <stop stop-color="#CEDBF8" offset="50%"></stop>
            <stop stop-color="#D9E3F9" offset="75%"></stop>
            <stop stop-color="#DDE6FA" offset="100%"></stop>
        </linearGradient>
        <linearGradient x1="0%" y1="50%" x2="100%" y2="50%" id="linearGradient-49">
            <stop stop-color="#64EDB2" offset="0%"></stop>
            <stop stop-color="#99F3CC" offset="25%"></stop>
            <stop stop-color="#C5F8E2" offset="49%"></stop>
            <stop stop-color="#E5FCF2" offset="70%"></stop>
            <stop stop-color="#F8FEFC" offset="88%"></stop>
            <stop stop-color="#FFFFFF" offset="100%"></stop>
        </linearGradient>
        <linearGradient x1="-2.94831011e-14%" y1="50%" x2="100%" y2="50%" id="linearGradient-50">
            <stop stop-color="#DDE6FA" offset="0%"></stop>
            <stop stop-color="#D8E2F9" offset="17%"></stop>
            <stop stop-color="#C8D7F7" offset="39%"></stop>
            <stop stop-color="#AFC5F3" offset="62%"></stop>
            <stop stop-color="#8BABED" offset="88%"></stop>
            <stop stop-color="#779DEA" offset="100%"></stop>
        </linearGradient>
    </defs>
    <g id="Page-1" stroke="none" stroke-width="1" fill="none" fill-rule="evenodd">
        <g id="Project4" transform="translate(-101.000000, -4966.000000)">
            <g id="07_ADVERTISER" transform="translate(101.000000, 4967.000000)">
                <circle id="Oval" fill="url(#radialGradient-1)" fill-rule="nonzero" style="mix-blend-mode: screen;" cx="160.21" cy="41.2" r="15"></circle>
                <path d="M82.2,126.74 C-28.38,243.31 65.84,330.94 186,340 C197.214424,340.884604 207.813563,345.483899 216.12,353.07 C245.03,379.37 253.45,374.88 297.12,368.78 C461.12,317.06 571.47,109.29 387.61,143.6 C371.22,142.94 374.91,126.55 376.81,107.83 C378.543327,90.5732688 368.267084,74.364137 351.92,68.57 C265.19,37.78 151.57,67.6 82.2,126.74 Z" id="Path" fill="url(#linearGradient-2)" fill-rule="nonzero"></path>
                <text id="Blogger" font-family="Poppins-Medium, Poppins Medium" font-size="30" font-weight="normal" fill="#302727">
                    <tspan x="199.255" y="519">Blogger</tspan>
                </text>
                <path d="M31.51,150.31 C31.51,150.31 126.6,221.72 216.65,219.47 L222.65,234.59 C222.65,234.59 136.18,274 0,214.87 L31.51,150.31 Z" id="Path" fill="#FFFFFF" fill-rule="nonzero"></path>
                <path d="M274.29,183.43 C274.29,183.43 214.43,219.34 201.29,221.22 C198.02,221.68 193.93,217.96 189.63,211.55 C176.63,192.16 161.72,148.21 161.72,121.64 C161.72,86.29 171.86,86.25 171.86,86.25 C171.86,86.25 179,74.4 216.48,73.77 L254.21,73.2689282 C259.254686,73.1958016 263.522737,76.9823955 264.05,82 L274.29,183.43 Z" id="Path" fill="url(#linearGradient-3)" fill-rule="nonzero"></path>
                <path d="M269.2,95.54 C269.2,95.54 294.77,111.45 304.26,124.09 C313.75,136.73 312.26,142.22 304.26,146.74 C296.26,151.26 266.81,139.21 266.81,139.21 L269.2,95.54 Z" id="Path" fill="url(#linearGradient-4)" fill-rule="nonzero"></path>
                <line x1="266.81" y1="121.64" x2="290" y2="135.8" id="Path" stroke="#64EDFF"></line>
                <path d="M128.31,68.49 C128.31,68.49 131,52 138,47 L143,60.36 L128.31,68.49 Z" id="Path" fill="url(#linearGradient-5)" fill-rule="nonzero"></path>
                <rect id="Rectangle" fill="url(#linearGradient-6)" fill-rule="nonzero" opacity="0.8" x="134.75" y="33.57" width="26.93" height="55.55" rx="2.82"></rect>
                <path d="M374.93,390.59 C359.53,395.16 340.22,408.06 331.63,405.53 C331.063638,405.363048 330.517097,405.135043 330,404.85 C329.609504,404.624394 329.252676,404.344991 328.94,404.02 C323.35,398.48 327.77,379.81 327.64,377.4 C327.665256,376.213244 327.479016,375.03147 327.09,373.91 C326.661007,372.989834 326.109322,372.132033 325.45,371.36 C323.36,368.7 327.34,366.66 327.34,366.66 C327.02,364.66 328.5,357.2 328.5,357.2 L366,354 C372.58,355 372.69,361.6 372.69,361.6 C377.35,360.85 399.9,357.94 411.69,361.41 C415.02,362.41 413.86,365.85 415.63,367.61 C415.75799,367.732391 415.878223,367.862644 415.99,368 C422.67,376.05 391.17,385.77 374.93,390.59 Z" id="Path" fill="url(#linearGradient-7)" fill-rule="nonzero"></path>
                <path d="M327.09,373.91 L327.3,373.72 C327.3,373.72 341.2,370.04 344.92,373.42 C348.64,376.8 362.54,374 366.01,382.35 L331.63,405.53" id="Path" stroke="#FFFFFF" stroke-linecap="round"></path>
                <path d="M415.94,368 C407.94,364.9 383.94,373.84 368.02,380.12 C349.69,387.34 337.02,394.49 331.73,398.65 C329.23,400.65 328.73,402.57 328.94,404.07 C329.252676,404.394991 329.609504,404.674394 330,404.9 C330.517097,405.185043 331.063638,405.413048 331.63,405.58 C335.52,406.73 342.04,406.04 349.44,404.52 L349.26,402.43 L355.61,401.88 L355.71,403.09 C357.71,402.61 359.71,402.09 361.71,401.55 L361.49,399.01 L367.85,398.46 L367.96,399.8 C369.96,399.23 371.9,398.66 373.78,398.1 L373.31,396.03 L379.53,394.62 L379.89,396.21 C381.68,395.6 383.57,394.88 385.52,394.07 L384.74,390.66 L390.96,389.24 L391.45,391.42 C393.45,390.49 395.37,389.5 397.29,388.42 L396.66,385.66 L402.88,384.25 L403.07,385.07 C412.69,379 419.57,372.31 415.94,368 Z" id="Path" fill="url(#linearGradient-8)" fill-rule="nonzero"></path>
                <path d="M250.63,97.79 C247.93,99.79 220.31,97.05 218.41,96.55 C215.08,93.81 218,89.24 221,84.79 C222.87,82.02 224.77,79.29 225.21,77.07 C200.45,74.37 196.3,63.53 207.13,35.22 C211.94,29.37 219.54,30.22 224.82,31.01 C232.49,32.16 239.16,37.66 241.67,42.89 C241.852465,45.8789233 241.688036,48.8789229 241.18,51.83 C253.79,47.74 250.64,57.26 245.73,59.83 C245.76,64.77 251.43,95.7 250.63,97.79 Z" id="Path" fill="#F0BEB4" fill-rule="nonzero"></path>
                <path d="M231.28,84.54 C228.00698,85.9144363 224.335961,86.003712 221,84.79 C222.87,82.02 224.77,79.29 225.21,77.07 C225.21,77.07 234.03,78.37 237.36,73.77 C237.36,73.77 240,80.81 231.28,84.54 Z" id="Path" fill="#B3B3B3" fill-rule="nonzero" style="mix-blend-mode: multiply;"></path>
                <path d="M223.93,52.81 C223.913376,53.0723988 223.976095,53.3337283 224.11,53.56 C224.235368,53.7823814 224.432945,53.9552612 224.67,54.05 C224.749647,54.0918968 224.83343,54.1254099 224.92,54.15 C225.035759,54.1705754 225.154241,54.1705754 225.27,54.15 C225.538899,54.1341783 225.793712,54.0244671 225.99,53.84 C226.136627,53.6846812 226.243051,53.4958646 226.3,53.29 C226.364737,53.0645553 226.364737,52.8254447 226.3,52.6 C226.243081,52.2435459 225.998476,51.9454333 225.66,51.82 L225.66,51.82 C225.423013,51.6331637 225.114325,51.5633416 224.82,51.63 C224.567589,51.6924385 224.346932,51.8454747 224.2,52.06 C224.034277,52.2758836 223.939907,52.5380228 223.93,52.81 Z" id="Path" fill="#1B4736" fill-rule="nonzero"></path>
                <path d="M205.11,48.89 C205.083438,49.5305932 205.495419,50.1073666 206.11,50.29 C207.11,50.54 208.03,49.51 207.46,48.22 C207.23,47.73 206.68,47.44 206.27,47.76 C206.039823,47.7612658 205.81462,47.8270943 205.62,47.95 C205.303105,48.1579664 205.111586,48.5109618 205.11,48.89 Z" id="Path" fill="#1B4736" fill-rule="nonzero"></path>
                <path d="M228.24,47.79 L228.43,47.85 C228.581354,47.8844227 228.739894,47.8668072 228.88,47.8 L229.16,47.8 C229.342403,47.7449165 229.509939,47.649182 229.65,47.52 C229.765398,47.4056676 229.851205,47.2649437 229.9,47.11 C229.944801,46.9497389 229.944801,46.7802611 229.9,46.62 C229.658188,45.8229161 229.059504,45.1835806 228.28,44.89 C227.14246,44.3463765 225.961735,43.8981693 224.75,43.55 C224.325958,43.4202354 223.877804,43.3894462 223.44,43.46 L223.21,43.53 C223.080136,43.5751926 222.960988,43.6466815 222.86,43.74 C222.789067,43.8074445 222.728421,43.8849374 222.68,43.97 C222.684091,44.0132368 222.684091,44.0567632 222.68,44.1 L222.68,44.1 C222.446051,44.2392065 222.310621,44.4984585 222.33,44.77 L222.33,44.93 C222.352393,44.9950491 222.379119,45.0585247 222.41,45.12 C222.45608,45.1979905 222.517277,45.2659882 222.59,45.32 C222.680158,45.3956437 222.777255,45.4626074 222.88,45.52 L223.27,45.72 L224.59,46.36 C224.9,46.51 225.22,46.66 225.54,46.78 C225.86,46.9 226.29,47.14 226.66,47.3 C227.03399,47.4700103 227.418042,47.6169521 227.81,47.74 C227.952126,47.7657838 228.09575,47.7824843 228.24,47.79 L228.24,47.79 Z" id="Path" fill="#1B4736" fill-rule="nonzero"></path>
                <path d="M210.33,42.83 C210.683662,42.7628304 210.973928,42.5107573 211.09,42.17 C211.157024,41.8503078 211.063688,41.5180316 210.84,41.28 C209.951581,40.6206981 208.926299,40.1695741 207.84,39.96 C205.58,39.52 205.06,40.39 205.34,41.07 C204.93,41.84 206.08,42.19 206.92,42.42 C208.017716,42.7837556 209.177344,42.923183 210.33,42.83 L210.33,42.83 Z" id="Path" fill="#1B4736" fill-rule="nonzero"></path>
                <path d="M211.89,56.8 L212.34,56.8 L212.89,56.8 C213.24,56.8 213.59,56.8 213.95,56.88 C214.72,56.98 215.51,57 216.28,57.11 L216.82,57.19 C216.923787,57.225055 217.036213,57.225055 217.14,57.19 C217.234,57.135182 217.302352,57.0452449 217.33,56.94 C217.374065,56.8413645 217.374065,56.7286355 217.33,56.63 C217.279133,56.5306248 217.188117,56.4578127 217.08,56.43 L216.08,56.29 L215,56.1 C214.63,56.1 214.25,56.04 213.88,55.99 C213.547997,55.9519315 213.214173,55.931902 212.88,55.93 C212.66,55.93 212.44,55.93 212.21,55.93 L211.99,55.93 L211.99,55.85 C211.99,55.67 212.1,55.49 212.15,55.31 C212.26,54.94 212.36,54.57 212.46,54.2 C212.56,53.83 212.65,53.48 212.73,53.12 L212.97,52.01 C213.16,51.2 213.39,50.4 213.61,49.6 C213.83,48.8 214.02,48.07 214.24,47.3 L214.5,46.3 C214.557764,46.0794687 214.429058,45.8531228 214.21,45.79 C213.989469,45.7322358 213.763123,45.8609423 213.7,46.08 C213.5,46.8 213.31,47.53 213.11,48.25 C213,48.64 212.9,49.04 212.79,49.43 C212.68,49.82 212.57,50.19 212.47,50.58 C212.37,50.97 212.25,51.42 212.16,51.84 C212.07,52.26 212,52.58 211.91,52.95 C211.74,53.68 211.54,54.41 211.33,55.14 L211.18,55.65 C211.135701,55.7831314 211.105535,55.9205548 211.09,56.06 C211.067062,56.2902561 211.185602,56.5115312 211.39,56.62 C211.433878,56.6459651 211.480937,56.6661331 211.53,56.68 C211.644269,56.7354909 211.765291,56.7758315 211.89,56.8 L211.89,56.8 Z" id="Path" fill="#E7DAD0" fill-rule="nonzero"></path>
                <path d="M240.55,52.66 C240.712051,52.7046611 240.885684,52.6631401 241.01,52.55 L241.01,52.55 L241.01,52.55 C241.241701,52.3993103 241.485935,52.2688294 241.74,52.16 L242.26,51.99 C242.54,51.91 242.85,51.83 243.26,51.75 C244.2,51.52 245.63,51.31 245.57,51.32 C245.824904,51.2784707 246.082003,51.2517592 246.34,51.24 L246.6,51.24 C246.799718,51.2249788 247.000282,51.2249788 247.2,51.24 L247.36,51.24 C247.478035,51.2737737 247.604674,51.2589615 247.711729,51.1988604 C247.818784,51.1387593 247.897371,51.0383568 247.93,50.92 C247.960489,50.8291566 247.960489,50.7308434 247.93,50.64 L247.93,50.64 C248.08,50.11 248.23,49.64 248.38,49.04 C248.752778,47.6989766 249.043319,46.336441 249.25,44.96 L249.25,44.96 L249.25,44.96 C249.35,44.39 249.4,43.81 249.51,42.96 C249.51,42.61 249.57,42.86 249.71,42.61 C249.774781,42.4739862 249.774781,42.3160138 249.71,42.18 C249.71,42.18 249.71,41.86 249.63,41.64 C249.55,41.42 249.46,40.91 249.46,40.93 C249.291875,39.996025 248.904608,39.1152492 248.33,38.36 C247.725268,37.6674502 246.933635,37.1639997 246.05,36.91 C245.436892,36.7503296 244.793108,36.7503296 244.18,36.91 C243.661458,37.0426844 243.181703,37.296269 242.78,37.65 C242.394824,37.984979 242.058249,38.3720406 241.78,38.8 C241.068285,40.0345047 240.593473,41.3911109 240.38,42.8 C240.35414,43.3948519 240.42851,43.9898169 240.6,44.56 C240.6,44.62 240.66,44.85 240.66,44.85 C240.76,45.28 240.88,44.44 240.71,46.85 C240.64,47.77 240.57,48.73 240.46,49.66 L240.4,50.16 L240.4,50.32 L240.4,50.32 L240.4,50.63 L240.4,50.88 C240.4,51.1 240.34,51.32 240.32,51.54 C240.3,51.76 240.32,51.82 240.25,51.96 L240.25,52.02 C240.245321,52.0397264 240.245321,52.0602736 240.25,52.08 C240.25,52.13 240.25,52.17 240.25,52.21 C240.214856,52.3069123 240.214856,52.4130877 240.25,52.51 C240.27034,52.5874077 240.307948,52.6592035 240.36,52.72 C240.427021,52.7144486 240.491946,52.6939461 240.55,52.66 L240.55,52.66 Z" id="Path" fill="url(#linearGradient-9)" fill-rule="nonzero"></path>
                <path d="M208.31,37.72 C208.863698,37.694471 209.414992,37.6309887 209.96,37.53 C212.51,37.15 213.74,37.13 215.17,36.88 C215.79,36.78 216.76,36.55 216.72,36.56 C218.14,36.24 218.95,36.11 219.99,35.85 C224.24,34.77 220.77,35.7 224.64,34.61 C225.76,34.29 227,34.05 227.93,33.8 C228.100853,33.7472881 228.274442,33.7038909 228.45,33.67 C228.454115,33.6931519 228.454115,33.7168481 228.45,33.74 C228.24,34.23 227.97,34.74 227.74,35.19 C227.29,36.19 227.18,36.46 227.21,36.78 C227.214875,37.1529492 227.426901,37.4921904 227.76,37.66 C228.16979,37.848777 228.61949,37.9345976 229.07,37.91 C229.556018,37.8847146 230.040162,37.8312917 230.52,37.75 L231.94,37.54 C232.951227,37.3762858 233.976861,37.3193061 235,37.37 C235.621242,37.3976895 236.23959,37.4712228 236.85,37.59 C237.139733,37.6406797 237.424244,37.7176649 237.7,37.82 C237.864472,37.8802281 238.00723,37.9881667 238.11,38.13 C238.177957,38.232318 238.222358,38.3484436 238.24,38.47 C238.246037,38.8379467 238.222629,39.2057866 238.17,39.57 C238.006727,40.1608199 238.038288,40.7885369 238.26,41.36 C238.371977,41.5545586 238.525657,41.7218997 238.71,41.85 C239.029371,42.08306 239.388587,42.2558903 239.77,42.36 L239.88,42.36 C240.069683,42.4138166 240.263784,42.4506288 240.46,42.47 C240.665571,42.5000964 240.874429,42.5000964 241.08,42.47 C241.360598,42.4377536 241.636066,42.3705663 241.9,42.27 C242.181233,42.161129 242.455138,42.0341979 242.72,41.89 L243.47,41.47 L243.62,41.37 C243.77,41.28 243.93,41.18 244.09,41.1 L244.15,41.1 L244.2,41.1 L244.2,41.1 L244.2,41.1 C244.22752,41.1320347 244.247966,41.1695189 244.26,41.21 C244.336724,41.4652198 244.393561,41.7260001 244.43,41.99 L244.43,42.12 C244.43,42.25 244.43,42.38 244.5,42.51 C244.51196,42.5744794 244.528672,42.637986 244.55,42.7 C244.593584,42.8456141 244.664891,42.9814362 244.76,43.1 C244.865017,43.2170485 244.999795,43.3034448 245.15,43.35 L245.15,43.35 C245.291275,43.3843507 245.438725,43.3843507 245.58,43.35 C245.733514,43.3011161 245.87613,43.2230166 246,43.12 C246.140039,43.0112273 246.273601,42.8943613 246.4,42.77 L246.67,42.54 C246.709173,42.5043967 246.752886,42.474134 246.8,42.45 L246.86,42.45 L247,42.45 L247.08,42.51 C247.181119,42.6002969 247.268687,42.7047049 247.34,42.82 L247.34,42.89 L247.55,43.18 C247.655061,43.3232575 247.779595,43.4511569 247.92,43.56 C248.035415,43.6519249 248.167999,43.7199168 248.31,43.76 L248.31,43.76 C248.507506,43.8046678 248.712494,43.8046678 248.91,43.76 C249.249534,43.6718684 249.559916,43.4959851 249.81,43.25 C249.986453,43.0898784 250.153404,42.9195885 250.31,42.74 L250.4,43.1 L250.4,43.26 C250.46,43.46 250.51,43.67 250.57,43.87 C250.631362,44.1216181 250.718489,44.3662434 250.83,44.6 C250.931628,44.8389108 251.132513,45.0215335 251.38,45.1 C251.442903,45.1104441 251.507097,45.1104441 251.57,45.1 C251.94,45.1 252.2,44.75 252.37,44.49 C252.503542,44.2461999 252.617242,43.9920458 252.71,43.73 L252.71,43.73 C252.8,43.5 252.87,43.26 252.94,43.04 C253.083823,42.5433496 253.200661,42.0392791 253.29,41.53 C253.39,41.01 253.49,40.4 253.55,39.79 C253.61,39.18 253.64,38.69 253.67,38.06 C253.704824,37.4771864 253.704824,36.8928136 253.67,36.31 C253.623457,35.6931056 253.526466,35.0810596 253.38,34.48 C253.25,33.89 253.09,33.31 252.91,32.76 C252.564211,31.6614434 252.076776,30.6126173 251.46,29.64 C250.89702,28.6834335 250.222283,27.7972109 249.45,27 C248.623512,26.1608787 247.723218,25.3978038 246.76,24.72 C245.874704,24.0614473 244.93073,23.4856903 243.94,23 C243.46,22.78 242.94,22.55 242.46,22.34 C241.98,22.13 241.46,21.93 240.94,21.75 C239.85,21.36 238.74,21.01 237.7,20.69 L236,20.2 C231,18.64 230.25,18.45 224.28,18.08 C221.812069,17.9532855 219.354169,17.6761038 216.92,17.25 C215.92,17.09 214.83,16.9 213.71,16.63 C213.12,16.49 212.62,16.37 212.15,16.24 L212.1,16.24 L211,15.87 L210.62,15.75 L209.93,15.55 C208.77,15.23 208.33,15.88 208.5,16.86 C208.625147,17.531259 208.861749,18.1768419 209.2,18.77 L208.89,18.68 C207.859931,18.3967093 206.810439,18.1894848 205.75,18.06 C204.680845,17.896913 203.587422,18.0318608 202.59,18.45 C202.185452,18.7325496 201.917218,19.171149 201.85,19.66 C201.775701,20.0767011 201.831568,20.5061745 202.01,20.89 C202.496425,21.9696717 203.275954,22.8912481 204.26,23.55 C204.990606,24.0882983 205.759289,24.5729027 206.56,25 L206.09,25.1 C202.8,25.86 201.59,26.41 200.67,27.89 C200.473766,28.2018753 200.319124,28.5380542 200.21,28.89 C199.81,30.64 203.69,30.59 206.05,30.89 L205.94,30.89 L205.57,31.11 C204.669059,31.5721213 203.834818,32.1540715 203.09,32.84 C202.09,33.93 202.41,34.98 203.4,35.98 C203.804796,36.3748051 204.275127,36.6962547 204.79,36.93 C205.872008,37.5022014 207.087242,37.7749385 208.31,37.72 L208.31,37.72 Z" id="Path" fill="url(#linearGradient-10)" fill-rule="nonzero"></path>
                <path d="M230.34,24.49 C228.64,24.19 226.94,23.84 225.26,23.49 C223.58,23.14 222.05,22.73 220.48,22.25 C220.337094,22.2107008 220.226009,22.0981473 220.18859,21.9547372 C220.151171,21.8113272 220.193103,21.658848 220.29859,21.5547372 C220.404077,21.4506264 220.557094,21.4107008 220.7,21.45 C221.11,21.58 221.53,21.71 221.95,21.82 C223.54,22.26 225.15,22.63 226.76,22.97 C227.61,23.16 228.47,23.33 229.32,23.49 L231.87,23.95 C232.71,24.11 233.56,24.26 234.4,24.46 C235.24,24.66 236.09,24.88 236.93,25.13 C237.77,25.38 238.58,25.66 239.39,25.96 C240.2,26.26 241.05,26.6 241.86,26.96 C242.26,27.14 242.65,27.35 243.03,27.56 C243.766207,27.9709184 244.47745,28.4250456 245.16,28.92 C245.48,29.16 245.78,29.43 246.09,29.69 C246.16082,29.7660241 246.2,29.8661004 246.2,29.97 C246.2,30.1981098 246.018045,30.3845688 245.79,30.39 C245.679787,30.3874174 245.575258,30.3405595 245.5,30.26 L244.83,29.71 C244.250229,29.2537225 243.63868,28.8393397 243,28.47 C242.329687,28.073206 241.634969,27.7191672 240.92,27.41 L240.34,27.17 C239.56,26.86 238.76,26.56 237.95,26.29 C237.14,26.02 236.27,25.76 235.42,25.53 C234.57,25.3 233.75,25.12 232.9,24.95 L230.34,24.49 Z" id="Path" fill="url(#linearGradient-11)" fill-rule="nonzero"></path>
                <path d="M209.44,22.46 C210.11,22.7 210.79,22.95 211.44,23.23 C212.09,23.51 212.77,23.81 213.44,24.1 L214.34,24.46 C215.125422,24.7589566 215.930702,25.0028795 216.75,25.19 C217.56,25.39 218.38,25.56 219.21,25.68 C219.44,25.68 219.67,25.73 219.9,25.77 C220.005748,25.7966095 220.096048,25.8652379 220.15,25.96 C220.188544,26.0597391 220.188544,26.1702609 220.15,26.27 C220.122187,26.3781174 220.049375,26.4691326 219.95,26.52 C219.850447,26.5595301 219.739553,26.5595301 219.64,26.52 L219.51,26.52 L218.73,26.42 L217.95,26.29 C217.42,26.18 216.89,26.07 216.36,25.94 L215.82,25.79 C215.175416,25.619551 214.541057,25.4125495 213.92,25.17 C212.45,24.61 211.76,24.17 209.17,23.24 C208.949086,23.1792487 208.819249,22.9509139 208.88,22.73 C208.940751,22.5090861 209.169086,22.3792487 209.39,22.44 L209.44,22.46 Z" id="Path" fill="url(#linearGradient-12)" fill-rule="nonzero"></path>
                <path d="M212.17,30.21 C214.017755,30.7631734 215.893767,31.2171547 217.79,31.57 C218.672797,31.6871527 219.567203,31.6871527 220.45,31.57 C221.467869,31.4260879 222.471538,31.195244 223.45,30.88 C224.277959,30.6163558 225.119101,30.3960568 225.97,30.22 C226.828106,30.0708761 227.700084,30.0172159 228.57,30.06 C229.419946,30.11531 230.256359,30.3008049 231.05,30.61 C231.19112,30.6492992 231.300554,30.7608997 231.33708,30.9027628 C231.373606,31.0446258 231.331674,31.195199 231.22708,31.2977628 C231.122486,31.4003266 230.97112,31.4392992 230.83,31.4 C230.568436,31.2983557 230.301345,31.2115511 230.03,31.14 C228.905641,30.8780723 227.741965,30.8305753 226.6,31 C226.23651,31.0506713 225.875993,31.1207717 225.52,31.21 C224.43,31.48 223.2,31.9 222.04,32.21 C220.312087,32.6561451 218.503567,32.6903974 216.76,32.31 C215.94,32.15 215.13,31.94 214.32,31.72 L211.94,31 C211.747617,30.9153494 211.647429,30.7015208 211.705504,30.49952 C211.76358,30.2975193 211.962034,30.1695502 212.17,30.2 L212.17,30.21 Z" id="Path" fill="url(#linearGradient-13)" fill-rule="nonzero"></path>
                <path d="M235.42,34.7 C236.13,34.58 236.84,34.46 237.55,34.38 C237.89,34.38 238.24,34.3 238.55,34.29 C238.833016,34.2747146 239.116647,34.3051036 239.39,34.38 C239.607689,34.4385953 239.737234,34.6619491 239.68,34.88 C239.616877,35.0990577 239.390531,35.2277642 239.17,35.17 L239,35.17 C238.445052,35.1451024 237.889003,35.1752496 237.34,35.26 C236.76,35.34 236.18,35.44 235.6,35.54 C235.527444,35.5550965 235.452556,35.5550965 235.38,35.54 C235.258785,35.5048003 235.160539,35.41573 235.113661,35.2985354 C235.066784,35.1813408 235.076499,35.0490861 235.14,34.94 C235.188688,34.8191811 235.293156,34.7296368 235.42,34.7 Z" id="Path" fill="url(#linearGradient-14)" fill-rule="nonzero"></path>
                <path d="M248.28,35.67 C248.207676,35.5909086 248.168323,35.4871607 248.17,35.38 C248.168823,35.2710222 248.212164,35.1662825 248.29,35.09 C248.366897,35.0130573 248.471219,34.9698275 248.58,34.9698275 C248.688781,34.9698275 248.793103,35.0130573 248.87,35.09 C248.982233,35.2254873 249.073268,35.3772125 249.14,35.54 C249.346087,36.061361 249.490403,36.6050646 249.57,37.16 C249.677428,37.9121561 249.737546,38.6703129 249.75,39.43 C249.747598,39.5576 249.68731,39.6771859 249.586153,39.7549988 C249.484996,39.8328116 249.353947,39.8604089 249.23,39.83 C248.79,39.7 249.02,39.44 248.8,37.6 C248.735408,37.0202888 248.604553,36.4498964 248.41,35.9 C248.372628,35.8201137 248.329166,35.7432203 248.28,35.67 L248.28,35.67 Z" id="Path" fill="url(#linearGradient-15)" fill-rule="nonzero"></path>
                <path d="M247.19,37.11 C247.42,37.17 247.53,37.36 247.6,38.11 C247.614974,38.3998067 247.614974,38.6901933 247.6,38.98 C247.568153,39.1845477 247.392012,39.3353858 247.185,39.3353858 C246.977988,39.3353858 246.801847,39.1845477 246.77,38.98 C246.796033,38.5298638 246.755599,38.0783482 246.65,37.64 L246.65,37.64 C246.620136,37.5593423 246.620136,37.4706577 246.65,37.39 C246.682059,37.2796169 246.757958,37.1871965 246.86,37.1342856 C246.962042,37.0813747 247.081311,37.0725974 247.19,37.11 L247.19,37.11 Z" id="Path" fill="url(#linearGradient-16)" fill-rule="nonzero"></path>
                <path d="M245.05,37.31 C245.16,37.5 245.05,37.8 244.98,38.24 C244.932597,38.3985786 244.796482,38.5145312 244.632385,38.5361229 C244.468287,38.5577147 244.30681,38.480919 244.22,38.34 C244.12,38.15 244.22,38.04 244.28,37.49 C244.281382,37.3489657 244.362825,37.2209839 244.49,37.16 C244.583485,37.1028316 244.69633,37.0865183 244.802178,37.1148705 C244.908026,37.1432226 244.997607,37.2137573 245.05,37.31 L245.05,37.31 Z" id="Path" fill="url(#linearGradient-17)" fill-rule="nonzero"></path>
                <path d="M245.09,37.57 C245.094679,37.5502736 245.094679,37.5297264 245.09,37.51 C245.09,37.51 245.09,37.6 245.09,37.57 Z" id="Path" fill="url(#linearGradient-18)" fill-rule="nonzero"></path>
                <circle id="Oval" fill="#F0BEB4" fill-rule="nonzero" cx="244.62" cy="55.25" r="5.9"></circle>
                <path d="M373.11,257.07 C373.119089,257.189828 373.119089,257.310172 373.11,257.43 C373.212594,259.056411 373.182495,260.688478 373.02,262.31 C372.87,264 372.66,266.11 372.44,269.18 C371.96,275.96 363.62,347.47 363.62,347.47 L330.74,350.32 L320.42,266.25 L311.27,267.04 C227.51,270.04 216.45,234.59 216.45,234.59 L265.76,220 C265.76,220 331.82,222.79 354.88,227.47 L354.97,227.47 C357.234667,227.920015 359.439428,228.631444 361.54,229.59 C376.87,236.69 372.86,254.18 373.11,257.07 Z" id="Path" fill="url(#linearGradient-19)" fill-rule="nonzero"></path>
                <line x1="337.61" y1="242.39" x2="343.02" y2="320.78" id="Path" stroke="#64EDFF"></line>
                <path d="M368.34,349.07 C368.86,352.62 368.87,354.51 365.24,356.24 C361.61,357.97 348.7,368.86 341.16,369 C333.62,369.14 325.61,358.69 325.75,355.69 C325.89,352.69 323.88,309.56 323.51,305.34 C323.14,301.12 326,290.2 333.36,290 C340.72,289.8 349.24,300.59 354.44,300.61 C358.67,300.61 366.58,296.78 370.93,302.01 C371.322953,302.684871 371.536409,303.449181 371.55,304.23 C372.57,313.5 367.87,345.9 368.34,349.07 Z" id="Path" fill="url(#linearGradient-20)" fill-rule="nonzero"></path>
                <path d="M323.48,311.13 C323.48,311.13 328.77,304.55 334.6,306.13 C340.43,307.71 342.12,355.13 339.15,356.24 C336.18,357.35 325.66,351.17 325.66,351.17" id="Path" stroke="#64EDFF" stroke-linecap="round"></path>
                <path d="M354.65,204.72 C353.723702,207.346902 352.638361,209.914984 351.4,212.41 C350.202672,214.808691 348.884308,217.145033 347.45,219.41 C342.2,227.67 319.87,284 319.87,284 L285.93,277.17 L305.12,222.11 C305.12,222.11 285.35,246.91 257.24,252.61 C217.1,260.76 210.45,219.48 210.45,219.48 C225.3,183.14 298.34,177.48 298.34,177.48 C298.34,177.48 319.78,170.78 336.74,172.69 C339.235671,172.959565 341.698001,173.478832 344.09,174.24 C345.957377,174.822799 347.73949,175.649968 349.39,176.7 C359.22,183 358.15,194.75 354.65,204.72 Z" id="Path" fill="url(#linearGradient-21)" fill-rule="nonzero"></path>
                <path d="M223.329757,198.84 C223.329757,198.84 222.89,228.17 259.44,218.07 C288.09,210.15 304.93,183.54 313.88,183.43 C322.83,183.32 317.7,190.9 316.33,193.35 C314.96,195.8 304.55,217 304.67,225" id="Path" stroke="#64EDFF"></path>
                <path d="M304.26,188.9 C304.26,188.9 285.37,210.17 275.48,216.15 C265.59,222.13 233.22,248.34 211.88,216.4" id="Path" stroke="#64EDFF"></path>
                <path d="M207.74,209 C207.74,209 208.5,216.93 210.45,219.51 C210.45,219.51 218.51,198.98 256.73,188.3 C294.95,177.62 298.34,177.52 298.34,177.52 L293.34,175.15 L276.88,169.31 L217.88,184.31 L199.88,205.59 L205.51,204.96 L207.74,209 Z" id="Path" fill="url(#linearGradient-22)" fill-rule="nonzero"></path>
                <path d="M207.74,209 C207.74,209 208.5,216.93 210.45,219.51 C210.45,219.51 218.51,198.98 256.73,188.3 C294.95,177.62 298.34,177.52 298.34,177.52 L293.34,175.15 L276.88,169.31 L217.88,184.31 L202.26,202.77 L205.5,204.96 L207.74,209 Z" id="Path" fill="url(#linearGradient-23)" fill-rule="nonzero"></path>
                <path d="M293.32,175.11 C293.32,175.11 262.87,175.97 246.13,182.36 C237.682143,185.634491 229.52077,189.604798 221.73,194.23 C212.61,199.72 205.97,205.44 207.73,208.96 C200.784255,207.971548 195.273973,202.606805 194.1,195.69 C191.71,183.52 189,138.69 180.76,128.57 C180.76,128.57 181.44,124.89 182.14,119.84 C183.23,111.84 184.3,100.4 182.63,94.46 C182.63,94.46 194.72,89.46 202.88,89.39 C202.88,89.39 216.33,81.66 219.61,82.39 C222.89,83.12 228.61,91.59 247.61,86.11 C252.097875,84.6226587 257.041055,85.843869 260.32,89.25 C261.658011,89.7829929 262.966548,90.3871897 264.24,91.06 C266.52,92.28 268.98,93.94 269.15,95.55 C269.47,98.55 270.39,113.1 271.31,120.16 C271.31,120.16 274.41,155.83 289.71,171.92 C290.824814,173.079493 292.032131,174.146347 293.32,175.11 Z" id="Path" fill="url(#linearGradient-24)" fill-rule="nonzero"></path>
                <path d="M219.62,82.38 C219.62,82.38 221.46,77.76 224.62,78.78 C227.78,79.8 239.36,83.72 248.12,77.66 C248.12,77.66 250.01,78.34 250.22,79.66 C250.43,80.98 253.39,85.66 253.39,85.66 C253.39,85.66 241.52,92.76 231.96,90.06 C220.14,86.71 219.62,82.38 219.62,82.38 Z" id="Path" fill="url(#linearGradient-25)" fill-rule="nonzero"></path>
                <path d="M354.35,349.35 C352.94,350.9 355.08,359.06 342.7,359.21 L342.52,359.21 L342.58,357.63 L336.18,357.37 L336.12,358.88 C333.33,358.62 330.22,358.17 326.9,357.53 L327.57,355.36 L321.46,353.44 L320.62,356.15 C318.06,355.53 315.42,354.81 312.73,353.97 L313.85,351.3 L307.95,348.82 L306.64,351.92 C303.98,350.92 301.3,349.87 298.64,348.68 L300.02,345.75 L294.22,343 L292.85,345.92 C290.336667,344.64 287.88,343.256667 285.48,341.77 L287.15,339.12 L281.05,335.26 L279.39,337.88 C276.99,336.32 274.75,334.82 272.68,333.36 L274.45,331.36 L269.08,326.54 L266.91,329 C258.3,321.88 255.14,315.52 261.03,308.13 L354.48,346.22 C355.21745,347.151665 355.162168,348.482696 354.35,349.35 Z" id="Path" fill="url(#linearGradient-26)" fill-rule="nonzero"></path>
                <path d="M355.82,341.53 C354.92,352.75 343.01,352.27 328.27,349.65 C316.74,347.65 303.18,341.65 293.6,336.65 L293.6,336.65 C290.93,335.27 288.6,333.97 286.65,332.86 C277.85,327.78 259.65,315.8 261.21,305.06 C262.14,298.64 267.48,289.77 271.6,283.69 C274.39,279.59 276.6,276.75 276.6,276.75 L310.1,288.21 C311.593324,289.053373 312.81459,290.305864 313.62,291.82 C314.71,294.14 313.39,297.46 313.38,297.82 C313.37,298.18 336.89,322.37 341.85,326.49 C346.81,330.61 356.72,330.32 355.82,341.53 Z" id="Path" fill="url(#linearGradient-27)" fill-rule="nonzero"></path>
                <path d="M271.59,283.73 L284.27,294.42 C284.27,294.42 289.27,304.6 285.83,310.95 C282.39,317.3 298.4,314.73 293.6,336.69 L293.6,336.69" id="Path" stroke="#FFFFFF" stroke-linecap="round"></path>
                <path d="M338.86,244.07 C338.835736,244.172798 338.802268,244.273203 338.76,244.37 C337.34,247.9 315.55,289.25 312.76,289.13 C311.23,289.07 305.68,289.81 300.94,290.5 C297.679392,291.026407 294.440164,289.444831 292.85,286.55 C291.85,284.7 289.85,282.93 285.74,282.39 C276.12,281.13 275.33,273.71 275.41,271.54 C275.49,269.67 294.05,230.78 299.22,219.99 L299.22,219.99 L300.54,217.24 C300.54,217.24 311.01,209.41 316.2,222.31 C321.39,235.21 330.48,235.37 334.04,236.31 C337.6,237.25 340,240.63 338.86,244.07 Z" id="Path" fill="url(#linearGradient-28)" fill-rule="nonzero"></path>
                <path d="M373.11,257.07 C373.119089,257.189828 373.119089,257.310172 373.11,257.43 C366.653818,257.152448 360.941335,253.164268 358.455894,247.199211 C355.970454,241.234153 357.161009,234.369707 361.51,229.59 C376.87,236.69 372.86,254.18 373.11,257.07 Z" id="Path" fill="url(#linearGradient-29)" fill-rule="nonzero"></path>
                <path d="M373.05,262.31 C364.613518,262.735853 356.705515,258.195673 352.81969,250.695277 C348.933865,243.194881 349.786146,234.116149 355,227.47" id="Path" stroke="#64EDFF"></path>
                <path d="M351.4,212.41 C339.57,210.75 330.4,201.28 330.02,189.57 C329.867389,183.262907 332.294386,177.16652 336.74,172.69" id="Path" stroke="#64EDFF"></path>
                <path d="M354.65,204.72 C347.492025,204.501257 341.212649,199.885103 338.868276,193.118392 C336.523904,186.351682 338.601571,178.840174 344.09,174.24 C345.957377,174.822799 347.73949,175.649968 349.39,176.7 C359.22,183 358.15,194.75 354.65,204.72 Z" id="Path" fill="url(#linearGradient-30)" fill-rule="nonzero"></path>
                <path d="M195.58,200.17 C195.58,200.17 214.09,171.82 251.58,165.23 C273.1,161.44 283.31,162.84 283.31,162.84" id="Path" stroke="#64EDFF"></path>
                <path d="M239.77,108.51 C239.77,108.51 238.4,147.57 257.39,179.18" id="Path" stroke="#64EDFF"></path>
                <path d="M192.46,91.13 C203.701841,104.457382 220.821027,111.342516 238.16,109.51 C263.43,106.97 266.81,92.59 266.81,92.59" id="Path" stroke="#64EDFF"></path>
                <circle id="Oval" stroke="#64EDB2" stroke-width="2" cx="231.24" cy="47.74" r="47.74"></circle>
                <path d="M187.73,93.73 C187.73,93.73 165.54,92.34 148.79,108.92 C127.54,129.92 117.23,135.73 117.23,135.73 C117.23,135.73 150.93,150.99 178.74,141.25 C206.55,131.51 190.74,103.98 190.74,103.98 L187.73,93.73 Z" id="Path" fill="url(#linearGradient-31)" fill-rule="nonzero"></path>
                <path d="M145.27,78.27 C145.27,78.27 142.03,100.84 150.75,115.93 C150.75,115.93 148.61,131.81 126.48,137.75 C104.35,143.69 112.55,91.6 130.32,71.86 L145.27,78.27 Z" id="Path" fill="url(#linearGradient-32)" fill-rule="nonzero"></path>
                <path d="M144.35,65.73 C144.35,65.73 159.07,60.66 162.66,61.59 C166.25,62.52 166.41,71.06 163.54,72.34 C160.67,73.62 147.38,77.05 147.38,77.05 L144.35,65.73 Z" id="Path" fill="url(#linearGradient-33)" fill-rule="nonzero"></path>
                <path d="M160.09,51.42 C160.09,51.42 165.49,51.94 168.34,54.31 C171.19,56.68 167.73,64.48 164.59,64.42 C161.45,64.36 148,61.85 148,61.85 L160.09,51.42 Z" id="Path" fill="url(#linearGradient-34)" fill-rule="nonzero"></path>
                <path d="M141.78,55.56 C141.78,55.56 156.5,50.49 160.09,51.42 C163.68,52.35 163.84,60.9 160.97,62.17 C158.1,63.44 144.81,66.88 144.81,66.88 L141.78,55.56 Z" id="Path" fill="url(#linearGradient-35)" fill-rule="nonzero"></path>
                <path d="M147.38,77.05 C147.38,77.05 160.38,73.05 161.28,73.15 C162.18,73.25 165.84,83.15 158.36,84.28 L153.46,85.06 C150.61,85.51 143.85,97.73 143.85,97.73 L147.38,77.05 Z" id="Path" fill="url(#linearGradient-36)" fill-rule="nonzero"></path>
                <path d="M142.58,55.16 C134.152049,60.4097894 127.454155,68.022297 123.32,77.05 C116.5,92.05 115.13,93.2 115.57,96.05 C116.01,98.9 128.01,112.14 149.31,102.41 C149.31,102.41 144.73,89.03 148.25,85.95 C148.25,85.95 153.74,77.68 147.38,77.08 C147.38,77.08 154.22,69.95 145.72,66.36 C145.72,66.36 149.98,62.48 147.81,58.64 C145.64,54.8 142.58,55.16 142.58,55.16 Z" id="Path" fill="url(#linearGradient-37)" fill-rule="nonzero"></path>
                <polygon id="Path" fill="#FFFFFF" fill-rule="nonzero" points="402.85 384.24 399.25 372.55 394.39 372.83 399.74 384.94"></polygon>
                <polygon id="Path" fill="#FFFFFF" fill-rule="nonzero" points="390.93 389.19 387.86 377.72 384.07 377.94 388.38 389.77"></polygon>
                <polygon id="Path" fill="#FFFFFF" fill-rule="nonzero" points="379.5 394.57 376.13 382.81 372.7 383.39 377.36 395.05"></polygon>
                <polygon id="Path" fill="#FFFFFF" fill-rule="nonzero" points="367.82 398.41 364.45 388.71 361.33 388.89 364.86 398.58"></polygon>
                <polygon id="Path" fill="#FFFFFF" fill-rule="nonzero" points="355.61 401.83 352.81 392.81 349.82 393.64 352.83 401.99"></polygon>
                <path d="M286.77,131.62 C289.335742,127.85674 293.84103,125.90977 298.34,126.62 C306.06,127.83 316.34,134.18 311.76,153.11 C311.76,153.11 299.99,172.62 279.04,165.24 L268.88,154.6 L271,140.05 L286.77,131.62 Z" id="Path" fill="url(#linearGradient-38)" fill-rule="nonzero"></path>
                <rect id="Rectangle" fill="url(#linearGradient-39)" fill-rule="nonzero" opacity="0.8" transform="translate(221.885590, 146.990694) rotate(-11.340000) translate(-221.885590, -146.990694) " x="181.83559" y="119.810694" width="80.1" height="54.36" rx="4.06"></rect>
                <path d="M283.94,131.62 C283.94,131.62 290.22,139.7 291.32,149.83 C292.42,159.96 283.94,169 283.94,169 C283.94,169 255.71,163.46 250.8,159.82 C245.89,156.18 246.33,151.44 253.96,152.22 C253.96,152.22 244.03,155.51 243.62,148.57 C243.21,141.63 256.86,142 256.86,142 C256.86,142 242.54,144.76 242.21,140.44 C241.88,136.12 248.59,131.23 258.75,133.19 C258.75,133.19 267.63,135.03 268.92,138.64 L283.94,131.62 Z" id="Path" fill="url(#linearGradient-40)" fill-rule="nonzero"></path>
                <path d="M307.88,129.47 C307.88,129.47 313.72,131.75 315.37,136.47 C317.02,141.19 316.73,145.15 312.28,150.27 C307.66204,144.396529 306.036128,136.710397 307.88,129.47 L307.88,129.47 Z" id="Path" fill="url(#linearGradient-41)" fill-rule="nonzero"></path>
                <path d="M112.47,121.24 C112.47,121.24 129.57,125.71 129.81,140.36 C129.81,140.36 121.96,144.02 116.59,135.73 C111.22,127.44 112.47,121.24 112.47,121.24 Z" id="Path" fill="url(#linearGradient-42)" fill-rule="nonzero"></path>
                <path d="M129.81,105.89 C129.81,105.89 127.81,121.89 133.72,131.2 C133.72,131.2 148.3,128.73 148.79,108.92" id="Path" stroke="#64EDFF"></path>
                <path d="M133.72,131.2 C133.72,131.2 191.92,130.11 190.72,103.98 C190.72,103.98 191.02,93.63 180.26,94.11" id="Path" stroke="#64EDFF"></path>
                <path d="M309.37,130.19 C309.37,130.19 307.03,140.62 313.21,149.19" id="Path" stroke="#64EDFF"></path>
                <path d="M112.34,123.21 C112.34,123.21 123.75,126.09 128.25,140.87" id="Path" stroke="#64EDFF"></path>
                <path d="M117.23,90.62 C117.23,90.62 124.51,105.46 148.23,98.29" id="Path" stroke="#FFFFFF"></path>
                <path d="M268.92,138.65 C268.92,138.65 270.79,141.15 267.33,143.84 C267.33,143.84 271.99,145.75 271.24,148.28 C270.49,150.81 267.33,151.85 267.33,151.85 C267.33,151.85 271.53,152.72 270.61,158.48 C270.61,158.48 280.61,162.17 284.84,160.9 C287.554333,157.67541 288.677604,153.402574 287.9,149.26 C286.51,142.4 280.24,133.35 280.24,133.35" id="Path" stroke="#FFFFFF"></path>
                <path d="M121.82,85 C121.82,85 129.22,65.09 137.04,61.28 C144.86,57.47 144.35,65.7 144.35,65.7 C144.35,65.7 152.66,67.38 147.35,77.02 C147.35,77.02 152.35,81.4 147.19,87.71 L143.03,94.61 C143.03,94.61 123.62,93.25 121.82,85 Z" id="Path" stroke="#FFFFFF"></path>
                <path d="M226,79.46 C225.771118,79.6841175 225.575772,79.9400882 225.42,80.22 C224.233071,82.0736596 223.446281,84.1547371 223.11,86.33" id="Path" stroke="#64EDFF"></path>
                <path d="M230.9,80.56 C230.026667,83.48 229.256667,86.4266667 228.59,89.4" id="Path" stroke="#64EDFF"></path>
                <line x1="235" y1="81" x2="235" y2="91.12" id="Path" stroke="#64EDFF"></line>
                <path d="M238.78,81.05 C239.548596,82.0574411 239.906014,83.3191283 239.78,84.58 C239.724329,84.9102789 239.700886,85.2451861 239.71,85.58 C239.763426,85.9753546 239.878136,86.3599689 240.05,86.72 C240.548465,87.980195 240.959439,89.2732618 241.28,90.59" id="Path" stroke="#64EDFF"></path>
                <path d="M242.93,80.22 C242.985392,81.5155768 243.203778,82.7990148 243.58,84.04 C243.832489,84.7286506 244.136689,85.3972233 244.49,86.04 C244.957447,87.0567788 245.570554,88.0000207 246.31,88.84" id="Path" stroke="#64EDFF"></path>
                <path d="M246.21,78.9 L246.56,81.9 C246.577118,82.1833156 246.634355,82.4627683 246.73,82.73 C246.833431,82.9812736 246.971429,83.2168801 247.14,83.43 C248.14,84.8 249.14,86.14 250.21,87.43" id="Path" stroke="#64EDFF"></path>
                <path d="M174.44,94.41 C174.44,94.41 179.14,96.67 179.35,101.76 C179.35,101.76 170.12,104.76 168.96,106.64 C168.96,106.64 164.37,98.57 162.85,98.64 C162.85,98.63 170.27,94.05 174.44,94.41 Z" id="Path" fill="url(#linearGradient-43)" fill-rule="nonzero"></path>
                <path d="M240.4,50.7 C240.4,50.7 236.32,58.21 238.78,62.86 C241.24,67.51 240.78,75.26 234.95,77.66 C229.12,80.06 205.46,83.94 203.51,73.77 C201.56,63.6 201.51,61.86 201.51,61.86 C201.51,61.86 209.51,55.86 222.28,64.49 C235.05,73.12 236.52,63 236.52,63 C236.52,63 234.26,49.76 240.8,46.65 L240.4,50.7 Z" id="Path" fill="url(#linearGradient-44)" fill-rule="nonzero"></path>
                <path d="M212.41,66.16 C212.41,66.16 217.93,68.07 222.41,66.61 C222.41,66.61 219.54,69.89 212.2,67.98 L212.41,66.16 Z" id="Path" fill="#E7DAD0" fill-rule="nonzero"></path>
                <circle id="Oval" fill="url(#linearGradient-45)" fill-rule="nonzero" cx="212.76" cy="180.85" r="6.92"></circle>
                <circle id="Oval" fill="url(#linearGradient-46)" fill-rule="nonzero" cx="211.46" cy="180.37" r="5.9"></circle>
                <path d="M209.53,178.38 C209.53,178.38 205.53,177.98 203.9,186.27 C202.78,191.84 211.23,234.41 187.74,228.17 C164.25,221.93 173.69,162.59 173.69,162.59" id="Path" stroke="#FFFFFF" stroke-width="5.73" stroke-linecap="round" stroke-linejoin="round"></path>
                <path d="M247.52,54.87 C246.769723,54.9658044 246.036185,55.1643308 245.34,55.46 C244.656853,55.743714 244.009141,56.1061644 243.41,56.54 L242.41,57.31 L242.97,56.17 C243.364623,55.3617361 243.833293,54.5917779 244.37,53.87 C244.643891,53.5140631 244.944781,53.1797418 245.27,52.87 C245.594334,52.5393389 246.00776,52.3100435 246.46,52.21 C246.076161,52.4212679 245.749972,52.7234213 245.51,53.09 C245.25,53.43 245.02,53.8 244.79,54.17 C244.34,54.91 243.92,55.69 243.52,56.46 L243.05,56.08 C243.702152,55.6225971 244.430013,55.2840569 245.2,55.08 C245.947288,54.8344196 246.740761,54.7625966 247.52,54.87 L247.52,54.87 Z" id="Path" fill="#927A67" fill-rule="nonzero"></path>
                <path d="M220.31,316.62 C220.31,316.62 231.31,323.78 237.69,331.21 L237.74,327.63 C237.757471,326.264914 237.293681,324.937271 236.43,323.88 L227,312.45 C226.020291,311.254458 224.599819,310.504565 223.06,310.37 L214.67,309.66 L220.32,316.66 L220.31,316.62 Z" id="Path" fill="#FFFFFF" fill-rule="nonzero"></path>
                <path d="M109.27,301.66 C109.27,301.66 122.6,291.45 132.27,289.1 L128,287.75 C126.690099,287.320225 125.268712,287.380634 124,287.92 L110.31,293.61 C108.881155,294.205472 107.752755,295.351898 107.18,296.79 L104.05,304.6 L117.16,299.27 L109.27,301.66 Z" id="Path" fill="#FFFFFF" fill-rule="nonzero"></path>
                <circle id="Oval" fill="#FFFFFF" fill-rule="nonzero" cx="155.9" cy="380.71" r="92.19"></circle>
                <path d="M198.6,327.53 C200.41,328.85 202.4,330.17 204.6,330.18 C207.21,330.18 209.45,328.42 211.46,326.75 C212.011259,326.397717 212.410779,325.851945 212.580131,325.22 C212.585789,324.633412 212.39967,324.06101 212.05,323.59 L208.31,317.21 C207.516641,315.663814 206.453246,314.271917 205.17,313.1 C202.75,311.17 199.39,311.01 196.3,311.19 C179.27,312.17 191.34,322.22 198.6,327.53 Z" id="Path" fill="#DDE6FA" fill-rule="nonzero"></path>
                <path d="M121.45,328.21 C123.45,327.15 125.45,325.91 126.45,323.89 C127.58,321.54 126.95,318.76 126.3,316.23 C126.213646,315.582221 125.893578,314.988317 125.4,314.56 C124.874731,314.295834 124.275211,314.218249 123.7,314.34 L116.33,314.98 C114.59271,315.029465 112.878594,315.391936 111.27,316.05 C108.48,317.41 106.9,320.37 105.73,323.24 C99.29,339.08 113.55,332.5 121.45,328.21 Z" id="Path" fill="#DDE6FA" fill-rule="nonzero"></path>
                <path d="M157.67,306.08 C156.320358,305.220789 154.820843,304.623697 153.25,304.32 C143.04,302.32 139.62,307.9 149.7,311.11 C154.24,312.55 168.46,313 157.67,306.08 Z" id="Path" fill="url(#linearGradient-47)" fill-rule="nonzero"></path>
                <path d="M216.21,356.67 C216.99,361.28 219.73,365.67 223.93,367.75 C224.29139,367.972695 224.723351,368.051233 225.14,367.97 C225.471375,367.832051 225.748728,367.589806 225.93,367.28 C227.134117,365.704743 228.252408,364.065696 229.28,362.37 C229.832924,361.573408 230.204949,360.665532 230.37,359.71 C230.398303,358.679624 230.20032,357.655575 229.79,356.71 C228.41,352.71 226.89,348.56 223.72,345.78 C220.55,343 218.63,342.36 217.06,346.27 C215.894974,349.607575 215.60238,353.187545 216.21,356.67 L216.21,356.67 Z" id="Path" fill="url(#linearGradient-48)" fill-rule="nonzero"></path>
                <path d="M169.6,342 C171.890696,343.488721 174.752462,343.800508 177.31,342.84 C177.545495,342.774141 177.744054,342.615294 177.86,342.4 C177.921414,342.204715 177.921414,341.995285 177.86,341.8 C177.6299,340.68603 177.342857,339.584585 177,338.5 C176.864427,337.958526 176.611835,337.453343 176.26,337.02 C175.820952,336.607911 175.294531,336.300263 174.72,336.12 C172.47,335.22 170.1,334.3 167.72,334.62 C165.34,334.94 164.31,335.54 165.41,337.69 C166.412652,339.463183 167.855828,340.947691 169.6,342 L169.6,342 Z" id="Path" fill="#DDE6FA" fill-rule="nonzero"></path>
                <circle id="Oval" fill="url(#linearGradient-49)" fill-rule="nonzero" cx="411.88" cy="91.13" r="17.49"></circle>
                <circle id="Oval" fill="url(#linearGradient-50)" fill-rule="nonzero" cx="58.34" cy="287.48" r="12.05"></circle>
                <circle id="Oval" stroke="#FFFFFF" stroke-width="4.91" cx="456.96" cy="247.82" r="58.34"></circle>
                <circle id="Oval" stroke="#FFFFFF" stroke-width="2.76" cx="329.93" cy="71.12" r="32.84"></circle>
                <path d="M37,123.4 C33.77,123.8 30.15,123.13 28.08,120.62 C26.23,118.38 26.08,115.12 26.84,112.32 C27.6707306,109.230514 29.7656729,106.634528 32.61,105.17 C35.81,103.66 39.7,104 42.78,102.26 C49.6,98.4 48.66,87 55.39,83 C57.89,81.53 60.93,81.42 63.83,81.43 C65.49,81.43 67.33,81.54 68.52,82.71 C71.34,85.47 70.52,95.09 69.08,98.38 C67.59,101.85 64.99,102.84 62.18,105.07 C54,111.59 48.32,122 37,123.4 Z" id="Path" fill="#DDE6FA" fill-rule="nonzero"></path>
            </g>
        </g>
    </g>
</svg>