<?xml version="1.0" encoding="UTF-8"?>
<svg width="37px" height="24px" viewBox="0 0 37 24" version="1.1" xmlns="http://www.w3.org/2000/svg" xmlns:xlink="http://www.w3.org/1999/xlink">
    <!-- Generator: Sketch 63.1 (92452) - https://sketch.com -->
    <title>behance</title>
    <desc>Created with Sketch.</desc>
    <g id="Page-1" stroke="none" stroke-width="1" fill="none" fill-rule="evenodd">
        <g id="Plainthing-Website" transform="translate(-354.000000, -8365.000000)" fill="#FFFFFF">
            <g id="Group-17" transform="translate(235.000000, 8361.000000)">
                <g id="behance" transform="translate(119.406400, 4.636400)">
                    <polygon id="Fill-1" points="23.7446 3.70745 32.8136 3.70745 32.8136 1.49995 23.7446 1.49995"></polygon>
                    <path d="M24.65475,12.5397 C24.67575,12.2232 24.74375,11.8652 24.85775,11.4717 C24.97225,11.0677 25.16725,10.6887 25.45475,10.3307 C25.74375,9.9777 26.12125,9.6782 26.58175,9.4382 C27.05325,9.1947 27.64075,9.0747 28.35225,9.0747 C29.44425,9.0747 30.34025,9.3907 30.86925,9.9762 C31.40025,10.5662 31.78825,11.4047 31.89475,12.5397 L24.65475,12.5397 Z M36.03525,11.7372 C35.74175,10.5862 35.27175,9.5597 34.61125,8.6622 C33.95075,7.7642 33.11025,7.0457 32.08525,6.5157 C31.05625,5.9787 29.85525,5.7142 28.48575,5.7142 C27.24475,5.7142 26.12325,5.9352 25.10725,6.3737 C24.09125,6.8137 23.21825,7.4162 22.48175,8.1807 C21.74825,8.9407 21.18975,9.8457 20.78525,10.8957 C20.38925,11.9402 20.18725,13.0722 20.18725,14.2832 C20.18725,15.5362 20.38225,16.6932 20.76925,17.7367 C21.15975,18.7867 21.70825,19.6802 22.41475,20.4367 C23.13875,21.1892 24.00025,21.7667 25.03025,22.1777 C26.06125,22.5852 27.20875,22.7922 28.48575,22.7922 C30.31625,22.7922 31.88775,22.3727 33.17625,21.5312 C34.47975,20.6927 35.43475,19.3002 36.06525,17.3502 L32.14625,17.3502 C31.99475,17.8522 31.60225,18.3352 30.95825,18.7867 C30.30675,19.2392 29.53225,19.4652 28.63375,19.4652 C27.38675,19.4652 26.42275,19.1387 25.75625,18.4872 C25.08775,17.8372 24.65475,16.6237 24.65475,15.3432 L36.34475,15.3432 C36.42875,14.0867 36.32625,12.8862 36.03525,11.7372 L36.03525,11.7372 Z" id="Fill-2"></path>
                    <path d="M13.526,17.0545 C13.3275,17.433 13.055,17.73 12.726,17.947 C12.3965,18.1735 12.0055,18.326 11.5655,18.4215 C11.131,18.5185 10.6695,18.5625 10.183,18.5625 L4.927,18.5625 L4.927,12.401 L10.2825,12.401 C11.3425,12.401 12.205,12.645 12.8505,13.1355 C13.496,13.633 13.8205,14.4505 13.8205,15.604 C13.8205,16.193 13.726,16.679 13.526,17.0545 L13.526,17.0545 Z M4.927,3.8105 L9.5355,3.8105 C9.971,3.8105 10.397,3.8415 10.802,3.9215 C11.2155,3.9915 11.571,4.1235 11.8865,4.314 C12.205,4.4965 12.4555,4.7585 12.646,5.092 C12.8295,5.426 12.921,5.8565 12.921,6.377 C12.921,7.3135 12.646,7.997 12.079,8.412 C11.5065,8.832 10.785,9.039 9.912,9.039 L4.927,9.039 L4.927,3.8105 Z M17.722,12.2855 C17.0465,11.295 16.027,10.5975 14.6495,10.2025 C15.661,9.7235 16.4175,9.108 16.9325,8.3575 C17.444,7.6045 17.699,6.665 17.699,5.538 C17.699,4.4965 17.528,3.6165 17.1875,2.913 C16.8385,2.1985 16.3505,1.6325 15.727,1.2065 C15.094,0.7805 14.3445,0.47 13.467,0.283 C12.585,0.0925 11.6185,-2.04281037e-13 10.5495,-2.04281037e-13 L-6.60804744e-13,-2.04281037e-13 L-6.60804744e-13,22.373 L10.845,22.373 C11.847,22.373 12.8265,22.246 13.7685,21.9955 C14.722,21.745 15.573,21.3605 16.3135,20.836 C17.049,20.3155 17.646,19.641 18.0835,18.8095 C18.5175,17.9885 18.7345,17.012 18.7345,15.8765 C18.7345,14.4775 18.402,13.2835 17.722,12.2855 L17.722,12.2855 Z" id="Fill-4"></path>
                </g>
            </g>
        </g>
    </g>
</svg>