<?xml version="1.0" encoding="UTF-8"?>
<svg width="200px" height="78px" viewBox="0 0 200 78" version="1.1" xmlns="http://www.w3.org/2000/svg" xmlns:xlink="http://www.w3.org/1999/xlink">
    <!-- Generator: Sketch 63.1 (92452) - https://sketch.com -->
    <title>bnp2tki</title>
    <desc>Created with Sketch.</desc>
    <defs>
        <polygon id="path-1" points="0 0.137184733 61.9737384 0.137184733 61.9737384 77.1603109 0 77.1603109"></polygon>
    </defs>
    <g id="Page-1" stroke="none" stroke-width="1" fill="none" fill-rule="evenodd">
        <g id="Plainthing-Website" transform="translate(-620.000000, -7212.000000)">
            <g id="trusted" transform="translate(135.000000, 6717.000000)">
                <g id="bnp2tki" transform="translate(485.000000, 495.000000)">
                    <g id="Group-27">
                        <g id="Group-50">
                            <g id="Group-49">
                                <g id="Group-3" transform="translate(0.000000, 0.731418)">
                                    <mask id="mask-2" fill="white">
                                        <use xlink:href="#path-1"></use>
                                    </mask>
                                    <g id="Clip-2"></g>
                                    <path d="M29.3717347,0.137184733 C28.948503,0.727841221 28.3976794,1.20044498 27.9108463,1.73178047 C26.3970539,3.38451864 25.0120204,5.13055972 23.9518017,7.11899193 C23.0281218,8.8512831 22.4123353,10.6762879 22.4205043,12.6735593 C22.4263393,14.0901921 22.7851915,15.4154861 23.4785835,16.6413881 C23.6345724,16.9173683 23.6194014,17.0747064 23.3990331,17.3000084 C20.737886,20.0218996 18.662767,23.149413 17.0980157,26.6289238 C16.7994584,27.2922583 16.5314376,27.969932 16.2295738,28.6297309 C15.5056453,30.2107731 15.3918629,31.9084931 15.2179801,33.5961954 C15.1094491,34.6484557 15.1088656,35.7066088 15.1250091,36.7639763 C15.1617696,39.1511556 15.5299578,41.4823532 16.2750868,43.7508906 C16.3314917,43.9229608 16.4310757,44.0873703 16.3927592,44.409118 C14.5292561,42.2275979 12.9458327,39.9604355 11.5427107,37.5608813 C10.1382273,35.1593627 8.98523212,32.6388093 8.06641479,29.9253645 C7.61867612,30.6285737 7.3652428,31.3378722 7.07738302,32.026153 C6.31436007,33.8497828 5.71705101,35.7256623 5.56981462,37.7127195 C5.41226973,39.8414007 5.75478398,41.8314043 7.39422328,43.3678576 C8.42254403,44.3319221 9.6920446,44.8086509 11.0523766,45.0437742 C13.7705121,45.5134315 16.4052072,45.0367028 18.9963343,44.2447085 C23.7417418,42.7944867 27.9771707,40.3735219 31.8512189,37.2752762 C34.6977243,34.9986853 37.1939355,32.3867933 39.2507714,29.3616185 C41.5246693,26.0168567 43.0896151,22.3790256 43.6130142,18.3245725 C43.6250732,18.2318588 43.5966763,18.1189132 43.7645296,18.0411281 C43.9706995,18.5618565 44.014462,19.1098883 44.0704779,19.6477059 C44.4590886,23.3878755 43.4204594,26.7972619 41.6822142,30.0402744 C40.0036804,33.1721091 37.808166,35.905786 35.2829744,38.3680005 C30.5910543,42.9431821 25.2637032,46.5531205 19.1651602,48.937157 C16.3546372,50.0359706 13.4565893,50.8106793 10.4076096,50.7348585 C8.29125663,50.6820195 6.32583557,50.1233807 4.69048076,48.6819981 C3.20975335,47.3769361 2.36795797,45.7153587 2.10655016,43.7593369 C1.74653092,41.0635705 2.39829994,38.5416421 3.45268367,36.0963203 C4.48839541,33.6940161 5.91796936,31.5392101 7.52881718,29.4985282 C7.66671758,29.3239045 7.84760245,29.1541914 7.74451753,28.8898005 C7.70950755,28.8002297 7.72993004,28.6688199 7.62139912,28.6322844 C7.49886421,28.5910347 7.46229823,28.7232302 7.40044728,28.7921762 C6.20971915,30.1170774 5.14950043,31.5452993 4.17486164,33.0363779 C3.05104146,34.7560978 1.99801924,36.5147102 1.41315816,38.5155173 C0.707123682,40.9307857 0.457385865,43.3578398 1.19648532,45.8131794 C1.94239228,48.2913045 3.57891408,49.9517033 5.90396537,50.9477855 C7.85713294,51.7845652 9.90288245,52.0035815 12.0100939,51.8609754 C16.6259645,51.5488526 20.8189924,49.9141858 24.8482515,47.7456298 C27.3641072,46.391461 29.7434239,44.8247579 31.9665573,43.0237172 C35.781283,39.9331322 39.1048966,36.396461 41.5528718,32.0842955 C43.1067311,29.3476722 44.1122954,26.4189431 44.3661177,23.26393 C44.4806781,21.8410116 44.4565601,20.4074861 44.1319399,18.9992998 C44.1047099,18.8806578 44.0272989,18.7604444 44.1276609,18.5439816 C44.4147427,19.1409238 44.6294705,19.6977948 44.7486989,20.290612 C45.312165,23.0916634 44.9000198,25.8070725 43.994623,28.4657142 C42.8031168,31.9638856 40.8042418,34.9786498 38.4422355,37.7675227 C35.757943,40.9370714 32.6476958,43.6251772 29.2350013,45.9522498 C25.7588998,48.3225364 22.0470645,50.2314156 18.0255855,51.4775496 C15.965832,52.115545 13.8679565,52.579506 11.7000611,52.6248806 C11.4509068,52.6299878 11.3200084,52.6686839 11.4332073,52.9684318 C12.1100668,54.7598475 12.8865103,56.5039243 13.8121351,58.1786623 C13.8385871,58.2263941 13.8804045,58.2656796 13.9974934,58.4118214 C13.8788485,56.0501776 14.7134474,54.1593697 16.1846443,52.4915066 C16.3542482,52.6720232 16.2486348,52.8103079 16.2200433,52.9324856 C15.9018416,54.2882259 15.7497427,55.6602696 15.7985621,57.0535275 C15.8843366,59.4966886 16.7667824,61.6163342 18.3922177,63.4122678 C19.5261519,64.6650802 20.8608099,65.6745194 22.3148909,66.5219062 C22.9384574,66.8852965 23.6133719,67.0917414 24.3345774,67.0982235 C25.1824023,67.1056878 26.0296436,67.0878129 26.8782465,67.0493132 C27.8223488,67.0066885 28.7715081,67.0952771 29.7179444,67.088795 C30.6785792,67.0821165 31.6355185,66.9978492 32.5907073,66.878618 C33.5826566,66.7546724 34.4892204,66.4177998 35.3014518,65.8440361 C36.5979879,64.9278998 38.0715188,64.5814023 39.6018437,64.6397411 C40.7262474,64.6825622 41.5894377,64.1575124 42.4792746,63.6591767 C42.9083413,63.4187499 43.0586897,62.8652181 43.3776694,62.4819887 C44.5022676,61.1307662 45.932425,60.3912179 47.6634738,60.2397726 C47.9902335,60.2112907 48.2637003,60.103845 48.5077977,59.8901322 C48.8711234,59.5723131 49.2373666,59.2578332 49.6073054,58.9478711 C49.8747427,58.7241406 50.0482365,58.4664281 50.1384845,58.108145 C50.5280677,56.5602989 51.5713649,55.5125564 52.9731254,54.9653103 C54.0382066,54.549474 54.6432957,53.7549261 55.3040117,52.9472176 C55.4633071,52.7523619 55.4656411,52.5170421 55.4761441,52.2968473 C55.566392,50.4349142 56.5412253,49.1536198 58.0696052,48.2361085 C58.6564112,47.8839146 58.9051765,47.3333292 58.9985365,46.6933695 C59.0846999,46.1009452 59.1064839,45.5000745 59.3042903,44.9257214 C59.5098766,44.3285829 59.8331354,43.8178722 60.334945,43.4393571 C60.5418928,43.2833939 60.6494513,43.0954131 60.7165537,42.8492899 C61.2319783,40.9576963 61.5262566,39.0248529 61.7878589,37.0855275 C61.8084759,36.9332965 61.8152834,36.7798869 61.9613528,36.5257101 C61.9613528,37.1399379 61.9926673,37.6310058 61.9557123,38.1167702 C61.8253974,39.8268651 61.6240901,41.5275315 61.1469819,43.1818411 C61.0901879,43.3792504 61.0899934,43.5748918 61.1321999,43.7742654 C61.4095567,45.0799168 60.9166941,46.1211772 60.0354152,47.0284743 C59.582814,47.4943995 59.3033178,48.0345742 59.3445517,48.7059623 C59.4174892,49.8904181 59.0008705,50.8896431 58.2148966,51.7446905 C57.8877478,52.1006165 57.549707,52.4478998 57.1593458,52.7356656 C56.4365844,53.268376 55.9870952,54.0430848 55.4331596,54.7246871 C55.3569156,54.8183828 55.3024557,54.9547033 55.2933142,55.075506 C55.1495788,56.9739745 53.9895816,58.1376091 52.3966278,58.8217649 C51.2039547,59.3338505 50.3252043,60.1790766 49.4124165,61.0225349 C49.3027186,61.1236948 49.2377556,61.2806402 49.1700697,61.4206927 C48.2424999,63.334679 46.6948645,64.4307426 44.63939,64.6784373 C43.5721693,64.8069006 42.7330969,65.3260576 41.8453995,65.8094649 C41.7310336,65.8717323 41.6503162,65.9666066 41.5836027,66.0817129 C40.5749265,67.8134148 38.9833341,68.5362668 37.0861825,68.7486046 C36.3099336,68.8354254 35.5338792,68.832479 34.7562687,68.8238362 C34.5557394,68.8214791 34.3659075,68.8534967 34.1760757,68.9244069 C32.2044306,69.6627766 30.1732686,70.1491303 28.0829786,70.3828786 C28.0471907,70.3870036 28.0141257,70.4139141 27.9900077,70.4891457 C37.4954102,73.5092134 46.2407073,71.4977992 54.5713307,66.3180148 C54.3678839,66.735619 54.0650476,66.9956885 53.8339818,67.3078113 C53.4358406,67.8464146 53.0301139,68.3805001 52.7716235,69.0057277 C52.4088813,69.882775 52.7405036,70.3981999 53.6744919,70.4455389 C54.7792511,70.5013242 55.8361633,70.2385046 56.893659,69.9711673 C57.0410899,69.9340425 57.1896878,69.9010428 57.3421757,69.8649002 C57.3799087,70.0287204 57.2548453,70.0509167 57.1859923,70.0984521 C52.0161861,73.6769622 46.3754957,76.0686594 40.1328283,76.8665465 C32.7070182,77.8154861 25.6865459,76.459353 19.0947512,72.8863428 C16.642497,71.5573166 14.3966072,69.9206855 12.3572761,68.0029671 C9.07431305,64.9161141 6.48357495,61.3305327 4.74708022,57.1401519 C3.8198994,54.9030429 3.17668837,52.5824524 2.8631546,50.1734696 C2.83281262,49.9393284 2.7349792,49.7515441 2.56829282,49.5759382 C1.10448689,48.0355563 0.302758478,46.1852124 0.0742211456,44.0712633 C0.0606061556,43.9455499 0.0252071815,43.8221936 -7.7799943e-05,43.6978552 L-7.7799943e-05,41.8113687 C0.0236511827,41.7151194 0.0615786549,41.6200487 0.0689696495,41.5224244 C0.161746082,40.3195044 0.414401396,39.1482092 0.790175121,38.0069674 C2.02427672,34.2583513 4.18128014,31.1194452 7.06785252,28.4875176 C7.45568524,28.1339487 7.45782474,27.8408794 7.34618182,27.4112932 C6.34081205,23.5408923 6.08309974,19.6121525 6.54017441,15.6431452 C6.92392263,12.3119369 7.86432944,9.13138824 9.24041593,6.08166006 C9.2882629,5.97539296 9.30323938,5.82276906 9.46914776,5.81216199 C9.54014021,5.90723274 9.50804773,6.00682131 9.49618324,6.10444561 C9.12507751,9.12588828 8.85063822,12.1532238 9.10893403,15.2003984 C9.22971844,16.6276382 9.46545227,18.0368067 10.1158598,19.3353867 C10.8386213,20.7783406 12.0875048,21.5086568 13.6314447,21.3733185 C14.4108056,21.3051583 15.1475711,21.0562851 15.8818081,20.784037 C16.4380777,20.5779849 16.8052934,20.2931655 16.8105449,19.6408309 C16.8128789,19.3603329 16.9111013,19.0802278 16.9675063,18.8005155 C17.7482287,14.9206861 18.8136989,11.1422131 20.788067,7.67900578 C22.1855484,5.22759474 23.9656111,3.1427168 26.3334524,1.59212075 C27.2168708,1.01344632 28.1706981,0.58582438 29.1169399,0.137184733 L29.3717347,0.137184733 Z" id="Fill-1" fill="#D0CDCD" mask="url(#mask-2)"></path>
                                </g>
                                <path d="M57.2735463,21.638635 C57.995547,22.2457682 58.6448578,22.7564151 59.2547868,23.311063 C62.891045,26.6174429 65.7237958,30.5135924 67.6372447,35.0634411 C68.9186245,38.110354 69.697053,41.2829554 69.9286418,44.5962413 C70.3320609,50.3688409 69.0152178,55.734383 66.2253757,60.7528509 C64.3213314,64.1788027 61.7965821,67.1083141 58.9579534,69.7765826 C58.8378485,69.8892485 58.6963873,69.9441016 58.5466971,69.99343 C56.9725984,70.5131534 55.3481457,70.6737664 53.7027286,70.6790939 C53.567929,70.6794885 53.3900249,70.7373013 53.3126327,70.5849754 C53.244841,70.4508023 53.395119,70.3558946 53.4611473,70.2532917 C54.1743312,69.1453772 54.9131819,68.0536424 55.5989356,66.9289562 C55.9953013,66.2786114 56.5297974,65.7811844 57.0807515,65.2813897 C62.1077183,60.7193076 65.4036467,55.1706587 66.4307099,48.3763706 C67.1386037,43.6939273 66.6125326,39.1127058 65.0903553,34.6374416 C63.7452983,30.68269 61.7213451,27.1148699 59.0931449,23.8895857 C58.5878423,23.2694299 58.0892014,22.6411841 57.5108171,22.0841685 C57.4224528,21.9989292 57.3060706,21.9263178 57.2735463,21.638635" id="Fill-4" fill="#BBBBBB"></path>
                                <path d="M41.3636364,18.875564 C40.316578,19.2434982 39.3086748,19.5740086 38.3177193,19.9498215 C34.2009781,21.5101932 30.3826729,23.6078907 27.0515663,26.5344249 C23.769355,29.4180203 21.2197923,32.8682895 19.3884629,36.8655357 C18.3659495,39.0971707 17.5906394,41.4091682 16.9988323,43.7895132 C16.9698068,43.9063145 16.9896766,44.0544336 16.7907842,44.1540989 C16.6742929,43.7207717 16.5443602,43.3049746 16.4510503,42.8809049 C15.3671745,37.9583081 15.9324886,33.216527 17.9368017,28.6153802 C19.4192415,25.21258 21.4960209,22.2115924 23.8661714,19.3985111 C24.150192,19.0615007 24.3699282,18.5919317 24.7681026,18.4526761 C25.1869259,18.3063296 25.5642565,18.7254752 25.9669113,18.875761 C27.1483827,19.3173607 28.3740741,19.5521453 29.6182716,19.6141899 C31.5559626,19.7109006 33.4938485,19.6468864 35.4249163,19.4107231 C37.2642325,19.1859838 39.10725,18.9925623 40.9490987,18.7896864 C41.068512,18.7766866 41.2005875,18.738869 41.3636364,18.875564" id="Fill-6" fill="#BBBBBB"></path>
                                <path d="M28.2741608,9.57677931 C30.6488376,9.58436559 32.6285142,11.6113443 32.6136364,14.0201545 C32.598964,16.4079725 30.5772064,18.4336274 28.2206712,18.4221401 C25.8235511,18.4101766 23.8507945,16.3854673 23.8636364,13.9503696 C23.8764171,11.5566889 25.8805942,9.56923607 28.2741608,9.57677931" id="Fill-12" fill="#BBBBBB"></path>
                                <path d="M16.7045455,18.8627014 C16.695831,20.3727345 15.4059025,21.649169 13.8994741,21.6385694 C12.4105835,21.6279698 11.1313389,20.3209596 11.1363636,18.8150033 C11.141418,17.3212773 12.4515048,16.0048905 13.9283005,16.009769 C15.449646,16.0146747 16.7133687,17.3133276 16.7045455,18.8627014" id="Fill-25" fill="#BBBBBB"></path>
                            </g>
                            <g id="Group-48" transform="translate(83.000000, 30.000000)" fill="#BBBBBB">
                                <path d="M6.62755512,4.66182709 C6.62755512,5.3585053 6.63025741,6.0554829 6.6263541,6.7521611 C6.62455258,7.04466416 6.6837027,7.2775888 7.04340754,7.28207964 C8.46241008,7.29914481 9.89132102,7.37129756 11.2451684,6.83299614 C12.1456315,6.47522628 12.703204,5.85279654 12.7422371,4.81900632 C12.7830717,3.73581691 12.3648172,2.94722628 11.3634686,2.52628534 C10.023433,1.96223646 8.61884265,1.88529349 7.18722942,2.061933 C6.74195207,2.11702058 6.60773833,2.350544 6.62124978,2.76759288 C6.64196733,3.3984055 6.62665436,4.03041569 6.62755512,4.66182709 M8.14263909,9.2894829 C7.79404367,9.2894829 7.445148,9.29337495 7.09655258,9.28828534 C6.76837446,9.28379451 6.62515309,9.43827923 6.62664268,9.76491263 C6.63386046,11.4381978 6.62725487,13.1117823 6.64316835,14.7850674 C6.64677141,15.1778658 6.79629812,15.5362344 7.24427777,15.6029982 C8.94972306,15.8556825 10.6416569,15.8535868 12.2393108,15.1036173 C13.2835958,14.6132181 13.801835,13.7584625 13.7603999,12.5890491 C13.7186645,11.4025705 13.0983388,10.5885318 12.0795755,10.0625053 C10.8473312,9.42630367 9.50068998,9.31612852 8.14263909,9.2894829 M14.3485984,7.95869878 C15.0532956,8.26706946 15.6493007,8.52544216 16.1861556,8.9029717 C18.500517,10.5307497 18.6353312,13.8635481 16.4458757,15.6607802 C14.7671531,17.0388678 12.7506442,17.4526234 10.6611734,17.6592018 C7.82346861,17.9400287 4.99957548,17.3762792 2.16367217,17.5316621 C1.663148,17.5595053 1.15962128,17.5442365 0.657595834,17.5385481 C-0.10865353,17.5295664 0.0907154265,16.9110287 0.0147510499,16.4858963 C-0.0723227414,16.0002874 0.237539854,15.9125664 0.642583111,15.8922079 C1.12028795,15.8679574 1.59829303,15.8080796 2.0711938,15.7311367 C2.61405385,15.6428169 2.90740245,15.3368413 2.90650169,14.7491407 C2.90109711,10.7648719 2.90289863,6.78030367 2.91610983,2.79603483 C2.91791136,2.26581691 2.65008438,2.04486783 2.17628286,1.99337292 C1.65594189,1.93648901 1.13470016,1.86673137 0.612557666,1.85625275 C0.160074205,1.8469717 -0.0516051842,1.6616499 0.0234584291,1.22214685 C0.0964202611,0.796415687 -0.142282029,0.16260917 0.619763773,0.132969659 C1.09716835,0.11470693 1.57727522,0.185362734 2.05648133,0.197338294 C4.21831339,0.251527704 6.3732396,0.100336258 8.53146861,0.017704893 C10.497835,-0.0577411355 12.4651022,0.0859655855 14.3116671,0.879346441 C16.2155806,1.69727719 17.0668019,3.07087394 16.8449139,4.90972119 C16.7251124,5.90069878 16.1903592,6.64767434 15.4202065,7.24046457 C15.1121455,7.47788005 14.7734584,7.67607557 14.3485984,7.95869878" id="Fill-8"></path>
                                <path d="M92.2792513,17.6527949 C91.1220706,17.6530943 89.963689,17.6279456 88.8074091,17.6623754 C88.1291343,17.6830332 88.1021114,17.2752654 88.059175,16.7827705 C88.0186406,16.3136279 88.0378569,15.9486727 88.6467729,15.9750189 C88.6894091,15.9771147 88.7323455,15.9567562 88.7755821,15.9543611 C90.8986813,15.8343061 90.5599943,15.3001961 90.5650986,13.9113306 C90.5777093,10.3396198 90.5705032,6.76820836 90.5687017,3.19619817 C90.5681012,2.21899247 90.4467984,2.09085398 89.4568594,1.99085805 C89.326549,1.97768493 89.1953378,1.97618799 89.0641266,1.97109838 C87.9309663,1.92888453 87.9528849,1.93098025 88.0477653,0.819348885 C88.0861979,0.369965993 88.2651495,0.216080046 88.6984167,0.21787638 C91.078834,0.227456828 93.458951,0.22685805 95.8390681,0.21787638 C96.2606254,0.216080046 96.5302538,0.337631981 96.4906203,0.804379435 C96.453689,1.23789471 96.7083047,1.82200265 95.9351495,1.89834685 C95.5241012,1.93906375 95.1136533,2.00343239 94.7080096,2.08157292 C94.263633,2.16749756 94.0249307,2.45161772 94.0219281,2.90758717 C94.0120198,4.32309838 94.011119,5.73831019 93.9988086,7.15412078 C93.994605,7.62745479 94.214091,7.59272567 94.5302589,7.41997821 C95.0713175,7.12388249 95.5241012,6.71222261 95.9909969,6.31972363 C97.3772717,5.15480102 98.7317195,3.95455051 99.9918874,2.65250774 C100.132707,2.5067053 100.39603,2.38006375 100.281333,2.12498432 C100.187353,1.91511263 99.9357399,1.99325316 99.7477806,1.96810449 C99.6616075,1.9567277 99.5733327,1.95582954 99.4859587,1.95702709 C99.004951,1.96271548 98.628432,1.90672974 98.682778,1.24987027 C98.7566406,0.356792877 98.8299027,0.224462938 99.5682284,0.223265382 C101.773898,0.220271492 103.979567,0.243324445 106.184636,0.209493488 C106.859007,0.199014873 106.955689,0.527145219 107.017541,1.08011671 C107.084198,1.67620021 106.88633,1.92169919 106.307139,1.93636925 C104.551552,1.98067882 103.13405,2.80160347 101.84746,3.90275622 C100.423053,5.12216762 99.0145592,6.36044053 97.584147,7.57326538 C97.2505643,7.8558886 97.1833073,8.04659939 97.520493,8.39778269 C99.5294956,10.4893143 101.533694,12.5838397 103.684417,14.5346585 C104.566564,15.3343265 105.500356,15.9603489 106.755419,15.9265179 C107.236427,15.9136442 107.386254,16.1648316 107.325602,16.6426564 C107.197694,17.6530943 107.217211,17.65519 106.196045,17.6536931 C104.929572,17.6515974 103.662798,17.6393224 102.396625,17.6557888 C102.011399,17.660579 101.766692,17.529746 101.514178,17.2300576 C99.4057907,14.7253693 97.0526966,12.450911 94.7464421,10.1330413 C94.583404,9.96897618 94.3798315,9.73994359 94.1324218,9.84293341 C93.8922182,9.94292933 94.0054142,10.2312409 94.0039129,10.4351249 C93.9955058,11.9159029 94.0267322,13.397579 93.9873989,14.8774589 C93.9705846,15.5184507 94.2363098,15.8085587 94.8326152,15.8624487 C95.2019281,15.8953815 95.5733429,15.9040638 95.9435566,15.928913 C96.6794803,15.9786116 96.457292,16.5441574 96.4933226,16.9627033 C96.5308544,17.3971167 96.3990427,17.667465 95.8820045,17.6590821 C94.6812869,17.6393224 93.4802691,17.6524955 92.2792513,17.6527949" id="Fill-10"></path>
                                <path d="M31.0610615,11.8611745 C31.2736416,11.6788466 31.2069851,11.4920279 31.2069851,11.3300585 C31.2108885,8.65082628 31.2141913,5.9715941 31.2033821,3.29266131 C31.198578,2.17025194 31.0874839,2.06456762 29.9969597,1.95469186 C29.1613516,1.87086294 28.800746,1.20353238 29.1718605,0.450561512 C29.2817536,0.227217317 29.4673108,0.214642979 29.6642778,0.214044201 C31.3676213,0.210152144 33.071265,0.216439313 34.7746086,0.203532379 C35.2261913,0.200272306 35.3571022,0.44217862 35.3150666,0.821504486 C35.2727307,1.20562058 35.5510666,1.71787516 34.8514737,1.84960632 C33.3814279,2.12594237 33.33669,2.1657611 33.3300844,3.65641895 C33.3108681,7.96911752 33.3180742,12.2815167 33.3138706,16.5945147 C33.3132701,17.4678324 32.58155,18.0408629 31.7474432,17.8244047 C31.5081404,17.7624312 31.4252701,17.5438772 31.3030666,17.369034 C28.549433,13.4380564 25.415377,9.79958188 22.4963032,5.99584461 C22.4434584,5.92728453 22.4086289,5.84405438 22.3713974,5.77848819 C22.129092,5.93716436 22.2020538,6.10631915 22.2017536,6.24313992 C22.1972498,8.9660829 22.193947,11.6887265 22.2035551,14.4113701 C22.2074584,15.6137163 22.3539826,15.8170014 23.523774,15.8675982 C24.2398808,15.8981359 24.322751,16.2220748 24.3089393,16.814865 C24.2942269,17.4375941 24.0549241,17.6827937 23.4391022,17.6307 C21.891891,17.5001664 20.3446798,17.5286084 18.7947663,17.6181257 C18.1053821,17.6579444 18.0255144,17.4807061 17.963662,16.6142743 C17.9219266,16.0316633 18.2158757,15.927476 18.7013872,15.8924475 C19.8414533,15.8095167 20.0606391,15.5972499 20.0669444,14.4356206 C20.0867612,10.8420544 20.0873617,7.2481888 20.0702472,3.65432322 C20.0651429,2.55466742 19.6294737,2.10917658 18.5278401,1.9208609 C17.7381709,1.78613585 17.4535297,1.25442098 17.7459775,0.492176583 C17.8465628,0.229911818 18.048634,0.20835581 18.2726238,0.208655199 C19.3211124,0.210451533 20.3696009,0.226019761 21.417489,0.212247867 C21.8708732,0.205960698 22.0651378,0.529600209 22.2903287,0.813420983 C24.7842421,3.95490978 27.272751,7.1011888 29.7639622,10.2450727 C30.1915246,10.7842723 30.6256925,11.3186817 31.0610615,11.8611745" id="Fill-14"></path>
                                <path d="M42.9381068,5.70705398 L42.9357047,5.70705398 C42.9357047,6.59893381 42.9345037,7.49051426 42.9366055,8.3823941 C42.937206,8.64495825 42.9134859,8.9239888 43.2812976,8.98057332 C44.9459083,9.23565275 46.5690839,9.16469756 47.9610635,8.09947149 C49.0350737,7.27764868 49.2767785,6.09596029 49.090921,4.81218025 C48.9113689,3.57031467 48.1286055,2.87752852 46.9738269,2.49880143 C45.9316437,2.15719858 44.8669414,2.21737577 43.7995368,2.21797455 C43.1876182,2.21857332 42.9299999,2.50688493 42.936005,3.09698066 C42.9447124,3.9670051 42.9381068,4.83702954 42.9381068,5.70705398 M40.0145292,0.338709781 C41.9055317,0.441699598 43.883608,0.119557032 45.8724935,0.209074343 C47.320921,0.274041757 48.7408243,0.463554995 50.0880661,1.03359165 C53.6971246,2.56017618 54.2598014,6.87616803 51.1407582,9.25511304 C49.0098523,10.8801965 46.5321526,11.2427566 43.9415572,11.0517464 C42.9333027,10.977498 42.936005,10.9272006 42.9354045,11.9053045 C42.934804,12.8855041 42.9263969,13.8657037 42.9402086,14.8453045 C42.9510177,15.6279073 43.1179592,15.794667 43.8767022,15.9045428 C44.4612976,15.9886711 45.0464935,16.0524409 45.6376946,16.0326813 C46.0577505,16.01861 46.2610228,16.2135122 46.1952671,16.6260703 C46.1280101,17.04761 46.4303663,17.6643513 45.6635164,17.7493778 C45.3830788,17.7805143 45.0960355,17.7715326 44.8125953,17.7589583 C42.4561984,17.655669 40.1001017,17.6900988 37.7437047,17.7580601 C36.9513332,17.7805143 36.5105597,17.0218625 36.8633587,16.2928503 C36.9813587,16.0494471 37.2110533,16.0644165 37.4251348,16.0434593 C39.3872976,15.8551436 39.4332365,15.8063432 39.4338371,13.8252862 C39.4347378,10.384109 39.4359388,6.94263239 39.4323358,3.5014552 C39.4311348,2.29312119 39.2978218,2.16019247 38.0947022,2.09073422 C37.9205546,2.08055499 37.7461068,2.06857943 37.57286,2.04672404 C36.6729974,1.93445316 36.6102442,1.82846946 36.7489617,0.920722001 C36.8129159,0.503373732 36.9837607,0.317153773 37.4281373,0.331225056 C38.2571399,0.357571288 39.0876437,0.338709781 40.0145292,0.338709781" id="Fill-16"></path>
                                <path d="M59.0146309,14.7045018 C60.8644986,14.7045018 62.7350839,14.7413267 64.6023663,14.6859397 C65.3136691,14.6643837 65.6124223,14.0054285 65.9409007,13.4587442 C66.1129465,13.1731271 66.1456742,12.6857218 66.5516182,12.6836261 C67.0197149,12.6809316 67.494117,12.8294285 67.9547073,12.953675 C68.1759948,13.0132534 68.1159439,13.2428847 68.071206,13.405453 C67.7229108,14.6643837 67.3626055,15.9203206 67.2680254,17.2325426 C67.2494096,17.4933104 67.0854706,17.6151617 66.8335572,17.6274367 C66.6807276,17.6349214 66.5278981,17.6388134 66.3753689,17.6388134 C62.5318116,17.6394122 58.6882544,17.6403104 54.8446971,17.6376159 C54.5027073,17.6373165 54.1550126,17.688512 53.9181119,17.3106831 C53.6118523,16.822679 53.5590075,16.4628134 54.0796488,16.0379805 C56.1408956,14.356013 58.1793231,12.6453043 60.2015368,10.917231 C61.3157811,9.96517394 62.3519592,8.93138371 62.9933027,7.57994176 C63.5232518,6.46322078 63.6640712,5.31865662 62.8053434,4.32737964 C61.8682493,3.24568717 60.6059795,2.96426151 59.2272111,3.28341019 C57.9613383,3.57591324 57.2638472,4.40821467 57.0254452,5.67343259 C56.9707989,5.96354053 57.0899999,6.4135222 56.6672416,6.50423707 C56.1514045,6.615011 55.6199541,6.52429614 55.124234,6.3455609 C54.9158574,6.27011487 54.9479846,6.01593361 54.941379,5.8228277 C54.9041475,4.73574624 54.990921,3.64477271 54.8263816,2.5615833 C54.7894503,2.31818005 54.9038472,2.14393565 55.1182289,2.02777271 C58.2108498,0.358080249 61.3851399,-0.132318936 64.6308905,1.53228392 C67.0266208,2.76067699 67.7760559,5.23931854 66.586748,7.65029817 C65.9544121,8.93108432 64.9788854,9.92565459 63.8907633,10.8109479 C62.4528447,11.9809601 60.9812976,13.1093572 59.5280661,14.2611067 C59.3316997,14.4164896 59.0890941,14.5329519 59.0146309,14.7045018" id="Fill-18"></path>
                                <path d="M78.4390823,0.22332526 C81.014665,0.223025871 83.590548,0.239791655 86.1658304,0.211199061 C86.8128788,0.204463753 87.0215556,0.432897561 86.9479933,1.05233341 C86.7933622,2.34868779 86.7101918,3.65102994 86.6993826,4.95726416 C86.6966803,5.27491589 86.5591638,5.42131711 86.2447974,5.47580591 C85.2218304,5.65244542 85.0299678,5.53688127 84.8017745,4.54949634 C84.7726498,4.42225601 84.7435251,4.29531508 84.7110976,4.16897292 C84.3114589,2.61664094 83.8616778,2.25976925 82.2376014,2.21935174 C81.7358762,2.2067774 81.2323495,2.23491996 80.7324259,2.20288534 C80.1979729,2.16905438 80.0019068,2.36754929 80.0094131,2.91423361 C80.0349348,4.78601365 80.0190213,6.65839247 80.0193215,8.5304719 C80.0193215,10.5552397 80.0148177,12.5797082 80.0217236,14.6041766 C80.0253266,15.6259912 80.2081816,15.8116124 81.2299475,15.8906511 C81.4037948,15.9041236 81.5788432,15.9056206 81.753291,15.911309 C82.8116879,15.9457387 82.7855658,15.9451399 82.7663495,16.965757 C82.7561409,17.5187285 82.5192401,17.6675249 82.0040035,17.6636328 C79.6250874,17.6462682 77.2452706,17.6333945 74.8669551,17.6693212 C74.1553521,17.6803986 74.1304309,17.2615534 74.0535658,16.764867 C73.9622885,16.1804597 74.2301154,15.9768752 74.7642681,15.9574149 C75.1125633,15.9448405 75.4614589,15.9119077 75.8067516,15.8640055 C76.3814386,15.7846674 76.6976065,15.4858772 76.6919017,14.8628487 C76.6789907,13.4916471 76.6979068,12.120146 76.6988075,10.748645 C76.7009093,8.22359817 76.7003088,5.69825194 76.6991078,3.1732051 C76.6985073,2.21096884 76.6961052,2.20767557 75.7049653,2.21037007 C75.1810213,2.21156762 74.6561765,2.20827434 74.1337337,2.23971019 C72.9966701,2.30827027 72.449006,2.76394033 72.1382427,3.87676925 C72.0445633,4.21178554 71.9406752,4.54829878 71.8950365,4.89139858 C71.8340849,5.34796681 71.6100951,5.50754115 71.1516065,5.50424787 C70.0562783,5.49496681 70.0208483,5.46921935 70.0070365,4.37585072 C69.9920238,3.22380184 70.07009,2.06726212 69.8767261,0.922398579 C69.7794437,0.346374139 70.0664869,0.21434359 70.5811231,0.217038091 C73.2005429,0.230809985 75.8196625,0.22332526 78.4390823,0.22332526" id="Fill-20"></path>
                                <path d="M114.466704,9.07137801 C114.466704,10.8557365 114.466404,12.6400949 114.466704,14.4247528 C114.467004,15.7501479 114.519849,15.8354737 115.846373,15.8824778 C116.421661,15.9028363 116.600613,16.1109116 116.5862,16.6665776 C116.560679,17.6237242 116.575391,17.651268 115.589656,17.6285145 C113.780923,17.5866 111.970989,17.5354045 110.164058,17.6407894 C109.473473,17.6815063 109.326949,17.3509809 109.288816,16.7498077 C109.248882,16.1195939 109.47047,15.9124167 110.088694,15.8875674 C111.154898,15.8444554 111.391198,15.5768016 111.3933,14.526545 C111.400506,10.6527507 111.388496,6.77925581 111.40501,2.9057609 C111.407712,2.26506844 111.13448,1.98124766 110.519559,1.96807455 C110.432185,1.96627821 110.345111,1.95699715 110.258338,1.94741671 C109.213452,1.83394827 109.060323,1.60162241 109.309834,0.569927907 C109.374088,0.304968641 109.526317,0.213056217 109.772226,0.213056217 C111.866801,0.212457439 113.961376,0.208565382 116.056251,0.214253773 C116.627035,0.216050107 116.548669,0.669923834 116.56218,1.02110713 C116.575091,1.37079349 116.688287,1.78005825 116.107895,1.85011528 C114.610526,2.03094624 114.447488,1.983044 114.463401,3.84853687 C114.478414,5.58918453 114.466704,7.33043096 114.466704,9.07137801" id="Fill-22"></path>
                            </g>
                        </g>
                    </g>
                </g>
            </g>
        </g>
    </g>
</svg>