<?xml version="1.0" encoding="utf-8"?>
<!-- Generator: Adobe Illustrator 19.0.0, SVG Export Plug-In . SVG Version: 6.00 Build 0)  -->
<svg version="1.1" id="Layer_1" xmlns="http://www.w3.org/2000/svg" xmlns:xlink="http://www.w3.org/1999/xlink" x="0px" y="0px"
	 viewBox="0 0 925.7 1023.9" style="enable-background:new 0 0 925.7 1023.9;" xml:space="preserve">
<style type="text/css">
	.st0{fill:#13032B;}
	.st1{fill:url(#XMLID_349_);}
	.st2{fill:url(#XMLID_350_);}
	.st3{fill:#965EE5;}
	.st4{fill:url(#XMLID_351_);}
	.st5{fill:url(#XMLID_352_);}
	.st6{fill:url(#XMLID_353_);}
	.st7{fill:url(#XMLID_354_);}
	.st8{fill:url(#XMLID_355_);}
	.st9{fill:url(#XMLID_356_);}
	.st10{opacity:0.3;fill:none;stroke:#FFFFFF;stroke-width:0.6411;stroke-linecap:round;stroke-miterlimit:10;}
	.st11{opacity:0.3;fill:#01030A;}
	.st12{fill:url(#XMLID_357_);}
	.st13{fill:url(#XMLID_358_);}
	.st14{fill:none;stroke:#F2E9FF;stroke-width:1.4261;stroke-linecap:round;stroke-miterlimit:10;}
	.st15{fill:#E8677A;}
	.st16{fill:#FC8F9A;}
	.st17{fill:url(#XMLID_359_);}
	.st18{fill:url(#XMLID_360_);}
	.st19{fill:url(#XMLID_361_);}
	.st20{opacity:0.7;fill:#FFFFFF;}
	.st21{fill:url(#XMLID_362_);}
	.st22{fill:url(#XMLID_363_);}
	.st23{opacity:0.1;fill:#01030A;}
	.st24{fill:url(#XMLID_364_);}
	.st25{fill:url(#XMLID_365_);}
	.st26{fill:url(#XMLID_366_);}
	.st27{opacity:0.7;fill:none;stroke:#FFFFFF;stroke-width:0.7531;stroke-miterlimit:10;}
	.st28{fill:url(#XMLID_367_);}
	.st29{fill:url(#XMLID_368_);}
	.st30{fill:url(#XMLID_369_);}
	.st31{fill:url(#XMLID_370_);}
	.st32{fill:url(#XMLID_371_);}
	.st33{fill:url(#XMLID_372_);}
	.st34{fill:url(#XMLID_373_);}
	.st35{fill:url(#XMLID_374_);}
	.st36{fill:url(#XMLID_375_);}
	.st37{opacity:0.7;}
	.st38{fill:#FFFFFF;}
	.st39{fill:#FCCAD1;}
	.st40{fill:#0F0211;}
	.st41{fill:url(#XMLID_376_);}
	.st42{fill:url(#XMLID_377_);}
	.st43{fill:url(#XMLID_378_);}
	.st44{fill:url(#XMLID_379_);}
	.st45{fill:url(#XMLID_380_);}
	.st46{fill:url(#XMLID_381_);}
	.st47{fill:none;stroke:#F2E9FF;stroke-width:0.676;stroke-linecap:round;stroke-miterlimit:10;}
	.st48{fill:url(#XMLID_382_);}
	.st49{opacity:0.3;fill:none;stroke:#FFFFFF;stroke-width:1.2822;stroke-linecap:round;stroke-miterlimit:10;}
	.st50{fill:url(#XMLID_383_);}
	.st51{fill:url(#XMLID_384_);}
	.st52{fill:#EA7586;}
	.st53{fill:url(#XMLID_385_);}
	.st54{fill:url(#XMLID_386_);}
	.st55{fill:url(#XMLID_387_);}
	.st56{fill:url(#XMLID_388_);}
	.st57{fill:url(#XMLID_389_);}
	.st58{fill:url(#XMLID_390_);}
	.st59{fill:url(#XMLID_391_);}
	.st60{fill:url(#XMLID_392_);}
	.st61{fill:url(#XMLID_393_);}
	.st62{fill:url(#XMLID_394_);}
	.st63{fill:url(#XMLID_395_);}
	.st64{fill:url(#XMLID_396_);}
	.st65{fill:url(#XMLID_397_);}
	.st66{fill:url(#XMLID_398_);}
	.st67{fill:#B192E0;}
	.st68{fill:url(#XMLID_399_);}
	.st69{fill:url(#XMLID_400_);}
	.st70{fill:url(#XMLID_401_);}
	.st71{fill:url(#XMLID_402_);}
	.st72{fill:url(#XMLID_403_);}
	.st73{fill:url(#XMLID_404_);}
	.st74{fill:url(#XMLID_405_);}
	.st75{fill:url(#XMLID_406_);}
	.st76{opacity:0.5;fill:#FFFFFF;}
	.st77{fill:url(#XMLID_407_);}
	.st78{fill:url(#XMLID_408_);}
	.st79{fill:url(#XMLID_409_);}
	.st80{fill:#571D7C;}
	.st81{fill:#5A215B;}
	.st82{fill:url(#XMLID_410_);}
	.st83{fill:url(#XMLID_411_);}
	.st84{fill:url(#XMLID_412_);}
	.st85{fill:url(#XMLID_413_);}
	.st86{fill:url(#XMLID_414_);}
	.st87{fill:url(#XMLID_415_);}
	.st88{fill:url(#XMLID_416_);}
	.st89{fill:url(#XMLID_417_);}
	.st90{fill:none;stroke:#965EE5;stroke-width:0.6582;stroke-linecap:round;stroke-miterlimit:10;}
	.st91{opacity:0.2;fill:#655087;}
	.st92{fill:url(#XMLID_418_);}
	.st93{fill:url(#XMLID_419_);}
	.st94{fill:url(#XMLID_420_);}
	.st95{fill:url(#XMLID_421_);}
	.st96{fill:url(#XMLID_422_);}
	.st97{fill:url(#XMLID_423_);}
	.st98{fill:url(#XMLID_424_);}
	.st99{fill:url(#XMLID_425_);}
	.st100{fill:url(#XMLID_426_);}
	.st101{fill:none;stroke:#F2E9FF;stroke-width:0.5272;stroke-linecap:round;stroke-miterlimit:10;}
	.st102{fill:#F8C9CD;}
	.st103{fill:url(#XMLID_427_);}
	.st104{fill:url(#XMLID_428_);}
	.st105{fill:url(#XMLID_429_);}
	.st106{fill:#060007;}
	.st107{fill:url(#XMLID_430_);}
	.st108{fill:url(#XMLID_431_);}
	.st109{fill:url(#XMLID_432_);}
	.st110{fill:url(#XMLID_433_);}
	.st111{fill:url(#XMLID_434_);}
	.st112{fill:url(#XMLID_435_);}
	.st113{opacity:0.4;fill:url(#XMLID_436_);}
	.st114{fill:url(#XMLID_437_);}
	.st115{fill:url(#XMLID_438_);}
	.st116{fill:url(#XMLID_439_);}
	.st117{opacity:0.8;fill:url(#XMLID_440_);}
	.st118{fill:none;stroke:url(#XMLID_441_);stroke-width:2.5643;stroke-linecap:round;stroke-miterlimit:10;}
	.st119{opacity:0.3;fill:#380404;}
	.st120{opacity:0.7;fill:none;stroke:#965EE5;stroke-width:2.6326;stroke-linecap:round;stroke-miterlimit:10;}
	.st121{fill:url(#XMLID_442_);}
	.st122{opacity:0.7;fill:none;stroke:#965EE5;stroke-width:0.6582;stroke-linecap:round;stroke-miterlimit:10;}
	.st123{fill:url(#XMLID_443_);}
	.st124{opacity:0.8;fill:url(#XMLID_444_);}
	.st125{fill:none;stroke:#F6F3FF;stroke-width:1.3163;stroke-linecap:round;stroke-miterlimit:10;}
	.st126{opacity:0.7;fill:none;stroke:#F6F3FF;stroke-width:1.3163;stroke-linecap:round;stroke-miterlimit:10;}
	.st127{opacity:0.7;fill:none;stroke:#F6F3FF;stroke-width:0.6582;stroke-linecap:round;stroke-miterlimit:10;}
	.st128{opacity:0.7;fill:none;stroke:#965EE5;stroke-width:2.6326;stroke-miterlimit:10;}
	.st129{fill:none;stroke:#F8F8FF;stroke-width:0.7897;stroke-miterlimit:10;}
	.st130{fill:none;stroke:#F8F8FF;stroke-width:0.9512;stroke-miterlimit:10;}
	.st131{opacity:0.8;fill:url(#XMLID_445_);}
	.st132{fill:none;stroke:#F6F3FF;stroke-width:2.5643;stroke-linecap:round;stroke-miterlimit:10;}
	.st133{fill:none;stroke:url(#XMLID_446_);stroke-width:2.5643;stroke-linecap:round;stroke-miterlimit:10;}
	.st134{fill:none;stroke:#FFFFFF;stroke-width:2.5643;stroke-linecap:round;stroke-miterlimit:10;}
	.st135{fill:url(#XMLID_447_);}
	.st136{opacity:0.8;fill:url(#XMLID_448_);}
	.st137{fill:url(#XMLID_449_);}
	.st138{fill:url(#XMLID_450_);}
	.st139{fill:url(#XMLID_451_);}
	.st140{fill:none;stroke:url(#XMLID_452_);stroke-width:1.2822;stroke-miterlimit:10;}
	.st141{opacity:0.4;fill:url(#XMLID_453_);}
	.st142{opacity:0.8;fill:none;stroke:url(#XMLID_454_);stroke-width:2.5643;stroke-linecap:round;stroke-miterlimit:10;}
	.st143{opacity:0.8;fill:none;stroke:url(#XMLID_455_);stroke-width:2.5643;stroke-linecap:round;stroke-miterlimit:10;}
	.st144{opacity:0.8;fill:none;stroke:url(#XMLID_456_);stroke-width:2.5643;stroke-linecap:round;stroke-miterlimit:10;}
	.st145{opacity:0.8;fill:none;stroke:url(#XMLID_457_);stroke-width:2.5643;stroke-linecap:round;stroke-miterlimit:10;}
	.st146{opacity:0.8;fill:none;stroke:url(#XMLID_458_);stroke-width:2.5643;stroke-linecap:round;stroke-miterlimit:10;}
</style>
<g id="XMLID_2_">
	<g id="XMLID_18_">
		<path id="XMLID_283_" class="st0" d="M97,947.4c0,0-123.5-0.5-74.1-73.3L137,907.4L97,947.4z"/>
		<path id="XMLID_282_" class="st0" d="M820.6,935.4c0,0,123.5-0.5,74.1-73.3l-114.2,33.2L820.6,935.4z"/>
		<path id="XMLID_281_" class="st0" d="M873.2,1013.5H49.6c-18,0-23.1-24.7-6.6-31.8l289.1-294.1c13.9-6,28.8-9,43.9-9h180.4
			c15.6,0,31.1,3.3,45.4,9.7l278.2,293.6C896.3,989.1,891,1013.5,873.2,1013.5z"/>
		<g id="XMLID_56_">
			<g id="XMLID_266_">
				<g id="XMLID_275_">
					<linearGradient id="XMLID_349_" gradientUnits="userSpaceOnUse" x1="406.6814" y1="694.1936" x2="414.7953" y2="743.5262">
						<stop  offset="0" style="stop-color:#FF2A3C"/>
						<stop  offset="1" style="stop-color:#FF7F94"/>
					</linearGradient>
					<path id="XMLID_280_" class="st1" d="M377.9,698.7c0,0-0.2,6.9,3.5,8.6c3.7,1.7,7.7,2.3,11.6,2c9.6-0.8,37.4-14.5,39.6-15.7
						s3.4-2.4,3-5.6C435,684.7,377.9,698.7,377.9,698.7z"/>
					
						<linearGradient id="XMLID_350_" gradientUnits="userSpaceOnUse" x1="442.2049" y1="615.8754" x2="480.807" y2="850.5762" gradientTransform="matrix(-1 0 0 1 861.337 0)">
						<stop  offset="0" style="stop-color:#14003F"/>
						<stop  offset="1" style="stop-color:#992AFF"/>
					</linearGradient>
					<path id="XMLID_279_" class="st2" d="M434.4,605.6l-6.4,64.1c0,0-11.1,9.2-23.9,4.6l-1.6-65.6L434.4,605.6z"/>
					<path id="XMLID_278_" class="st3" d="M403.1,638.9c0,0,1.1,28.7,0.6,30.5c-1.4,5.2-6.8,10.3-13.9,16.2c-7.1,6-12.1,9.4-11.9,13
						c0.2,3.7,2.5,8.9,14.6,7.6c12.1-1.4,40.5-13.8,42.3-16.5c1.8-2.7,0.7-16.8-1.1-19.3s-2.6-6-2.6-6l0.6-31.2
						C431.7,633.1,421.9,646,403.1,638.9z"/>
					<linearGradient id="XMLID_351_" gradientUnits="userSpaceOnUse" x1="372.8924" y1="592.2576" x2="408.6223" y2="634.4255">
						<stop  offset="0" style="stop-color:#D31027"/>
						<stop  offset="1" style="stop-color:#FFE9EB"/>
					</linearGradient>
					<path id="XMLID_277_" class="st4" d="M403.3,646c0,0,15.4,6.3,28.2-5v3.1c0,0-9.8,10.4-28.1,4.6L403.3,646z"/>
					<linearGradient id="XMLID_352_" gradientUnits="userSpaceOnUse" x1="373.4815" y1="599.6314" x2="408.8501" y2="641.3727">
						<stop  offset="0" style="stop-color:#D31027"/>
						<stop  offset="1" style="stop-color:#FFE9EB"/>
					</linearGradient>
					<path id="XMLID_276_" class="st5" d="M403.6,652.9c0,0,15.2,6.3,27.9-5v3.1c0,0-9.7,10.4-27.8,4.6L403.6,652.9z"/>
				</g>
				<g id="XMLID_269_">
					
						<linearGradient id="XMLID_353_" gradientUnits="userSpaceOnUse" x1="389.6413" y1="698.331" x2="397.7552" y2="747.6636" gradientTransform="matrix(-1 0 0 1 889.0859 0)">
						<stop  offset="0" style="stop-color:#FF2A3C"/>
						<stop  offset="1" style="stop-color:#FF7F94"/>
					</linearGradient>
					<path id="XMLID_274_" class="st6" d="M528.2,702.8c0,0,0.2,6.9-3.5,8.6c-3.7,1.7-7.7,2.3-11.6,2c-9.6-0.8-37.4-14.5-39.6-15.7
						s-3.4-2.4-3-5.6C471.1,688.9,528.2,702.8,528.2,702.8z"/>
					
						<linearGradient id="XMLID_354_" gradientUnits="userSpaceOnUse" x1="459.2451" y1="620.0128" x2="497.8472" y2="854.7136" gradientTransform="matrix(1 0 0 1 27.7488 0)">
						<stop  offset="0" style="stop-color:#14003F"/>
						<stop  offset="1" style="stop-color:#992AFF"/>
					</linearGradient>
					<path id="XMLID_273_" class="st7" d="M471.7,609.7l6.4,64.1c0,0,11.1,9.2,23.9,4.6l1.6-65.6L471.7,609.7z"/>
					<path id="XMLID_272_" class="st3" d="M503,643c0,0-1.1,28.7-0.6,30.5c1.4,5.2,6.8,10.3,13.9,16.2c7.1,6,12.1,9.4,11.9,13
						c-0.2,3.7-2.5,8.9-14.6,7.6c-12.1-1.4-40.5-13.8-42.3-16.5c-1.8-2.7-0.7-16.8,1.1-19.3s2.6-6,2.6-6l-0.6-31.2
						C474.4,637.3,484.3,650.2,503,643z"/>
					
						<linearGradient id="XMLID_355_" gradientUnits="userSpaceOnUse" x1="355.8522" y1="596.395" x2="391.5822" y2="638.5629" gradientTransform="matrix(-1 0 0 1 889.0859 0)">
						<stop  offset="0" style="stop-color:#D31027"/>
						<stop  offset="1" style="stop-color:#FFE9EB"/>
					</linearGradient>
					<path id="XMLID_271_" class="st8" d="M502.8,650.2c0,0-15.4,6.3-28.2-5v3.1c0,0,9.8,10.4,28.1,4.6L502.8,650.2z"/>
					
						<linearGradient id="XMLID_356_" gradientUnits="userSpaceOnUse" x1="356.4413" y1="603.7688" x2="391.8099" y2="645.5101" gradientTransform="matrix(-1 0 0 1 889.0859 0)">
						<stop  offset="0" style="stop-color:#D31027"/>
						<stop  offset="1" style="stop-color:#FFE9EB"/>
					</linearGradient>
					<path id="XMLID_270_" class="st9" d="M502.5,657c0,0-15.2,6.3-27.9-5v3.1c0,0,9.7,10.4,27.8,4.6L502.5,657z"/>
				</g>
				<polyline id="XMLID_268_" class="st10" points="470.4,683.4 489.8,691.6 496.8,705.8 				"/>
				<path id="XMLID_267_" class="st11" d="M473.7,671.5c0,0,5.7-4.1,6.3-7.9c0.6-3.8,2.4-33,2.4-33h-8.6l1.2,37.1
					C475.1,667.7,474,670.9,473.7,671.5z"/>
			</g>
			<linearGradient id="XMLID_357_" gradientUnits="userSpaceOnUse" x1="437.5368" y1="466.122" x2="480.955" y2="34.5457">
				<stop  offset="0" style="stop-color:#14003F"/>
				<stop  offset="1" style="stop-color:#992AFF"/>
			</linearGradient>
			<path id="XMLID_265_" class="st12" d="M389.9,250.8c0,0-2.7,95.1-5.3,112.4c-2.6,17.4,0,65.3,2.7,65.9c2.7,0.6,123.2,0.8,123.3,0
				c0.1-0.8-3-68.9-3.4-89.7c-0.5-31.3,25.6-140.1,16.2-148.6c-12-10.8-24.9-19-24.9-19S446.3,95,389.9,250.8z"/>
			<linearGradient id="XMLID_358_" gradientUnits="userSpaceOnUse" x1="449.7305" y1="293.1484" x2="455.2927" y2="237.8604">
				<stop  offset="0" style="stop-color:#FF2A3C"/>
				<stop  offset="1" style="stop-color:#FF7F94"/>
			</linearGradient>
			<polygon id="XMLID_264_" class="st13" points="389.6,248.4 415.1,270.6 495.7,273.3 517.8,259.5 515.4,278.3 496,288.2 
				415.1,285.6 389,266 			"/>
			<polyline id="XMLID_263_" class="st14" points="391.9,245.3 416.9,266.5 494.2,268.7 518.4,255.4 			"/>
			<path id="XMLID_262_" class="st11" d="M390.5,267.8l10.1-28.2c0,0,20,23.5,11.7,57.3c-8.3,33.8-22.2,18.9-15.3,52.6
				s19.9,64.1,18.5,84.5h-28.8c0,0-2.9-32.3-0.9-60.7C387.7,344.8,390.5,267.8,390.5,267.8z"/>
			<path id="XMLID_261_" class="st15" d="M438.2,152.6c0,0-2.2,29.3-2.3,31.9s1.3,27.7,30.2,20.5c28.9-7.2,14.7-29.7,14.7-29.7
				L438.2,152.6z"/>
			<path id="XMLID_260_" class="st16" d="M324.8,193.9c0,0,5.7-3.4,6.9-3.9s4.7-6,7-8.7s28.5-14.5,29.1-14.3s0.5,4.2-2,6.4
				c-2.5,2.1-12.5,7.4-12.8,8.1s5.1,10.8,5.3,13.9c0.2,3.1-6.2,10.6-8,12.6c-1.8,1.9-6.9,1.7-9.7,1.9s-7,2.3-7,2.3L324.8,193.9z"/>
			<linearGradient id="XMLID_359_" gradientUnits="userSpaceOnUse" x1="189.3042" y1="581.6593" x2="281.2424" y2="-342.7202">
				<stop  offset="0" style="stop-color:#14003F"/>
				<stop  offset="1" style="stop-color:#992AFF"/>
			</linearGradient>
			<path id="XMLID_259_" class="st17" d="M120.5,160.2c0,0,26.1,6.6,42.2,18.5c16.1,12,64.1,51.9,74,54.3
				c16.9-6.9,87.7-43.8,87.7-43.8s18.1,7.9,11.5,24.8c0,0-86.7,62-104.5,61.2c-23.1-1.1-39.4-2.2-66.1-24.2s-21-32.2-21-32.2
				L120.5,160.2z"/>
			<linearGradient id="XMLID_360_" gradientUnits="userSpaceOnUse" x1="284.5688" y1="325.5785" x2="305.8679" y2="111.4303">
				<stop  offset="0" style="stop-color:#FF2A3C"/>
				<stop  offset="1" style="stop-color:#FF7F94"/>
			</linearGradient>
			<polygon id="XMLID_258_" class="st18" points="277.5,253.1 278.6,243.5 298.8,231 308,233.4 			"/>
			<linearGradient id="XMLID_361_" gradientUnits="userSpaceOnUse" x1="269.4007" y1="282.5283" x2="286.8689" y2="106.8966">
				<stop  offset="0" style="stop-color:#FF2A3C"/>
				<stop  offset="1" style="stop-color:#FF7F94"/>
			</linearGradient>
			<polygon id="XMLID_257_" class="st19" points="260.5,221.8 268.4,223.5 290.8,211.9 291.9,206 			"/>
			<path id="XMLID_256_" class="st20" d="M178.5,191.1c0,0,43,34.5,58.1,42c0,0,37.8-18.3,65.6-32.4c0,0-2.6,6.9-11.6,11.4
				c-9,4.5-30.3,7.5-42.6,21c-6.4,7-8.1,10.6-20.4,1.7c-12.3-8.9-13.3-14.9-25.1-21.2C190.7,207.3,179.4,195,178.5,191.1z"/>
			<path id="XMLID_255_" class="st11" d="M162.6,178.8c0,0,20.1,11.9,21.5,37.5s-0.2,31.8,13.1,44.3c13.3,12.6,31.2-13.8,44.9-8.6
				c17.1,6.5,31.5-1,58.9-14.1c0,0-53.1,36.2-69.8,37.4c0,0-40.6,2.2-62.9-21.6c-12.3-13.1-45.1-69.2-43.1-85.7
				C126.9,154.4,162.6,178.8,162.6,178.8z"/>
			<g id="XMLID_196_">
				<linearGradient id="XMLID_362_" gradientUnits="userSpaceOnUse" x1="259.0356" y1="237.5329" x2="402.3587" y2="314.5423">
					<stop  offset="0" style="stop-color:#4FACFE"/>
					<stop  offset="1" style="stop-color:#00F2FE"/>
				</linearGradient>
				<path id="XMLID_254_" class="st21" d="M208.2,290.3c0,0-4-2.1-3.9-4.9l16.6-90.9c0.3-1.6,1.4-3,3-3.6l53-21.3c0,0,6.4-2,6.7,3.3
					L208.2,290.3z"/>
				<linearGradient id="XMLID_363_" gradientUnits="userSpaceOnUse" x1="238.7863" y1="368.8227" x2="248.7008" y2="179.0951">
					<stop  offset="0" style="stop-color:#4FACFE"/>
					<stop  offset="1" style="stop-color:#00F2FE"/>
				</linearGradient>
				<polygon id="XMLID_253_" class="st22" points="218.3,241.7 226.3,194.9 283.7,172.9 265,270.5 208.2,290.3 				"/>
				<path id="XMLID_252_" class="st23" d="M241.9,223.5c0,0,4.3,1.7,4.1,7.2l4.7-2.1c0,0,1.3,3.5,0,8.3c0,0,2.1,0.4,1.8,3.7
					c0,0-2.6,6.6-3,8.6c0,0,2.6,1.9,0.3,4c0,0-3.6,13.7-15.2,22.1c-11.6,8.3-12.6,10.2-12.6,10.2l-13.8,4.8l6-27.5
					C214.2,262.8,232.2,232.7,241.9,223.5z"/>
				<path id="XMLID_251_" class="st16" d="M191.6,259c0,0,4-4.1,6.9-6.4c2.9-2.4,4.7-4.2,5.9-6.1s1.7-5.1,2.5-7.8
					c1.2-3.8,2.6-6.4,2.9-9.3c0.2-2.3,5.6-4.3,5.6-4.3l-1.2,6c0.9,4.5,0.4,10.1,0.1,11.3c-0.5,2.2,6.4-0.8,10.7-4
					c6.2-4.8,8.5,19.2,8.8,24.2c0.1,1.6-4.7,6.3-9.3,8.2c-7,0.6-19.6,6.4-19.6,6.4L191.6,259z"/>
				<path id="XMLID_250_" class="st16" d="M225,238.5l16.9-15c0,0,3,0.5,2.1,3.5c-0.9,3-15.1,16.4-15.1,16.4L225,238.5z"/>
				<path id="XMLID_249_" class="st16" d="M229.7,243.6l18.7-16.6c0,0,3.4,0.6,2.4,3.9c-1,3.3-19.3,20.1-19.3,20.1L229.7,243.6z"/>
				<path id="XMLID_248_" class="st16" d="M230.2,252.2l20.5-15.3c0,0,3,0.8,1.8,3.7c-1.2,2.9-20.1,17.7-20.1,17.7L230.2,252.2z"/>
				<path id="XMLID_247_" class="st16" d="M228.9,260.9l20.6-11.7c0,0,2.1,1.5,0.3,4c-1.8,2.5-18.8,13.5-18.8,13.5L228.9,260.9z"/>
				<linearGradient id="XMLID_364_" gradientUnits="userSpaceOnUse" x1="176.6269" y1="1052.0487" x2="166.5862" y2="1308.0862">
					<stop  offset="0" style="stop-color:#FF2A3C"/>
					<stop  offset="1" style="stop-color:#FF7F94"/>
				</linearGradient>
				<path id="XMLID_246_" class="st24" d="M236.7,837.1c0,0,1.4,9.3-3.4,12.6c-4.8,3.4-44.3,8.8-98.3,1.1c0,0-3-4-2-9
					C134,836.8,236.7,837.1,236.7,837.1z"/>
				<path id="XMLID_245_" class="st3" d="M170.6,798.6c0,0,17.6,12.8,60.2,22.9c6.2,1.5,12.5,17.6-1.8,23.5s-63.8,6-95.3-1.1
					c0,0-4.3-12-3.1-20.9c1.3-8.9,7.5-18.8,7.5-18.8L170.6,798.6z"/>
				<linearGradient id="XMLID_365_" gradientUnits="userSpaceOnUse" x1="130.8887" y1="577.3196" x2="223.263" y2="-351.4438">
					<stop  offset="0" style="stop-color:#14003F"/>
					<stop  offset="1" style="stop-color:#992AFF"/>
				</linearGradient>
				<path id="XMLID_244_" class="st25" d="M106.4,378.5c0,0-27.2,21-22.7,73.7s38.3,121.1,42.2,137.5c0,0-0.6,67.1,0.4,91.8
					c1,24.8,12.4,128.3,12.4,128.3s21,9.7,31.5-5.7c0,0,15.9-199.4,13.8-221.5c-3.2-33-13.1-145.3-13.1-145.3
					S179.1,368.1,106.4,378.5z"/>
				<g id="XMLID_240_">
					
						<linearGradient id="XMLID_366_" gradientUnits="userSpaceOnUse" x1="455.1023" y1="569.092" x2="575.8314" y2="642.7838" gradientTransform="matrix(-1 0 0 1 651.8218 0)">
						<stop  offset="0" style="stop-color:#FF2A3C"/>
						<stop  offset="1" style="stop-color:#FF7F94"/>
					</linearGradient>
					<path id="XMLID_243_" class="st26" d="M182.2,565.5c-10-25.7-23.6,16.6-60.2,12.5l3.9,11.6l-0.1,22.7c0,0,4.5-2,17.3,0
						c12.4,1.9,25.4,24.3,40.3-5.5c0,0,1.2-11.3,0.8-21.9C183.8,577,183.4,569.9,182.2,565.5z"/>
					<path id="XMLID_242_" class="st27" d="M182,559c0,0-1.4-13.3-11.9-7.8c-10.5,5.5-24.1,23.4-45.6,23.9"/>
					<path id="XMLID_241_" class="st27" d="M183.4,613.7c0,0-6.3,11.3-14.7,14.2c-13.1,4.5-18.4-15.4-42.8-11.4"/>
				</g>
				<linearGradient id="XMLID_367_" gradientUnits="userSpaceOnUse" x1="66.5738" y1="570.9229" x2="158.9481" y2="-357.8406">
					<stop  offset="0" style="stop-color:#14003F"/>
					<stop  offset="1" style="stop-color:#992AFF"/>
				</linearGradient>
				<path id="XMLID_239_" class="st28" d="M46,418.2c0,0-13.1,16.3-14.3,69.1c-1.2,52.8,8.8,126.1,10.9,142.9c0,0-7.8,66.6-9.5,91.4
					s-1.5,131.6-1.5,131.6s28.7,9.5,31.9-5c0,0,32.9-197,37.5-218.7c7.1-33.1,17.2-164.9,17.2-164.9S152.8,377.4,46,418.2z"/>
				<g id="XMLID_235_">
					
						<linearGradient id="XMLID_368_" gradientUnits="userSpaceOnUse" x1="532.6152" y1="605.2778" x2="665.9395" y2="686.6575" gradientTransform="matrix(-1 0 0 1 651.8218 0)">
						<stop  offset="0" style="stop-color:#FF2A3C"/>
						<stop  offset="1" style="stop-color:#FF7F94"/>
					</linearGradient>
					<path id="XMLID_238_" class="st29" d="M104.8,606.5C97,572.2,77.6,621.7,41,617.6l1.6,12.8l-2.5,21.4c0,0,6.3-1.9,19.1,0.1
						c12.4,1.9,25.2,25.2,39.1-7.7C98.3,644.2,103.6,617.5,104.8,606.5z"/>
					<path id="XMLID_237_" class="st27" d="M105.6,599.8c0,0,0.5-15.6-14.8-9.3c-11,4.5-28.6,23.6-50.1,24.2"/>
					<path id="XMLID_236_" class="st27" d="M96.1,656.8c0,0-2.8,7.8-11.3,10.7c-13.1,4.5-20.6-15.1-45-11.1"/>
				</g>
				<linearGradient id="XMLID_369_" gradientUnits="userSpaceOnUse" x1="89.4902" y1="393.8732" x2="127.1428" y2="544.4835">
					<stop  offset="0" style="stop-color:#FF2A3C"/>
					<stop  offset="1" style="stop-color:#FF7F94"/>
				</linearGradient>
				<path id="XMLID_234_" class="st30" d="M36.3,445.3c0,0,30.9,24.5,133.9-26.3c0,0,1.7,8.2,0.7,18.2c0,0-80.9,45.9-137.9,28.4
					C33,465.6,34,450.5,36.3,445.3z"/>
				<linearGradient id="XMLID_370_" gradientUnits="userSpaceOnUse" x1="77.407" y1="572.0004" x2="169.7813" y2="-356.7631">
					<stop  offset="0" style="stop-color:#14003F"/>
					<stop  offset="1" style="stop-color:#992AFF"/>
				</linearGradient>
				<path id="XMLID_233_" class="st31" d="M102.9,150.9c0,0-41.8,14.2-49.8,20.5c-8,6.3-19.5,21-20,32.3
					c-0.2,6.5,11,70.3,10.9,142.1c0,53-22.2,96-3.1,103.1c36.6,13.5,131.6-17.2,133.3-36.9c0.6-6.8-3.6-69.7-3.1-96.1
					c0.4-26.4,1.2-89.9-1.5-107.5c-3.1-21-30.7-43.2-30.7-43.2L102.9,150.9z"/>
				<g id="XMLID_230_">
					
						<linearGradient id="XMLID_371_" gradientUnits="userSpaceOnUse" x1="531.7842" y1="206.0529" x2="585.8711" y2="321.1313" gradientTransform="matrix(-1 0 0 1 707.2847 0)">
						<stop  offset="0" style="stop-color:#FF2A3C"/>
						<stop  offset="1" style="stop-color:#FF7F94"/>
					</linearGradient>
					<polygon id="XMLID_232_" class="st32" points="164.6,264.9 130.2,266.8 140.1,282.3 155.9,280.9 					"/>
					
						<linearGradient id="XMLID_372_" gradientUnits="userSpaceOnUse" x1="639.4003" y1="310.463" x2="667.7971" y2="322.1837" gradientTransform="matrix(-1 0 0 1 707.2847 0)">
						<stop  offset="0" style="stop-color:#FF2A3C"/>
						<stop  offset="1" style="stop-color:#FF7F94"/>
					</linearGradient>
					<polygon id="XMLID_231_" class="st33" points="161.4,265.1 153.1,281.1 155.9,280.9 164.6,264.9 					"/>
				</g>
				<g id="XMLID_226_">
					
						<linearGradient id="XMLID_373_" gradientUnits="userSpaceOnUse" x1="654.2192" y1="333.4034" x2="570.2339" y2="500.8079" gradientTransform="matrix(-1 0 0 1 702.4797 0)">
						<stop  offset="0" style="stop-color:#FF2A3C"/>
						<stop  offset="1" style="stop-color:#FF7F94"/>
					</linearGradient>
					<path id="XMLID_229_" class="st34" d="M97.8,446.7l2.8-0.6l-6.4-46.8c-0.8-6.1-3.9-11.6-8.7-15.4l-41.3-33.3l-0.1,3.4l39.7,32
						c4.2,3.4,7,8.3,7.7,13.7L97.8,446.7z"/>
					<g id="XMLID_227_">
						
							<linearGradient id="XMLID_374_" gradientUnits="userSpaceOnUse" x1="530.0378" y1="395.3725" x2="550.3859" y2="395.3725" gradientTransform="matrix(-1 0 0 1 702.4797 0)">
							<stop  offset="0" style="stop-color:#FF2A3C"/>
							<stop  offset="1" style="stop-color:#FF7F94"/>
						</linearGradient>
						<path id="XMLID_228_" class="st35" d="M155.2,429.3l0.9-35.6c0.1-2.2,0.7-4.3,1.9-6.2l14.4-22.5l-0.2-5.2l-16.7,26.1
							c-1.5,2.3-2.3,5-2.4,7.7l-1.1,37.3L155.2,429.3z"/>
					</g>
				</g>
				<path id="XMLID_225_" class="st11" d="M132.2,193.2c0,0,9.8,2.2,19.7-4.1c9.9-6.3-10.3-19.1-10.3-19.1L132.2,193.2z"/>
				<linearGradient id="XMLID_375_" gradientUnits="userSpaceOnUse" x1="148.7493" y1="241.3587" x2="14.7876" y2="218.1586">
					<stop  offset="0" style="stop-color:#FF2A3C"/>
					<stop  offset="1" style="stop-color:#FF7F94"/>
				</linearGradient>
				<polygon id="XMLID_224_" class="st36" points="93.4,222.2 128.5,241.4 163.3,240.3 170.9,226.2 171.4,246.6 164.1,255.6 
					127.6,256.7 95.4,240.4 				"/>
				<g id="XMLID_222_" class="st37">
					<polygon id="XMLID_223_" class="st38" points="127.5,237.7 127.4,237.6 93.3,217.9 93.7,217.3 127.7,236.9 161.3,236 
						170.6,219.3 170.7,220.7 161.8,236.8 161.6,236.8 					"/>
				</g>
				<path id="XMLID_221_" class="st11" d="M83.2,187.2c0,0,29.5,43.3,30.9,64.8c1.4,21.5,5.4,41.8-4,69.9
					c-9.5,28.1-24.5,31.7-25.2,53.7c-0.7,22,10,23.3,5.1,33.1c-4.8,9.8-30.2-8.8-26.4,4.1c3.7,12.8,27.5,23.3,26.4,37
					c0,0-47.2,9.4-54.9-6.4c-7.7-15.8,2.7-33,6.6-62.4s2.5-87.7-2.9-126.5S83.2,187.2,83.2,187.2z"/>
				<path id="XMLID_220_" class="st16" d="M147.4,130.3c0,0-5.7,32.2-6.8,51.1S90,155.3,90,155.3l8.3-29.2c0,0,16.6-12.8,19-11.9
					S147.4,130.3,147.4,130.3z"/>
				<path id="XMLID_219_" class="st16" d="M185.6,57.8c0,0,7.1,17,5.9,31.4c-1.3,14.5-0.9,52.2-11.4,61.6
					c-10.5,9.4-26.7,6.1-38.1-3.1c-9.2-7.3-21.1-22.9-27.8-36.1s-39-51.1,0-62.2S172.2,35.6,185.6,57.8z"/>
				<path id="XMLID_218_" class="st39" d="M185.6,57.8c0,0,6.7,16.7,5.9,31.4s-1.6,35.4-3.9,44.1c-2.3,8.7-4.6,28.4-32.1,21.7
					c0,0,19.6,1,23.1-6.7c3.5-7.7,2.6-20.6,6.1-26c3.5-5.4,0.4-25.8,2.2-33S187.4,63.9,185.6,57.8z"/>
				<path id="XMLID_217_" class="st40" d="M147.4,56.3c0,0,40.7,11,47.7,3.7c15.2-15.7,0.1-37.7-25.4-33.9
					c-20.3,3-57.3,0.6-64.4,13.2c0,0-22.4,9.4-22.6,27.7c-0.2,18.2,11.5,74,11.5,74s8.2-10.9,16.4-15.3s19.1-16.8,18.4-25.4
					c-0.6-8.6-5.4-17.2,2.3-16.1c7.8,1,5.7,13,9.4,10.9c3.8-2.1,13-11.5,14.7-18C157.1,70.4,155.3,70.7,147.4,56.3z"/>
				<linearGradient id="XMLID_376_" gradientUnits="userSpaceOnUse" x1="87.4123" y1="572.9955" x2="179.7866" y2="-355.768">
					<stop  offset="0" style="stop-color:#14003F"/>
					<stop  offset="1" style="stop-color:#992AFF"/>
				</linearGradient>
				<path id="XMLID_216_" class="st41" d="M53.1,171.4c11.7-4.3,27.3-0.7,36.9,33.7s14.8,96,19.4,103.1c25.5-6.7,60-36.1,83.7-52.5
					c0,0,20.1,2.8,15.3,22.8c0,0-65.1,68.4-104.4,79.7c-19.4,5.6-34.3-2.4-45.2-32.5c-9.1-25.2-21.4-76.3-24.3-89.7
					C31.6,222.5,25.2,181.5,53.1,171.4z"/>
				<linearGradient id="XMLID_377_" gradientUnits="userSpaceOnUse" x1="146.8976" y1="321.8646" x2="157.4552" y2="215.7142">
					<stop  offset="0" style="stop-color:#FF2A3C"/>
					<stop  offset="1" style="stop-color:#FF7F94"/>
				</linearGradient>
				<polygon id="XMLID_215_" class="st42" points="137.1,295.3 163.1,277.7 163.1,284.2 144.4,297.2 				"/>
				<linearGradient id="XMLID_378_" gradientUnits="userSpaceOnUse" x1="170.0833" y1="346.5632" x2="180.9072" y2="237.7362">
					<stop  offset="0" style="stop-color:#FF2A3C"/>
					<stop  offset="1" style="stop-color:#FF7F94"/>
				</linearGradient>
				<path id="XMLID_214_" class="st43" d="M185.3,301.1h-6.8l-16,13.7l0.5,6C163.1,320.8,178.4,307.7,185.3,301.1z"/>
				<linearGradient id="XMLID_379_" gradientUnits="userSpaceOnUse" x1="195.6555" y1="306.9692" x2="207.4293" y2="188.5919">
					<stop  offset="0" style="stop-color:#FF2A3C"/>
					<stop  offset="1" style="stop-color:#FF7F94"/>
				</linearGradient>
				<path id="XMLID_213_" class="st44" d="M193.2,255.7l-3,2.1c0,0,16.9,0.4,16,23l2.3-2.3C208.4,278.5,214.8,259.7,193.2,255.7z"/>
				<linearGradient id="XMLID_380_" gradientUnits="userSpaceOnUse" x1="72.4615" y1="387.7951" x2="109.11" y2="287.8903">
					<stop  offset="0" style="stop-color:#FF2A3C"/>
					<stop  offset="1" style="stop-color:#FF7F94"/>
				</linearGradient>
				<path id="XMLID_212_" class="st45" d="M107.3,301.5L64.7,339c0,0,12.3,31.5,45,17.2l5.4-49.9l-5.7,1.8L107.3,301.5z"/>
				<path id="XMLID_211_" class="st20" d="M83.2,187.2c0,0,10.1,42.5,11,59.4c0.9,16.9,2.3,29.3,6.8,40.4s3.8,23.3,6.5,26
					c2.7,2.7,12.1-2,17.7-7c5.7-5,36.8-20.7,41.7-30.8c0,0-44.7,31.2-57.5,32.8c0,0-5.9-17.5-8.8-47.5
					C97.8,230.7,88.9,195.9,83.2,187.2z"/>
				<path id="XMLID_210_" class="st11" d="M63.6,170.2c0,0-24.1,14.5-21.9,44.3c2.3,29.7,23.1,36.2,26.2,75.9
					C71,330,71.9,345.9,90,347.1c18.2,1.2,40.9-28.9,68.7-22.6c0,0-33.8,28.8-54.7,33.8s-28-1.5-40.2-20.6
					c-12.2-19.2-33.4-107.7-32.3-125.8C32.6,195.5,37.1,168.5,63.6,170.2z"/>
				<path id="XMLID_209_" class="st15" d="M144.3,149.5c0,0-21.4-16.9-24.6-24.1c0,0-5.6,7.1,0,19.6s9.3,10.3,9.1,22.5
					s11.8,13.9,11.8,13.9L144.3,149.5z"/>
				<path id="XMLID_208_" class="st20" d="M142.2,168c0,0,25.1,21.9,27.5,40.4c2.3,18.5,1.9,63.1,1.9,63.1l-1.8,1.3
					c-0.4-16.5,0-60.6-3.2-66.9c-5.2-10.1-24.9-35.8-24.9-35.8L142.2,168z"/>
				
					<linearGradient id="XMLID_381_" gradientUnits="userSpaceOnUse" x1="230.6313" y1="114.3589" x2="241.8978" y2="152.4396" gradientTransform="matrix(0.9041 -0.4273 0.4273 0.9041 -210.8324 203.6893)">
					<stop  offset="0" style="stop-color:#FF2A3C"/>
					<stop  offset="1" style="stop-color:#FF7F94"/>
				</linearGradient>
				<circle id="XMLID_207_" class="st46" cx="60.2" cy="223.8" r="9.4"/>
				<circle id="XMLID_206_" class="st47" cx="60.2" cy="223.8" r="12.2"/>
				<line id="XMLID_205_" class="st47" x1="63.5" y1="235.8" x2="84.7" y2="321.4"/>
				<path id="XMLID_204_" class="st11" d="M110.9,549.9l5.2-48.5c0,0,15.2,32,19.4,50.3c4.1,18.3-5.1,22,0,34.3
					c5.1,12.2,14.5,22.6,8.3,31.1s-12.6,35.8-6.2,70.8s9.3,108.6,1.2,122c0,0-19.9-151.7-12.8-220.1
					C122.6,575.4,110.9,549.9,110.9,549.9z"/>
				<g id="XMLID_198_">
					<linearGradient id="XMLID_382_" gradientUnits="userSpaceOnUse" x1="62.6951" y1="1047.5807" x2="52.6544" y2="1303.6183">
						<stop  offset="0" style="stop-color:#FF2A3C"/>
						<stop  offset="1" style="stop-color:#FF7F94"/>
					</linearGradient>
					<path id="XMLID_203_" class="st48" d="M118.1,890.7c0,0,1,12.7-10.7,15.4c-11.6,2.7-76.7-8.8-83-11.2c-6.3-2.4-4.7-6.5-4.4-9.9
						C20.5,881.6,118.1,890.7,118.1,890.7z"/>
					<path id="XMLID_202_" class="st3" d="M29.7,851.6c0,0-1.8,6.6-3.8,10.4s-5.8,19-5.8,23.1s55.6,15.1,77.8,15.1
						s22.7-13.7,19.5-18.7c-3.2-5-20-8.3-35.4-15.9s-17.8-15.2-17.8-15.2l7.2-48.7c-5.5,0.4-21.7,4-39.6-3
						C31.8,798.6,31.2,841.5,29.7,851.6z"/>
					<path id="XMLID_201_" class="st49" d="M21.9,874.7c0,0,20.2,6.2,22.1,6.8C45.8,882,55.3,895,55.3,895"/>
					<linearGradient id="XMLID_383_" gradientUnits="userSpaceOnUse" x1="-30.8104" y1="739.8544" x2="24.9635" y2="792.4229">
						<stop  offset="0" style="stop-color:#D31027"/>
						<stop  offset="1" style="stop-color:#FFE9EB"/>
					</linearGradient>
					<path id="XMLID_200_" class="st50" d="M31.4,812.7c0,0,14.8,10.2,37.9,3.6l-0.5,3.6c0,0-22.6,7.4-37.3-3.6V812.7z"/>
					<linearGradient id="XMLID_384_" gradientUnits="userSpaceOnUse" x1="-38.8274" y1="740.147" x2="19.3446" y2="794.9758">
						<stop  offset="0" style="stop-color:#D31027"/>
						<stop  offset="1" style="stop-color:#FFE9EB"/>
					</linearGradient>
					<path id="XMLID_199_" class="st51" d="M31.3,820.4c0,0,15.9,10.7,36.8,3.4l-0.4,2.4c0,0-17.1,8.5-36.5-3V820.4z"/>
				</g>
				<path id="XMLID_197_" class="st11" d="M90,449.9c1.7,12.2,4.9,26.1-15.8,47.9c-20.6,21.8-24.9,42.7-21.9,69
					c3,26.4,23.4,62.3,15.6,71c-7.8,8.8-20.4-10.1-18.8,17.9c1.7,28,3.9,71.7-3.4,93.5s-15.6,98-15.6,98s3.4-88.1,2.6-118.1
					c-0.6-20.9,9.9-99,9.9-99S22,495.8,36.3,445.3C36.3,445.3,44.2,456.8,90,449.9z"/>
			</g>
			<g id="XMLID_136_">
				<path id="XMLID_195_" class="st16" d="M710.4,375.5c0,0-7.2,3.9-9.8,4.8s-16.1-3.9-18-4.8s-12-4.7-12-4.7s-2.4,6.2,3.8,8.8
					c6.2,2.6,9,4.3,9,6.4s-9.9,2.9-13.3,5.1c-1.8,1.2-15.1,13.8-15.3,15.2c-0.2,1.3,3.9,3.4,7.7,0.8s11.1-7.5,11.1-7.5
					s2.8,6.5,6.8,9.4c4.1,2.9,9.4,5.5,14,4.1c5.7-1.7,14.4-12.6,15.5-13.8c1.1-1.1,7.9-4,7.9-4L710.4,375.5z"/>
				<path id="XMLID_194_" class="st16" d="M605.4,193.9c0,0-2.9-5.6-3.1-7.9c-0.2-2.4,2.8-9.1,4.9-11.5c2-2.4,7.6-9.1,8.1-11.1
					c-4.7-3.7-10.7,4.1-14.3,7.3c-1.2,1.1-4.6,0.7-4.6,0.7s-5.4-9-6.2-9c-3.1,0-22.2,11.9-19.3,17.9c6.6,13.9,14,15.9,14,15.9
					c4,2.9,7.4,10.6,7.4,10.6L605.4,193.9z"/>
				<path id="XMLID_193_" class="st52" d="M584.7,196.2c0,0,6.2-0.2,8.8-1.8c2.6-1.6,4.9-1.9,4.9-0.9c0,1,1.6,6.3,1.6,6.3l-9.5,3.6
					C590.5,203.4,588,198.4,584.7,196.2z"/>
				<linearGradient id="XMLID_385_" gradientUnits="userSpaceOnUse" x1="722.3622" y1="1073.4501" x2="712.3215" y2="1329.4875">
					<stop  offset="0" style="stop-color:#FF2A3C"/>
					<stop  offset="1" style="stop-color:#FF7F94"/>
				</linearGradient>
				<path id="XMLID_192_" class="st53" d="M680.1,825.1c0,0-1.4,9.3,3.4,12.6s44.3,8.8,98.3,1.1c0,0,3-4,2-9
					S680.1,825.1,680.1,825.1z"/>
				<path id="XMLID_191_" class="st3" d="M746.2,786.6c0,0-17.6,12.8-60.2,22.9c-6.2,1.5-12.5,17.6,1.8,23.5
					c14.2,5.9,63.8,6,95.3-1.1c0,0,4.3-12,3.1-20.9c-1.3-8.9-7.5-18.8-7.5-18.8L746.2,786.6z"/>
				<linearGradient id="XMLID_386_" gradientUnits="userSpaceOnUse" x1="763.1545" y1="670.8652" x2="901.9576" y2="-618.0206">
					<stop  offset="0" style="stop-color:#14003F"/>
					<stop  offset="1" style="stop-color:#992AFF"/>
				</linearGradient>
				<path id="XMLID_190_" class="st54" d="M810.3,366.4c0,0,27.2,21,22.7,73.7c-4.5,52.6-38.3,121.1-42.2,137.5
					c0,0,0.6,67.1-0.4,91.8c-1,24.8-12.4,128.3-12.4,128.3s-21,9.7-31.5-5.7c0,0-15.9-199.4-13.8-221.5
					c3.2-33,13.1-145.3,13.1-145.3S737.7,356,810.3,366.4z"/>
				<path id="XMLID_189_" class="st11" d="M807.2,534.5l-3.6-59.1c0,0-20.4,27.6-22.1,59.1c-1.7,31.5,9.5,23.7-2,40
					s-24,42.2-11.5,35.5s15-0.3,15.1,9.8s-15.1,58-11.4,93c3.7,35,6.4,84.9,6.4,84.9s12.8-99.2,13.1-177.6
					c0.1-14.9-0.3-29.7-0.3-42.5L807.2,534.5z"/>
				<linearGradient id="XMLID_387_" gradientUnits="userSpaceOnUse" x1="834.0835" y1="678.5037" x2="972.8866" y2="-610.3821">
					<stop  offset="0" style="stop-color:#14003F"/>
					<stop  offset="1" style="stop-color:#992AFF"/>
				</linearGradient>
				<path id="XMLID_188_" class="st55" d="M870.8,406.2c0,0,13.1,16.3,14.3,69.1s-8.8,126.1-10.9,142.9c0,0,7.8,66.6,9.5,91.4
					c1.7,24.7,1.5,131.6,1.5,131.6s-28.7,9.5-31.9-5c0,0-32.9-197-37.5-218.7c-7.1-33.1-17.2-164.9-17.2-164.9
					S763.9,365.4,870.8,406.2z"/>
				<linearGradient id="XMLID_388_" gradientUnits="userSpaceOnUse" x1="866.9999" y1="317.3299" x2="783.2229" y2="484.319">
					<stop  offset="0" style="stop-color:#FF2A3C"/>
					<stop  offset="1" style="stop-color:#FF7F94"/>
				</linearGradient>
				<path id="XMLID_187_" class="st56" d="M879.4,425.6l2.2,13c0,0-54.1,27.1-135.7-13.4c0,0-0.8-10.2,0.7-18.2L879.4,425.6z"/>
				<linearGradient id="XMLID_389_" gradientUnits="userSpaceOnUse" x1="797.6105" y1="593.1101" x2="930.8115" y2="674.4146">
					<stop  offset="0" style="stop-color:#FF2A3C"/>
					<stop  offset="1" style="stop-color:#FF7F94"/>
				</linearGradient>
				<path id="XMLID_186_" class="st57" d="M812,594.4c7.8-34.3,27.2,15.1,63.8,11l-1.6,12.8l2.5,21.4c0,0-6.3-1.9-19.1,0.1
					c-12.4,1.9-25.2,25.2-39.1-7.7C818.4,632,812,602.5,812,594.4z"/>
				<path id="XMLID_185_" class="st27" d="M811.1,587.6c0,0-0.5-15.6,14.8-9.3c11,4.5,28.6,23.6,50.1,24.2"/>
				<path id="XMLID_184_" class="st27" d="M820.6,644.6c0,0,2.8,7.8,11.3,10.7c13.1,4.5,20.6-15.1,45-11.1"/>
				<linearGradient id="XMLID_390_" gradientUnits="userSpaceOnUse" x1="631.566" y1="656.6942" x2="770.3691" y2="-632.1917">
					<stop  offset="0" style="stop-color:#14003F"/>
					<stop  offset="1" style="stop-color:#992AFF"/>
				</linearGradient>
				<path id="XMLID_183_" class="st58" d="M767.5,158.9c0,0-23.3,9.8-32.9,35.2c-4.9,12.9-35.4,81.4-39.4,83.7
					c-5.4-5.3-30.8-25.4-43.8-36.9c-10.3-9.1-41.3-45.6-41.3-45.6c-10.3-5.7-21.5,6.3-20.3,12.2c1,4.9,29.5,42.1,42.1,58.2
					c19.2,24.5,40.9,56.2,65.8,56.2c25.9,0,38.1-24.1,54.1-52.2C767.7,241.7,779.4,168.5,767.5,158.9z"/>
				<linearGradient id="XMLID_391_" gradientUnits="userSpaceOnUse" x1="595.996" y1="244.2924" x2="609.9029" y2="115.1564">
					<stop  offset="0" style="stop-color:#FF2A3C"/>
					<stop  offset="1" style="stop-color:#FF7F94"/>
				</linearGradient>
				<path id="XMLID_182_" class="st59" d="M610.1,195.4c0,0-7.1-4.3-14.5,1.8s-5.9,10.4-5.9,10.4l0.8,1.9c0,0,4.2-14.9,20.9-12.4
					L610.1,195.4z"/>
				<linearGradient id="XMLID_392_" gradientUnits="userSpaceOnUse" x1="637.6811" y1="296.3682" x2="658.2816" y2="105.0775">
					<stop  offset="0" style="stop-color:#FF2A3C"/>
					<stop  offset="1" style="stop-color:#FF7F94"/>
				</linearGradient>
				<path id="XMLID_181_" class="st60" d="M631.2,219.6l-1.3,5.1l21.1,22.4h7.6C658.5,247.1,645.6,236.1,631.2,219.6z"/>
				<linearGradient id="XMLID_393_" gradientUnits="userSpaceOnUse" x1="612.5545" y1="326.6831" x2="637.5167" y2="94.8913">
					<stop  offset="0" style="stop-color:#FF2A3C"/>
					<stop  offset="1" style="stop-color:#FF7F94"/>
				</linearGradient>
				<path id="XMLID_180_" class="st61" d="M608.1,234.7h6.1l19.9,24.2l-0.9,8.5C633.2,267.5,616,245.1,608.1,234.7z"/>
				<linearGradient id="XMLID_394_" gradientUnits="userSpaceOnUse" x1="702.9491" y1="322.6202" x2="708.3929" y2="272.0698">
					<stop  offset="0" style="stop-color:#FF2A3C"/>
					<stop  offset="1" style="stop-color:#FF7F94"/>
				</linearGradient>
				<path id="XMLID_179_" class="st62" d="M699.5,271.1l27.2,37.4c-7.3,7.7-23.6,20.1-45.3,9l6-46.4l7.8,6.7L699.5,271.1z"/>
				<path id="XMLID_178_" class="st11" d="M744.8,282.1l22.7-123.2c0,0-39.2,10.5-42.3,95.4c-1,27-4.1,50.2-16,55.9
					c-11.9,5.6-34.6-33.3-59.3-21.6c0,0,23.5,33.3,47.9,33.3C721.3,321.9,732.5,302.5,744.8,282.1z"/>
				<linearGradient id="XMLID_395_" gradientUnits="userSpaceOnUse" x1="773.0333" y1="671.9291" x2="911.8364" y2="-616.9567">
					<stop  offset="0" style="stop-color:#14003F"/>
					<stop  offset="1" style="stop-color:#992AFF"/>
				</linearGradient>
				<path id="XMLID_177_" class="st63" d="M813.8,138.8c0,0,41.8,14.2,49.8,20.5c8,6.3,19.5,21,20,32.3c0.2,6.5-11,70.3-10.9,142.1
					c0,53,20.8,88,1.8,95.1c-36.6,13.5-130.2-9.2-131.9-28.9c-0.6-6.8,3.6-69.7,3.1-96.1c-0.4-26.4-5.8-90.6-3.2-108.2
					c3.1-21,29.1-40.1,29.1-40.1L813.8,138.8z"/>
				<g id="XMLID_173_">
					<linearGradient id="XMLID_396_" gradientUnits="userSpaceOnUse" x1="868.6642" y1="318.1648" x2="784.8872" y2="485.154">
						<stop  offset="0" style="stop-color:#FF2A3C"/>
						<stop  offset="1" style="stop-color:#FF7F94"/>
					</linearGradient>
					<path id="XMLID_176_" class="st64" d="M819.1,431l-2.7-0.4l6.3-46.6c0.8-6.1,3.9-11.6,8.7-15.4l41.3-33.3l0.1,3.4l-39.7,32
						c-4.2,3.4-7,8.3-7.7,13.7L819.1,431z"/>
					<g id="XMLID_174_">
						<linearGradient id="XMLID_397_" gradientUnits="userSpaceOnUse" x1="744.6322" y1="381.6667" x2="764.846" y2="381.6667">
							<stop  offset="0" style="stop-color:#FF2A3C"/>
							<stop  offset="1" style="stop-color:#FF7F94"/>
						</linearGradient>
						<path id="XMLID_175_" class="st65" d="M761.8,418.8l-1.1-40.3c-0.1-2.2-0.7-4.3-1.9-6.2L744.6,350l0.1-5.4l16.7,26.1
							c1.5,2.3,2.3,5,2.4,7.7l1.1,40.3L761.8,418.8z"/>
					</g>
				</g>
				<linearGradient id="XMLID_398_" gradientUnits="userSpaceOnUse" x1="741.4278" y1="221.9129" x2="855.8389" y2="221.9129">
					<stop  offset="0" style="stop-color:#FF2A3C"/>
					<stop  offset="1" style="stop-color:#FF7F94"/>
				</linearGradient>
				<polygon id="XMLID_172_" class="st66" points="741.4,219.2 750.3,235.1 788.7,235.1 855.8,193.9 855.8,213.3 797.7,249.9 
					750.6,249.9 742.6,238.8 				"/>
				<g id="XMLID_170_">
					<path id="XMLID_171_" class="st67" d="M786.6,231h-34.1l-11.3-17.3l0-2.5l12.1,18.5h33l63.6-37.8c0.3-0.2,0.7-0.1,0.9,0.2
						c0.2,0.3,0.1,0.7-0.2,0.9L786.6,231z"/>
				</g>
				<path id="XMLID_169_" class="st20" d="M771.6,155.6c0,0-28.9,29.9-27.9,46.1c1,16.2,1.8,40.8,2.6,63.2
					c0.8,22.5-1.7,82.1-1.7,82.1s1.1-48.6-0.1-72.4c-0.4-8.1-1.1-24.3-1.9-35.9c-1.4-22.2-2.6-41.1,1.3-48.7
					C749.7,178.4,756.3,168.7,771.6,155.6z"/>
				<path id="XMLID_168_" class="st11" d="M833.2,172.7c0,0-46.7,49.3-27.2,115.9c12.1,41.6,26.8,47.9,30.1,60.4s0.9,15.9-5.1,30.8
					c-6,14.9,18.8-6,21.2,1.7c2.4,7.7-8.6,26.6-17.2,33.5s-5.1,16.6-5.1,16.6s28.3,3.5,44.7-2.8s5.3-29.3,3.5-45.3
					c-1.8-16.1-5.9-32.4-5.2-58.3c0.7-25.9,5.4-86,5.4-86l-35.8,3.1L833.2,172.7z"/>
				<path id="XMLID_167_" class="st16" d="M769.4,118.2c0,0,5.7,32.2,6.8,51.1s50.6-26.1,50.6-26.1l-8.3-29.2c0,0-16.6-12.8-19-11.9
					S769.4,118.2,769.4,118.2z"/>
				<path id="XMLID_166_" class="st15" d="M769.7,129.5c0,0,15.2-6.4,26.8-20.4c0,0,3.3,10.3-4.4,24.5c-7.7,14.2-3.8,13.9-3.4,24.9
					c0.5,11-12.5,10.9-12.5,10.9S774.5,136.7,769.7,129.5z"/>
				<path id="XMLID_165_" class="st16" d="M731.2,45.8c0,0-7.1,17-5.9,31.4s-2.6,51,7.8,60.4c10.5,9.4,27.1,6,39.5-1.9
					c0,0,23.3-22.8,30-36s39-51.1,0-62.2S744.6,23.6,731.2,45.8z"/>
				<path id="XMLID_164_" class="st39" d="M729.8,58.1c0,0-3.4,4.3-3.4,14.8s2,20.1,1.7,27.5c-0.3,7.4,0,11.2,0,11.2l-2.3-2.5
					c0,0-0.1-21.9-0.2-25.5c-0.1-3.5-1.7-17,1.7-25.5L729.8,58.1z"/>
				<path id="XMLID_163_" class="st40" d="M766.5,49.9c0,0-36.2,11.6-45.4,7.2C680.2,38,713.7-8.3,747,13.9
					c17,11.4,57.3,0.6,64.4,13.2c0,0,22.4,9.4,22.6,27.7c0.2,18.2-11.6,73.3-11.6,73.3s-8-10.2-16.2-14.7
					c-8.2-4.4-19.1-16.8-18.4-25.4s5.4-17.2-2.3-16.1c-7.8,1-3.9,24.1-7.7,22c-3.8-2.1-5-1.3-6.7-7.8
					C769.4,79.7,758.5,64.4,766.5,49.9z"/>
				<linearGradient id="XMLID_399_" gradientUnits="userSpaceOnUse" x1="754.1381" y1="669.8942" x2="892.9412" y2="-618.9916">
					<stop  offset="0" style="stop-color:#14003F"/>
					<stop  offset="1" style="stop-color:#992AFF"/>
				</linearGradient>
				<path id="XMLID_162_" class="st68" d="M863.6,159.3c-12.3-2.1-32.1,2.9-41.7,37.3c-9.6,34.4-14.5,94.7-19.1,101.8
					c-13.1,12.4-88,69.5-97.7,75.8c0,0-1.1,19,13.9,24c0,0,19.9-10.6,42.1-23.1c22.2-12.6,79.1-39.9,87.5-61.2
					c9.8-25,30.5-76.6,33.5-90C885.2,210.5,891.7,164.2,863.6,159.3z"/>
				<linearGradient id="XMLID_400_" gradientUnits="userSpaceOnUse" x1="737.5027" y1="323.7772" x2="776.7516" y2="374.8748">
					<stop  offset="0" style="stop-color:#FF2A3C"/>
					<stop  offset="1" style="stop-color:#FF7F94"/>
				</linearGradient>
				<path id="XMLID_161_" class="st69" d="M728.2,357.4h9.5c1.4,0,2.7-0.4,3.9-1.2l27.4-19c1.7-1.2,2.8-3.1,2.9-5.1l0.6-8.6
					L728.2,357.4z"/>
				<linearGradient id="XMLID_401_" gradientUnits="userSpaceOnUse" x1="749.3026" y1="343.587" x2="798.542" y2="407.6912">
					<stop  offset="0" style="stop-color:#FF2A3C"/>
					<stop  offset="1" style="stop-color:#FF7F94"/>
				</linearGradient>
				<path id="XMLID_160_" class="st70" d="M790.8,358.8l-7.6-2.9c-0.8-0.3-1.6-0.2-2.3,0.2L752,374.7c-1.1,0.7-1.9,1.8-2.1,3.1
					l-0.8,4.2L790.8,358.8z"/>
				<linearGradient id="XMLID_402_" gradientUnits="userSpaceOnUse" x1="797.7128" y1="311.1633" x2="854.487" y2="311.1633">
					<stop  offset="0" style="stop-color:#FF2A3C"/>
					<stop  offset="1" style="stop-color:#FF7F94"/>
				</linearGradient>
				<path id="XMLID_159_" class="st71" d="M805.9,288.6l48.5,10.7l-5.7,14.6c0,0-2.1,9.4-18.3,19.9l-32.8-30.6c0,0,3.9-3.1,5.2-4.7
					C804.1,296.9,805.9,288.6,805.9,288.6z"/>
				<path id="XMLID_158_" class="st20" d="M833.2,172.7c0,0-9.4,27.2-8.8,47.7c0.7,20.5-2,28.4-8.1,40.3c-6.1,11.9,4.1,35.2-4,39.6
					c-4.3,2.3-29.5,19.6-52.6,35.6c-5.4,3.7-12,11.4-16.9,14.5c-9.1,5.7-23.2,13.5-23.2,13.5s80.4-62.1,83.4-65.4
					c2.9-3.3,5.5-26.1,5.5-26.1S817.3,189.2,833.2,172.7z"/>
				<path id="XMLID_157_" class="st40" d="M769.4,81.3c0,0,0.6,16.8-6.9,23c-7.5,6.3-36.7,4.8-36.7,4.8s-2.6,9.4,1.7,19.8
					c4.3,10.4,10.4,15.9,27.2,14.9c9.3-0.5,17.7-4.3,21.6-11.8c6.4-12.2,3.9-32.9,3.4-42.8C779,73.3,769.4,81.3,769.4,81.3z"/>
				<path id="XMLID_156_" class="st11" d="M844.4,162.7c0,0,26.7,3.1,27.7,35.5s-23.6,35.5-27.7,57.1c-4.1,21.6-2.4,53.7-12.2,63.5
					c-9.8,9.8-45,11.5-56.1,25c-11.2,13.5-41.3,45.9-41.3,45.9s20.4-11,45.8-25.2c18.5-10.4,38.8-22.3,53.1-33.1
					c10.3-7.7,13-12.5,15-17.7c10.9-27.7,28.8-71.4,33.5-90S892.4,145.1,844.4,162.7z"/>
				<linearGradient id="XMLID_403_" gradientUnits="userSpaceOnUse" x1="740.7608" y1="590.2167" x2="807.3452" y2="630.8591">
					<stop  offset="0" style="stop-color:#FF2A3C"/>
					<stop  offset="1" style="stop-color:#FF7F94"/>
				</linearGradient>
				<path id="XMLID_155_" class="st72" d="M732.8,570.5c0,0,1.1-12.2,13.9-10.2c11.1,1.8,25.9,27.1,44.3,27.1c0,0,0.1,29.7,0.2,34.9
					c-27.2-9.3-27.9,11.4-46.2,4.9c-7.8-2.8-11.3-19.4-11.6-25.5C733.4,601.6,732.1,577.7,732.8,570.5z"/>
				<g id="XMLID_152_">
					<linearGradient id="XMLID_404_" gradientUnits="userSpaceOnUse" x1="745.5521" y1="205.665" x2="800.7555" y2="323.1189">
						<stop  offset="0" style="stop-color:#FF2A3C"/>
						<stop  offset="1" style="stop-color:#FF7F94"/>
					</linearGradient>
					<polygon id="XMLID_154_" class="st73" points="753.1,267.5 796,267.5 781.8,283.4 761.8,283.4 					"/>
					<linearGradient id="XMLID_405_" gradientUnits="userSpaceOnUse" x1="848.639" y1="312.4195" x2="876.6901" y2="323.9976">
						<stop  offset="0" style="stop-color:#FF2A3C"/>
						<stop  offset="1" style="stop-color:#FF7F94"/>
					</linearGradient>
					<polygon id="XMLID_153_" class="st74" points="756.3,267.5 764.4,283.4 761.8,283.4 753.1,267.5 					"/>
				</g>
				<path id="XMLID_151_" class="st27" d="M733.8,560c0,0,5.2-10.3,16.8-6.3c11.5,4,24.6,28.2,40.6,29.3"/>
				<path id="XMLID_150_" class="st27" d="M734.4,619.7c0,0,3.4,13.4,16.7,13.6c13.3,0.2,21.7-14.4,39.8-7.6"/>
				<path id="XMLID_149_" class="st16" d="M591.5,163.8c-0.1-0.2-12.9-23.2-12.9-23.2s-3.3-1-3.3,2.4s9.8,22.2,9.8,22.2L591.5,163.8
					z"/>
				<path id="XMLID_148_" class="st16" d="M586.2,168.1c-0.2-0.1-21-26.7-21-26.7s-3.4-0.4-2.8,3c0.7,3.4,17.7,26.3,17.7,26.3
					L586.2,168.1z"/>
				<path id="XMLID_147_" class="st16" d="M580,172c-0.2-0.1-19.1-18.4-19.1-18.4s-3.5,0-2.4,3.3c1,3.3,15.8,18.4,15.8,18.4L580,172
					z"/>
				<path id="XMLID_146_" class="st16" d="M574.9,176.7c-0.2-0.1-18.7-11.3-18.7-11.3s-2.8,0.6-1.4,3.1s16,11.9,16,11.9L574.9,176.7
					z"/>
				<linearGradient id="XMLID_406_" gradientUnits="userSpaceOnUse" x1="707.0903" y1="446.5492" x2="727.2347" y2="259.4939">
					<stop  offset="0" style="stop-color:#FF2A3C"/>
					<stop  offset="1" style="stop-color:#FF7F94"/>
				</linearGradient>
				<path id="XMLID_145_" class="st75" d="M705.2,374.3c0,0-1.1,19.6,13.9,24l3-1.6c0,0-12.8-5.6-14-24.4L705.2,374.3z"/>
				<path id="XMLID_144_" class="st76" d="M728,109.2c0,0-1.2,4.3,1,14c2.1,9.7,13.9,10.1,17.2,14.8c3.3,4.7,14.8,4.9,19.3,3.5
					c0,0-16.2,7.3-30.2-1.7s-10.1-28.5-9.4-30.7L728,109.2z"/>
				<g id="XMLID_138_">
					
						<linearGradient id="XMLID_407_" gradientUnits="userSpaceOnUse" x1="339.5484" y1="1035.5282" x2="329.5077" y2="1291.5657" gradientTransform="matrix(-1 0 0 1 1193.7627 0)">
						<stop  offset="0" style="stop-color:#FF2A3C"/>
						<stop  offset="1" style="stop-color:#FF7F94"/>
					</linearGradient>
					<path id="XMLID_143_" class="st77" d="M798.8,878.6c0,0-1,12.7,10.7,15.4s76.7-8.8,83-11.2s4.7-6.5,4.4-9.9
						C896.5,869.6,798.8,878.6,798.8,878.6z"/>
					<path id="XMLID_142_" class="st3" d="M887.2,839.5c0,0,1.8,6.6,3.8,10.4c2,3.8,5.8,19,5.8,23.1s-55.6,15.1-77.8,15.1
						s-22.7-13.7-19.5-18.7s20-8.3,35.4-15.9c15.4-7.5,17.8-15.2,17.8-15.2l-7.2-48.7c7.5,1.5,23.3,2.4,39.6-3
						C885.1,786.6,885.7,829.5,887.2,839.5z"/>
					<path id="XMLID_141_" class="st49" d="M895,862.6c0,0-20.2,6.2-22.1,6.8c-1.8,0.6-11.3,13.5-11.3,13.5"/>
					
						<linearGradient id="XMLID_408_" gradientUnits="userSpaceOnUse" x1="246.0429" y1="727.8018" x2="301.8167" y2="780.3703" gradientTransform="matrix(-1 0 0 1 1193.7627 0)">
						<stop  offset="0" style="stop-color:#D31027"/>
						<stop  offset="1" style="stop-color:#FFE9EB"/>
					</linearGradient>
					<path id="XMLID_140_" class="st78" d="M885.5,800.7c0,0-14.8,10.2-37.9,3.6l0.5,3.6c0,0,22.6,7.4,37.3-3.6V800.7z"/>
					
						<linearGradient id="XMLID_409_" gradientUnits="userSpaceOnUse" x1="238.0258" y1="728.0944" x2="296.1978" y2="782.9232" gradientTransform="matrix(-1 0 0 1 1193.7627 0)">
						<stop  offset="0" style="stop-color:#D31027"/>
						<stop  offset="1" style="stop-color:#FFE9EB"/>
					</linearGradient>
					<path id="XMLID_139_" class="st79" d="M885.6,808.4c0,0-15.9,10.7-36.8,3.4l0.4,2.4c0,0,17.1,8.5,36.5-3V808.4z"/>
				</g>
				<path id="XMLID_137_" class="st11" d="M829.7,431.5c-1.7,11.4-0.9,17.8,20.7,35.7c21.6,17.9,26.9,24,26.1,46
					c-0.8,22-3.5,69.6-7.9,83.6c-4.4,14.1-19.3,53.2-10.1,49.2c9.1-4,10.5-0.6,13.2,9.2c2.7,9.8-5.1,108.8,0.3,127.8
					c5.4,18.9,13,58.2,13,58.2s1.1-107.3-2.1-139.3c-3.1-32-8.9-83.6-8.9-83.6s21-130.5,5.3-192.6
					C879.4,425.6,862.7,435.1,829.7,431.5z"/>
			</g>
			<g id="XMLID_128_">
				<path id="XMLID_135_" class="st80" d="M853,985.6c0,0-20.9,2.9-34.6-12.2L668.9,645.8c0,0-12.2-18.8-32-18.8l79.9-15.5
					L853,985.6z"/>
				<path id="XMLID_134_" class="st80" d="M67.9,986c0,0,20.9,2.9,34.6-12.2L252,646.1c0,0,12.2-18.8,32-18.8l-79.9-15.5L67.9,986z"
					/>
				<path id="XMLID_133_" class="st80" d="M577.9,577.1c-1.9-6.8-8.1-11.5-15.1-11.5H471h-1.4h-91.8c-7.1,0-13.3,4.7-15.1,11.5
					L323,721.8h13.9l52.4-118.5c2.5-5.7,8.1-9.3,14.4-9.3h65.9h1.6H537c6.2,0,11.8,3.7,14.4,9.3l52.4,118.5h13.9L577.9,577.1z"/>
				<g id="XMLID_130_">
					<path id="XMLID_132_" class="st81" d="M824.3,547.7H98.4c-12.4,0-22.4-10-22.4-22.4V510h770.6v15.3
						C846.7,537.7,836.7,547.7,824.3,547.7z"/>
					<linearGradient id="XMLID_410_" gradientUnits="userSpaceOnUse" x1="523.6252" y1="878.0209" x2="449.9427" y2="439.5204">
						<stop  offset="0" style="stop-color:#D31027"/>
						<stop  offset="1" style="stop-color:#FFE9EB"/>
					</linearGradient>
					<path id="XMLID_131_" class="st82" d="M831.7,521.2H90.5c-16.2,0-20.8-22.2-5.9-28.6l243.7-87.7c12.5-5.4,25.9-8.1,39.5-8.1
						h158.6c14.1,0,28,3,40.8,8.7l270.6,87.2C852.5,499.2,847.8,521.2,831.7,521.2z"/>
				</g>
				<linearGradient id="XMLID_411_" gradientUnits="userSpaceOnUse" x1="394.3328" y1="395.9298" x2="461.9317" y2="990.8002">
					<stop  offset="0" style="stop-color:#FFE9EB"/>
					<stop  offset="1" style="stop-color:#FFAAAC"/>
				</linearGradient>
				<path id="XMLID_129_" class="st83" d="M763.2,580c-5.2-19.1-22.6-32.4-42.4-32.4H463.4h-4H202c-19.8,0-37.2,13.2-42.4,32.4
					L48.1,986h19.8c11.6,0,22.2-6.9,26.9-17.5L234,653.5c7-15.9,22.8-26.2,40.2-26.2h184.9h4.4h184.9c17.4,0,33.2,10.3,40.3,26.2
					L828,968.5c4.7,10.6,15.2,17.5,26.9,17.5h19.8L763.2,580z"/>
			</g>
			<polygon id="XMLID_127_" class="st76" points="561.5,287.1 747.7,348.1 803.6,457.5 599.8,392.1 			"/>
			<polygon id="XMLID_126_" class="st76" points="330.7,289.1 133.7,363.5 90,469.2 292.5,394.1 			"/>
			<linearGradient id="XMLID_412_" gradientUnits="userSpaceOnUse" x1="229.2491" y1="569.1669" x2="276.689" y2="384.5361">
				<stop  offset="0" style="stop-color:#4FACFE"/>
				<stop  offset="1" style="stop-color:#00F2FE"/>
			</linearGradient>
			<polygon id="XMLID_125_" class="st84" points="282.7,390.3 304,333.6 279.3,342.6 258.9,398.6 			"/>
			<polygon id="XMLID_124_" class="st38" points="250.2,402 264.9,363.3 240.1,372.3 226.3,410.4 			"/>
			<linearGradient id="XMLID_413_" gradientUnits="userSpaceOnUse" x1="174.4897" y1="555.0968" x2="221.9295" y2="370.466">
				<stop  offset="0" style="stop-color:#4FACFE"/>
				<stop  offset="1" style="stop-color:#00F2FE"/>
			</linearGradient>
			<polygon id="XMLID_123_" class="st85" points="217.1,414.1 245.6,338.3 220.8,347.3 193.2,422.4 			"/>
			<polygon id="XMLID_122_" class="st38" points="182.1,426.8 195.4,392.9 170.6,401.9 158.3,435.1 			"/>
			<linearGradient id="XMLID_414_" gradientUnits="userSpaceOnUse" x1="113.82" y1="539.5081" x2="161.2599" y2="354.8773">
				<stop  offset="0" style="stop-color:#4FACFE"/>
				<stop  offset="1" style="stop-color:#00F2FE"/>
			</linearGradient>
			<polygon id="XMLID_121_" class="st86" points="146.9,438.1 171.2,373.3 146.5,382.3 123,446.4 			"/>
			<linearGradient id="XMLID_415_" gradientUnits="userSpaceOnUse" x1="690.327" y1="408.2641" x2="703.8819" y2="548.3317">
				<stop  offset="0" style="stop-color:#FF2A3C"/>
				<stop  offset="1" style="stop-color:#FF7F94"/>
			</linearGradient>
			<polygon id="XMLID_120_" class="st87" points="631,426 616.4,428.4 755.5,473.6 772.4,471.5 			"/>
			<linearGradient id="XMLID_416_" gradientUnits="userSpaceOnUse" x1="432.8701" y1="274.4472" x2="456.2147" y2="487.5608">
				<stop  offset="0" style="stop-color:#FF2A3C"/>
				<stop  offset="1" style="stop-color:#FF7F94"/>
			</linearGradient>
			<polygon id="XMLID_119_" class="st88" points="375.2,396.7 366.7,402.3 527,402.3 519,396.7 			"/>
			<linearGradient id="XMLID_417_" gradientUnits="userSpaceOnUse" x1="160.2698" y1="428.9384" x2="302.6782" y2="517.2676">
				<stop  offset="0" style="stop-color:#FF2A3C"/>
				<stop  offset="1" style="stop-color:#FF7F94"/>
			</linearGradient>
			<polygon id="XMLID_118_" class="st89" points="262.6,428.5 276.5,430.8 142.1,479.5 125.3,477.5 			"/>
			<g id="XMLID_101_">
				<polygon id="XMLID_117_" class="st38" points="394.9,407.7 431.9,407.7 464.6,428.2 361.9,428.2 				"/>
				<line id="XMLID_116_" class="st90" x1="431.4" y1="410.9" x2="399.2" y2="410.9"/>
				<path id="XMLID_115_" class="st91" d="M394.9,407.7l-3.1,2c0,0,2,1,4.9,1.6c2.9,0.6,4,1.7,10.1,3.2c6.1,1.5,18.8,0.5,20.7-0.7
					c1.9-1.2,3-2.8,1.7-4.1l-3.6-2.1L394.9,407.7z"/>
				<path id="XMLID_114_" class="st16" d="M408.3,386.6c0,0,6.2-0.7,6.8-0.4c0.6,0.3,4,2.8,4.1,3.2s0.7,5.1,0.7,5.1
					S408.1,390.5,408.3,386.6z"/>
				
					<linearGradient id="XMLID_418_" gradientUnits="userSpaceOnUse" x1="456.2819" y1="468.3904" x2="459.9947" y2="494.1482" gradientTransform="matrix(1.1561 0.2962 0.2561 1.4878 -232.781 -442.0323)">
					<stop  offset="0" style="stop-color:#14003F"/>
					<stop  offset="1" style="stop-color:#992AFF"/>
				</linearGradient>
				<path id="XMLID_113_" class="st92" d="M421,402.6L421,402.6c-0.4,0.2-1,0.1-1.3-0.4l-10.2-18.4c-0.2-0.4-0.1-1,0.4-1.3l0,0
					c0.4-0.2,1-0.1,1.3,0.4l10.2,18.4C421.6,401.8,421.4,402.4,421,402.6z"/>
				<path id="XMLID_112_" class="st16" d="M386,397.1c0,0,8.1,10.1,8.9,10.6s2.7,1.5,3,1.5s6.1,0,6.5,0.2s4.8,2.9,5.4,3.1
					c0.5,0.3,2.1,0.9,2.9,0.9c0.8,0,2.2,0,2.1-2.2c0,0,1.5,0.9,2.3,0.9c0.8,0,2.2-0.8,2.2-1.5c0-0.7,0-0.7,0-0.7s1.4,1.4,2.2,1.1
					s1.8-1.2,1.8-1.9c0-0.7-3.2-5.9-3.6-6.4c-0.4-0.4-7.4-5.6-7.4-5.6l7.7,2.7c0,0,2.9,4.3,3.6,4.9s1.7,1.6,3.9,0.5
					c0,0-2-6.5-3.4-7.9c-1.4-1.5-13.7-8.1-13.7-8.1l-2-2.7l-8.3,3.2L386,397.1z"/>
				
					<linearGradient id="XMLID_419_" gradientUnits="userSpaceOnUse" x1="450.1064" y1="450.6794" x2="453.8077" y2="476.3574" gradientTransform="matrix(1.1076 0.2089 0.1718 1.3363 -157.018 -305.7436)">
					<stop  offset="0" style="stop-color:#14003F"/>
					<stop  offset="1" style="stop-color:#992AFF"/>
				</linearGradient>
				<path id="XMLID_111_" class="st93" d="M425.9,411.2l-0.3,0.2c-0.4,0.2-0.8,0.1-1-0.3l-5.6-10c-0.2-0.4-0.1-0.8,0.3-1l0.3-0.2
					c0.4-0.2,0.8-0.1,1,0.3l5.6,10C426.4,410.6,426.3,411,425.9,411.2z"/>
				<linearGradient id="XMLID_420_" gradientUnits="userSpaceOnUse" x1="406.5922" y1="408.3103" x2="414.7391" y2="408.3103">
					<stop  offset="0" style="stop-color:#FF2A3C"/>
					<stop  offset="1" style="stop-color:#FF7F94"/>
				</linearGradient>
				<path id="XMLID_110_" class="st94" d="M414.7,411.2c0,0-3.5-2.9-3.7-3c-0.2-0.2-4.4-2.8-4.4-2.8s1.4,2.2,3.1,2.9
					c1.7,0.7,1.2,0.8,2.9,1.8S414.7,411.2,414.7,411.2z"/>
				<linearGradient id="XMLID_421_" gradientUnits="userSpaceOnUse" x1="409.4343" y1="405.7086" x2="419.2487" y2="405.7086">
					<stop  offset="0" style="stop-color:#FF2A3C"/>
					<stop  offset="1" style="stop-color:#FF7F94"/>
				</linearGradient>
				<path id="XMLID_109_" class="st95" d="M419.2,409.9c0,0-4.2-4.8-4.5-5.2c-0.3-0.4-5.3-3.1-5.3-3.1s2.4,3.5,4.3,3.8
					c1.9,0.4,1.5,0.6,2.1,1.4S419.2,409.9,419.2,409.9z"/>
				<path id="XMLID_108_" class="st20" d="M412.6,390.4c0,0,7.4,5.7,8.1,6.1s2.7,1.8,2.9,2.1c0.1,0.4,2.1,6.5,3.9,6.6
					c0,0-1.7-6-3.4-7.9C424.1,397.3,422.4,395.6,412.6,390.4z"/>
				<path id="XMLID_107_" class="st20" d="M412.8,386.1c0,0,2-0.1,2.3,0.1s4,2.5,4.1,3.2s0.7,5.1,0.7,5.1l-1.1-0.6
					c0,0-0.3-3.2-0.2-3.9c0.1-0.7-3.4-3.2-3.5-3.4c-0.1-0.2-2-0.2-2-0.2L412.8,386.1z"/>
				<path id="XMLID_106_" class="st20" d="M412.3,397.1c0,0,4.5,5,5.7,5.7s2.7,2.2,2.9,2.9c0.2,0.7,1.8,4.3,1.8,4.3s0.6-0.6,0.5-1
					c-0.1-0.4-2.3-4.8-3.6-6.4S412.3,397.1,412.3,397.1z"/>
				<line id="XMLID_105_" class="st90" x1="451.4" y1="425.4" x2="426.9" y2="425.4"/>
				<line id="XMLID_104_" class="st90" x1="447.1" y1="422.6" x2="432.6" y2="422.6"/>
				<line id="XMLID_103_" class="st90" x1="440.9" y1="418.1" x2="404.9" y2="418.1"/>
				<line id="XMLID_102_" class="st90" x1="436.3" y1="414.6" x2="394.7" y2="414.6"/>
			</g>
			<linearGradient id="XMLID_422_" gradientUnits="userSpaceOnUse" x1="362.5859" y1="460.9511" x2="406.329" y2="26.144">
				<stop  offset="0" style="stop-color:#14003F"/>
				<stop  offset="1" style="stop-color:#992AFF"/>
			</linearGradient>
			<path id="XMLID_100_" class="st96" d="M440.9,149.9c-3.5,0.5-55.9,23.4-67.5,30.2c-11.6,6.7-39.2,102.2-41.2,114.6
				c-1.9,12.4,50.1,103.2,50.1,103.2s18.1,2.2,21.2-11.7c0,0-18.2-42.5-20.2-57.3c-1.7-13-6.8-34.2-6.8-34.2s24.1-71.9,27.5-74.1
				c3.4-2.2,32.8-51.6,32.8-51.6L440.9,149.9z"/>
			<linearGradient id="XMLID_423_" gradientUnits="userSpaceOnUse" x1="378.1182" y1="340.9546" x2="392.2947" y2="340.9546">
				<stop  offset="0" style="stop-color:#FF2A3C"/>
				<stop  offset="1" style="stop-color:#FF7F94"/>
			</linearGradient>
			<path id="XMLID_99_" class="st97" d="M382.8,324.1l-4.7,5.9l8.9,25.6l5.3,2.1C392.3,357.8,384.4,337.3,382.8,324.1z"/>
			<linearGradient id="XMLID_424_" gradientUnits="userSpaceOnUse" x1="350.1263" y1="355.9135" x2="370.8214" y2="355.9135">
				<stop  offset="0" style="stop-color:#FF2A3C"/>
				<stop  offset="1" style="stop-color:#FF7F94"/>
			</linearGradient>
			<polygon id="XMLID_98_" class="st98" points="350.1,338.3 356.8,338.3 370.8,366.2 368.8,373.5 			"/>
			<linearGradient id="XMLID_425_" gradientUnits="userSpaceOnUse" x1="391.0576" y1="403.0058" x2="393.9353" y2="374.4018">
				<stop  offset="0" style="stop-color:#FF2A3C"/>
				<stop  offset="1" style="stop-color:#FF7F94"/>
			</linearGradient>
			<path id="XMLID_97_" class="st99" d="M382.4,397.9c0,0,18.4,2.1,21.2-11.7l-1.3-3c0,0-3.3,12.2-21.4,12.1L382.4,397.9z"/>
			<g id="XMLID_93_">
				
					<linearGradient id="XMLID_426_" gradientUnits="userSpaceOnUse" x1="336.247" y1="202.9859" x2="346.1338" y2="236.4034" gradientTransform="matrix(0.7894 2.757011e-02 -3.490591e-02 0.9994 109.0647 -11.5771)">
					<stop  offset="0" style="stop-color:#FF2A3C"/>
					<stop  offset="1" style="stop-color:#FF7F94"/>
				</linearGradient>
				<path id="XMLID_96_" class="st100" d="M377.3,218.2c-0.2,4.5-3.2,8.1-6.8,8c-3.6-0.1-6.4-3.9-6.2-8.4c0.2-4.5,3.2-8.1,6.8-8
					S377.5,213.6,377.3,218.2z"/>
				
					<ellipse id="XMLID_95_" transform="matrix(0.9994 3.490590e-02 -3.490590e-02 0.9994 7.834 -12.8113)" class="st101" cx="370.8" cy="218" rx="8.5" ry="10.7"/>
				<line id="XMLID_94_" class="st101" x1="369" y1="228.6" x2="349.7" y2="288.2"/>
			</g>
			<path id="XMLID_92_" class="st102" d="M491.3,417.9c0,0,2,1.6,9.9,1.6c7.9,0,5.9-1.9,12.5,1c6.6,2.8,13.2,3.8,22.7,3
				c9.5-0.8,12.7-3.9,10.4-6.7s-13.4-3-18.8-4.6s-22.6-3.7-26.4-2.5C497.7,410.9,491.3,417.9,491.3,417.9z"/>
			<path id="XMLID_91_" class="st16" d="M509,390.3c0,0-4.1,11.9-5.8,13.1c-1.8,1.2-7.5,3.6-8.5,5.6c-1,2-4.1,7.6-3.3,8.9
				s4.4,0.9,7.2-4.5c2.8-5.4,8.4-2,9-2.2c1.2,0.9,5.9,1.9,9.7,4.5c1,0.8,4.3,5.2,5.8,5.8c1.2,0.4,4.4,0.8,5.8-1c0,0,2.7,0.9,5-1
				c0,0,3.5,0.3,6-1.6c0,0-3.8-5.7-4.8-8.1s-9.6-5.6-10.4-6.3s0.7-5.6,0.7-5.6L509,390.3z"/>
			<linearGradient id="XMLID_427_" gradientUnits="userSpaceOnUse" x1="511.6892" y1="466.9224" x2="554.089" y2="45.4683">
				<stop  offset="0" style="stop-color:#14003F"/>
				<stop  offset="1" style="stop-color:#992AFF"/>
			</linearGradient>
			<path id="XMLID_90_" class="st103" d="M523.4,190.8c0,0,22.6,22.1,29.2,75.4c4.2,34.1,4.3,33.5,1.9,48.5
				c-2.3,14.3-27.4,87.6-27.4,87.6s-17.6,5.6-23.9-8.3c0,0,19.7-72,18.6-83.2c-0.6-6.6-3.6-21.2-6.3-35.1l3.5-23.3
				c-1.6-9.3-6.4-14.4-6.4-14.4S499.5,208.2,523.4,190.8z"/>
			<linearGradient id="XMLID_428_" gradientUnits="userSpaceOnUse" x1="536.2724" y1="325.1825" x2="542.2174" y2="266.0894">
				<stop  offset="0" style="stop-color:#FF2A3C"/>
				<stop  offset="1" style="stop-color:#FF7F94"/>
			</linearGradient>
			<path id="XMLID_89_" class="st104" d="M520.7,303.5l34.5-15.3c0,0,2.9,12.3-0.7,26.5h-32.9C522,312.2,521.6,309.3,520.7,303.5z"
				/>
			<linearGradient id="XMLID_429_" gradientUnits="userSpaceOnUse" x1="501.8563" y1="426.0205" x2="498.5655" y2="406.2759">
				<stop  offset="0" style="stop-color:#FF2A3C"/>
				<stop  offset="1" style="stop-color:#FF7F94"/>
			</linearGradient>
			<path id="XMLID_88_" class="st105" d="M504.9,410.5c0,0-4.5-2.3-7.3,0.3c-2.8,2.6-2.8,7-2.8,7s2.5-1.5,3.8-4.4
				C499.8,410.5,503.2,410.1,504.9,410.5z"/>
			<path id="XMLID_87_" class="st20" d="M528.9,420.5c0,0-5.9-7.3-6-7.8c-0.1-0.5-6.2-3.5-6.2-3.5s3,2.8,4.6,3.9
				c1.6,1.1,1.9,1.4,2.8,3.1C525,417.9,528.9,420.5,528.9,420.5z"/>
			<path id="XMLID_86_" class="st20" d="M533.9,419.5c0,0-3.6-6-4-7c-0.4-1-5.3-4.7-5.8-4.7c-0.5-0.1,3.3,3,3.9,4.3
				c0.6,1.3,1.3,2.3,1.9,2.7C530.6,415.2,533.9,419.5,533.9,419.5z"/>
			<path id="XMLID_85_" class="st11" d="M525.9,204.5c0,0,14.6,28.4,4.7,46.2c-9.9,17.8,4.4,25.4,3.4,36.5c-1,11-5.7,24.5-12.3,23.6
				c0.2-3.3-6.3-35.1-6.3-35.1L525.9,204.5z"/>
			<path id="XMLID_84_" class="st76" d="M725.2,8.3c0,0-12.9,5-15.1,11.7s0,6.1,3.6,14.9c3.6,8.8-1.5,16,8.2,19.1
				c9.7,3.2,19.9,2.4,19.9,2.4s-12.8,3.5-20.7,0.8S703.2,46,702.2,38.4S700.9,12.1,725.2,8.3z"/>
			<path id="XMLID_83_" class="st20" d="M729.8,205.6c0,0-14.8,45-22.3,57.4s-6.8,19.8-9.5,19.1c-2.7-0.7-6.5-4.7-13.1-9.5
				s-38.5-25.7-46.5-44.3c0,0,13,14,33.9,30.7c21,16.8,22.8,18.8,22.8,18.8s4.2-6,8.3-14.4C711.8,246.4,722.8,221.9,729.8,205.6z"/>
			<path id="XMLID_82_" class="st106" d="M801.2,110c0,0-9.9-5-1.9-19.9s14.9-30.4,14.7-46.1c-0.2-15.7-2.5-16.8-2.5-16.8
				s21.7,6.1,22.6,27.7s-11.6,73.3-11.6,73.3S814.7,121.1,801.2,110"/>
			<path id="XMLID_81_" class="st11" d="M772.4,168.2c0,0-0.7,15.4,25.7,13.8c26.4-1.6,46.8-31.7,46.8-31.7l-13-5
				C831.8,145.2,789.8,171.9,772.4,168.2z"/>
			<linearGradient id="XMLID_430_" gradientUnits="userSpaceOnUse" x1="797.0795" y1="145.1795" x2="826.8231" y2="209.6238">
				<stop  offset="0" style="stop-color:#FF2A3C"/>
				<stop  offset="1" style="stop-color:#FF7F94"/>
			</linearGradient>
			<path id="XMLID_80_" class="st107" d="M833.2,145.7c0,0-19.2,21.4-39.8,28.2c-20.5,6.8-21-5.7-21-5.7l2.6-14l0.7,8.6l0,0
				c19.6,1.1,49.1-26.7,49.1-26.7L833.2,145.7L833.2,145.7z"/>
			<g id="XMLID_76_">
				<linearGradient id="XMLID_431_" gradientUnits="userSpaceOnUse" x1="846.5377" y1="183.5719" x2="857.8042" y2="221.6526">
					<stop  offset="0" style="stop-color:#FF2A3C"/>
					<stop  offset="1" style="stop-color:#FF7F94"/>
				</linearGradient>
				<circle id="XMLID_79_" class="st108" cx="852.4" cy="203.3" r="9.4"/>
				<circle id="XMLID_78_" class="st47" cx="852.4" cy="203.3" r="12.2"/>
				<line id="XMLID_77_" class="st47" x1="850.2" y1="215.5" x2="834.2" y2="294.8"/>
			</g>
			<linearGradient id="XMLID_432_" gradientUnits="userSpaceOnUse" x1="113.6464" y1="190.7137" x2="112.0184" y2="232.2255">
				<stop  offset="0" style="stop-color:#FF2A3C"/>
				<stop  offset="1" style="stop-color:#FF7F94"/>
			</linearGradient>
			<path id="XMLID_75_" class="st109" d="M83.6,157.8l7.9-7.7c0,0,39.5,42.6,49.5,28.3l0.8-6.7l3.1,9.7c0,0,3.2,9.9-9.3,11.8
				C123,195,96.9,176.3,83.6,157.8z"/>
			<linearGradient id="XMLID_433_" gradientUnits="userSpaceOnUse" x1="459.8678" y1="218.2564" x2="468.8216" y2="129.2556">
				<stop  offset="0" style="stop-color:#FF2A3C"/>
				<stop  offset="1" style="stop-color:#FF7F94"/>
			</linearGradient>
			<path id="XMLID_74_" class="st110" d="M435,152.1c0,0-8.7,19.1-1.5,39.1c8.1,22.4,44.4,28.3,54.3,10.3
				c8.2-15,10.7-29.7,10.7-29.7l-60.3-21L435,152.1z"/>
			<path id="XMLID_73_" class="st11" d="M441.1,181c0,0-5.2,37.3,31.7,37.3c22.8,0,36.2-6.1,39.6-36.6l-11.5-8.3L441.1,181z"/>
			<g id="XMLID_67_">
				<path id="XMLID_72_" class="st40" d="M519.1,140.9c0,0-3.3,26.2-17.5,30.8c-14.2,4.6,0-41.5,0-41.5L519.1,140.9z"/>
				<path id="XMLID_71_" class="st16" d="M511.4,126.8c0.3,1.9-11.1,71.1-33.2,79.6c-18.1,6.9-39.3-12.7-39.9-42.5
					c-0.1-5.6-0.2-6.6,0-11.3c0.4-8.2-11.3-17.8-2.1-24.9c7.6-5.8,12.4-16.7,19-22.7C468.7,92.8,508,104.6,511.4,126.8z"/>
				<path id="XMLID_70_" class="st39" d="M510.6,132.6c0,0-10.6,37.5-17.8,46.9c-7.1,9.4-6,11.3-9.1,16.4s-9.1,11.4-15,9.4
					c-5.9-2.1-9.7-6.2-17.7-7c0,0,7.7,11.1,22.7,9.3c15-1.8,19.2-17.7,24.5-29C503.6,167.2,509.8,138.4,510.6,132.6z"/>
				<path id="XMLID_69_" class="st40" d="M521.1,107.8c6.5,2,16.2,10.7,8.8,22.4c-5.5,8.8-20.6,18.7-30.3,16.5
					c-17.6-4.1-29.1-21.8-36.6-19c-7.4,2.9-5,33.6-15.6,30.2c-3.6-1.1,5.9-39.4-11.3-30.3c0,0-0.6-6.5,0-13.4s5.4-26,32.3-27.8
					C490.3,85,503.9,102.6,521.1,107.8z"/>
				<path id="XMLID_68_" class="st76" d="M532.5,123.7c0,0-6.2,11.2-13.4,13.2c-7.2,2-3.8,8.6-16,6.7c-12.1-1.8-16.1-11.5-21.3-11.8
					c-5.3-0.3-13.3-7.1-17.2-4.3c0,0,2.8-0.4,11,5.7c8.2,6.1,23.4,20.3,38.4,10.7C529,134.4,530.9,131.2,532.5,123.7z"/>
			</g>
			<linearGradient id="XMLID_434_" gradientUnits="userSpaceOnUse" x1="353.4619" y1="315.3265" x2="358.3286" y2="266.9509">
				<stop  offset="0" style="stop-color:#FF2A3C"/>
				<stop  offset="1" style="stop-color:#FF7F94"/>
			</linearGradient>
			<path id="XMLID_66_" class="st111" d="M378.1,289.7l-41.9-11.6l-3.3,13.1c0,0-1.9,4.8,0.8,11.3l3.1,7.5l41.3-9.1l-1.5-6.4
				L378.1,289.7z"/>
			<path id="XMLID_65_" class="st20" d="M432.6,152.9c0,0-28.5,17.7-40.7,22.3c-12.2,4.6-22.9,4.3-24.5,21.6
				c-1.2,13.2-14.3,55.9-23.3,65.8c-9,9.9-10.2,32.8-9.5,37.6c0.3,2.1,10.3,15.8,19.9,35.4c12.9,26.3,26.6,59.9,26.6,59.9
				s-4.4-7.9-11.2-20.1c-10.2-18.3-28.6-52.1-37.1-75.9c0,0-1.7-2.1,0.8-10.8c1.1-4,4.6-17.9,9.3-33.2c5.6-18.4,12.9-39.4,18.5-53.9
				c9-23.4,11.6-21.5,22.1-26.7C391.9,170.8,432.6,152.9,432.6,152.9z"/>
			<linearGradient id="XMLID_435_" gradientUnits="userSpaceOnUse" x1="542.6091" y1="247.7587" x2="546.8823" y2="205.2827">
				<stop  offset="0" style="stop-color:#FF2A3C"/>
				<stop  offset="1" style="stop-color:#FF7F94"/>
			</linearGradient>
			<path id="XMLID_64_" class="st112" d="M540.7,219.6c0,0-3.3,13.5,7.3,22.2C548,241.8,544.6,228,540.7,219.6z"/>
			<path id="XMLID_63_" class="st47" d="M539.4,216.5c0,0-6.5,17.3,9.5,28.8"/>
			<linearGradient id="XMLID_436_" gradientUnits="userSpaceOnUse" x1="692.0079" y1="454.4592" x2="700.8893" y2="427.2391">
				<stop  offset="0" style="stop-color:#4FACFE"/>
				<stop  offset="1" style="stop-color:#FFFFFF;stop-opacity:0"/>
			</linearGradient>
			<polygon id="XMLID_62_" class="st113" points="631,426 599.8,392.1 803.6,457.5 772.4,471.5 			"/>
			<linearGradient id="XMLID_437_" gradientUnits="userSpaceOnUse" x1="514.5909" y1="406.3684" x2="516.8035" y2="384.3759">
				<stop  offset="0" style="stop-color:#FF2A3C"/>
				<stop  offset="1" style="stop-color:#FF7F94"/>
			</linearGradient>
			<path id="XMLID_61_" class="st114" d="M527,402.3c0,0-17.7,5.5-23.9-8.3l0.9-3.1c0,0,5.7,10.8,24,8.6L527,402.3z"/>
			<linearGradient id="XMLID_438_" gradientUnits="userSpaceOnUse" x1="515.2963" y1="372.286" x2="522.1539" y2="304.1224">
				<stop  offset="0" style="stop-color:#FF2A3C"/>
				<stop  offset="1" style="stop-color:#FF7F94"/>
			</linearGradient>
			<polygon id="XMLID_60_" class="st115" points="519.4,327.9 524,332.8 516.7,359.4 511.6,361.5 			"/>
			<linearGradient id="XMLID_439_" gradientUnits="userSpaceOnUse" x1="538.2784" y1="380.2931" x2="545.1009" y2="312.4774">
				<stop  offset="0" style="stop-color:#FF2A3C"/>
				<stop  offset="1" style="stop-color:#FF7F94"/>
			</linearGradient>
			<polygon id="XMLID_59_" class="st116" points="548.5,336.7 542.5,337.6 534.1,363.6 537.9,369.9 			"/>
			<polyline id="XMLID_58_" class="st10" points="435.8,680.2 418.5,688.4 411.6,700.8 			"/>
			<path id="XMLID_57_" class="st11" d="M432.5,668.3c0,0-5.7-4.1-6.3-7.9c-0.6-3.8-2.4-33-2.4-33h8.6l-1.2,37.1
				C431.1,664.4,432.1,667.6,432.5,668.3z"/>
		</g>
		<polygon id="XMLID_55_" class="st76" points="339.8,287.1 556.8,287.1 531.3,383.7 365.9,383.7 		"/>
		<linearGradient id="XMLID_440_" gradientUnits="userSpaceOnUse" x1="451.0215" y1="329.2942" x2="450.7016" y2="378.2376">
			<stop  offset="0" style="stop-color:#AAD0FF"/>
			<stop  offset="1" style="stop-color:#FFFFFF;stop-opacity:0"/>
		</linearGradient>
		<path id="XMLID_54_" class="st117" d="M360,349.2c0,0,19-0.7,23.5,0.1c7.3,1.2,11,17.4,20.2,17.5c10.5,0,17.8-43.3,29.4-43.2
			c12.9,0.1,13.6,21.2,26.8,21.2c8.3,0,12.8-14.3,21.2-14.6c11.1-0.4,14.8,31.3,26.2,31.8c13.4,0.6,18.1-49.4,34.8-49.4l-17.3,66.3
			H369L360,349.2z"/>
		<linearGradient id="XMLID_441_" gradientUnits="userSpaceOnUse" x1="360.0189" y1="339.5895" x2="542.0179" y2="339.5895">
			<stop  offset="0" style="stop-color:#4FACFE"/>
			<stop  offset="1" style="stop-color:#00F2FE"/>
		</linearGradient>
		<path id="XMLID_53_" class="st118" d="M361.3,349.1c0,0,17.6-0.6,22.2,0.2c7.3,1.2,11,17.4,20.2,17.5c10.5,0,17.8-43.3,29.4-43.2
			c12.9,0.1,13.6,21.2,26.8,21.2c8.3,0,12.8-14.3,21.2-14.6c11.1-0.4,14.8,31.3,26.2,31.8c13.4,0.6,16.8-49.4,33.5-49.4"/>
		<path id="XMLID_52_" class="st119" d="M149.4,617c0,0,39.3-41.3,97.4-41.3s447.6,0,447.6,0s35.1-8,80.4,46.3s0,0,0,0L763.2,580
			c0,0-8.7-32.4-42.4-32.4c-33.7,0,0,0,0,0H202c0,0-32.8,0.2-42.4,32.4s0,0,0,0L149.4,617"/>
		<path id="XMLID_51_" class="st76" d="M162.1,26.8c0,0,6.3,2.8,12.8,2.6c6.6-0.2,16.4,0.5,19.6,7.4c3.2,6.9-4.8,9.2-2.9,14.8
			c1.9,5.6-5.3,9.7-10.9,8.5c-5.6-1.2-12.5-1.8-14.5,0.2c0,0,22.1,5.3,29-0.3c6.9-5.6,7.9-16.1,2.5-24.4S182,23.1,162.1,26.8z"/>
		<polyline id="XMLID_50_" class="st120" points="810,753.1 793.2,768.1 822,849.7 837,851.4 		"/>
		<polyline id="XMLID_49_" class="st120" points="112,756.5 128.9,771.5 100.1,853.1 85.1,854.8 		"/>
		<linearGradient id="XMLID_442_" gradientUnits="userSpaceOnUse" x1="199.3446" y1="462.083" x2="342.181" y2="462.083">
			<stop  offset="0" style="stop-color:#D31027"/>
			<stop  offset="1" style="stop-color:#FFE9EB"/>
		</linearGradient>
		<polygon id="XMLID_48_" class="st121" points="267.4,447.2 199.3,477 306,477 342.2,447.7 		"/>
		<polygon id="XMLID_47_" class="st38" points="267.1,446.8 199.1,476.6 305.7,476.6 341.9,447.3 		"/>
		<ellipse id="XMLID_46_" class="st122" cx="282.7" cy="454.1" rx="17.3" ry="4.8"/>
		<ellipse id="XMLID_45_" class="st122" cx="290.6" cy="466.5" rx="17.3" ry="4.8"/>
		<polygon id="XMLID_44_" class="st90" points="260.8,456.4 279.3,467.7 235.2,469.6 		"/>
		<linearGradient id="XMLID_443_" gradientUnits="userSpaceOnUse" x1="283.9077" y1="455.8762" x2="288.2954" y2="603.5222">
			<stop  offset="0" style="stop-color:#D31027"/>
			<stop  offset="1" style="stop-color:#FFE9EB"/>
		</linearGradient>
		<polygon id="XMLID_43_" class="st123" points="270.8,470.4 208.6,500.2 340.2,500.2 361,470.9 		"/>
		<polygon id="XMLID_42_" class="st3" points="270.5,469.9 208.2,499.7 339.8,499.7 360.7,470.4 		"/>
		<polygon id="XMLID_41_" class="st38" points="649.7,447.1 717.8,476.9 611.1,476.9 567,447.6 		"/>
		<polygon id="XMLID_40_" class="st3" points="719.2,470.2 798.1,500 670.6,500 629,470.7 		"/>
		<linearGradient id="XMLID_444_" gradientUnits="userSpaceOnUse" x1="498.1816" y1="405.7705" x2="662.9398" y2="583.9236">
			<stop  offset="0" style="stop-color:#4FACFE"/>
			<stop  offset="1" style="stop-color:#00F2FE"/>
		</linearGradient>
		<polygon id="XMLID_39_" class="st124" points="591.5,473.3 616.4,491.7 545.1,491.7 521.9,473.3 		"/>
		<g id="XMLID_36_">
			<line id="XMLID_38_" class="st125" x1="349.4" y1="474.7" x2="339.9" y2="487.2"/>
			<line id="XMLID_37_" class="st126" x1="341.4" y1="474.7" x2="335.8" y2="482"/>
		</g>
		<polygon id="XMLID_35_" class="st127" points="334.5,472.9 316.2,496.7 258.4,496.7 295.4,472.9 		"/>
		<g id="XMLID_32_">
			<line id="XMLID_34_" class="st125" x1="284.2" y1="472.9" x2="267.3" y2="483.9"/>
			<line id="XMLID_33_" class="st126" x1="276.1" y1="472.9" x2="263.8" y2="479.7"/>
		</g>
		<polyline id="XMLID_31_" class="st128" points="388.7,627.3 400.3,602.5 511.6,602.5 522.4,627.3 		"/>
		<polygon id="XMLID_30_" class="st129" points="714.2,475.4 771.6,496.4 708.6,488.7 		"/>
		<polygon id="XMLID_29_" class="st129" points="706.3,475.4 701.7,482.5 671.9,475.4 		"/>
		
			<ellipse id="XMLID_28_" transform="matrix(0.9914 0.1306 -0.1306 0.9914 69.9629 -85.2124)" class="st130" cx="684.5" cy="490.7" rx="10.6" ry="4.1"/>
		
			<linearGradient id="XMLID_445_" gradientUnits="userSpaceOnUse" x1="645.6365" y1="296.7815" x2="670.4249" y2="392.9434" gradientTransform="matrix(0.9723 9.694587e-02 9.694587e-02 1.0215 -44.1007 -62.3706)">
			<stop  offset="0" style="stop-color:#4FACFE"/>
			<stop  offset="1" style="stop-color:#00F2FE"/>
		</linearGradient>
		<path id="XMLID_27_" class="st131" d="M607.8,327.5c10.6-8.3,29.1-2.3,41.3,13.4s13.5,35.1,2.9,43.3c-10.6,8.3-29.1,2.3-41.3-13.4
			C598.5,355.2,597.2,335.8,607.8,327.5z"/>
		<path id="XMLID_26_" class="st38" d="M629.9,355.9l14.3-25.7c0,0,23,13.8,16.8,44.9L629.9,355.9z"/>
		<line id="XMLID_25_" class="st132" x1="666.8" y1="345.5" x2="710.4" y2="359.6"/>
		<line id="XMLID_24_" class="st132" x1="672.1" y1="360" x2="741.2" y2="382.4"/>
		<line id="XMLID_23_" class="st132" x1="677.4" y1="374.6" x2="720.8" y2="388.6"/>
		<line id="XMLID_22_" class="st132" x1="682.7" y1="389.1" x2="728.2" y2="403.8"/>
		<path id="XMLID_21_" class="st132" d="M567,302.2"/>
		<linearGradient id="XMLID_446_" gradientUnits="userSpaceOnUse" x1="360.5718" y1="296.5325" x2="419.0983" y2="296.5325">
			<stop  offset="0" style="stop-color:#4FACFE"/>
			<stop  offset="1" style="stop-color:#00F2FE"/>
		</linearGradient>
		<line id="XMLID_20_" class="st133" x1="361.9" y1="296.5" x2="417.8" y2="296.5"/>
		<line id="XMLID_19_" class="st134" x1="364.3" y1="307" x2="385" y2="307"/>
	</g>
	<g id="XMLID_10_">
		<linearGradient id="XMLID_447_" gradientUnits="userSpaceOnUse" x1="433.3065" y1="143.2975" x2="465.7523" y2="593.4838">
			<stop  offset="0" style="stop-color:#14003F"/>
			<stop  offset="1" style="stop-color:#992AFF"/>
		</linearGradient>
		<ellipse id="XMLID_17_" class="st135" cx="455.6" cy="452" rx="100.9" ry="11.6"/>
		<linearGradient id="XMLID_448_" gradientUnits="userSpaceOnUse" x1="461.524" y1="482.0997" x2="450.0426" y2="296.4845">
			<stop  offset="0" style="stop-color:#4FACFE"/>
			<stop  offset="1" style="stop-color:#00F2FE;stop-opacity:0"/>
		</linearGradient>
		<path id="XMLID_16_" class="st136" d="M319.6,292.7l35,159.4c-0.6,6.3,45.2,11.6,100.9,11.6c55.7,0,100.6-5.2,100.9-11.6
			L580,292.7H319.6z"/>
		<linearGradient id="XMLID_449_" gradientUnits="userSpaceOnUse" x1="451.3434" y1="487.5059" x2="458.5295" y2="347.9763">
			<stop  offset="0" style="stop-color:#D4F4FF"/>
			<stop  offset="1" style="stop-color:#00F2FE;stop-opacity:0"/>
		</linearGradient>
		<path id="XMLID_15_" class="st137" d="M427.2,463.1c0,0,28.6,1.1,57.5,0.1V327.9h-57.2L427.2,463.1z"/>
		<linearGradient id="XMLID_450_" gradientUnits="userSpaceOnUse" x1="528.4456" y1="482.2119" x2="525.538" y2="395.2744">
			<stop  offset="0" style="stop-color:#D4F4FF"/>
			<stop  offset="1" style="stop-color:#00F2FE;stop-opacity:0"/>
		</linearGradient>
		<path id="XMLID_14_" class="st138" d="M508.3,461.9c0,0,14.3-1.2,18.9-1.7l16.9-91.8l-35.7,9.8V461.9z"/>
		<g id="XMLID_12_">
			
				<linearGradient id="XMLID_451_" gradientUnits="userSpaceOnUse" x1="578.2993" y1="482.1859" x2="575.4269" y2="396.299" gradientTransform="matrix(-1 0 0 1 963.6005 0)">
				<stop  offset="0" style="stop-color:#D4F4FF"/>
				<stop  offset="1" style="stop-color:#00F2FE;stop-opacity:0"/>
			</linearGradient>
			<path id="XMLID_13_" class="st139" d="M404.9,462.1c0,0-14.3-1.2-18.9-1.7l-15.8-90.6l34.7,8.6V462.1z"/>
		</g>
		<linearGradient id="XMLID_452_" gradientUnits="userSpaceOnUse" x1="453.1653" y1="425.2032" x2="453.1653" y2="408.552">
			<stop  offset="0" style="stop-color:#4FACFE"/>
			<stop  offset="1" style="stop-color:#00F2FE;stop-opacity:0"/>
		</linearGradient>
		<ellipse id="XMLID_11_" class="st140" cx="453.2" cy="416.9" rx="117.4" ry="7.7"/>
	</g>
	
		<linearGradient id="XMLID_453_" gradientUnits="userSpaceOnUse" x1="735.6094" y1="462.8617" x2="745.9937" y2="431.0351" gradientTransform="matrix(-1 0 0 1 937.0555 0)">
		<stop  offset="0" style="stop-color:#4FACFE"/>
		<stop  offset="1" style="stop-color:#FFFFFF;stop-opacity:0"/>
	</linearGradient>
	<polygon id="XMLID_9_" class="st141" points="262.6,428.5 292.5,394.1 90,469.2 126.4,477.3 	"/>
	<g id="XMLID_3_">
		<linearGradient id="XMLID_454_" gradientUnits="userSpaceOnUse" x1="494.4387" y1="433.794" x2="494.4387" y2="389.554">
			<stop  offset="0" style="stop-color:#FFFFFF;stop-opacity:0"/>
			<stop  offset="1" style="stop-color:#FFFFFF"/>
		</linearGradient>
		<line id="XMLID_8_" class="st142" x1="494.4" y1="432.5" x2="494.4" y2="390.8"/>
		<linearGradient id="XMLID_455_" gradientUnits="userSpaceOnUse" x1="400.2605" y1="392.0482" x2="400.2605" y2="347.8083">
			<stop  offset="0" style="stop-color:#FFFFFF;stop-opacity:0"/>
			<stop  offset="1" style="stop-color:#FFFFFF"/>
		</linearGradient>
		<line id="XMLID_7_" class="st143" x1="400.3" y1="390.8" x2="400.3" y2="349.1"/>
		<linearGradient id="XMLID_456_" gradientUnits="userSpaceOnUse" x1="499.8864" y1="357.4483" x2="499.8864" y2="313.2083">
			<stop  offset="0" style="stop-color:#FFFFFF;stop-opacity:0"/>
			<stop  offset="1" style="stop-color:#FFFFFF"/>
		</linearGradient>
		<line id="XMLID_6_" class="st144" x1="499.9" y1="356.2" x2="499.9" y2="314.5"/>
		<linearGradient id="XMLID_457_" gradientUnits="userSpaceOnUse" x1="543.9086" y1="425.1158" x2="543.9086" y2="380.8758">
			<stop  offset="0" style="stop-color:#FFFFFF;stop-opacity:0"/>
			<stop  offset="1" style="stop-color:#FFFFFF"/>
		</linearGradient>
		<line id="XMLID_5_" class="st145" x1="543.9" y1="423.8" x2="543.9" y2="382.2"/>
		<linearGradient id="XMLID_458_" gradientUnits="userSpaceOnUse" x1="365.3587" y1="442.5999" x2="365.3587" y2="398.36">
			<stop  offset="0" style="stop-color:#FFFFFF;stop-opacity:0"/>
			<stop  offset="1" style="stop-color:#FFFFFF"/>
		</linearGradient>
		<line id="XMLID_4_" class="st146" x1="365.4" y1="441.3" x2="365.4" y2="399.6"/>
	</g>
</g>
</svg>
