<?xml version="1.0" encoding="UTF-8"?>
<svg width="166px" height="166px" viewBox="0 0 166 166" version="1.1" xmlns="http://www.w3.org/2000/svg" xmlns:xlink="http://www.w3.org/1999/xlink">
    <!-- Generator: Sketch 63.1 (92452) - https://sketch.com -->
    <title>dot square</title>
    <desc>Created with Sketch.</desc>
    <g id="Page-1" stroke="none" stroke-width="1" fill="none" fill-rule="evenodd" opacity="0.25248">
        <g id="Plainthing-Website" transform="translate(-392.000000, -6339.000000)" fill="#A486FF">
            <g id="We're-Bulit" transform="translate(-11.000000, 5598.000000)">
                <g id="dot-square" transform="translate(403.000000, 741.000000)">
                    <ellipse id="Oval" cx="2.58817204" cy="2.9" rx="2.05268817" ry="2.3"></ellipse>
                    <ellipse id="Oval" cx="29.3623656" cy="2.9" rx="2.05268817" ry="2.3"></ellipse>
                    <ellipse id="Oval" cx="56.1365591" cy="2.9" rx="2.05268817" ry="2.3"></ellipse>
                    <ellipse id="Oval" cx="82.9107527" cy="2.9" rx="2.05268817" ry="2.3"></ellipse>
                    <ellipse id="Oval" cx="109.684946" cy="2.9" rx="2.05268817" ry="2.3"></ellipse>
                    <ellipse id="Oval" cx="136.45914" cy="2.9" rx="2.05268817" ry="2.3"></ellipse>
                    <ellipse id="Oval" cx="163.233333" cy="2.9" rx="2.05268817" ry="2.3"></ellipse>
                    <ellipse id="Oval" cx="2.58817204" cy="28.9" rx="2.05268817" ry="2.3"></ellipse>
                    <ellipse id="Oval" cx="29.3623656" cy="28.9" rx="2.05268817" ry="2.3"></ellipse>
                    <ellipse id="Oval" cx="56.1365591" cy="28.9" rx="2.05268817" ry="2.3"></ellipse>
                    <ellipse id="Oval" cx="82.9107527" cy="28.9" rx="2.05268817" ry="2.3"></ellipse>
                    <ellipse id="Oval" cx="109.684946" cy="28.9" rx="2.05268817" ry="2.3"></ellipse>
                    <ellipse id="Oval" cx="136.45914" cy="28.9" rx="2.05268817" ry="2.3"></ellipse>
                    <ellipse id="Oval" cx="163.233333" cy="28.9" rx="2.05268817" ry="2.3"></ellipse>
                    <ellipse id="Oval" cx="2.58817204" cy="55.9" rx="2.05268817" ry="2.3"></ellipse>
                    <ellipse id="Oval" cx="29.3623656" cy="55.9" rx="2.05268817" ry="2.3"></ellipse>
                    <ellipse id="Oval" cx="56.1365591" cy="55.9" rx="2.05268817" ry="2.3"></ellipse>
                    <ellipse id="Oval" cx="82.9107527" cy="55.9" rx="2.05268817" ry="2.3"></ellipse>
                    <ellipse id="Oval" cx="109.684946" cy="55.9" rx="2.05268817" ry="2.3"></ellipse>
                    <ellipse id="Oval" cx="136.45914" cy="55.9" rx="2.05268817" ry="2.3"></ellipse>
                    <ellipse id="Oval" cx="163.233333" cy="55.9" rx="2.05268817" ry="2.3"></ellipse>
                    <ellipse id="Oval" cx="2.58817204" cy="83.9" rx="2.05268817" ry="2.3"></ellipse>
                    <ellipse id="Oval" cx="29.3623656" cy="83.9" rx="2.05268817" ry="2.3"></ellipse>
                    <ellipse id="Oval" cx="56.1365591" cy="83.9" rx="2.05268817" ry="2.3"></ellipse>
                    <ellipse id="Oval" cx="82.9107527" cy="83.9" rx="2.05268817" ry="2.3"></ellipse>
                    <ellipse id="Oval" cx="109.684946" cy="83.9" rx="2.05268817" ry="2.3"></ellipse>
                    <ellipse id="Oval" cx="136.45914" cy="83.9" rx="2.05268817" ry="2.3"></ellipse>
                    <ellipse id="Oval" cx="163.233333" cy="83.9" rx="2.05268817" ry="2.3"></ellipse>
                    <ellipse id="Oval" cx="2.58817204" cy="109.9" rx="2.05268817" ry="2.3"></ellipse>
                    <ellipse id="Oval" cx="29.3623656" cy="109.9" rx="2.05268817" ry="2.3"></ellipse>
                    <ellipse id="Oval" cx="56.1365591" cy="109.9" rx="2.05268817" ry="2.3"></ellipse>
                    <ellipse id="Oval" cx="82.9107527" cy="109.9" rx="2.05268817" ry="2.3"></ellipse>
                    <ellipse id="Oval" cx="109.684946" cy="109.9" rx="2.05268817" ry="2.3"></ellipse>
                    <ellipse id="Oval" cx="136.45914" cy="109.9" rx="2.05268817" ry="2.3"></ellipse>
                    <ellipse id="Oval" cx="163.233333" cy="109.9" rx="2.05268817" ry="2.3"></ellipse>
                    <ellipse id="Oval" cx="2.58817204" cy="136.9" rx="2.05268817" ry="2.3"></ellipse>
                    <ellipse id="Oval" cx="29.3623656" cy="136.9" rx="2.05268817" ry="2.3"></ellipse>
                    <ellipse id="Oval" cx="56.1365591" cy="136.9" rx="2.05268817" ry="2.3"></ellipse>
                    <ellipse id="Oval" cx="82.9107527" cy="136.9" rx="2.05268817" ry="2.3"></ellipse>
                    <ellipse id="Oval" cx="109.684946" cy="136.9" rx="2.05268817" ry="2.3"></ellipse>
                    <ellipse id="Oval" cx="136.45914" cy="136.9" rx="2.05268817" ry="2.3"></ellipse>
                    <ellipse id="Oval" cx="163.233333" cy="136.9" rx="2.05268817" ry="2.3"></ellipse>
                    <ellipse id="Oval" cx="2.58817204" cy="162.9" rx="2.05268817" ry="2.3"></ellipse>
                    <ellipse id="Oval" cx="29.3623656" cy="162.9" rx="2.05268817" ry="2.3"></ellipse>
                    <ellipse id="Oval" cx="56.1365591" cy="162.9" rx="2.05268817" ry="2.3"></ellipse>
                    <ellipse id="Oval" cx="82.9107527" cy="162.9" rx="2.05268817" ry="2.3"></ellipse>
                    <ellipse id="Oval" cx="109.684946" cy="162.9" rx="2.05268817" ry="2.3"></ellipse>
                    <ellipse id="Oval" cx="136.45914" cy="162.9" rx="2.05268817" ry="2.3"></ellipse>
                    <ellipse id="Oval" cx="163.233333" cy="162.9" rx="2.05268817" ry="2.3"></ellipse>
                </g>
            </g>
        </g>
    </g>
</svg>