<?xml version="1.0" encoding="UTF-8"?>
<svg width="36px" height="36px" viewBox="0 0 36 36" version="1.1" xmlns="http://www.w3.org/2000/svg" xmlns:xlink="http://www.w3.org/1999/xlink">
    <!-- Generator: Sketch 63.1 (92452) - https://sketch.com -->
    <title>dribble</title>
    <desc>Created with Sketch.</desc>
    <g id="Page-1" stroke="none" stroke-width="1" fill="none" fill-rule="evenodd">
        <g id="Plainthing-Website" transform="translate(-285.000000, -8361.000000)" fill="#FFFFFF">
            <g id="Group-17" transform="translate(235.000000, 8361.000000)">
                <path d="M75.36835,30.62255 C75.05385,27.39455 74.42185,24.23055 73.46185,21.14355 C76.26285,20.57555 79.19235,20.59205 82.10685,21.16005 C81.28435,25.17355 78.76635,28.55905 75.36835,30.62255 M71.02335,14.95755 C73.84085,13.27305 76.34335,11.02105 78.39135,8.28455 C80.78135,10.81505 82.29235,14.20055 82.37285,17.93255 C78.98785,17.33605 75.60235,17.35155 72.36185,18.07305 C71.95135,17.02155 71.51235,15.98105 71.02335,14.95755 M67.88885,32.76305 C64.83385,32.76305 62.00135,31.80355 59.67185,30.18005 C62.37985,26.33905 66.12735,23.53755 70.35935,22.02655 C71.36635,25.25405 72.03185,28.60755 72.28135,32.00555 C70.87885,32.44805 69.43185,32.76305 67.88885,32.76305 M53.39235,18.24605 C54.88785,18.45155 56.39885,18.64105 57.89435,18.64105 C61.46535,18.64105 64.94635,17.85555 68.15885,16.43655 C68.56585,17.28755 68.92785,18.12155 69.27485,19.00455 C64.53585,20.68805 60.34835,23.78805 57.24985,28.03955 C54.87135,25.45655 53.39235,22.04305 53.39235,18.24605 M60.96135,5.59155 C63.16535,8.03005 65.07185,10.70655 66.67635,13.55555 C62.69335,15.27255 58.22485,15.79205 53.79935,14.97455 C54.74735,10.91105 57.40685,7.54255 60.96135,5.59155 M67.88885,3.75055 C70.86735,3.75055 73.61935,4.64455 75.91585,6.17205 C74.15535,8.59805 72.28135,8.84505 69.55735,12.09205 C68.01335,9.31955 66.17235,6.72505 64.09585,4.31455 C65.32135,3.98455 66.56635,3.75055 67.88885,3.75055 M67.88885,0.52255 C58.11185,0.52255 50.16435,8.47005 50.16435,18.24605 C50.16435,28.02305 58.11185,35.99105 67.88885,35.99105 C77.66635,35.99105 85.63285,28.02305 85.63285,18.24605 C85.63285,8.47005 77.66635,0.52255 67.88885,0.52255" id="dribble"></path>
            </g>
        </g>
    </g>
</svg>