<?xml version="1.0" encoding="utf-8"?>
<!-- Generator: Adobe Illustrator 19.0.0, SVG Export Plug-In . SVG Version: 6.00 Build 0)  -->
<svg version="1.1" id="Layer_1" xmlns="http://www.w3.org/2000/svg" xmlns:xlink="http://www.w3.org/1999/xlink" x="0px" y="0px"
	 viewBox="0 0 259.2 304.8" style="enable-background:new 0 0 259.2 304.8;" xml:space="preserve">
<style type="text/css">
	.st0{opacity:0.7;}
	.st1{fill:url(#XMLID_28_);}
	.st2{fill:url(#XMLID_29_);}
	.st3{fill:url(#XMLID_30_);}
	.st4{fill:url(#XMLID_31_);}
</style>
<g id="XMLID_208_">
	<g id="XMLID_464_" class="st0">
		<g id="XMLID_467_">
			
				<linearGradient id="XMLID_28_" gradientUnits="userSpaceOnUse" x1="6334.2681" y1="-5662.1089" x2="6479.8418" y2="-5763.7793" gradientTransform="matrix(-0.9621 0.2726 0.2726 0.9621 7861.4248 3909.5107)">
				<stop  offset="0" style="stop-color:#FF3FFA"/>
				<stop  offset="0.9995" style="stop-color:#12AEE7;stop-opacity:0"/>
			</linearGradient>
			<path id="XMLID_468_" class="st1" d="M45.3,216.9c13.6,18.5,33.2,32.6,57.2,38.9c55.2,14.4,111.8-18.6,126.2-73.8
				c7.9-30.4,1.5-61.3-15.1-85.1c-13.6-19.6-33.9-34.6-58.7-41.1C99.7,41.3,43.1,74.4,28.7,129.6C20.5,160.8,27.5,192.6,45.3,216.9z
				"/>
		</g>
		
			<linearGradient id="XMLID_29_" gradientUnits="userSpaceOnUse" x1="7704.0068" y1="-5509.3809" x2="7672.9834" y2="-5480.6284" gradientTransform="matrix(-0.9981 6.136195e-02 6.136195e-02 0.9981 8188.4595 5210.9043)">
			<stop  offset="0" style="stop-color:#720094"/>
			<stop  offset="0.9995" style="stop-color:#713398;stop-opacity:0"/>
		</linearGradient>
		<path id="XMLID_466_" class="st2" d="M162.3,224.1c-6.9-6.5-3-21.5,8.4-33.4c11.4-11.7,26.3-15.9,33.1-9.4
			c6.9,6.5,3,21.5-8.4,33.4S169,230.8,162.3,224.1z"/>
		
			<linearGradient id="XMLID_30_" gradientUnits="userSpaceOnUse" x1="6397.292" y1="-5781.9985" x2="6381.668" y2="-5799.4961" gradientTransform="matrix(-0.9621 0.2726 0.2726 0.9621 7861.4248 3909.5107)">
			<stop  offset="0" style="stop-color:#280094"/>
			<stop  offset="0.9995" style="stop-color:#2E2B63;stop-opacity:0"/>
		</linearGradient>
		<path id="XMLID_465_" class="st3" d="M157.4,83.3c-1.7,5.4-12.1,6.7-23.3,3.4c-11.2-3.5-19.1-10.6-17.5-15.9
			c1.7-5.4,12.1-6.7,23.3-3.4C151.2,70.9,159.1,77.9,157.4,83.3z"/>
	</g>
	
		<linearGradient id="XMLID_31_" gradientUnits="userSpaceOnUse" x1="6319.5" y1="-5678.9854" x2="6369.1553" y2="-5698.9175" gradientTransform="matrix(-0.9621 0.2726 0.2726 0.9621 7861.4248 3909.5107)">
		<stop  offset="9.415064e-04" style="stop-color:#D4FFF9"/>
		<stop  offset="1" style="stop-color:#206585;stop-opacity:0"/>
	</linearGradient>
	<path id="XMLID_463_" class="st4" d="M159.2,254.5c0,0,57.4-13.8,71-79.7c13.8-66-44.5-105.2-44.5-105.2S162.6,211,159.2,254.5z"/>
</g>
</svg>
