<?xml version="1.0" encoding="utf-8"?>
<!-- Generator: Adobe Illustrator 19.0.0, SVG Export Plug-In . SVG Version: 6.00 Build 0)  -->
<svg version="1.1" xmlns="http://www.w3.org/2000/svg" xmlns:xlink="http://www.w3.org/1999/xlink" x="0px" y="0px"
	 viewBox="0 0 3352.3 1080" style="enable-background:new 0 0 3352.3 1080;" xml:space="preserve">
<style type="text/css">
	.st0{fill:url(#XMLID_128_);}
	.st1{fill:url(#XMLID_129_);}
	.st2{opacity:5.000000e-02;fill:url(#XMLID_130_);}
	.st3{fill:url(#XMLID_131_);}
	.st4{fill:url(#XMLID_132_);}
	.st5{opacity:5.000000e-02;fill:url(#XMLID_134_);}
	.st6{opacity:5.000000e-02;fill:url(#XMLID_136_);enable-background:new    ;}
	.st7{fill:url(#XMLID_138_);}
	.st8{fill:url(#XMLID_140_);}
	.st9{opacity:0.2;fill:url(#XMLID_142_);enable-background:new    ;}
	.st10{fill:url(#XMLID_144_);}
	.st11{fill:url(#XMLID_146_);}
	.st12{opacity:0.2;fill:url(#XMLID_147_);enable-background:new    ;}
	.st13{fill:url(#XMLID_148_);}
	.st14{fill:url(#XMLID_149_);}
	.st15{fill:url(#XMLID_150_);}
	.st16{opacity:0.2;fill:url(#XMLID_151_);enable-background:new    ;}
	.st17{opacity:0.2;fill:url(#XMLID_152_);enable-background:new    ;}
	.st18{fill:url(#XMLID_153_);}
	.st19{fill:url(#XMLID_154_);}
	.st20{fill:url(#XMLID_155_);}
	.st21{opacity:0.2;fill:url(#XMLID_156_);enable-background:new    ;}
	.st22{fill:url(#XMLID_157_);}
	.st23{fill:url(#XMLID_158_);}
	.st24{opacity:0.1;fill:url(#XMLID_159_);enable-background:new    ;}
	.st25{display:none;}
	.st26{display:inline;}
	.st27{fill:#6EF9CB;}
	.st28{opacity:0.7;}
	.st29{opacity:0.6;}
	.st30{fill:url(#XMLID_160_);}
	.st31{fill:url(#XMLID_161_);}
	.st32{fill:url(#XMLID_162_);}
	.st33{fill:url(#XMLID_163_);}
	.st34{fill:url(#XMLID_164_);}
	.st35{fill:url(#XMLID_165_);}
	.st36{fill:url(#XMLID_166_);}
	.st37{fill:url(#XMLID_167_);}
	.st38{fill:url(#XMLID_168_);}
	.st39{fill:url(#XMLID_169_);}
	.st40{fill:url(#XMLID_170_);}
	.st41{fill:url(#XMLID_171_);}
	.st42{fill:url(#XMLID_172_);}
	.st43{fill:none;stroke:url(#XMLID_173_);stroke-width:3;stroke-miterlimit:10;}
	.st44{fill:none;stroke:url(#XMLID_174_);stroke-width:3;stroke-miterlimit:10;}
	.st45{fill:url(#XMLID_175_);}
	.st46{fill:url(#XMLID_176_);}
	.st47{fill:#965EE5;}
	.st48{fill:#FFF3F4;}
	.st49{fill:url(#XMLID_177_);}
	.st50{opacity:0.3;fill:#01030A;enable-background:new    ;}
	.st51{opacity:0.7;fill:#FFFFFF;enable-background:new    ;}
	.st52{fill:url(#XMLID_178_);}
	.st53{fill:url(#XMLID_179_);}
	.st54{fill:#FC8F9A;}
	.st55{fill:#EA7586;}
	.st56{fill:url(#XMLID_199_);}
	.st57{fill:url(#XMLID_201_);}
	.st58{fill:url(#XMLID_202_);}
	.st59{fill:url(#XMLID_209_);}
	.st60{fill:url(#XMLID_210_);}
	.st61{fill:url(#XMLID_211_);}
	.st62{fill:url(#XMLID_212_);}
	.st63{fill:#FF4355;}
	.st64{fill:#FF3C4F;}
	.st65{fill:url(#XMLID_213_);}
	.st66{fill:#B192E0;}
	.st67{fill:url(#XMLID_214_);}
	.st68{fill:url(#XMLID_216_);}
	.st69{fill:url(#XMLID_218_);}
	.st70{fill:url(#XMLID_220_);}
	.st71{fill:#FFF9DC;}
	.st72{fill:url(#XMLID_222_);}
	.st73{fill:url(#XMLID_224_);}
	.st74{fill:url(#XMLID_226_);}
	.st75{fill:url(#XMLID_228_);}
	.st76{fill:url(#XMLID_230_);}
	.st77{fill:url(#XMLID_232_);}
	.st78{fill:#E06396;}
	.st79{fill:url(#XMLID_234_);}
	.st80{fill:url(#XMLID_236_);}
	.st81{fill:url(#XMLID_238_);}
	.st82{fill:url(#XMLID_240_);}
	.st83{fill:#E8677A;}
	.st84{fill:url(#XMLID_242_);}
	.st85{fill:url(#XMLID_244_);}
	.st86{fill:url(#XMLID_246_);}
	.st87{fill:url(#XMLID_248_);}
	.st88{fill:url(#XMLID_250_);}
	.st89{fill:url(#XMLID_252_);}
	.st90{fill:#0F0211;}
	.st91{fill:url(#XMLID_254_);}
	.st92{fill:url(#XMLID_256_);}
	.st93{fill:#FFFFFF;}
	.st94{fill:url(#XMLID_258_);}
	.st95{opacity:0.3;}
	.st96{fill:url(#XMLID_260_);}
	.st97{fill:url(#XMLID_262_);}
	.st98{fill:url(#XMLID_264_);}
	.st99{opacity:0.3;fill:#FFFFFF;enable-background:new    ;}
	.st100{font-family:'Poppins-Medium';}
	.st101{font-size:70px;}
	.st102{display:inline;fill:#FFFFFF;}
</style>
<g id="Layer_1">
	<g id="XMLID_53_">
		
			<linearGradient id="XMLID_128_" gradientUnits="userSpaceOnUse" x1="2708.5366" y1="-32.481" x2="975.0213" y2="932.159" gradientTransform="matrix(1 0 0 -1 0 1082)">
			<stop  offset="0" style="stop-color:#1F0045"/>
			<stop  offset="1" style="stop-color:#320B6B"/>
		</linearGradient>
		<rect id="XMLID_92_" class="st0" width="3352.3" height="1080"/>
		
			<linearGradient id="XMLID_129_" gradientUnits="userSpaceOnUse" x1="3732.3831" y1="-1231.3315" x2="2505.1196" y2="472.9743" gradientTransform="matrix(1 0 0 -1 0 1082)">
			<stop  offset="0" style="stop-color:#00F2FE"/>
			<stop  offset="1" style="stop-color:#352FB6;stop-opacity:0"/>
		</linearGradient>
		<path id="XMLID_203_" class="st1" d="M1868.3,1080c0,0,74.2-122.4,304.7-89.7c230.4,32.7,488.4-96.3,547-233.6
			c133.2-312.2,444-347.7,632.1-326.8l0.2,212.5V1080H1868.3z"/>
		
			<linearGradient id="XMLID_130_" gradientUnits="userSpaceOnUse" x1="521.4478" y1="1308.1022" x2="1021.555" y2="-1403.0063" gradientTransform="matrix(1 0 0 -1 0 1082)">
			<stop  offset="0" style="stop-color:#00F2FE"/>
			<stop  offset="1" style="stop-color:#352FB6;stop-opacity:0"/>
		</linearGradient>
		<path id="XMLID_207_" class="st2" d="M1091.8,0c0,0,21.3,329.3-195.1,396.6C725.3,455.5,183.3,400,0,673.9V1080
			c7.8-89.7,314-583,834.1-568.2c282.1,8,510.7-232,491.4-511.8H1091.8z"/>
	</g>
	<linearGradient id="XMLID_131_" gradientUnits="userSpaceOnUse" x1="2065.8428" y1="1231.9174" x2="2030.3196" y2="744.2812">
		<stop  offset="0" style="stop-color:#00F2FE"/>
		<stop  offset="1" style="stop-color:#352FB6;stop-opacity:0"/>
	</linearGradient>
	<path id="XMLID_62_" class="st3" d="M2453.1,1081.4c-26.7-196.1-194.9-347.1-398.3-347.1s-371.5,151.1-398.3,347.1H2453.1z"/>
	<linearGradient id="XMLID_132_" gradientUnits="userSpaceOnUse" x1="2061.5657" y1="1196.8768" x2="2036.4564" y2="763.3252">
		<stop  offset="0" style="stop-color:#00F2FE"/>
		<stop  offset="1" style="stop-color:#352FB6;stop-opacity:0"/>
	</linearGradient>
	<path id="XMLID_61_" class="st4" d="M2391.5,1081.4c-26.2-162.3-167-286.2-336.7-286.2s-310.4,123.9-336.7,286.2H2391.5z"/>
	
		<linearGradient id="XMLID_134_" gradientUnits="userSpaceOnUse" x1="1220.517" y1="491.5979" x2="1410.517" y2="-538.4022" gradientTransform="matrix(1 0 0 -1 0 1082)">
		<stop  offset="0" style="stop-color:#00F2FE"/>
		<stop  offset="1" style="stop-color:#352FB6;stop-opacity:0"/>
	</linearGradient>
	<path id="XMLID_206_" class="st5" d="M1204.7,1029.9c0,0,0-34.7,46.7-57.1c62.9-30.1,84.4-74.8,105.5-80.2s31.3,45.1,8.9,75.7
		c-22.4,30.6-21.9,61.7-21.9,61.7L1204.7,1029.9L1204.7,1029.9z"/>
	
		<linearGradient id="XMLID_136_" gradientUnits="userSpaceOnUse" x1="494.0621" y1="1121.3901" x2="575.2471" y2="681.2822" gradientTransform="matrix(1 0 0 -1 0 1082)">
		<stop  offset="0" style="stop-color:#00F2FE"/>
		<stop  offset="1" style="stop-color:#352FB6;stop-opacity:0"/>
	</linearGradient>
	<path id="XMLID_204_" class="st6" d="M678.1,1.4c0,0,20.4,77.3,64.6,108.7c44.2,31.4-53.8,115.3-199.8,39.3s-270-148-270-148
		L678.1,1.4z"/>
	<g id="XMLID_180_">
		
			<radialGradient id="XMLID_138_" cx="3821.0198" cy="-2188.396" r="170.4585" gradientTransform="matrix(1.0264 -0.4581 0.5229 1.1715 -774.6591 5314.1304)" gradientUnits="userSpaceOnUse">
			<stop  offset="9.415064e-04" style="stop-color:#00FFFF"/>
			<stop  offset="1" style="stop-color:#00F2FE;stop-opacity:0"/>
		</radialGradient>
		<path id="XMLID_200_" class="st7" d="M2200.2,889.1c-16.2-36.3-115.7-126.8-288.7-78c-136.7,38.5-142.5,180.7-126.2,217.1
			c16.2,36.3,130.7-19,208.2-53.5C2070.9,940.2,2216.4,925.5,2200.2,889.1z"/>
		<linearGradient id="XMLID_140_" gradientUnits="userSpaceOnUse" x1="2031.9631" y1="1026.8473" x2="2190.0002" y2="1232.0593">
			<stop  offset="0" style="stop-color:#00F2FE"/>
			<stop  offset="1" style="stop-color:#4FACFE"/>
		</linearGradient>
		<path id="XMLID_59_" class="st8" d="M2336.3,1081.4c-25.6-132.1-141.8-231.8-281.4-231.8c-139.6,0-255.8,99.7-281.4,231.8H2336.3z
			"/>
		
			<linearGradient id="XMLID_142_" gradientUnits="userSpaceOnUse" x1="154.1926" y1="155.0783" x2="161.5022" y2="-32.5319" gradientTransform="matrix(-1 0 0 -1 2301.4243 1082)">
			<stop  offset="0" style="stop-color:#FFFFFF"/>
			<stop  offset="0.9825" style="stop-color:#154BFF"/>
		</linearGradient>
		<path id="XMLID_198_" class="st9" d="M1968.4,1081.4c0,0,0.5-29,54.7-53.3c54.1-24.2,66.5-5,86.9-46.9c20.5-42,87.9-0.6,117,38.6
			c21.8,29.3,74.7,20.5,87.1,60l-134.8,0.8C2179.1,1080.5,1985,1080.2,1968.4,1081.4z"/>
		
			<linearGradient id="XMLID_144_" gradientUnits="userSpaceOnUse" x1="404.2088" y1="57.1073" x2="412.2361" y2="83.6867" gradientTransform="matrix(-1 0 0 -1 2301.4243 1082)">
			<stop  offset="9.415064e-04" style="stop-color:#2A73FF"/>
			<stop  offset="1" style="stop-color:#2EC9FE;stop-opacity:0"/>
		</linearGradient>
		<path id="XMLID_197_" class="st10" d="M1915.4,995.4c-4.4-7.2-18.2-6.7-30.8,1c-12.5,7.8-19.3,19.8-14.9,27
			c4.4,7.2,18.2,6.7,30.8-1C1913,1014.7,1919.8,1002.7,1915.4,995.4z"/>
		
			<linearGradient id="XMLID_146_" gradientUnits="userSpaceOnUse" x1="1732.9852" y1="-2067.832" x2="1697.6128" y2="-2104.2151" gradientTransform="matrix(0.6876 0.7261 -0.7261 0.6876 -549.9783 1240.0864)">
			<stop  offset="9.415064e-04" style="stop-color:#2A73FF"/>
			<stop  offset="1" style="stop-color:#2EC9FE;stop-opacity:0"/>
		</linearGradient>
		<path id="XMLID_196_" class="st11" d="M2183.6,1055.2c2.9-12.4-12.2-26.6-33.9-31.8c-21.7-5.3-41.7,0.6-44.6,13
			c-2.9,12.4,12.2,26.6,33.9,31.8C2160.7,1073.5,2180.7,1067.6,2183.6,1055.2z"/>
		
			<linearGradient id="XMLID_147_" gradientUnits="userSpaceOnUse" x1="2510.9917" y1="-1630.1221" x2="2498.0378" y2="-1643.4462" gradientTransform="matrix(0.9962 -8.759880e-02 8.759880e-02 0.9962 -331.0331 2814.8208)">
			<stop  offset="0" style="stop-color:#0F0119"/>
			<stop  offset="0.9825" style="stop-color:#7431F7;stop-opacity:0"/>
		</linearGradient>
		<path id="XMLID_195_" class="st12" d="M2030.7,954.4c-2.8-3.6-10.5-2.6-16.8,2.5s-9.3,12.2-6.5,15.8s10.5,2.6,16.8-2.5
			C2030.7,965.2,2033.5,958.2,2030.7,954.4z"/>
		
			<linearGradient id="XMLID_148_" gradientUnits="userSpaceOnUse" x1="2419.0374" y1="-1726.9634" x2="2446.7659" y2="-1654.8717" gradientTransform="matrix(0.9962 -8.759880e-02 8.759880e-02 0.9962 -331.0331 2814.8208)">
			<stop  offset="9.415064e-04" style="stop-color:#7FE4FF"/>
			<stop  offset="1" style="stop-color:#30C8FE;stop-opacity:0"/>
		</linearGradient>
		<path id="XMLID_194_" class="st13" d="M1785.3,1038.9c0,0,26-81.2,99.9-133.3c47.1-33.2,120.2-76.8,250.6-44.3
			C2135.7,861.2,1935.2,1021.2,1785.3,1038.9z"/>
		<g id="XMLID_191_">
			
				<linearGradient id="XMLID_149_" gradientUnits="userSpaceOnUse" x1="27.1941" y1="128.7547" x2="51.8844" y2="109.3503" gradientTransform="matrix(-1 0 0 -1 2301.4243 1082)">
				<stop  offset="0" style="stop-color:#FFD4E8"/>
				<stop  offset="0.9987" style="stop-color:#0FE7FD;stop-opacity:0.6"/>
			</linearGradient>
			<path id="XMLID_193_" class="st14" d="M2245.5,942.3c0,0,11.2-0.5,15.8-2.7c2.1-1.9,9.2,2.1,15.9,9.1c6.7,7,10.3,14.2,8.3,16.2
				c0,0-5.2,11.8-3.7,15.5c1.6,3.7-16.2,2.6-31-19.5C2238.9,943.3,2245.5,942.3,2245.5,942.3z"/>
			
				<linearGradient id="XMLID_150_" gradientUnits="userSpaceOnUse" x1="4459.5605" y1="4944.73" x2="4472.9873" y2="4968.7573" gradientTransform="matrix(0.2555 0.9668 -0.9668 0.2555 5922.1567 -4629.8013)">
				<stop  offset="9.415064e-04" style="stop-color:#2B8AFF"/>
				<stop  offset="1" style="stop-color:#3DCAFE;stop-opacity:0"/>
			</linearGradient>
			<path id="XMLID_192_" class="st15" d="M2261.5,941c-1.9,1.8,1.6,8.7,7.9,15.3c6.3,6.6,12.9,10.3,15,8.5c1.9-1.8-1.6-8.7-7.9-15.3
				C2270.1,942.9,2263.4,939.1,2261.5,941z"/>
		</g>
		
			<linearGradient id="XMLID_151_" gradientUnits="userSpaceOnUse" x1="2551.3069" y1="-756.9155" x2="2579.2214" y2="-774.9092" gradientTransform="matrix(0.8563 -0.5164 0.5164 0.8563 355.986 2889.1458)">
			<stop  offset="0" style="stop-color:#0F0119"/>
			<stop  offset="0.9825" style="stop-color:#7431F7;stop-opacity:0"/>
		</linearGradient>
		<path id="XMLID_190_" class="st16" d="M2129.6,883.6c0,0-9.2-3-13.2,5.9c-4,8.9,10.2,8.7,17.8,11.8c7.6,3.1,28.3,22.2,42.1,26.5
			s25.9-0.4,25.1-11.6C2200.6,904.9,2168.9,878.7,2129.6,883.6z"/>
		
			<linearGradient id="XMLID_152_" gradientUnits="userSpaceOnUse" x1="236.7409" y1="206.744" x2="241.8662" y2="162.4463" gradientTransform="matrix(-1 0 0 -1 2301.4243 1082)">
			<stop  offset="0" style="stop-color:#0C00AA"/>
			<stop  offset="0.9825" style="stop-color:#32C6FE;stop-opacity:0"/>
		</linearGradient>
		<path id="XMLID_189_" class="st17" d="M2098.7,872.6c0,0,3,8.7-6.3,18.6c-14.1,15-36.1,22.8-56.6,19.5c-20.4-3.2,1.2-29,1.2-29
			s-0.1,7.9,21.5,7.6C2072.3,889.3,2099.6,881.9,2098.7,872.6z"/>
		<g id="XMLID_186_">
			
				<linearGradient id="XMLID_153_" gradientUnits="userSpaceOnUse" x1="237.0287" y1="239.28" x2="231.5835" y2="189.0178" gradientTransform="matrix(-1 0 0 -1 2301.4243 1082)">
				<stop  offset="0" style="stop-color:#FFD4E8"/>
				<stop  offset="0.9987" style="stop-color:#2DCAFE;stop-opacity:0.6"/>
			</linearGradient>
			<path id="XMLID_188_" class="st18" d="M2037,881.8c0,0,7.2-11.2,8-17.2c-0.5-3.4,8.3-7.5,19.7-9.2c11.4-1.7,20.9-0.4,21.5,3
				c0,0,7.9,13.2,12.5,14.2c4.7,1.2-8.5,17.5-40.2,16.8C2033.5,888.9,2037,881.8,2037,881.8z"/>
			
				<linearGradient id="XMLID_154_" gradientUnits="userSpaceOnUse" x1="236.8176" y1="236.2549" x2="233.455" y2="195.9044" gradientTransform="matrix(-1 0 0 -1 2301.4243 1082)">
				<stop  offset="9.415064e-04" style="stop-color:#5C4ACD"/>
				<stop  offset="1" style="stop-color:#3DCAFE;stop-opacity:0"/>
			</linearGradient>
			<path id="XMLID_187_" class="st19" d="M2046.6,865.4c0.5,3.2,9.6,4.5,20.3,2.8s19-5.6,18.5-8.7c-0.5-3.2-9.6-4.5-20.3-2.8
				C2054.5,858.2,2046.2,862.1,2046.6,865.4z"/>
		</g>
		
			<linearGradient id="XMLID_155_" gradientUnits="userSpaceOnUse" x1="453.171" y1="75.588" x2="486.9839" y2="112.4489" gradientTransform="matrix(-1 0 0 -1 2301.4243 1082)">
			<stop  offset="9.415064e-04" style="stop-color:#2A73FF"/>
			<stop  offset="1" style="stop-color:#2EC9FE;stop-opacity:0"/>
		</linearGradient>
		<path id="XMLID_185_" class="st20" d="M1846.2,939.8c0,0,4.9,18.5-8.9,30.5c-13.7,12.2-19.4,19.1-20.8,32.8
			c-1.4,13.7-20.2,16.5-20.3,9.6C1796.3,1012.7,1814.4,972.5,1846.2,939.8z"/>
		
			<linearGradient id="XMLID_156_" gradientUnits="userSpaceOnUse" x1="367.6753" y1="167.6178" x2="367.0371" y2="110.9396" gradientTransform="matrix(-1 0 0 -1 2301.4243 1082)">
			<stop  offset="0" style="stop-color:#0C00AA"/>
			<stop  offset="0.9825" style="stop-color:#32C6FE;stop-opacity:0"/>
		</linearGradient>
		<path id="XMLID_184_" class="st21" d="M1969.7,912c0,0,4.9,1.3,2.8,12c-2.2,10.7-23.9,52.6-50.2,58.2s-32.7-15.4-22.9-27.7
			c0,0-0.5,9.6,27.3-0.6C1954.5,943.7,1975.9,919.1,1969.7,912z"/>
		<g id="XMLID_181_">
			
				<linearGradient id="XMLID_157_" gradientUnits="userSpaceOnUse" x1="381.0787" y1="174.1118" x2="360.0688" y2="137.3714" gradientTransform="matrix(-1 0 0 -1 2301.4243 1082)">
				<stop  offset="0" style="stop-color:#FFD4E8"/>
				<stop  offset="0.9987" style="stop-color:#2DCAFE;stop-opacity:0.6"/>
			</linearGradient>
			<path id="XMLID_183_" class="st22" d="M1899.3,954.6c0,0,3-17.5,1-25c-2.3-3.9,6.2-13.3,19.1-21.2c12.9-7.9,25.2-11.1,27.7-7.2
				c0,0,16.3,11.9,22.5,10.9s-1.4,25.5-40.3,40.9C1898.7,964.9,1899.3,954.6,1899.3,954.6z"/>
			
				<linearGradient id="XMLID_158_" gradientUnits="userSpaceOnUse" x1="389.6165" y1="193.5564" x2="362.4653" y2="135.3752" gradientTransform="matrix(-1 0 0 -1 2301.4243 1082)">
				<stop  offset="9.415064e-04" style="stop-color:#5C4ACD"/>
				<stop  offset="1" style="stop-color:#2EC9FE;stop-opacity:0"/>
			</linearGradient>
			<path id="XMLID_182_" class="st23" d="M1902.7,929.6c2.2,3.6,13.8,0.5,26-6.9c12.2-7.4,20.3-16.4,18.1-20
				c-2.2-3.6-13.8-0.5-26,6.9C1908.5,917.1,1900.5,926,1902.7,929.6z"/>
		</g>
	</g>
	
		<linearGradient id="XMLID_159_" gradientUnits="userSpaceOnUse" x1="2134.6213" y1="1245.8484" x2="2163.8469" y2="920.471" gradientTransform="matrix(1 0 0 -1 0 1082)">
		<stop  offset="0" style="stop-color:#00F2FE"/>
		<stop  offset="1" style="stop-color:#352FB6;stop-opacity:0"/>
	</linearGradient>
	<path id="XMLID_462_" class="st24" d="M1926.1,0c0,0,5.8,106.3,66.2,141.2c60.4,34.9,118.9,16.8,169.5-38.4s106.5-44.7,161.5-64.6
		s49.2-38.1,49.2-38.1h-446.5V0z"/>
</g>
<g id="Layer_3" class="st25">
	<g id="XMLID_1_" class="st26">
		<g id="XMLID_2_">
			<path id="XMLID_277_" class="st27" d="M1667.2,369.8c0.8,0,0.8-1.3,0-1.3S1666.4,369.8,1667.2,369.8L1667.2,369.8z"/>
		</g>
		<g id="XMLID_3_">
			<path id="XMLID_275_" class="st27" d="M1576.7,333.6c0.8,0,0.8-1.3,0-1.3C1575.8,332.3,1575.8,333.6,1576.7,333.6L1576.7,333.6z"
				/>
		</g>
		<g id="XMLID_4_">
			<path id="XMLID_273_" class="st27" d="M2008.7,446.1c0.8,0,0.8-1.3,0-1.3C2007.8,444.8,2007.8,446.1,2008.7,446.1L2008.7,446.1z"
				/>
		</g>
		<g id="XMLID_5_">
			<path id="XMLID_271_" class="st27" d="M1877.2,352.6c0.8,0,0.8-1.3,0-1.3C1876.3,351.3,1876.3,352.6,1877.2,352.6L1877.2,352.6z"
				/>
		</g>
		<g id="XMLID_6_">
			<path id="XMLID_269_" class="st27" d="M1517.7,434.6c0.8,0,0.8-1.3,0-1.3C1516.8,433.3,1516.8,434.6,1517.7,434.6L1517.7,434.6z"
				/>
		</g>
		<g id="XMLID_7_">
			<path id="XMLID_267_" class="st27" d="M1413.7,387.1c0.8,0,0.8-1.3,0-1.3C1412.8,385.8,1412.8,387.1,1413.7,387.1L1413.7,387.1z"
				/>
		</g>
		<g id="XMLID_8_">
			<path id="XMLID_265_" class="st27" d="M1225.2,200.6c0.8,0,0.8-1.3,0-1.3C1224.3,199.3,1224.3,200.6,1225.2,200.6L1225.2,200.6z"
				/>
		</g>
		<g id="XMLID_9_">
			<path id="XMLID_263_" class="st27" d="M1087.2,373.6c0.8,0,0.8-1.3,0-1.3C1086.3,372.3,1086.3,373.6,1087.2,373.6L1087.2,373.6z"
				/>
		</g>
		<g id="XMLID_10_">
			<path id="XMLID_261_" class="st27" d="M1107.2,485.6c0.8,0,0.8-1.3,0-1.3C1106.3,484.3,1106.3,485.6,1107.2,485.6L1107.2,485.6z"
				/>
		</g>
		<g id="XMLID_11_">
			<path id="XMLID_259_" class="st27" d="M1341.2,431.6c0.8,0,0.8-1.3,0-1.3C1340.3,430.3,1340.3,431.6,1341.2,431.6L1341.2,431.6z"
				/>
		</g>
		<g id="XMLID_12_">
			<path id="XMLID_257_" class="st27" d="M1323.2,382.6c0.8,0,0.8-1.3,0-1.3C1322.3,381.3,1322.3,382.6,1323.2,382.6L1323.2,382.6z"
				/>
		</g>
		<g id="XMLID_13_">
			<path id="XMLID_255_" class="st27" d="M1292.2,325.6c0.8,0,0.8-1.3,0-1.3C1291.3,324.3,1291.3,325.6,1292.2,325.6L1292.2,325.6z"
				/>
		</g>
		<g id="XMLID_14_">
			<path id="XMLID_253_" class="st27" d="M1450.2,245.6c0.8,0,0.8-1.3,0-1.3C1449.3,244.3,1449.3,245.6,1450.2,245.6L1450.2,245.6z"
				/>
		</g>
		<g id="XMLID_15_">
			<path id="XMLID_251_" class="st27" d="M1551.2,281.6c0.8,0,0.8-1.3,0-1.3C1550.3,280.3,1550.3,281.6,1551.2,281.6L1551.2,281.6z"
				/>
		</g>
		<g id="XMLID_16_">
			<path id="XMLID_249_" class="st27" d="M2332.2,279.6c0.8,0,0.8-1.3,0-1.3C2331.3,278.3,2331.3,279.6,2332.2,279.6L2332.2,279.6z"
				/>
		</g>
		<g id="XMLID_17_">
			<path id="XMLID_247_" class="st27" d="M2245.2,263.6c0.8,0,0.8-1.3,0-1.3C2244.3,262.3,2244.3,263.6,2245.2,263.6L2245.2,263.6z"
				/>
		</g>
		<g id="XMLID_18_">
			<path id="XMLID_245_" class="st27" d="M2250.2,325.6c0.8,0,0.8-1.3,0-1.3C2249.3,324.3,2249.3,325.6,2250.2,325.6L2250.2,325.6z"
				/>
		</g>
		<g id="XMLID_19_">
			<path id="XMLID_243_" class="st27" d="M2200.2,384.6c0.8,0,0.8-1.3,0-1.3C2199.3,383.3,2199.3,384.6,2200.2,384.6L2200.2,384.6z"
				/>
		</g>
		<g id="XMLID_20_">
			<path id="XMLID_241_" class="st27" d="M2123.2,371.6c0.8,0,0.8-1.3,0-1.3C2122.3,370.3,2122.3,371.6,2123.2,371.6L2123.2,371.6z"
				/>
		</g>
		<g id="XMLID_21_">
			<path id="XMLID_239_" class="st27" d="M2161.2,463.6c0.8,0,0.8-1.3,0-1.3C2160.3,462.3,2160.3,463.6,2161.2,463.6L2161.2,463.6z"
				/>
		</g>
		<g id="XMLID_22_">
			<path id="XMLID_237_" class="st27" d="M2316.2,505.6c0.8,0,0.8-1.3,0-1.3C2315.3,504.3,2315.3,505.6,2316.2,505.6L2316.2,505.6z"
				/>
		</g>
		<g id="XMLID_23_">
			<path id="XMLID_235_" class="st27" d="M1909,485.2c0.8,0,0.8-1.3,0-1.3C1908.1,483.9,1908.1,485.2,1909,485.2L1909,485.2z"/>
		</g>
		<g id="XMLID_24_">
			<path id="XMLID_233_" class="st27" d="M1685,517.2c0.8,0,0.8-1.3,0-1.3C1684.1,515.9,1684.1,517.2,1685,517.2L1685,517.2z"/>
		</g>
		<g id="XMLID_25_">
			<path id="XMLID_231_" class="st27" d="M1744.3,462.5c0.4,0,0.9,0,1.3,0c0.2,0,0.3-0.1,0.5-0.2c0.1-0.1,0.2-0.3,0.2-0.5
				c0-0.4-0.3-0.7-0.7-0.7s-0.9,0-1.3,0c-0.2,0-0.3,0.1-0.5,0.2c-0.1,0.1-0.2,0.3-0.2,0.5C1743.7,462.2,1743.9,462.5,1744.3,462.5
				L1744.3,462.5z"/>
		</g>
		<g id="XMLID_26_">
			<path id="XMLID_229_" class="st27" d="M1843,447.9c0.8,0,0.8-1.3,0-1.3C1842.1,446.6,1842.1,447.9,1843,447.9L1843,447.9z"/>
		</g>
		<g id="XMLID_27_">
			<path id="XMLID_227_" class="st27" d="M1692.3,241.2c0.8,0,0.8-1.3,0-1.3C1691.5,239.9,1691.5,241.2,1692.3,241.2L1692.3,241.2z"
				/>
		</g>
		<g id="XMLID_28_">
			<path id="XMLID_225_" class="st27" d="M1899,192.5c0.4,0,0.9,0,1.3,0c0.2,0,0.3-0.1,0.5-0.2c0.1-0.1,0.2-0.3,0.2-0.5
				c0-0.4-0.3-0.7-0.7-0.7s-0.9,0-1.3,0c-0.2,0-0.3,0.1-0.5,0.2c-0.1,0.1-0.2,0.3-0.2,0.5C1898.3,192.2,1898.6,192.5,1899,192.5
				L1899,192.5z"/>
		</g>
		<g id="XMLID_29_">
			<path id="XMLID_223_" class="st27" d="M1977.6,239.9c0.8,0,0.8-1.3,0-1.3C1976.8,238.6,1976.8,239.9,1977.6,239.9L1977.6,239.9z"
				/>
		</g>
		<g id="XMLID_30_">
			<path id="XMLID_221_" class="st27" d="M1820.3,275.2c0.8,0,0.8-1.3,0-1.3C1819.5,273.9,1819.5,275.2,1820.3,275.2L1820.3,275.2z"
				/>
		</g>
		<g id="XMLID_31_">
			<path id="XMLID_219_" class="st27" d="M1971,367.2c0.8,0,0.8-1.3,0-1.3C1970.1,365.9,1970.1,367.2,1971,367.2L1971,367.2z"/>
		</g>
		<g id="XMLID_32_">
			<path id="XMLID_217_" class="st27" d="M1547,524.5c0.8,0,0.8-1.3,0-1.3C1546.1,523.2,1546.1,524.5,1547,524.5L1547,524.5z"/>
		</g>
		<g id="XMLID_33_">
			<path id="XMLID_215_" class="st27" d="M2249.6,532.5c0.8,0,0.8-1.3,0-1.3S2248.8,532.5,2249.6,532.5L2249.6,532.5z"/>
		</g>
		<g id="XMLID_555_">
			<g id="XMLID_625_">
				<path id="XMLID_626_" class="st27" d="M958.7,763.5c0.8,0,0.8-1.3,0-1.3C957.8,762.2,957.8,763.5,958.7,763.5L958.7,763.5z"/>
			</g>
			<g id="XMLID_622_">
				<path id="XMLID_623_" class="st27" d="M977.7,901.5c0.8,0,0.8-1.3,0-1.3C976.8,900.2,976.8,901.5,977.7,901.5L977.7,901.5z"/>
			</g>
			<g id="XMLID_620_">
				<path id="XMLID_621_" class="st27" d="M1254.5,961.1c0.8,0,0.8-1.3,0-1.3C1253.6,959.8,1253.6,961.1,1254.5,961.1L1254.5,961.1z
					"/>
			</g>
			<g id="XMLID_616_">
				<path id="XMLID_618_" class="st27" d="M1490.5,948.4c0.8,0,0.8-1.3,0-1.3C1489.6,947.1,1489.6,948.4,1490.5,948.4L1490.5,948.4z
					"/>
			</g>
			<g id="XMLID_614_">
				<path id="XMLID_615_" class="st27" d="M1409.1,859.8c0.8,0,0.8-1.3,0-1.3C1408.3,858.5,1408.3,859.8,1409.1,859.8L1409.1,859.8z
					"/>
			</g>
			<g id="XMLID_612_">
				<path id="XMLID_613_" class="st27" d="M1421.8,795.1c0.8,0,0.8-1.3,0-1.3S1421,795.1,1421.8,795.1L1421.8,795.1z"/>
			</g>
			<g id="XMLID_610_">
				<path id="XMLID_611_" class="st27" d="M1281.1,769.8c0.8,0,0.8-1.3,0-1.3C1280.3,768.5,1280.3,769.8,1281.1,769.8L1281.1,769.8z
					"/>
			</g>
			<g id="XMLID_608_">
				<path id="XMLID_609_" class="st27" d="M1243.8,846.4c0.8,0,0.8-1.3,0-1.3S1243,846.4,1243.8,846.4L1243.8,846.4z"/>
			</g>
			<g id="XMLID_606_">
				<path id="XMLID_607_" class="st27" d="M1173.8,815.1c0.8,0,0.8-1.3,0-1.3S1173,815.1,1173.8,815.1L1173.8,815.1z"/>
			</g>
			<g id="XMLID_604_">
				<path id="XMLID_605_" class="st27" d="M1140.5,755.1c0.8,0,0.8-1.3,0-1.3C1139.6,753.8,1139.6,755.1,1140.5,755.1L1140.5,755.1z
					"/>
			</g>
			<g id="XMLID_602_">
				<path id="XMLID_603_" class="st27" d="M1329.8,682.4c0.8,0,0.8-1.3,0-1.3S1329,682.4,1329.8,682.4L1329.8,682.4z"/>
			</g>
			<g id="XMLID_599_">
				<path id="XMLID_601_" class="st27" d="M1329.1,657.8c0.8,0,0.8-1.3,0-1.3S1328.3,657.8,1329.1,657.8L1329.1,657.8z"/>
			</g>
			<g id="XMLID_597_">
				<path id="XMLID_598_" class="st27" d="M1249.1,636.4c0.8,0,0.8-1.3,0-1.3S1248.3,636.4,1249.1,636.4L1249.1,636.4z"/>
			</g>
			<g id="XMLID_593_">
				<path id="XMLID_594_" class="st27" d="M1085.8,659.1c0.8,0,0.8-1.3,0-1.3S1085,659.1,1085.8,659.1L1085.8,659.1z"/>
			</g>
			<g id="XMLID_591_">
				<path id="XMLID_592_" class="st27" d="M1015.1,636.4c0.8,0,0.8-1.3,0-1.3S1014.3,636.4,1015.1,636.4L1015.1,636.4z"/>
			</g>
			<g id="XMLID_589_">
				<path id="XMLID_590_" class="st27" d="M1107.8,794.4c0.8,0,0.8-1.3,0-1.3S1107,794.4,1107.8,794.4L1107.8,794.4z"/>
			</g>
			<g id="XMLID_587_">
				<path id="XMLID_588_" class="st27" d="M1061.8,853.1c0.8,0,0.8-1.3,0-1.3S1061,853.1,1061.8,853.1L1061.8,853.1z"/>
			</g>
			<g id="XMLID_584_">
				<path id="XMLID_585_" class="st27" d="M1178.5,923.8c0.8,0,0.8-1.3,0-1.3C1177.6,922.5,1177.6,923.8,1178.5,923.8L1178.5,923.8z
					"/>
			</g>
			<g id="XMLID_582_">
				<path id="XMLID_583_" class="st27" d="M1041.1,984.4c0.8,0,0.8-1.3,0-1.3S1040.3,984.4,1041.1,984.4L1041.1,984.4z"/>
			</g>
		</g>
		<g id="XMLID_34_">
			<path id="XMLID_145_" class="st27" d="M2284.3,456.5c0.8,0,0.8-1.3,0-1.3S2283.5,456.5,2284.3,456.5L2284.3,456.5z"/>
		</g>
		<g id="XMLID_35_">
			<path id="XMLID_143_" class="st27" d="M1771,194.5c0.8,0,0.8-1.3,0-1.3C1770.1,193.2,1770.1,194.5,1771,194.5L1771,194.5z"/>
		</g>
		<g id="XMLID_36_">
			<path id="XMLID_141_" class="st27" d="M1567.6,180.5c0.8,0,0.8-1.3,0-1.3C1566.8,179.2,1566.8,180.5,1567.6,180.5L1567.6,180.5z"
				/>
		</g>
		<g id="XMLID_37_">
			<path id="XMLID_139_" class="st27" d="M1400.3,324.5c0.8,0,0.8-1.3,0-1.3C1399.5,323.2,1399.5,324.5,1400.3,324.5L1400.3,324.5z"
				/>
		</g>
		<g id="XMLID_38_">
			<path id="XMLID_137_" class="st27" d="M1182.3,281.9c0.8,0,0.8-1.3,0-1.3C1181.5,280.6,1181.5,281.9,1182.3,281.9L1182.3,281.9z"
				/>
		</g>
		<g id="XMLID_39_">
			<path id="XMLID_135_" class="st27" d="M1120.3,219.2c0.8,0,0.8-1.3,0-1.3C1119.5,217.9,1119.5,219.2,1120.3,219.2L1120.3,219.2z"
				/>
		</g>
		<g id="XMLID_40_">
			<path id="XMLID_133_" class="st27" d="M1389.6,195.9c0.8,0,0.8-1.3,0-1.3C1388.8,194.6,1388.8,195.9,1389.6,195.9L1389.6,195.9z"
				/>
		</g>
		<g id="XMLID_628_">
			<g id="XMLID_667_">
				<path id="XMLID_668_" class="st27" d="M2192.3,788.5c0.8,0,0.8-1.3,0-1.3S2191.5,788.5,2192.3,788.5L2192.3,788.5z"/>
			</g>
			<g id="XMLID_665_">
				<path id="XMLID_666_" class="st27" d="M2090.3,624.5c0.8,0,0.8-1.3,0-1.3S2089.5,624.5,2090.3,624.5L2090.3,624.5z"/>
			</g>
			<g id="XMLID_662_">
				<path id="XMLID_664_" class="st27" d="M2250.3,612.5c0.8,0,0.8-1.3,0-1.3S2249.5,612.5,2250.3,612.5L2250.3,612.5z"/>
			</g>
			<g id="XMLID_658_">
				<path id="XMLID_661_" class="st27" d="M2260.3,722.5c0.8,0,0.8-1.3,0-1.3S2259.5,722.5,2260.3,722.5L2260.3,722.5z"/>
			</g>
			<g id="XMLID_656_">
				<path id="XMLID_657_" class="st27" d="M2100.3,832.5c0.8,0,0.8-1.3,0-1.3S2099.5,832.5,2100.3,832.5L2100.3,832.5z"/>
			</g>
			<g id="XMLID_654_">
				<path id="XMLID_655_" class="st27" d="M2064.3,914.5c0.8,0,0.8-1.3,0-1.3S2063.5,914.5,2064.3,914.5L2064.3,914.5z"/>
			</g>
			<g id="XMLID_652_">
				<path id="XMLID_653_" class="st27" d="M1886.3,928.5c0.8,0,0.8-1.3,0-1.3C1885.5,927.2,1885.5,928.5,1886.3,928.5L1886.3,928.5z
					"/>
			</g>
			<g id="XMLID_650_">
				<path id="XMLID_651_" class="st27" d="M1898.3,828.5c0.8,0,0.8-1.3,0-1.3C1897.5,827.2,1897.5,828.5,1898.3,828.5L1898.3,828.5z
					"/>
			</g>
			<g id="XMLID_648_">
				<path id="XMLID_649_" class="st27" d="M2028.3,824.5c0.8,0,0.8-1.3,0-1.3C2027.5,823.2,2027.5,824.5,2028.3,824.5L2028.3,824.5z
					"/>
			</g>
			<g id="XMLID_646_">
				<path id="XMLID_647_" class="st27" d="M1990.3,864.5c0.8,0,0.8-1.3,0-1.3C1989.5,863.2,1989.5,864.5,1990.3,864.5L1990.3,864.5z
					"/>
			</g>
			<g id="XMLID_644_">
				<path id="XMLID_645_" class="st27" d="M1926.3,754.5c0.8,0,0.8-1.3,0-1.3C1925.5,753.2,1925.5,754.5,1926.3,754.5L1926.3,754.5z
					"/>
			</g>
			<g id="XMLID_642_">
				<path id="XMLID_643_" class="st27" d="M1834.3,722.5c0.8,0,0.8-1.3,0-1.3C1833.5,721.2,1833.5,722.5,1834.3,722.5L1834.3,722.5z
					"/>
			</g>
			<g id="XMLID_640_">
				<path id="XMLID_641_" class="st27" d="M1816.3,822.5c0.8,0,0.8-1.3,0-1.3C1815.5,821.2,1815.5,822.5,1816.3,822.5L1816.3,822.5z
					"/>
			</g>
			<g id="XMLID_638_">
				<path id="XMLID_639_" class="st27" d="M1752.3,890.5c0.8,0,0.8-1.3,0-1.3C1751.5,889.2,1751.5,890.5,1752.3,890.5L1752.3,890.5z
					"/>
			</g>
			<g id="XMLID_635_">
				<path id="XMLID_637_" class="st27" d="M1778.3,678.5c0.8,0,0.8-1.3,0-1.3C1777.5,677.2,1777.5,678.5,1778.3,678.5L1778.3,678.5z
					"/>
			</g>
			<g id="XMLID_633_">
				<path id="XMLID_634_" class="st27" d="M1776.3,598.5c0.8,0,0.8-1.3,0-1.3C1775.5,597.2,1775.5,598.5,1776.3,598.5L1776.3,598.5z
					"/>
			</g>
			<g id="XMLID_629_">
				<path id="XMLID_631_" class="st27" d="M1954.3,648.5c0.8,0,0.8-1.3,0-1.3C1953.5,647.2,1953.5,648.5,1954.3,648.5L1954.3,648.5z
					"/>
			</g>
		</g>
	</g>
	<g id="XMLID_556_" class="st26">
		<g id="XMLID_574_" class="st28">
			<g id="XMLID_580_" class="st29">
				
					<linearGradient id="XMLID_160_" gradientUnits="userSpaceOnUse" x1="1514.5551" y1="472.2043" x2="1574.6204" y2="350.6239" gradientTransform="matrix(1 0 0 -1 0 1082)">
					<stop  offset="0" style="stop-color:#00F2FE"/>
					<stop  offset="1" style="stop-color:#352FB6;stop-opacity:0"/>
				</linearGradient>
				<path id="XMLID_581_" class="st30" d="M1596.4,691.9c-2.9-7.7-8.3-14.5-16-19c-17.6-10.5-40.4-4.5-50.9,13.1
					c-5.7,9.7-6.5,21-3.1,30.9c2.8,8.1,8.3,15.2,16.2,19.9c17.6,10.5,40.4,4.5,50.9-13.1C1599.4,713.7,1600.1,702.1,1596.4,691.9z"
					/>
			</g>
			<g id="XMLID_577_">
				
					<linearGradient id="XMLID_161_" gradientUnits="userSpaceOnUse" x1="1538.2638" y1="393.3292" x2="1579.4733" y2="364.5478" gradientTransform="matrix(1 0 0 -1 0 1082)">
					<stop  offset="0" style="stop-color:#BFECFF"/>
					<stop  offset="0.9995" style="stop-color:#12AEE7;stop-opacity:0"/>
				</linearGradient>
				<path id="XMLID_579_" class="st31" d="M1588.9,694.7c-2.3-6-6.5-11.5-12.6-15c-14-8.2-31.9-3.5-40.1,10.3
					c-4.5,7.7-5.2,16.5-2.5,24.3c2.1,6.4,6.5,12.1,12.8,15.7c14,8.2,31.9,3.5,40.1-10.3C1591.5,711.9,1592,702.6,1588.9,694.7z"/>
			</g>
			
				<linearGradient id="XMLID_162_" gradientUnits="userSpaceOnUse" x1="2637.4539" y1="3907.7917" x2="2627.6421" y2="3915.2051" gradientTransform="matrix(0.8024 -0.5968 -0.5968 -0.8024 1767.1598 5418.7402)">
				<stop  offset="0" style="stop-color:#001E6A"/>
				<stop  offset="0.9995" style="stop-color:#5B769F;stop-opacity:0"/>
			</linearGradient>
			<path id="XMLID_576_" class="st32" d="M1544.6,701.5c2.4,0.5,3.8,4.3,2.9,8.4c-0.9,4.2-3.4,7.2-5.9,6.7c-2.4-0.5-3.8-4.3-2.9-8.4
				C1539.6,704,1542.2,701,1544.6,701.5z"/>
			
				<linearGradient id="XMLID_163_" gradientUnits="userSpaceOnUse" x1="3021.2463" y1="-3361.9502" x2="3014.6985" y2="-3357.0029" gradientTransform="matrix(0.7655 0.6434 0.6434 -0.7655 1412.1136 -3830.8767)">
				<stop  offset="0" style="stop-color:#001E6A"/>
				<stop  offset="0.9995" style="stop-color:#5B769F;stop-opacity:0"/>
			</linearGradient>
			<path id="XMLID_575_" class="st33" d="M1565.9,681.7c0.1,1.6-2.1,3-5,3.1c-2.9,0.1-5.2-1.1-5.3-2.8c-0.1-1.6,2.1-3,5-3.1
				C1563.5,678.8,1565.9,680.1,1565.9,681.7z"/>
		</g>
		<g id="XMLID_559_">
			<g id="XMLID_563_" class="st28">
				<g id="XMLID_571_" class="st29">
					
						<linearGradient id="XMLID_164_" gradientUnits="userSpaceOnUse" x1="1553.6118" y1="453.8189" x2="1620.7377" y2="317.9472" gradientTransform="matrix(1 0 0 -1 0 1082)">
						<stop  offset="0" style="stop-color:#00F2FE"/>
						<stop  offset="1" style="stop-color:#352FB6;stop-opacity:0"/>
					</linearGradient>
					<path id="XMLID_573_" class="st34" d="M1645,720c-3.1-8.6-9.3-16.2-17.8-21.3c-19.8-11.6-45.2-5-56.8,14.7
						c-6.4,10.8-7.3,23.4-3.5,34.5c3.1,9.1,9.3,17.1,18.1,22.3c19.8,11.6,45.2,5,56.8-14.7C1648.4,744.4,1649.1,731.3,1645,720z"/>
				</g>
				<g id="XMLID_568_">
					
						<linearGradient id="XMLID_165_" gradientUnits="userSpaceOnUse" x1="1577.3864" y1="367.5361" x2="1628.1777" y2="332.0627" gradientTransform="matrix(1 0 0 -1 0 1082)">
						<stop  offset="0" style="stop-color:#20F6CF"/>
						<stop  offset="0.9995" style="stop-color:#12AEE7;stop-opacity:0"/>
					</linearGradient>
					<path id="XMLID_570_" class="st35" d="M1639.8,721.9c-2.8-7.4-8.1-14.1-15.5-18.5c-17.1-10.1-39.3-4.4-49.4,12.8
						c-5.5,9.4-6.3,20.4-3,30c2.6,7.8,8.1,14.9,15.9,19.4c17.1,10.1,39.3,4.4,49.4-12.8C1642.8,743,1643.6,731.7,1639.8,721.9z"/>
				</g>
				
					<linearGradient id="XMLID_166_" gradientUnits="userSpaceOnUse" x1="1748.7125" y1="-910.2921" x2="1737.8885" y2="-900.2603" gradientTransform="matrix(0.977 0.213 0.213 -0.977 83.3732 -540.1397)">
					<stop  offset="0" style="stop-color:#001E6A"/>
					<stop  offset="0.9995" style="stop-color:#63C3C3;stop-opacity:0"/>
				</linearGradient>
				<path id="XMLID_565_" class="st36" d="M1601.3,708.3c1.6,2.9-1,7.6-6,10.5c-4.9,2.9-10.3,2.9-12,0c-1.6-2.9,1-7.6,6-10.5
					S1599.6,705.5,1601.3,708.3z"/>
				
					<linearGradient id="XMLID_167_" gradientUnits="userSpaceOnUse" x1="1599.2815" y1="325.5959" x2="1593.8304" y2="319.4908" gradientTransform="matrix(1 0 0 -1 0 1082)">
					<stop  offset="0" style="stop-color:#001E6A"/>
					<stop  offset="0.9995" style="stop-color:#253E70;stop-opacity:0"/>
				</linearGradient>
				<path id="XMLID_564_" class="st37" d="M1589.6,756.1c1-1.6,4.7-1.1,8.2,1.1c3.4,2.3,5.4,5.4,4.4,7.1s-4.7,1.1-8.2-1.1
					C1590.4,760.8,1588.4,757.7,1589.6,756.1z"/>
			</g>
			
				<linearGradient id="XMLID_168_" gradientUnits="userSpaceOnUse" x1="1572.2037" y1="361.6614" x2="1589.5284" y2="354.7069" gradientTransform="matrix(1 0 0 -1 0 1082)">
				<stop  offset="9.415064e-04" style="stop-color:#D4FFF9"/>
				<stop  offset="1" style="stop-color:#206585;stop-opacity:0"/>
			</linearGradient>
			<path id="XMLID_562_" class="st38" d="M1605.2,698.5c0,0-20.5-0.9-31.5,20c-10.8,20.8,4.9,39.6,4.9,39.6
				S1599.9,712.7,1605.2,698.5z"/>
		</g>
	</g>
	<g id="XMLID_208_" class="st26">
		<g id="XMLID_464_" class="st28">
			<g id="XMLID_467_">
				
					<linearGradient id="XMLID_169_" gradientUnits="userSpaceOnUse" x1="7980.7202" y1="-5698.9268" x2="8126.2939" y2="-5800.5972" gradientTransform="matrix(-0.9621 0.2726 0.2726 0.9621 10477.0684 3546.1104)">
					<stop  offset="0" style="stop-color:#FF3FFA"/>
					<stop  offset="0.9995" style="stop-color:#12AEE7;stop-opacity:0"/>
				</linearGradient>
				<path id="XMLID_468_" class="st39" d="M1066.8,266.9c13.6,18.5,33.2,32.6,57.2,38.9c55.2,14.4,111.8-18.6,126.2-73.8
					c7.9-30.4,1.5-61.3-15.1-85.1c-13.6-19.6-33.9-34.6-58.7-41.1c-55.2-14.4-111.8,18.6-126.2,73.8
					C1042,210.8,1049.1,242.6,1066.8,266.9z"/>
			</g>
			
				<linearGradient id="XMLID_170_" gradientUnits="userSpaceOnUse" x1="9338.1299" y1="-5478.1914" x2="9307.1064" y2="-5449.439" gradientTransform="matrix(-0.9981 6.136195e-02 6.136195e-02 0.9981 10839.1201 5129.501)">
				<stop  offset="0" style="stop-color:#720094"/>
				<stop  offset="0.9995" style="stop-color:#713398;stop-opacity:0"/>
			</linearGradient>
			<path id="XMLID_466_" class="st40" d="M1183.8,274.1c-6.9-6.5-3-21.5,8.4-33.4c11.4-11.7,26.3-15.9,33.1-9.4
				c6.9,6.5,3,21.5-8.4,33.4C1205.5,276.6,1190.5,280.8,1183.8,274.1z"/>
			
				<linearGradient id="XMLID_171_" gradientUnits="userSpaceOnUse" x1="8043.7437" y1="-5818.8164" x2="8028.1201" y2="-5836.314" gradientTransform="matrix(-0.9621 0.2726 0.2726 0.9621 10477.0684 3546.1104)">
				<stop  offset="0" style="stop-color:#280094"/>
				<stop  offset="0.9995" style="stop-color:#2E2B63;stop-opacity:0"/>
			</linearGradient>
			<path id="XMLID_465_" class="st41" d="M1179,133.3c-1.7,5.4-12.1,6.7-23.3,3.4c-11.2-3.5-19.1-10.6-17.5-15.9s12.1-6.7,23.3-3.4
				C1172.7,120.9,1180.6,127.9,1179,133.3z"/>
		</g>
		
			<linearGradient id="XMLID_172_" gradientUnits="userSpaceOnUse" x1="7965.9521" y1="-5715.8037" x2="8015.6074" y2="-5735.7354" gradientTransform="matrix(-0.9621 0.2726 0.2726 0.9621 10477.0684 3546.1104)">
			<stop  offset="9.415064e-04" style="stop-color:#D4FFF9"/>
			<stop  offset="1" style="stop-color:#206585;stop-opacity:0"/>
		</linearGradient>
		<path id="XMLID_463_" class="st42" d="M1180.8,304.5c0,0,57.4-13.8,71-79.7c13.8-66-44.5-105.2-44.5-105.2
			S1184.2,261,1180.8,304.5z"/>
	</g>
</g>
<g id="Layer_2" class="st25">
	<g id="XMLID_93_" class="st26">
		<g id="XMLID_659_">
			<linearGradient id="XMLID_173_" gradientUnits="userSpaceOnUse" x1="2139.9919" y1="631.2587" x2="2628.7556" y2="631.2587">
				<stop  offset="0" style="stop-color:#00F2FE"/>
				<stop  offset="1" style="stop-color:#2AC6FF"/>
			</linearGradient>
			<path id="XMLID_671_" class="st43" d="M2141.5,464.7c0,0,5.4,27.3,53.4,32.3c48,5,46.3,21.8,43.7,55.5s-6.6,54.8,34.4,61.4
				s63.9-12.4,84.9,44.8c21,57.2,10.4,98.6,99,103.6s116.3-21.4,170.8,34.7"/>
			<linearGradient id="XMLID_174_" gradientUnits="userSpaceOnUse" x1="2134.9502" y1="717.0263" x2="2626.9575" y2="717.0263">
				<stop  offset="0" style="stop-color:#662D91"/>
				<stop  offset="0.6852" style="stop-color:#D30DDF"/>
				<stop  offset="0.994" style="stop-color:#FF00FF"/>
			</linearGradient>
			<path id="XMLID_660_" class="st44" d="M2150.4,445.5c0,0-32.4,49.4,1.6,91.5c34.1,42.2,40.9,28.8,27.9,83.8
				c-13,54.9,0.8,75,36.1,82.1c35.3,7.2,68.9,4.4,85.9,54c17.1,49.6,22.4,56.4,58.9,61.8s78.3,12.2,92,79.1s96.9,109.3,173.5,81.6"
				/>
		</g>
		<g id="XMLID_557_">
			<g id="XMLID_566_">
				
					<linearGradient id="XMLID_175_" gradientUnits="userSpaceOnUse" x1="1845.0006" y1="457.9783" x2="1914.3636" y2="983.3667" gradientTransform="matrix(0.9825 0.1865 0.1865 -0.9825 138.4995 698.2847)">
					<stop  offset="0" style="stop-color:#14003F"/>
					<stop  offset="1" style="stop-color:#992AFF"/>
				</linearGradient>
				<path id="XMLID_550_" class="st45" d="M2095.6,454.9c0,0-46.7,31.7-54.4,37.5c-13.6,10.3-28.6,18.7-28.6,29.7
					c0,13.3,49.9,103.6,49.9,103.6s12.6,3.8,13.7-9.4c0,0-12.6-34.1-16.1-48.9c-6.1-26.2-14-35.7-14-35.7
					c23.3-9.4,41.4-26.2,41.4-26.2l31.8-43C2106.3,458.1,2095.6,454.9,2095.6,454.9z"/>
				
					<linearGradient id="XMLID_176_" gradientUnits="userSpaceOnUse" x1="2060.6389" y1="443.8239" x2="2088.7637" y2="408.3624" gradientTransform="matrix(1 0 0 -1 0 1082)">
					<stop  offset="0" style="stop-color:#FF2A3C"/>
					<stop  offset="1" style="stop-color:#FF7F94"/>
				</linearGradient>
				<path id="XMLID_549_" class="st46" d="M2046.9,654.9c0,0-0.4,4.6,2.6,7.1c2.9,2.3,7.4-1,10.3-2.9c2.9-1.9,20.4-17.8,22.6-20.7
					c2.2-2.9,3.3-6.1,1.4-9.3C2082,625.9,2046.9,654.9,2046.9,654.9z"/>
				<path id="XMLID_548_" class="st47" d="M2049.3,601.3c0,0,10.8,1.4,18.2-10.4c0,0,8.1,24.9,9.8,27.3s4,3.9,5.5,7.8
					c1.4,3.9,0.6,8.1-0.7,9.7c-1.2,1.6-23.3,24-28.9,24.9c-5.6,1-8.4-4.8-4.9-10.3c3.5-5.5,11.6-17.8,12.4-22.4
					c0.7-3.9-1.9-8.8-1.9-8.8L2049.3,601.3z"/>
				<path id="XMLID_547_" class="st48" d="M2052.5,607.1c0,0,11.7,0.7,17.5-8.8l0.9,2.5c0,0-6.2,8.4-17.4,8.1L2052.5,607.1z"/>
				<path id="XMLID_546_" class="st48" d="M2054.4,610.7c0,0,9.3,1.3,17.4-7.5l0.7,1.7c0,0-6.7,8.2-17.2,7.2L2054.4,610.7z"/>
				
					<linearGradient id="XMLID_177_" gradientUnits="userSpaceOnUse" x1="2034.0636" y1="551.5753" x2="2044.2961" y2="629.0822" gradientTransform="matrix(1 0 0 -1 0 1082)">
					<stop  offset="0" style="stop-color:#FF2A3C"/>
					<stop  offset="1" style="stop-color:#FF7F94"/>
				</linearGradient>
				<path id="XMLID_545_" class="st49" d="M2021.8,507.3c0,0,7.1-1.3,13.5,3.8c6.4,5.1,22,15.5,22,15.5l-11,5.2c0,0,3.6,5.5,5.1,8.8
					c0,0-7.7-2.7-15-4c-7.1-1.2-13.7-1.4-21.6-6.2c0,0-2.3-4.8-2.2-8.2C2012.7,518.4,2013,514.8,2021.8,507.3z"/>
				<path id="XMLID_544_" class="st50" d="M2087.5,505.5l6.1-20.5c0,0-12.4,1.2-17.1,13.3s-5.9,16.9-15.6,18.5
					c-9.7,1.6-16.6,6.1-19.7,13.7c-3,7.7-5.2,12.4-0.4,9.3c4.8-3,11-0.6,12,15.9c0.9,12.9-0.6,31.8,8.7,41.9
					c10.4,11.3,7.8,38.8,4.2,54.2c0,0,11.6-8.2,12.9-12.6c4.5-14.6-8.8-39.2-7.8-38.5c0,0-7.5-21.7-10.7-33.4
					c-3.2-11.7-6.8-26.3-14-35.7C2046.1,531.6,2069.4,523.3,2087.5,505.5z"/>
				<path id="XMLID_543_" class="st51" d="M2073.1,470.2c0,0-48.3,33-55.4,40.8c-7.2,7.7-5.2,12.9-3,18.5c2.2,5.6,5.5,13.6,5.5,13.6
					s-0.3-6.1-2-11.9c-1.6-5.6-6.9-11-2.9-15.9c4-4.9,7.1-2.6,15.8-11.9c8.8-9.1,18.1-16.6,24.9-19.4
					C2066.8,479.9,2073.1,470.2,2073.1,470.2z"/>
				
					<linearGradient id="XMLID_178_" gradientUnits="userSpaceOnUse" x1="1897.8632" y1="439.7109" x2="1972.4265" y2="1004.4876" gradientTransform="matrix(0.9825 0.1865 0.1865 -0.9825 138.4995 698.2847)">
					<stop  offset="0" style="stop-color:#14003F"/>
					<stop  offset="1" style="stop-color:#992AFF"/>
				</linearGradient>
				<path id="XMLID_542_" class="st52" d="M2119.3,462.6l-31.8,43c0,0-15.5,42.4-15.5,49.6c0,21.8-3.8,118-3.8,118s9,7.2,18.5-3.3
					c0.4-26.9,14.9-82,16.5-104.4c0.4-5.2,37-31.1,46.6-43.8c7.7-10.3,14.6-32,16.2-38.2C2167.1,479.5,2140.2,469.7,2119.3,462.6z"
					/>
				
					<linearGradient id="XMLID_179_" gradientUnits="userSpaceOnUse" x1="2089.011" y1="516.1879" x2="2095.4775" y2="565.1686" gradientTransform="matrix(1 0 0 -1 0 1082)">
					<stop  offset="0" style="stop-color:#FF2A3C"/>
					<stop  offset="1" style="stop-color:#FF7F94"/>
				</linearGradient>
				<path id="XMLID_541_" class="st53" d="M2073.1,549.6c0,0-0.1,0.7,1.7,2.2c0,0,5.4-2.3,11.1,0.1c5.8,2.6,9.7,7.5,22.4,6.9
					c0,0-4.2,3.5-5.2,6.4c-0.1,2.6-0.7,7.1-0.7,7.1s-8-5.6-11.7-3.6c-5.4,2.7-11.4,0.6-14.5-1.9c-3-2.5-4.3-1-4.3-1
					s0.1-10.7,0.3-11.9C2072.2,553,2073.1,549.6,2073.1,549.6z"/>
				<g id="XMLID_636_">
					<path id="XMLID_540_" class="st54" d="M2075.4,312.4c0,0,0-3,0.4-4c0.4-1,3.2-3.2,4.6-3.8c1.4-0.6,5.2-2.2,5.9-2.9
						c-1.2-2.6-5.5-0.6-7.7,0c-0.7,0.1-2-0.7-2-0.7s-0.3-4.9-0.6-5.2c-1.3-0.7-12,0.1-12.1,3.3c-0.3,7.4,2.3,9.8,2.3,9.8
						c1,2.2,0.9,6.1,0.9,6.1L2075.4,312.4z"/>
					<path id="XMLID_539_" class="st55" d="M2066.1,308.8c0,0,2.7,1.3,4.2,1.2c1.4-0.1,2.5,0.3,2.3,0.7c-0.3,0.4-0.7,3-0.7,3
						l-4.8-0.6C2067,313.2,2067.1,310.4,2066.1,308.8z"/>
					<path id="XMLID_538_" class="st54" d="M2076.2,296.7c0-0.1-0.3-12.6-0.3-12.6s-1.2-1.2-1.9,0.3c-0.7,1.4-0.7,11.6-0.7,11.6
						L2076.2,296.7z"/>
					<path id="XMLID_537_" class="st54" d="M2073.1,297.2c0-0.1-2.9-15.9-2.9-15.9s-1.3-0.9-1.9,0.7c-0.4,1.6,1.6,15,1.6,15
						L2073.1,297.2z"/>
					<path id="XMLID_536_" class="st54" d="M2069.6,297.5c0-0.1-4-12-4-12s-1.4-0.7-1.7,0.9s2.6,11.3,2.6,11.3L2069.6,297.5z"/>
					<path id="XMLID_535_" class="st54" d="M2066.4,298.4l-5.4-9c0,0-1.3-0.4-1.3,1c0,1.4,4,8.5,4,8.5L2066.4,298.4z"/>
					
						<linearGradient id="XMLID_199_" gradientUnits="userSpaceOnUse" x1="1825.6437" y1="444.76" x2="1902.2733" y2="1025.1882" gradientTransform="matrix(0.9825 0.1865 0.1865 -0.9825 138.4995 698.2847)">
						<stop  offset="0" style="stop-color:#14003F"/>
						<stop  offset="1" style="stop-color:#992AFF"/>
					</linearGradient>
					<path id="XMLID_534_" class="st56" d="M2137.6,352.4c0,0-15.5,4.3-20.5,6.1c-5.2,1.9-32.4,9.7-32.4,9.7s-3.6-22-5.1-34.3
						c-1.4-12.3-2.3-23.3-2.3-23.3s-4.9,2.2-11,1.7c0,0,0,23.1,0,30.8c0,7.7,0.1,37.6,3.5,41.9c5.1,6.8,10.7,6.1,18.2,5.2
						c7.5-0.7,42.7-8.1,44.5-10.6C2134.4,377.4,2140.6,355.5,2137.6,352.4z"/>
					
						<linearGradient id="XMLID_201_" gradientUnits="userSpaceOnUse" x1="1840.8103" y1="645.921" x2="1864.0156" y2="783.8645" gradientTransform="matrix(0.9825 0.1865 0.1865 -0.9825 138.4995 698.2847)">
						<stop  offset="0" style="stop-color:#FF2A3C"/>
						<stop  offset="1" style="stop-color:#FF7F94"/>
					</linearGradient>
					<path id="XMLID_533_" class="st57" d="M2083.8,362.2l1,6.1l5.5-1.6L2082,391c0,0-10.8,1.2-13.6-9.4L2083.8,362.2z"/>
					<path id="XMLID_532_" class="st50" d="M2129.2,358.4c0,0-9.8,7.4-12.1,12c-2.5,4.6-3.3,10.6-10,12c-6.7,1.4-13.7-6.1-23.3,3.2
						c-6.7,6.5-14-0.4-15.6-5.1c0,0,0.9,9.4,11,10.3c10.3,0.9,40.4-6.7,43-7.5C2124.7,382.6,2137.3,359.7,2129.2,358.4z"/>
					
						<linearGradient id="XMLID_202_" gradientUnits="userSpaceOnUse" x1="1834.8322" y1="700.121" x2="1849.1738" y2="785.3752" gradientTransform="matrix(0.9825 0.1865 0.1865 -0.9825 138.4995 698.2847)">
						<stop  offset="0" style="stop-color:#FF2A3C"/>
						<stop  offset="1" style="stop-color:#FF7F94"/>
					</linearGradient>
					<polygon id="XMLID_531_" class="st58" points="2078.4,323.7 2075.7,326.7 2077.5,342.4 2080.9,343.5 					"/>
					
						<linearGradient id="XMLID_209_" gradientUnits="userSpaceOnUse" x1="1823.5867" y1="694.2181" x2="1838.6321" y2="783.6553" gradientTransform="matrix(0.9825 0.1865 0.1865 -0.9825 138.4995 698.2847)">
						<stop  offset="0" style="stop-color:#FF2A3C"/>
						<stop  offset="1" style="stop-color:#FF7F94"/>
					</linearGradient>
					<polygon id="XMLID_530_" class="st59" points="2066.1,325.7 2069.3,327.3 2069.4,342.9 2066.1,345.8 					"/>
					
						<linearGradient id="XMLID_210_" gradientUnits="userSpaceOnUse" x1="2066.1423" y1="770.9111" x2="2077.1836" y2="770.9111" gradientTransform="matrix(1 0 0 -1 0 1082)">
						<stop  offset="0" style="stop-color:#FF2A3C"/>
						<stop  offset="1" style="stop-color:#FF7F94"/>
					</linearGradient>
					<path id="XMLID_529_" class="st60" d="M2066.1,312.4c0,0,5.2,0.6,11-1.7v-1c0,0-6.7,2.5-11,1.4V312.4z"/>
				</g>
				<g id="XMLID_624_">
					
						<linearGradient id="XMLID_211_" gradientUnits="userSpaceOnUse" x1="1914.9242" y1="604.0959" x2="1913.5958" y2="557.0316" gradientTransform="matrix(0.9825 0.1865 0.1865 -0.9825 138.4995 698.2847)">
						<stop  offset="0" style="stop-color:#FF2A3C"/>
						<stop  offset="1" style="stop-color:#FF7F94"/>
					</linearGradient>
					<path id="XMLID_528_" class="st61" d="M2097.2,450.6l-1.4,4.2c0,0-2.6,10.4,22.6,21.3c27.9,12,47.7,7.2,47.7,7.2l1.6-6.2
						C2167.6,477.2,2109.1,476.7,2097.2,450.6z"/>
					
						<linearGradient id="XMLID_212_" gradientUnits="userSpaceOnUse" x1="1893.2432" y1="435.8353" x2="1969.8728" y2="1016.2636" gradientTransform="matrix(0.9825 0.1865 0.1865 -0.9825 138.4995 698.2847)">
						<stop  offset="0" style="stop-color:#14003F"/>
						<stop  offset="1" style="stop-color:#992AFF"/>
					</linearGradient>
					<path id="XMLID_527_" class="st62" d="M2172,349.9c0,0,22.3,13.9,26.9,19.5c4.5,5.6-17.2,60.6-21.8,72.5
						c-6.7,16.9-7.8,32.4-9.4,35.3c-1.6,2.9-62.9-0.4-70.4-26.5c0,0,1.3-1.9,6.5-14.8c5.2-12.9,20.8-69.6,24.2-77.7
						c3-7.4,26.8-8.5,26.8-8.5L2172,349.9z"/>
					<g id="XMLID_632_">
						<path id="XMLID_526_" class="st63" d="M2140.5,478.6l-1.2-0.6l12.3-25c0.7-1.6,2-2.7,3.6-3.3l21.4-8.4l0.4,1.2l-21.4,8.4
							c-1.3,0.6-2.5,1.4-3,2.7L2140.5,478.6z"/>
					</g>
					<g id="XMLID_630_">
						<path id="XMLID_525_" class="st64" d="M2102.1,460.4l-1.2-0.4l9.8-29.2c0.3-0.9,0.3-1.7,0-2.6l-2.3-7.7l1.2-0.3l2.3,7.7
							c0.3,1.2,0.3,2.3,0,3.3L2102.1,460.4z"/>
					</g>
					
						<linearGradient id="XMLID_213_" gradientUnits="userSpaceOnUse" x1="1929.923" y1="639.2671" x2="1919.9233" y2="726.3207" gradientTransform="matrix(0.9825 0.1865 0.1865 -0.9825 138.4995 698.2847)">
						<stop  offset="0" style="stop-color:#FF2A3C"/>
						<stop  offset="1" style="stop-color:#FF7F94"/>
					</linearGradient>
					<polygon id="XMLID_524_" class="st65" points="2122.7,375.2 2128.2,391.3 2158.2,402.1 2194.8,391.1 2191.5,401.1 
						2156.5,411.8 2123.4,399.9 2118.9,387.5 					"/>
					<g id="XMLID_627_">
						<polygon id="XMLID_523_" class="st66" points="2157.8,398.9 2157.8,398.8 2130.3,389.5 2130.3,389.4 2123.7,371.2 2124.3,371 
							2130.8,388.9 2157.8,398.2 2185.3,390.1 2185.4,390.7 						"/>
					</g>
					<path id="XMLID_522_" class="st51" d="M2102.4,441.7c3.9-6.4,2.3-6.2,7.7-19.1c2-4.9,3.9-14.5,7.1-25.3
						c5.1-17.6,10.4-34.6,12.1-39.6c0.7-2.3,10.1-6.5,17.9-7.5c4-0.6,7.5-0.7,7.5-0.7s-24.2,1.7-26.8,8.1
						c-3.3,8.1-18.8,65.4-24.2,78.2c-5.2,12.9-6.5,14.8-6.5,14.8S2098.7,448,2102.4,441.7z"/>
					<path id="XMLID_521_" class="st50" d="M2178.3,376.5c0,0-13.7,15.3-12.6,28.1c2.7,29.1-10.7,33.1-9.5,41.9
						c1.2,8.8-3.3,5.1-5.5,9.3c-2.2,4.2,12-3.8,9.3,3.6s-18.1,11.1-20.5,23.9c0,0,21.7,2.5,26.5,0l4-16.3c0,0,8.1-34.9,10.1-39.2
						c2-4.3,15.2-31,14.6-36.6C2194.1,385.5,2186.6,368.5,2178.3,376.5z"/>
				</g>
				<g id="XMLID_595_">
					<g id="XMLID_600_">
						<g id="XMLID_617_">
							<g id="XMLID_619_">
								
									<linearGradient id="XMLID_214_" gradientUnits="userSpaceOnUse" x1="3079.468" y1="-81.8404" x2="3086.6431" y2="-92.4015" gradientTransform="matrix(0.2496 -0.9683 -0.9683 -0.2496 1237.0524 3398.3589)">
									<stop  offset="0" style="stop-color:#0084E8"/>
									<stop  offset="1" style="stop-color:#5833E4"/>
								</linearGradient>
								<polygon id="XMLID_520_" class="st67" points="2105.2,437.8 2092,441.6 2087.9,427.7 2101.1,423.9 								"/>
								
									<linearGradient id="XMLID_216_" gradientUnits="userSpaceOnUse" x1="4000.1946" y1="-415.5378" x2="4020.3833" y2="-414.7613" gradientTransform="matrix(0.9613 -0.2756 -0.2756 -0.9613 -1875.4532 1132.135)">
									<stop  offset="0" style="stop-color:#20F6CF"/>
									<stop  offset="0.9995" style="stop-color:#12AEE7"/>
								</linearGradient>
								<path id="XMLID_519_" class="st68" d="M2101.1,423.9c0.4,1.3-2.3,3.2-5.9,4.2c-3.6,1-6.9,0.9-7.2-0.4
									c-0.3-1.3,2.3-3.2,5.9-4.2C2097.5,422.4,2100.8,422.6,2101.1,423.9z"/>
								
									<linearGradient id="XMLID_218_" gradientUnits="userSpaceOnUse" x1="4000.9021" y1="-415.5095" x2="4019.6958" y2="-414.7867" gradientTransform="matrix(0.9613 -0.2756 -0.2756 -0.9613 -1875.4532 1132.135)">
									<stop  offset="0" style="stop-color:#2E49BF"/>
									<stop  offset="1" style="stop-color:#402E9B"/>
								</linearGradient>
								<path id="XMLID_518_" class="st69" d="M2100.7,424.1c0.3,1.2-2.2,2.9-5.5,3.8c-3.3,1-6.4,0.9-6.8-0.3s2.2-2.9,5.5-3.8
									C2097.3,422.8,2100.4,422.9,2100.7,424.1z"/>
								
									<linearGradient id="XMLID_220_" gradientUnits="userSpaceOnUse" x1="3073.6299" y1="-85.8065" x2="3080.8044" y2="-96.3678" gradientTransform="matrix(0.2496 -0.9683 -0.9683 -0.2496 1237.0524 3398.3589)">
									<stop  offset="0" style="stop-color:#0084E8"/>
									<stop  offset="1" style="stop-color:#5833E4"/>
								</linearGradient>
								<path id="XMLID_517_" class="st70" d="M2105.2,437.7c0.3,1.2-2.3,2.9-6.1,3.9c-3.6,1-6.8,1-7.2-0.1
									c-0.3-1.2,2.3-2.9,6.1-3.9C2101.5,436.5,2104.7,436.5,2105.2,437.7z"/>
							</g>
							<path id="XMLID_516_" class="st71" d="M2094.2,442l-3.5-13c0,0-2.6-0.1-2.7-1.3l3.9,13.5
								C2091.7,441.2,2092.3,442.2,2094.2,442z"/>
						</g>
						
							<linearGradient id="XMLID_222_" gradientUnits="userSpaceOnUse" x1="3776.0442" y1="-352.6227" x2="3718.4719" y2="-394.955" gradientTransform="matrix(0.8313 -0.5558 -0.5558 -0.8313 -1221.9683 2168.4131)">
							<stop  offset="0" style="stop-color:#FFC5BF"/>
							<stop  offset="1" style="stop-color:#FE88B6"/>
						</linearGradient>
						<path id="XMLID_515_" class="st72" d="M2091.6,428.4c-0.6-0.9,0-1.3-3.5-2.6c-5.8-2.3-1.3-5.8-3.3-6.8
							c-2.5-1.3-6.4-1.9-5.9-5.9c0.9-7.2,7.8-3.2,8.2-12.1c0.3-9.1,8.8-15.9,13.6-10.8c4.8,5.1-4.5,4.9-1.6,9.8
							c2.9,4.9,8.4,0.1,12.3,4.2c3.2,3.2,1,6.2-2.2,8.2c-3.2,2-6.2,1.3-4.9,7.1c0.6,3-6.5,1.4-6.9,7.7
							C2097.3,427,2094.3,428.4,2091.6,428.4z"/>
						
							<linearGradient id="XMLID_224_" gradientUnits="userSpaceOnUse" x1="3747.0718" y1="-353.9838" x2="3694.0154" y2="-392.3651" gradientTransform="matrix(0.8313 -0.5558 -0.5558 -0.8313 -1221.9683 2168.4131)">
							<stop  offset="0" style="stop-color:#FFC5BF"/>
							<stop  offset="1" style="stop-color:#FE88B6"/>
						</linearGradient>
						<path id="XMLID_514_" class="st73" d="M2079.1,408.2c0.1,0,3.9-1.2,4.6-4.5c0.7-3.3,0.7-5.6-1.2-4.6c-1.9,1-1,3.6-3,4.6
							C2076.4,405.6,2076.1,408.6,2079.1,408.2z"/>
						
							<linearGradient id="XMLID_226_" gradientUnits="userSpaceOnUse" x1="4091.3049" y1="-398.8648" x2="4038.2483" y2="-437.2461" gradientTransform="matrix(0.97 -0.2432 -0.2432 -0.97 -1957.3667 998.2253)">
							<stop  offset="0" style="stop-color:#FFC5BF"/>
							<stop  offset="1" style="stop-color:#FE88B6"/>
						</linearGradient>
						<path id="XMLID_513_" class="st74" d="M2103.6,393.9c0.3-0.3,1.3-2.3,2-2c0.7,0.3,1.3,2,0.3,3
							C2104.1,396.8,2102.1,395.5,2103.6,393.9z"/>
						
							<linearGradient id="XMLID_228_" gradientUnits="userSpaceOnUse" x1="3655.3755" y1="-339.101" x2="3602.3191" y2="-377.4823" gradientTransform="matrix(0.7684 -0.64 -0.64 -0.7684 -922.383 2466.5566)">
							<stop  offset="0" style="stop-color:#FFC5BF"/>
							<stop  offset="1" style="stop-color:#FE88B6"/>
						</linearGradient>
						<path id="XMLID_512_" class="st75" d="M2100,397.6c0,0,0-1,0.9-1.4c0.9-0.4,1.2-0.6,1.3-0.3c0.1,0.3,0.1,0.4-0.1,1
							C2101.7,397.5,2100,398.9,2100,397.6z"/>
						
							<linearGradient id="XMLID_230_" gradientUnits="userSpaceOnUse" x1="4323.6909" y1="-349.3687" x2="4270.6348" y2="-387.7499" gradientTransform="matrix(1 -3.112338e-03 -3.110445e-03 -1 -2214.2598 56.7345)">
							<stop  offset="0" style="stop-color:#FFC5BF"/>
							<stop  offset="1" style="stop-color:#FE88B6"/>
						</linearGradient>
						<path id="XMLID_511_" class="st76" d="M2100.2,399.6c0.1-0.1,0.6-0.9,1.2-0.7c0.6,0.1,0.6,0.4,0.3,0.7c-0.3,0.4-1,0.7-1.3,0.7
							C2100.2,400.4,2100,399.9,2100.2,399.6z"/>
						
							<linearGradient id="XMLID_232_" gradientUnits="userSpaceOnUse" x1="3748.9221" y1="-391.2528" x2="3744.8689" y2="-394.1851" gradientTransform="matrix(0.8313 -0.5558 -0.5558 -0.8313 -1221.9683 2168.4131)">
							<stop  offset="0" style="stop-color:#FFC5BF"/>
							<stop  offset="1" style="stop-color:#FE88B6"/>
						</linearGradient>
						<path id="XMLID_510_" class="st77" d="M2110.1,412.7c0,0,2-2.2,2.5-1.9S2109.2,414.3,2110.1,412.7z"/>
						<path id="XMLID_509_" class="st78" d="M2096.2,427.4c0,0,0.9-3-1.7-4.8c-2.7-1.7-3.5-1.2-4.2-3.3c-1.4-4.5,5.1-4.2,4.5-10.3
							c-0.4-6.1-4.2-5.6-5.5-9.5c-1.2-3.8,4.3-5.9,5.1-8.5c0.7-2.6-2.7-0.7-3.5,0.1c-0.7,0.9-3.6,3.9-4,9.7s-4.3,7.1-4.3,7.1
							s-4.3,1.6-4,5.6c0.1,3,1.7,3.8,4,4.8s3.2,0.4,2.6,3c-0.6,2.5,0.4,4,2.9,4.5c2.5,0.4,3.5,2.6,3.5,2.6
							S2093.7,428.4,2096.2,427.4z"/>
						
							<linearGradient id="XMLID_234_" gradientUnits="userSpaceOnUse" x1="3752.866" y1="-384.4409" x2="3718.8545" y2="-409.045" gradientTransform="matrix(0.8313 -0.5558 -0.5558 -0.8313 -1221.9683 2168.4131)">
							<stop  offset="0" style="stop-color:#FFC5BF"/>
							<stop  offset="1" style="stop-color:#FE88B6"/>
						</linearGradient>
						<path id="XMLID_508_" class="st79" d="M2109.1,403.4c0.3,0,2.3,1.7,2.6,2.6c0.4,0.9,0.6,1.4,0,1.4s-0.9-0.6-1.6-1.6
							C2109.4,404.9,2107.5,403.4,2109.1,403.4z"/>
						<path id="XMLID_507_" class="st78" d="M2105.9,391.8c0,0-0.6,0-0.4,0.9c0.1,0.9,0.4,1.6-0.1,2c-0.7,0.4-1.6,0.7-1.2,1.2
							c0,0-0.9,0-0.9-0.7s0.3-0.9,0.6-1.3s0.9-1.4,1.2-1.7C2105.3,391.7,2105.6,391.5,2105.9,391.8z"/>
						<path id="XMLID_506_" class="st78" d="M2081.3,400.9c0,0,0.6,1.9-0.4,3.2c-1.2,1.3-1.7,1-1.3,2.2c0.6,1,2,0.7,2,0.7
							s-1.6,1.2-2.5,1.3c-0.9,0.1-2.3,0-2.2-1.4c0.1-1.2,0.9-1.6,1.2-2C2079.3,403.6,2080.6,403.8,2081.3,400.9z"/>
						<path id="XMLID_505_" class="st78" d="M2082.6,419.2c0,0-1.7-1.2-2-1.2s-0.3,0.4,0.1,0.7C2081.2,419,2082,419.6,2082.6,419.2z
							"/>
						<path id="XMLID_504_" class="st78" d="M2100.7,397.9c0,0,0-1.4,0.7-2c0,0-1.2,0.4-1.4,1.2
							C2099.7,397.9,2100,398.5,2100.7,397.9z"/>
						<path id="XMLID_503_" class="st78" d="M2104.9,418.3c0,0,0-2.2,0.7-2.9c0.7-0.9-0.6-0.4-0.9,0.1
							C2104.6,416.1,2104,417.4,2104.9,418.3z"/>
						
							<linearGradient id="XMLID_236_" gradientUnits="userSpaceOnUse" x1="3277.2651" y1="-551.3967" x2="3273.2117" y2="-554.329" gradientTransform="matrix(0.4413 -0.5282 -0.5768 -0.4819 349.153 1874.625)">
							<stop  offset="0" style="stop-color:#FFC5BF"/>
							<stop  offset="1" style="stop-color:#FE88B6"/>
						</linearGradient>
						<path id="XMLID_502_" class="st80" d="M2112.8,411.2c0,0,0.9-1.9,1.2-1.7C2114.4,409.8,2112.5,412.5,2112.8,411.2z"/>
						
							<linearGradient id="XMLID_238_" gradientUnits="userSpaceOnUse" x1="3466.9253" y1="163.6208" x2="3462.8718" y2="160.6885" gradientTransform="matrix(0.6224 -1.1557 -1.4697 -0.7915 170.253 4524.5327)">
							<stop  offset="0" style="stop-color:#FFC5BF"/>
							<stop  offset="1" style="stop-color:#FE88B6"/>
						</linearGradient>
						<path id="XMLID_501_" class="st81" d="M2087.4,392.4c0,0,0.7-3.9,1.6-3.8C2089.7,388.9,2087.4,395,2087.4,392.4z"/>
						
							<linearGradient id="XMLID_240_" gradientUnits="userSpaceOnUse" x1="3462.3369" y1="-244.8748" x2="3460.584" y2="-246.1429" gradientTransform="matrix(0.6201 -0.7846 -0.7846 -0.6201 -239.1983 2957.4292)">
							<stop  offset="0" style="stop-color:#FFC5BF"/>
							<stop  offset="1" style="stop-color:#FE88B6"/>
						</linearGradient>
						<path id="XMLID_500_" class="st82" d="M2100.2,390.1c0.4,0.3,0.7,0.7,0.6,0.9c-0.1,0.1-0.6,0-1-0.3s-0.7-0.7-0.6-0.9
							C2099.4,389.5,2099.8,389.7,2100.2,390.1z"/>
					</g>
					<g id="XMLID_596_">
						<path id="XMLID_499_" class="st54" d="M2116,435.4c0,0-5.2-1-6.1-1c-0.9,0-4.2-3.2-5.4-4c-1.3-0.9-1.9-0.7-1.9-0.7
							s1.3,3.3,0.7,4.6c-0.6,1.4-10.1,4-11.9,2.9c-1.7-1-2.2-4.5-2.2-4.5s-0.3,0.4-0.6,2.5s0.3,2.9,0.4,3.3c0.1,0.4-0.3,1.4,0,2.6
							c0.1,0.4,0.6,1.2,0.7,1.9c0.3,1.3,0.1,2.3,0.9,3.3c0.6,0.9,3,2.5,4.3,2.7c1.9,0.4,8.8,0,11.4-0.9c2.6-0.7,8.8-2.6,8.8-2.6
							L2116,435.4z"/>
						<path id="XMLID_498_" class="st83" d="M2093.9,437.4c0,0-0.1,1.2,0.3,2c0,0-0.9,1.6,0.4,2.7c0,0-0.4,2.5,0.1,3.3
							c0,0-0.6,2.7,1.4,3.6c0,0-0.7,0-1.2-0.1c0,0-1.2-0.1-3-1.4c-1.9-1.3-1.7-2-1.9-2.6c-0.1-0.6-0.4-2.3-0.6-2.9
							c-0.3-0.6-0.6-1-0.4-2.9c0,0,0.1-0.4-0.1-1c-0.1-0.4-1-1.6,0.3-5.5c0,0,0.9,4,2.2,4.5C2093,437.5,2093.9,437.4,2093.9,437.4z"
							/>
						<path id="XMLID_497_" class="st83" d="M2102.7,429.6c0,0,2.2,2.7,2.2,4c0,1.3-3,1.7-3,1.7s1.6-0.4,1.7-1.7
							C2103.7,432.3,2102.7,429.6,2102.7,429.6z"/>
					</g>
				</g>
				
					<linearGradient id="XMLID_242_" gradientUnits="userSpaceOnUse" x1="1897.5526" y1="577.2989" x2="1897.5526" y2="577.2989" gradientTransform="matrix(0.9825 0.1865 0.1865 -0.9825 138.4995 698.2847)">
					<stop  offset="0" style="stop-color:#14003F"/>
					<stop  offset="1" style="stop-color:#992AFF"/>
				</linearGradient>
				<path id="XMLID_496_" class="st84" d="M2110.5,485"/>
				<g id="XMLID_586_">
					
						<linearGradient id="XMLID_244_" gradientUnits="userSpaceOnUse" x1="2045.1984" y1="455.6447" x2="2121.8279" y2="1036.0729" gradientTransform="matrix(0.9984 5.635421e-02 5.635602e-02 -0.9984 47.9975 975.3587)">
						<stop  offset="0" style="stop-color:#14003F"/>
						<stop  offset="1" style="stop-color:#992AFF"/>
					</linearGradient>
					<path id="XMLID_495_" class="st85" d="M2178.5,377.8c0,0-4.2,19.4-6.5,49c0,0-48.5,6.9-56.4,6.8c0,0-4.6,5.5-0.7,12.9
						c0,0,60.3,2,68.7,0.6c8.4-1.4,8.8-9.4,10.3-15.2s8.1-47.7,8.8-51.6c0.7-4.3-1.9-12.4-8.4-14
						C2186.4,364.5,2179.2,370.3,2178.5,377.8z"/>
					
						<linearGradient id="XMLID_246_" gradientUnits="userSpaceOnUse" x1="2055.6802" y1="650.3472" x2="2062.7517" y2="692.3839" gradientTransform="matrix(0.9984 5.635421e-02 5.635602e-02 -0.9984 47.9975 975.3587)">
						<stop  offset="0" style="stop-color:#FF2A3C"/>
						<stop  offset="1" style="stop-color:#FF7F94"/>
					</linearGradient>
					<polygon id="XMLID_494_" class="st86" points="2128.9,432.6 2130.5,434.6 2149.3,432.6 2150,430 					"/>
					
						<linearGradient id="XMLID_248_" gradientUnits="userSpaceOnUse" x1="2058.3022" y1="638.3414" x2="2064.1414" y2="673.0527" gradientTransform="matrix(0.9984 5.635421e-02 5.635602e-02 -0.9984 47.9975 975.3587)">
						<stop  offset="0" style="stop-color:#FF2A3C"/>
						<stop  offset="1" style="stop-color:#FF7F94"/>
					</linearGradient>
					<polygon id="XMLID_493_" class="st87" points="2129,446.9 2131.2,444.9 2149.3,444 2152,447.5 					"/>
					
						<linearGradient id="XMLID_250_" gradientUnits="userSpaceOnUse" x1="2093.5212" y1="634.5109" x2="2110.3586" y2="734.6" gradientTransform="matrix(0.9984 5.635421e-02 5.635602e-02 -0.9984 47.9975 975.3587)">
						<stop  offset="0" style="stop-color:#FF2A3C"/>
						<stop  offset="1" style="stop-color:#FF7F94"/>
					</linearGradient>
					<path id="XMLID_492_" class="st88" d="M2172.3,423.9l19.8,15.2c0,0-1.7,9-11.6,8.2l-12.7-19.8l4.3-0.6L2172.3,423.9z"/>
					<path id="XMLID_491_" class="st50" d="M2183.4,368.8c0,0,14.2-1.4,15.3,8.8c1.2,10.3-11,21.8-11.3,33.7
						c-0.3,11.9,2.5,19.8-2.5,26.6c-4.9,6.9-12.7,6.8-18.4,4.8s-17.9-3.5-24.6-1.6c-6.7,1.9-24,5.5-24,5.5s58.4,1.9,65.4,0.4
						c6.7-1.4,6.8-3.3,8.5-8c3.2-8.4,8.8-48.7,10.6-58.7c0,0,1.4-11-8.4-14C2186.6,364.1,2183.4,368.8,2183.4,368.8z"/>
					<path id="XMLID_490_" class="st51" d="M2179.5,374c0,0-1,11.4-0.1,19.1c0.7,7.7,0.3,8.7-1.7,15.3c-2,6.5-1.7,14-1,17.6
						s0.7,5.2-4,4.9c-4.8-0.3-7.8-0.9-13.5-0.1c-5.6,0.7-18.7,2.3-21.3,0.9l34.3-4.6C2172,427,2176.5,380.4,2179.5,374z"/>
					
						<linearGradient id="XMLID_252_" gradientUnits="userSpaceOnUse" x1="2031.5608" y1="636.2573" x2="2042.0286" y2="698.4825" gradientTransform="matrix(0.9984 5.635421e-02 5.635602e-02 -0.9984 47.9975 975.3587)">
						<stop  offset="0" style="stop-color:#FF2A3C"/>
						<stop  offset="1" style="stop-color:#FF7F94"/>
					</linearGradient>
					<path id="XMLID_489_" class="st89" d="M2115.6,433.8h1.6c0,0-5.4,5.9-0.7,12.9h-1.6C2114.9,446.5,2110.7,439.9,2115.6,433.8z"
						/>
				</g>
				<path id="XMLID_488_" class="st50" d="M2149.6,358.9c0,0-3.9,8.4,13.9,11.9c14.2,2.7,20.4-6.5,19.7-13.6l-8.7-5.6L2149.6,358.9z
					"/>
				<g id="XMLID_578_">
					<path id="XMLID_487_" class="st54" d="M2182.1,330.9c0,0-7.5,19.5-9,24.7c-2.3,8-21.7,3.2-22.6-0.1c0,0,3.9-15.3,6.1-18.8
						C2158.8,333.1,2182.1,330.9,2182.1,330.9z"/>
					<path id="XMLID_486_" class="st83" d="M2175.2,334.4c0,0,0.3,6.4-3.9,9.1c-4.2,2.7-9.8,4.3-11.3,6.9c-1.4,2.6-3,8.1-10,6.9
						c0,0,3.6-13.3,4.6-16.2S2175.2,334.4,2175.2,334.4z"/>
					<path id="XMLID_485_" class="st90" d="M2143.6,296.8c0,0-1,8.4,1.4,12.9c2.5,4.5,6.5-10.1,6.5-10.1L2143.6,296.8z"/>
					<path id="XMLID_484_" class="st54" d="M2148.8,294.1c0,0-2.7,10.8-3,12.6s0.7,4.9,0.1,5.8c-0.9,1.4-0.9,15-0.7,19.5
						c0.1,4.5,2,12.1,9.5,11.4c6.7-0.6,18.7-5.8,21.1-8.1c2.7-2.6,9.4-16.8,9.7-22.9s-5.6-14.9-8.5-17.5
						C2174.3,292.5,2154.9,285.8,2148.8,294.1z"/>
					<path id="XMLID_483_" class="st90" d="M2142.3,289.3c0.3,3.9,0.7,11.4,7.7,13.7c6.9,2.3,20.7,2.3,25.9,0.4c0,0-3.3,4.8-2.7,8.2
						c0.6,3.5,0.6,10.3,2.5,10.8c1.9,0.6,1-5.1,3.3-6.4c2.3-1.3,4.3,0.1,4.5,2.2c0.1,2-4.2,11.6-4.6,13.2c-0.4,1.4,3.8,4.3,9.8-6.1
						c1-1.6,1.4-9.4,3.8-12.9c2.3-3.5-0.4-15-6.8-16.8c0,0-3.3-4-6.4-5.8C2175.9,288.3,2141.3,275.5,2142.3,289.3z"/>
					<linearGradient id="XMLID_254_" gradientUnits="userSpaceOnUse" x1="2151.4651" y1="326.2378" x2="2154.6919" y2="352.3">
						<stop  offset="0" style="stop-color:#14003F"/>
						<stop  offset="1" style="stop-color:#0048AA"/>
					</linearGradient>
					<path id="XMLID_482_" class="st91" d="M2148.3,330.4l7.5,0.1c0.3,0,0.6,0.3,0.6,0.6c0,1.4-0.7,4.9-5.7,4.9c-2.2,0-2.8-3.5-3-5
						C2147.7,330.7,2148,330.4,2148.3,330.4z"/>
					<linearGradient id="XMLID_256_" gradientUnits="userSpaceOnUse" x1="2153.3918" y1="338.11" x2="2151.8984" y2="333.0411">
						<stop  offset="0" style="stop-color:#FF7FAD"/>
						<stop  offset="1" style="stop-color:#FF2A30"/>
					</linearGradient>
					<path id="XMLID_670_" class="st92" d="M2155.7,333.6c-0.5,0.8-1.6,2.3-3.6,2.5c-2,0.2-2.8-0.5-3.1-1.1
						C2148.7,334.7,2152.8,333.4,2155.7,333.6z"/>
					<path id="XMLID_672_" class="st93" d="M2147.8,331.6c0,0,4.5,1,8.5,0l0-0.6c0,0,0-0.5-0.5-0.6c-0.8-0.1-7.5-0.1-7.5-0.1
						s-0.6-0.1-0.6,0.6C2147.7,331.5,2147.8,331.6,2147.8,331.6z"/>
				</g>
				<path id="XMLID_481_" class="st50" d="M2139.6,483.4c0,0-3.9,11.4-1.3,24.3c1.9,9.4,1.2,14.2-5.9,20.8
					c-4.6,4.5-14.8,3.3-20.7,11c-5.9,7.7-7.2,20.1-14.5,24c-7.2,3.9-7.1,11-2.6,8.7c4.5-2.3,3.5,11.4,0.6,16.8
					c-2.9,5.4-4.9,38-7.4,47.7c-1.2,4.8-5.6,19.2-5.5,23.9l5.1-0.4c0,0,4.2-34.7,7.7-47.2c3.5-12.3,7.1-37.3,8.2-47.7
					c0,0,0.6-2.9,10.7-11.4c10.1-8.5,28.3-23,35.9-32.4c9.5-11.9,12.9-27.6,16.2-38.2C2155.3,485.8,2139.6,483.4,2139.6,483.4z"/>
				<path id="XMLID_480_" class="st50" d="M2072,557.4c0,0,1.3,6.8,3.2,9.8c1.9,3,1.6,6.8-3.5,4.5L2072,557.4z"/>
				<g id="XMLID_567_">
					
						<linearGradient id="XMLID_258_" gradientUnits="userSpaceOnUse" x1="2070.5347" y1="370.6857" x2="2108.7124" y2="370.6857" gradientTransform="matrix(1 0 0 -1 0 1082)">
						<stop  offset="0" style="stop-color:#FF2A3C"/>
						<stop  offset="1" style="stop-color:#FF7F94"/>
					</linearGradient>
					<path id="XMLID_479_" class="st94" d="M2051.5,718.6c0,0-1.2,2.9,0,5.2c1.2,2.3,4.8,3.6,7.5,3.3c2.7-0.3,8.1-3.5,12.3-7.1
						c4.2-3.6,13.6-14,15.3-15.3s4.8-5.8,0.1-9.1C2084.2,693.8,2051.5,718.6,2051.5,718.6z"/>
					<g id="XMLID_569_">
						<path id="XMLID_478_" class="st47" d="M2084.3,685.3c0,0,0.3,3.2,1,5.2c0.7,1.9,2.5,7.8,1,11.3c-0.7,1.7-15.9,17.1-23.1,21.1
							c-10.6,6.1-13.3-2.5-11.1-5.8c2.2-3.3,4.2-7.2,8.5-14c6.9-10.6,7.2-19.5,7.2-19.5l0.6-24.9c3.5,1.3,10.8,2.9,18.8,1.6
							C2087.4,660.1,2084.3,680.4,2084.3,685.3z"/>
						<g id="XMLID_572_" class="st95">
							<path id="XMLID_477_" class="st93" d="M2075.2,713.7C2075.1,713.7,2075.1,713.7,2075.2,713.7c-0.1,0-0.3-0.1-0.3-0.3l1-10.6
								c0.1-1,0.6-1.9,1.3-2.6l8.7-8c0.1-0.1,0.3-0.1,0.4,0c0.1,0.1,0.1,0.3,0,0.4l-8.7,8c-0.6,0.6-1,1.3-1.2,2.2l-1,10.6
								C2075.5,713.5,2075.4,713.7,2075.2,713.7z"/>
						</g>
						
							<linearGradient id="XMLID_260_" gradientUnits="userSpaceOnUse" x1="1696.3977" y1="432.9385" x2="1722.9939" y2="407.8708" gradientTransform="matrix(-0.9872 -0.1593 0.1593 -0.9872 3727.1035 1334.8314)">
							<stop  offset="0" style="stop-color:#D31027"/>
							<stop  offset="1" style="stop-color:#FFE9EB"/>
						</linearGradient>
						<path id="XMLID_476_" class="st96" d="M2086.5,666.8c0,0-7.8,3.6-18.1-1.2v1.7c0,0,10.1,5.2,17.8,1.2L2086.5,666.8z"/>
						
							<linearGradient id="XMLID_262_" gradientUnits="userSpaceOnUse" x1="1692.5704" y1="432.7943" x2="1720.3101" y2="406.6488" gradientTransform="matrix(-0.9872 -0.1593 0.1593 -0.9872 3727.1035 1334.8314)">
							<stop  offset="0" style="stop-color:#D31027"/>
							<stop  offset="1" style="stop-color:#FFE9EB"/>
						</linearGradient>
						<path id="XMLID_475_" class="st97" d="M2085.9,670.6c0,0-8.2,3.8-17.6-1.2v1.2c0,0,7.4,5.4,17.4,1.3L2085.9,670.6z"/>
					</g>
					<path id="XMLID_474_" class="st50" d="M2082.3,660.6c0,0-5.1,13.7-3.3,21.7c1.9,8,6.5,13.3,2.3,25c0,0,4.2-4,5.1-5.6
						c0.9-1.6,0.7-6.5-1-11.3c-1.7-4.8-0.7-9.1-0.7-9.1l2.7-21.1L2082.3,660.6z"/>
				</g>
			</g>
			
				<linearGradient id="XMLID_264_" gradientUnits="userSpaceOnUse" x1="2168.6116" y1="706.5684" x2="2161.4121" y2="752.1993" gradientTransform="matrix(1 0 0 -1 0 1082)">
				<stop  offset="0" style="stop-color:#FF2A3C"/>
				<stop  offset="1" style="stop-color:#FF7F94"/>
			</linearGradient>
			<path id="XMLID_473_" class="st98" d="M2150.9,348.2c0,0,11.4,5.9,26.3,0.9l7.8,9.4c0,0-21.4,10-36-0.9c-3.2-2.3-3.3-7.1-3.3-7.1
				L2150.9,348.2z"/>
			<path id="XMLID_472_" class="st50" d="M2170,350.8v11.9c0,0,9.3-1.2,15.2-4.2l-7.8-9.4L2170,350.8z"/>
			<g id="XMLID_558_">
				<g id="XMLID_560_" class="st28">
					<path id="XMLID_561_" class="st93" d="M2164.2,351.6c-24.9,0-45.1-20.2-45.1-45.1c0-24.9,20.2-45.1,45.1-45.1
						s45.1,20.2,45.1,45.1C2209.3,331.4,2189,351.6,2164.2,351.6z M2164.2,262.8c-24,0-43.7,19.5-43.7,43.7
						c0,24,19.5,43.7,43.7,43.7s43.7-19.5,43.7-43.7C2207.9,282.3,2188.2,262.8,2164.2,262.8z"/>
				</g>
				<path id="XMLID_469_" class="st99" d="M2150.1,268.9c-6.5,1.9-23.4,11.3-18.4,22.6c3.9,8.7,7.7-7.7,12.4-11
					c9-6.4,18.8,1.3,19.1-6.8C2163.4,267.7,2153.5,267.9,2150.1,268.9z"/>
			</g>
		</g>
	</g>
	<text id="XMLID_669_" transform="matrix(1 0 0 1 1146.3896 417.993)" class="st26"><tspan x="0" y="0" class="st93 st100 st101">Got a Project ?</tspan><tspan x="0" y="84" class="st93 st100 st101">Just Tell Us!</tspan></text>
	<path id="XMLID_205_" class="st102" d="M1332,636.4h-137.7c-19.7,0-35.7-16-35.7-35.7v0c0-19.7,16-35.7,35.7-35.7H1332
		c19.7,0,35.7,16,35.7,35.7v0C1367.7,620.4,1351.7,636.4,1332,636.4z"/>
	<g id="XMLID_41_" class="st26">
		<rect id="XMLID_58_" x="1410.2" y="839.9" class="st93" width="18.1" height="4.4"/>
		<path id="XMLID_66_" class="st93" d="M1434.8,860.3c-0.6-2.3-1.5-4.4-2.8-6.1c-1.3-1.8-3-3.2-5.1-4.3c-2.1-1.1-4.5-1.6-7.2-1.6
			c-2.5,0-4.7,0.4-6.8,1.3c-2,0.9-3.8,2.1-5.3,3.6c-1.5,1.5-2.6,3.3-3.4,5.4c-0.8,2.1-1.2,4.4-1.2,6.8c0,2.5,0.4,4.8,1.2,6.9
			c0.8,2.1,1.9,3.9,3.3,5.4c1.4,1.5,3.2,2.7,5.2,3.5c2.1,0.8,4.4,1.2,6.9,1.2c3.7,0,6.8-0.8,9.4-2.5c2.6-1.7,4.5-4.5,5.8-8.4h-7.8
			c-0.3,1-1.1,2-2.4,2.9c-1.3,0.9-2.9,1.4-4.6,1.4c-2.5,0-4.4-0.7-5.8-2c-1.3-1.3-2.2-3.7-2.2-6.3h23.4
			C1435.5,865,1435.3,862.6,1434.8,860.3z M1412,861.9c0-0.6,0.2-1.3,0.4-2.1c0.2-0.8,0.6-1.6,1.2-2.3c0.6-0.7,1.3-1.3,2.3-1.8
			c0.9-0.5,2.1-0.7,3.5-0.7c2.2,0,4,0.6,5,1.8c1.1,1.2,1.8,2.9,2.1,5.1H1412z"/>
		<path id="XMLID_72_" class="st93" d="M1398.1,861.4c-1.4-2-3.4-3.4-6.1-4.2c2-1,3.5-2.2,4.6-3.7c1-1.5,1.5-3.4,1.5-5.6
			c0-2.1-0.3-3.8-1-5.2c-0.7-1.4-1.7-2.6-2.9-3.4c-1.3-0.9-2.8-1.5-4.5-1.8c-1.8-0.4-3.7-0.6-5.8-0.6h-21.1v44.7h21.7
			c2,0,4-0.3,5.8-0.8c1.9-0.5,3.6-1.3,5.1-2.3c1.5-1,2.7-2.4,3.5-4.1c0.9-1.6,1.3-3.6,1.3-5.9
			C1400.2,865.8,1399.5,863.4,1398.1,861.4z M1372.5,844.5h9.2c0.9,0,1.7,0.1,2.5,0.2c0.8,0.1,1.5,0.4,2.2,0.8
			c0.6,0.4,1.1,0.9,1.5,1.6c0.4,0.7,0.5,1.5,0.5,2.6c0,1.9-0.5,3.2-1.7,4.1c-1.1,0.8-2.6,1.3-4.3,1.3h-10V844.5z M1389.7,871
			c-0.4,0.8-0.9,1.4-1.6,1.8c-0.7,0.5-1.4,0.8-2.3,0.9c-0.9,0.2-1.8,0.3-2.8,0.3h-10.5v-12.3h10.7c2.1,0,3.8,0.5,5.1,1.5
			c1.3,1,1.9,2.6,1.9,4.9C1390.3,869.3,1390.1,870.2,1389.7,871z"/>
	</g>
	<g id="XMLID_85_" class="st26">
		<path id="XMLID_67_" class="st93" d="M1539.1,829.4h-32.3c-9.1,0-16.4,7.4-16.4,16.4v32.3c0,9.1,7.4,16.4,16.4,16.4h32.3
			c9.1,0,16.4-7.4,16.4-16.4v-32.3C1555.5,836.8,1548.2,829.4,1539.1,829.4z M1548.5,878.1c0,5.2-4.2,9.3-9.3,9.3h-32.3
			c-5.1,0-9.3-4.2-9.3-9.3v-32.3c0-5.2,4.2-9.3,9.3-9.3h32.3c5.2,0,9.3,4.2,9.3,9.3V878.1z"/>
		<path id="XMLID_60_" class="st93" d="M1544.3,844.7c0,2.2-1.8,4-4,4c-2.2,0-4-1.8-4-4s1.8-4,4-4
			C1542.5,840.7,1544.3,842.5,1544.3,844.7z"/>
		<path id="XMLID_51_" class="st93" d="M1523,845.2c-9.2,0-16.8,7.5-16.8,16.8c0,9.2,7.5,16.8,16.8,16.8c9.3,0,16.8-7.5,16.8-16.8
			C1539.8,852.7,1532.2,845.2,1523,845.2z M1523,871.7c-5.3,0-9.7-4.3-9.7-9.7c0-5.3,4.3-9.7,9.7-9.7c5.3,0,9.7,4.3,9.7,9.7
			C1532.7,867.3,1528.3,871.7,1523,871.7z"/>
	</g>
	<path id="XMLID_49_" class="st102" d="M1145.8,843.9v8.2h11.2c-0.5,6.3-1.4,12-1.4,12h-9.9v35.5H1131v-35.5h-7.2v-12h7.2v-9.8
		c0-1.8-0.4-13.8,15.1-13.8h10.9V841h-8C1147.4,841,1145.8,842.7,1145.8,843.9z"/>
	<g id="XMLID_42_" class="st26">
		<path id="XMLID_43_" class="st93" d="M1259.6,828.6c-19.6,0-35.4,15.9-35.4,35.4c0,19.6,15.9,35.5,35.4,35.5s35.5-15.9,35.5-35.5
			C1295.1,844.5,1279.2,828.6,1259.6,828.6z M1259.6,835.1c6,0,11.5,1.8,16.1,4.8c-3.5,4.9-7.3,5.3-12.7,11.8
			c-3.1-5.5-6.8-10.7-10.9-15.6C1254.5,835.6,1257,835.1,1259.6,835.1z M1245.8,838.8c4.4,4.9,8.2,10.2,11.4,15.9
			c-8,3.4-16.9,4.5-25.8,2.8C1233.4,849.4,1238.7,842.7,1245.8,838.8z M1230.7,864.1c3,0.4,6,0.8,9,0.8c7.1,0,14.1-1.6,20.5-4.4
			c0.8,1.7,1.5,3.4,2.2,5.1c-9.5,3.4-17.9,9.6-24,18.1C1233.6,878.5,1230.7,871.7,1230.7,864.1z M1259.6,893.1
			c-6.1,0-11.8-1.9-16.4-5.2c5.4-7.7,12.9-13.3,21.4-16.3c2,6.5,3.3,13.2,3.8,20C1265.6,892.5,1262.7,893.1,1259.6,893.1z
			 M1265.9,857.5c5.6-3.4,10.6-7.9,14.7-13.3c4.8,5.1,7.8,11.8,8,19.3c-6.8-1.2-13.5-1.2-20,0.3
			C1267.8,861.6,1266.9,859.6,1265.9,857.5z M1274.6,888.8c-0.6-6.5-1.9-12.8-3.8-19c5.6-1.1,11.5-1.1,17.3,0
			C1286.4,877.9,1281.4,884.7,1274.6,888.8z"/>
	</g>
</g>
</svg>
