<?xml version="1.0" encoding="utf-8"?>
<!-- Generator: Adobe Illustrator 19.0.0, SVG Export Plug-In . SVG Version: 6.00 Build 0)  -->
<svg version="1.1" id="Layer_1" xmlns="http://www.w3.org/2000/svg" xmlns:xlink="http://www.w3.org/1999/xlink" x="0px" y="0px"
	 viewBox="0 0 721.9 777.8" style="enable-background:new 0 0 721.9 777.8;" xml:space="preserve">
<style type="text/css">
	.st0{fill:none;stroke:url(#XMLID_28_);stroke-width:3;stroke-miterlimit:10;}
	.st1{fill:none;stroke:url(#XMLID_29_);stroke-width:3;stroke-miterlimit:10;}
	.st2{fill:url(#XMLID_30_);}
	.st3{fill:url(#XMLID_31_);}
	.st4{fill:#965EE5;}
	.st5{fill:#FFF3F4;}
	.st6{fill:url(#XMLID_32_);}
	.st7{opacity:0.3;fill:#01030A;enable-background:new    ;}
	.st8{opacity:0.7;fill:#FFFFFF;enable-background:new    ;}
	.st9{fill:url(#XMLID_33_);}
	.st10{fill:url(#XMLID_34_);}
	.st11{fill:#FC8F9A;}
	.st12{fill:#EA7586;}
	.st13{fill:url(#XMLID_35_);}
	.st14{fill:url(#XMLID_36_);}
	.st15{fill:url(#XMLID_37_);}
	.st16{fill:url(#XMLID_38_);}
	.st17{fill:url(#XMLID_39_);}
	.st18{fill:url(#XMLID_40_);}
	.st19{fill:url(#XMLID_41_);}
	.st20{fill:#FF4355;}
	.st21{fill:#FF3C4F;}
	.st22{fill:url(#XMLID_42_);}
	.st23{fill:#B192E0;}
	.st24{fill:url(#XMLID_43_);}
	.st25{fill:url(#XMLID_44_);}
	.st26{fill:url(#XMLID_45_);}
	.st27{fill:url(#XMLID_46_);}
	.st28{fill:#FFF9DC;}
	.st29{fill:url(#XMLID_47_);}
	.st30{fill:url(#XMLID_48_);}
	.st31{fill:url(#XMLID_49_);}
	.st32{fill:url(#XMLID_50_);}
	.st33{fill:url(#XMLID_51_);}
	.st34{fill:url(#XMLID_52_);}
	.st35{fill:#E06396;}
	.st36{fill:url(#XMLID_53_);}
	.st37{fill:url(#XMLID_54_);}
	.st38{fill:url(#XMLID_55_);}
	.st39{fill:url(#XMLID_56_);}
	.st40{fill:#E8677A;}
	.st41{fill:url(#XMLID_57_);}
	.st42{fill:url(#XMLID_58_);}
	.st43{fill:url(#XMLID_59_);}
	.st44{fill:url(#XMLID_60_);}
	.st45{fill:url(#XMLID_61_);}
	.st46{fill:url(#XMLID_62_);}
	.st47{fill:#0F0211;}
	.st48{fill:url(#XMLID_63_);}
	.st49{fill:url(#XMLID_64_);}
	.st50{fill:#FFFFFF;}
	.st51{fill:url(#XMLID_65_);}
	.st52{opacity:0.3;}
	.st53{fill:url(#XMLID_66_);}
	.st54{fill:url(#XMLID_67_);}
	.st55{fill:url(#XMLID_68_);}
	.st56{opacity:0.7;}
	.st57{opacity:0.3;fill:#FFFFFF;enable-background:new    ;}
</style>
<g id="XMLID_93_">
	<g id="XMLID_659_">
		<linearGradient id="XMLID_28_" gradientUnits="userSpaceOnUse" x1="183.4211" y1="405.8289" x2="672.1848" y2="405.8289">
			<stop  offset="0" style="stop-color:#00F2FE"/>
			<stop  offset="1" style="stop-color:#2AC6FF"/>
		</linearGradient>
		<path id="XMLID_671_" class="st0" d="M184.9,239.3c0,0,5.4,27.3,53.4,32.3s46.3,21.8,43.7,55.5c-2.6,33.7-6.6,54.8,34.4,61.4
			s63.9-12.4,84.9,44.8c21,57.2,10.4,98.6,99,103.6s116.3-21.4,170.8,34.7"/>
		<linearGradient id="XMLID_29_" gradientUnits="userSpaceOnUse" x1="178.3793" y1="491.5965" x2="670.3867" y2="491.5965">
			<stop  offset="0" style="stop-color:#662D91"/>
			<stop  offset="0.6852" style="stop-color:#D30DDF"/>
			<stop  offset="0.994" style="stop-color:#FF00FF"/>
		</linearGradient>
		<path id="XMLID_660_" class="st1" d="M193.8,220c0,0-32.4,49.4,1.6,91.5s40.9,28.8,27.9,83.8s0.8,75,36.1,82.1s68.9,4.4,85.9,54
			c17.1,49.6,22.4,56.4,58.9,61.8s78.3,12.2,92,79.1s96.9,109.3,173.5,81.6"/>
	</g>
	<g id="XMLID_557_">
		<g id="XMLID_566_">
			
				<linearGradient id="XMLID_30_" gradientUnits="userSpaceOnUse" x1="-116.051" y1="280.4857" x2="-46.688" y2="805.8741" gradientTransform="matrix(0.9825 0.1865 0.1865 -0.9825 141.7642 664.2045)">
				<stop  offset="0" style="stop-color:#14003F"/>
				<stop  offset="1" style="stop-color:#992AFF"/>
			</linearGradient>
			<path id="XMLID_550_" class="st2" d="M139,229.5c0,0-46.7,31.7-54.4,37.5C71.1,277.2,56,285.6,56,296.6
				c0,13.3,49.9,103.6,49.9,103.6s12.6,3.8,13.7-9.4c0,0-12.6-34.1-16.1-48.9c-6.1-26.2-14-35.7-14-35.7
				c23.3-9.4,41.4-26.2,41.4-26.2l31.8-43C149.7,232.6,139,229.5,139,229.5z"/>
			
				<linearGradient id="XMLID_31_" gradientUnits="userSpaceOnUse" x1="104.0681" y1="387.6943" x2="132.1927" y2="352.2327" gradientTransform="matrix(1 0 0 -1 0 800.4405)">
				<stop  offset="0" style="stop-color:#FF2A3C"/>
				<stop  offset="1" style="stop-color:#FF7F94"/>
			</linearGradient>
			<path id="XMLID_549_" class="st3" d="M90.3,429.5c0,0-0.4,4.6,2.6,7.1c2.9,2.3,7.4-1,10.3-2.9c2.9-1.9,20.4-17.8,22.6-20.7
				c2.2-2.9,3.3-6.1,1.4-9.3C125.4,400.4,90.3,429.5,90.3,429.5z"/>
			<path id="XMLID_548_" class="st4" d="M92.8,375.8c0,0,10.8,1.4,18.2-10.4c0,0,8.1,24.9,9.8,27.3s4,3.9,5.5,7.8
				c1.4,3.9,0.6,8.1-0.7,9.7c-1.2,1.6-23.3,24-28.9,24.9c-5.6,1-8.4-4.8-4.9-10.3c3.5-5.5,11.6-17.8,12.4-22.4
				c0.7-3.9-1.9-8.8-1.9-8.8L92.8,375.8z"/>
			<path id="XMLID_547_" class="st5" d="M95.9,381.6c0,0,11.7,0.7,17.5-8.8l0.9,2.5c0,0-6.2,8.4-17.4,8.1L95.9,381.6z"/>
			<path id="XMLID_546_" class="st5" d="M97.8,385.2c0,0,9.3,1.3,17.4-7.5l0.7,1.7c0,0-6.7,8.2-17.2,7.2L97.8,385.2z"/>
			
				<linearGradient id="XMLID_32_" gradientUnits="userSpaceOnUse" x1="77.4927" y1="495.4456" x2="87.7253" y2="572.9525" gradientTransform="matrix(1 0 0 -1 0 800.4405)">
				<stop  offset="0" style="stop-color:#FF2A3C"/>
				<stop  offset="1" style="stop-color:#FF7F94"/>
			</linearGradient>
			<path id="XMLID_545_" class="st6" d="M65.3,281.8c0,0,7.1-1.3,13.5,3.8c6.4,5.1,22,15.5,22,15.5l-11,5.2c0,0,3.6,5.5,5.1,8.8
				c0,0-7.7-2.7-15-4c-7.1-1.2-13.7-1.4-21.6-6.2c0,0-2.3-4.8-2.2-8.2C56.2,293,56.5,289.3,65.3,281.8z"/>
			<path id="XMLID_544_" class="st7" d="M130.9,280.1l6.1-20.5c0,0-12.4,1.2-17.1,13.3c-4.6,12.1-5.9,16.9-15.6,18.5
				s-16.6,6.1-19.7,13.7s-5.2,12.4-0.4,9.3c4.8-3,11-0.6,12,15.9c0.9,12.9-0.6,31.8,8.7,41.9c10.4,11.3,7.8,38.8,4.2,54.2
				c0,0,11.6-8.2,12.9-12.6c4.5-14.6-8.8-39.2-7.8-38.5c0,0-7.5-21.7-10.7-33.4c-3.2-11.7-6.8-26.3-14-35.7
				C89.6,306.1,112.9,297.9,130.9,280.1z"/>
			<path id="XMLID_543_" class="st8" d="M116.5,244.8c0,0-48.3,33-55.4,40.8c-7.2,7.7-5.2,12.9-3,18.5c2.2,5.6,5.5,13.6,5.5,13.6
				s-0.3-6.1-2-11.9c-1.6-5.6-6.9-11-2.9-15.9s7.1-2.6,15.8-11.9c8.8-9.1,18.1-16.6,24.9-19.4C110.3,254.5,116.5,244.8,116.5,244.8z
				"/>
			
				<linearGradient id="XMLID_33_" gradientUnits="userSpaceOnUse" x1="-63.1885" y1="262.2184" x2="11.3748" y2="826.9951" gradientTransform="matrix(0.9825 0.1865 0.1865 -0.9825 141.7642 664.2045)">
				<stop  offset="0" style="stop-color:#14003F"/>
				<stop  offset="1" style="stop-color:#992AFF"/>
			</linearGradient>
			<path id="XMLID_542_" class="st9" d="M162.8,237.1l-31.8,43c0,0-15.5,42.4-15.5,49.6c0,21.8-3.8,118-3.8,118s9,7.2,18.5-3.3
				c0.4-26.9,14.9-82,16.5-104.4c0.4-5.2,37-31.1,46.6-43.8c7.7-10.3,14.6-32,16.2-38.2C210.5,254.1,183.6,244.2,162.8,237.1z"/>
			
				<linearGradient id="XMLID_34_" gradientUnits="userSpaceOnUse" x1="132.44" y1="460.0582" x2="138.9067" y2="509.0389" gradientTransform="matrix(1 0 0 -1 0 800.4405)">
				<stop  offset="0" style="stop-color:#FF2A3C"/>
				<stop  offset="1" style="stop-color:#FF7F94"/>
			</linearGradient>
			<path id="XMLID_541_" class="st10" d="M116.5,324.2c0,0-0.1,0.7,1.7,2.2c0,0,5.4-2.3,11.1,0.1c5.8,2.6,9.7,7.5,22.4,6.9
				c0,0-4.2,3.5-5.2,6.4c-0.1,2.6-0.7,7.1-0.7,7.1s-8-5.6-11.7-3.6c-5.4,2.7-11.4,0.6-14.5-1.9c-3-2.5-4.3-1-4.3-1
				s0.1-10.7,0.3-11.9C115.6,327.5,116.5,324.2,116.5,324.2z"/>
			<g id="XMLID_636_">
				<path id="XMLID_540_" class="st11" d="M118.8,87c0,0,0-3,0.4-4c0.4-1,3.2-3.2,4.6-3.8c1.4-0.6,5.2-2.2,5.9-2.9
					c-1.2-2.6-5.5-0.6-7.7,0c-0.7,0.1-2-0.7-2-0.7s-0.3-4.9-0.6-5.2c-1.3-0.7-12,0.1-12.1,3.3c-0.3,7.4,2.3,9.8,2.3,9.8
					c1,2.2,0.9,6.1,0.9,6.1L118.8,87z"/>
				<path id="XMLID_539_" class="st12" d="M109.5,83.4c0,0,2.7,1.3,4.2,1.2c1.4-0.1,2.5,0.3,2.3,0.7c-0.3,0.4-0.7,3-0.7,3l-4.8-0.6
					C110.4,87.7,110.5,85,109.5,83.4z"/>
				<path id="XMLID_538_" class="st11" d="M119.7,71.2c0-0.1-0.3-12.6-0.3-12.6s-1.2-1.2-1.9,0.3c-0.7,1.4-0.7,11.6-0.7,11.6
					L119.7,71.2z"/>
				<path id="XMLID_537_" class="st11" d="M116.5,71.8c0-0.1-2.9-15.9-2.9-15.9s-1.3-0.9-1.9,0.7c-0.4,1.6,1.6,15,1.6,15L116.5,71.8
					z"/>
				<path id="XMLID_536_" class="st11" d="M113,72.1c0-0.1-4-12-4-12s-1.4-0.7-1.7,0.9c-0.3,1.6,2.6,11.3,2.6,11.3L113,72.1z"/>
				<path id="XMLID_535_" class="st11" d="M109.8,73l-5.4-9c0,0-1.3-0.4-1.3,1c0,1.4,4,8.5,4,8.5L109.8,73z"/>
				
					<linearGradient id="XMLID_35_" gradientUnits="userSpaceOnUse" x1="-135.4079" y1="267.2674" x2="-58.7783" y2="847.6957" gradientTransform="matrix(0.9825 0.1865 0.1865 -0.9825 141.7642 664.2045)">
					<stop  offset="0" style="stop-color:#14003F"/>
					<stop  offset="1" style="stop-color:#992AFF"/>
				</linearGradient>
				<path id="XMLID_534_" class="st13" d="M181,126.9c0,0-15.5,4.3-20.5,6.1c-5.2,1.9-32.4,9.7-32.4,9.7s-3.6-22-5.1-34.3
					c-1.4-12.3-2.3-23.3-2.3-23.3s-4.9,2.2-11,1.7c0,0,0,23.1,0,30.8s0.1,37.6,3.5,41.9c5.1,6.8,10.7,6.1,18.2,5.2
					c7.5-0.7,42.7-8.1,44.5-10.6C177.8,151.9,184,130.1,181,126.9z"/>
				
					<linearGradient id="XMLID_36_" gradientUnits="userSpaceOnUse" x1="-120.2413" y1="468.4285" x2="-97.036" y2="606.3719" gradientTransform="matrix(0.9825 0.1865 0.1865 -0.9825 141.7642 664.2045)">
					<stop  offset="0" style="stop-color:#FF2A3C"/>
					<stop  offset="1" style="stop-color:#FF7F94"/>
				</linearGradient>
				<path id="XMLID_533_" class="st14" d="M127.2,136.8l1,6.1l5.5-1.6l-8.2,24.3c0,0-10.8,1.2-13.6-9.4L127.2,136.8z"/>
				<path id="XMLID_532_" class="st7" d="M172.6,133c0,0-9.8,7.4-12.1,12c-2.5,4.6-3.3,10.6-10,12c-6.7,1.4-13.7-6.1-23.3,3.2
					c-6.7,6.5-14-0.4-15.6-5.1c0,0,0.9,9.4,11,10.3c10.3,0.9,40.4-6.7,43-7.5C168.1,157.1,180.7,134.3,172.6,133z"/>
				
					<linearGradient id="XMLID_37_" gradientUnits="userSpaceOnUse" x1="-126.2194" y1="522.6284" x2="-111.8778" y2="607.8826" gradientTransform="matrix(0.9825 0.1865 0.1865 -0.9825 141.7642 664.2045)">
					<stop  offset="0" style="stop-color:#FF2A3C"/>
					<stop  offset="1" style="stop-color:#FF7F94"/>
				</linearGradient>
				<polygon id="XMLID_531_" class="st15" points="121.8,98.3 119.1,101.3 121,116.9 124.3,118.1 				"/>
				
					<linearGradient id="XMLID_38_" gradientUnits="userSpaceOnUse" x1="-137.465" y1="516.7255" x2="-122.4195" y2="606.1628" gradientTransform="matrix(0.9825 0.1865 0.1865 -0.9825 141.7642 664.2045)">
					<stop  offset="0" style="stop-color:#FF2A3C"/>
					<stop  offset="1" style="stop-color:#FF7F94"/>
				</linearGradient>
				<polygon id="XMLID_530_" class="st16" points="109.5,100.3 112.7,101.9 112.9,117.5 109.5,120.4 				"/>
				
					<linearGradient id="XMLID_39_" gradientUnits="userSpaceOnUse" x1="109.5715" y1="714.7814" x2="120.6127" y2="714.7814" gradientTransform="matrix(1 0 0 -1 0 800.4405)">
					<stop  offset="0" style="stop-color:#FF2A3C"/>
					<stop  offset="1" style="stop-color:#FF7F94"/>
				</linearGradient>
				<path id="XMLID_529_" class="st17" d="M109.5,87c0,0,5.2,0.6,11-1.7v-1c0,0-6.7,2.5-11,1.4V87z"/>
			</g>
			<g id="XMLID_624_">
				
					<linearGradient id="XMLID_40_" gradientUnits="userSpaceOnUse" x1="-46.1274" y1="426.6034" x2="-47.4557" y2="379.539" gradientTransform="matrix(0.9825 0.1865 0.1865 -0.9825 141.7642 664.2045)">
					<stop  offset="0" style="stop-color:#FF2A3C"/>
					<stop  offset="1" style="stop-color:#FF7F94"/>
				</linearGradient>
				<path id="XMLID_528_" class="st18" d="M140.6,225.1l-1.4,4.2c0,0-2.6,10.4,22.6,21.3c27.9,12,47.7,7.2,47.7,7.2l1.6-6.2
					C211.1,251.7,152.5,251.3,140.6,225.1z"/>
				
					<linearGradient id="XMLID_41_" gradientUnits="userSpaceOnUse" x1="-67.8084" y1="258.3427" x2="8.8212" y2="838.7711" gradientTransform="matrix(0.9825 0.1865 0.1865 -0.9825 141.7642 664.2045)">
					<stop  offset="0" style="stop-color:#14003F"/>
					<stop  offset="1" style="stop-color:#992AFF"/>
				</linearGradient>
				<path id="XMLID_527_" class="st19" d="M215.4,124.5c0,0,22.3,13.9,26.9,19.5c4.5,5.6-17.2,60.6-21.8,72.5
					c-6.7,16.9-7.8,32.4-9.4,35.3c-1.6,2.9-62.9-0.4-70.4-26.5c0,0,1.3-1.9,6.5-14.8c5.2-12.9,20.8-69.6,24.2-77.7
					c3-7.4,26.8-8.5,26.8-8.5L215.4,124.5z"/>
				<g id="XMLID_632_">
					<path id="XMLID_526_" class="st20" d="M183.9,253.2l-1.2-0.6l12.3-25c0.7-1.6,2-2.7,3.6-3.3l21.4-8.4l0.4,1.2l-21.4,8.4
						c-1.3,0.6-2.5,1.4-3,2.7L183.9,253.2z"/>
				</g>
				<g id="XMLID_630_">
					<path id="XMLID_525_" class="st21" d="M145.6,235l-1.2-0.4l9.8-29.2c0.3-0.9,0.3-1.7,0-2.6l-2.3-7.7l1.2-0.3l2.3,7.7
						c0.3,1.2,0.3,2.3,0,3.3L145.6,235z"/>
				</g>
				
					<linearGradient id="XMLID_42_" gradientUnits="userSpaceOnUse" x1="-31.1287" y1="461.7746" x2="-41.1283" y2="548.8282" gradientTransform="matrix(0.9825 0.1865 0.1865 -0.9825 141.7642 664.2045)">
					<stop  offset="0" style="stop-color:#FF2A3C"/>
					<stop  offset="1" style="stop-color:#FF7F94"/>
				</linearGradient>
				<polygon id="XMLID_524_" class="st22" points="166.1,149.8 171.6,165.8 201.7,176.7 238.3,165.7 234.9,175.7 199.9,186.4 
					166.8,174.5 162.3,162.1 				"/>
				<g id="XMLID_627_">
					<polygon id="XMLID_523_" class="st23" points="201.2,173.5 201.2,173.3 173.8,164.1 173.8,163.9 167.1,145.7 167.7,145.6 
						174.2,163.5 201.2,172.8 228.7,164.7 228.9,165.2 					"/>
				</g>
				<path id="XMLID_522_" class="st8" d="M145.8,216.3c3.9-6.4,2.3-6.2,7.7-19.1c2-4.9,3.9-14.5,7.1-25.3
					c5.1-17.6,10.4-34.6,12.1-39.6c0.7-2.3,10.1-6.5,17.9-7.5c4-0.6,7.5-0.7,7.5-0.7s-24.2,1.7-26.8,8.1
					c-3.3,8.1-18.8,65.4-24.2,78.2c-5.2,12.9-6.5,14.8-6.5,14.8S142.1,222.5,145.8,216.3z"/>
				<path id="XMLID_521_" class="st7" d="M221.8,151.1c0,0-13.7,15.3-12.6,28.1c2.7,29.1-10.7,33.1-9.5,41.9
					c1.2,8.8-3.3,5.1-5.5,9.3c-2.2,4.2,12-3.8,9.3,3.6c-2.7,7.4-18.1,11.1-20.5,23.9c0,0,21.7,2.5,26.5,0l4-16.3
					c0,0,8.1-34.9,10.1-39.2c2-4.3,15.2-31,14.6-36.6C237.5,160,230,143.1,221.8,151.1z"/>
			</g>
			<g id="XMLID_595_">
				<g id="XMLID_600_">
					<g id="XMLID_617_">
						<g id="XMLID_619_">
							
								<linearGradient id="XMLID_43_" gradientUnits="userSpaceOnUse" x1="1687.2238" y1="421.0062" x2="1694.3988" y2="410.445" gradientTransform="matrix(0.2496 -0.9683 -0.9683 -0.2496 114.8919 1950.3293)">
								<stop  offset="0" style="stop-color:#0084E8"/>
								<stop  offset="1" style="stop-color:#5833E4"/>
							</linearGradient>
							<polygon id="XMLID_520_" class="st24" points="148.6,212.4 135.4,216.2 131.4,202.3 144.5,198.5 							"/>
							
								<linearGradient id="XMLID_44_" gradientUnits="userSpaceOnUse" x1="2091.8616" y1="-297.7977" x2="2112.0503" y2="-297.0211" gradientTransform="matrix(0.9613 -0.2756 -0.2756 -0.9613 -1965.0946 493.9522)">
								<stop  offset="0" style="stop-color:#20F6CF"/>
								<stop  offset="0.9995" style="stop-color:#12AEE7"/>
							</linearGradient>
							<path id="XMLID_519_" class="st25" d="M144.5,198.5c0.4,1.3-2.3,3.2-5.9,4.2s-6.9,0.9-7.2-0.4s2.3-3.2,5.9-4.2
								C140.9,196.9,144.2,197.2,144.5,198.5z"/>
							
								<linearGradient id="XMLID_45_" gradientUnits="userSpaceOnUse" x1="2092.5693" y1="-297.7694" x2="2111.3628" y2="-297.0466" gradientTransform="matrix(0.9613 -0.2756 -0.2756 -0.9613 -1965.0946 493.9522)">
								<stop  offset="0" style="stop-color:#2E49BF"/>
								<stop  offset="1" style="stop-color:#402E9B"/>
							</linearGradient>
							<path id="XMLID_518_" class="st26" d="M144.1,198.7c0.3,1.2-2.2,2.9-5.5,3.8c-3.3,1-6.4,0.9-6.8-0.3
								c-0.4-1.2,2.2-2.9,5.5-3.8C140.8,197.4,143.8,197.5,144.1,198.7z"/>
							
								<linearGradient id="XMLID_46_" gradientUnits="userSpaceOnUse" x1="1681.3856" y1="417.04" x2="1688.5602" y2="406.4787" gradientTransform="matrix(0.2496 -0.9683 -0.9683 -0.2496 114.8919 1950.3293)">
								<stop  offset="0" style="stop-color:#0084E8"/>
								<stop  offset="1" style="stop-color:#5833E4"/>
							</linearGradient>
							<path id="XMLID_517_" class="st27" d="M148.6,212.3c0.3,1.2-2.3,2.9-6.1,3.9c-3.6,1-6.8,1-7.2-0.1c-0.3-1.2,2.3-2.9,6.1-3.9
								C145,211.1,148.2,211.1,148.6,212.3z"/>
						</g>
						<path id="XMLID_516_" class="st28" d="M137.6,216.6l-3.5-13c0,0-2.6-0.1-2.7-1.3l3.9,13.5
							C135.1,215.7,135.7,216.7,137.6,216.6z"/>
					</g>
					
						<linearGradient id="XMLID_47_" gradientUnits="userSpaceOnUse" x1="1974.9514" y1="-65.7456" x2="1917.3793" y2="-108.0779" gradientTransform="matrix(0.8313 -0.5558 -0.5558 -0.8313 -1521.8445 1180.4169)">
						<stop  offset="0" style="stop-color:#FFC5BF"/>
						<stop  offset="1" style="stop-color:#FE88B6"/>
					</linearGradient>
					<path id="XMLID_515_" class="st29" d="M135,203c-0.6-0.9,0-1.3-3.5-2.6c-5.8-2.3-1.3-5.8-3.3-6.8c-2.5-1.3-6.4-1.9-5.9-5.9
						c0.9-7.2,7.8-3.2,8.2-12.1c0.3-9.1,8.8-15.9,13.6-10.8c4.8,5.1-4.5,4.9-1.6,9.8c2.9,4.9,8.4,0.1,12.3,4.2
						c3.2,3.2,1,6.2-2.2,8.2c-3.2,2-6.2,1.3-4.9,7.1c0.6,3-6.5,1.4-6.9,7.7C140.8,201.6,137.7,203,135,203z"/>
					
						<linearGradient id="XMLID_48_" gradientUnits="userSpaceOnUse" x1="1945.979" y1="-67.1067" x2="1892.9226" y2="-105.488" gradientTransform="matrix(0.8313 -0.5558 -0.5558 -0.8313 -1521.8445 1180.4169)">
						<stop  offset="0" style="stop-color:#FFC5BF"/>
						<stop  offset="1" style="stop-color:#FE88B6"/>
					</linearGradient>
					<path id="XMLID_514_" class="st30" d="M122.6,182.8c0.1,0,3.9-1.2,4.6-4.5c0.7-3.3,0.7-5.6-1.2-4.6c-1.9,1-1,3.6-3,4.6
						C119.8,180.1,119.5,183.2,122.6,182.8z"/>
					
						<linearGradient id="XMLID_49_" gradientUnits="userSpaceOnUse" x1="2174.6331" y1="-301.2128" x2="2121.5767" y2="-339.594" gradientTransform="matrix(0.97 -0.2432 -0.2432 -0.97 -2031.0171 401.3834)">
						<stop  offset="0" style="stop-color:#FFC5BF"/>
						<stop  offset="1" style="stop-color:#FE88B6"/>
					</linearGradient>
					<path id="XMLID_513_" class="st31" d="M147,168.4c0.3-0.3,1.3-2.3,2-2c0.7,0.3,1.3,2,0.3,3C147.6,171.3,145.6,170,147,168.4z"
						/>
					
						<linearGradient id="XMLID_50_" gradientUnits="userSpaceOnUse" x1="1901.8733" y1="-3.4532" x2="1848.8168" y2="-41.8346" gradientTransform="matrix(0.7684 -0.64 -0.64 -0.7684 -1316.7482 1376.7971)">
						<stop  offset="0" style="stop-color:#FFC5BF"/>
						<stop  offset="1" style="stop-color:#FE88B6"/>
					</linearGradient>
					<path id="XMLID_512_" class="st32" d="M143.4,172.2c0,0,0-1,0.9-1.4c0.9-0.4,1.2-0.6,1.3-0.3c0.1,0.3,0.1,0.4-0.1,1
						S143.4,173.5,143.4,172.2z"/>
					
						<linearGradient id="XMLID_51_" gradientUnits="userSpaceOnUse" x1="2367.3896" y1="-403.4985" x2="2314.3333" y2="-441.8798" gradientTransform="matrix(1 -3.112338e-03 -3.110445e-03 -1 -2214.6978 -228.9139)">
						<stop  offset="0" style="stop-color:#FFC5BF"/>
						<stop  offset="1" style="stop-color:#FE88B6"/>
					</linearGradient>
					<path id="XMLID_511_" class="st33" d="M143.7,174.2c0.1-0.1,0.6-0.9,1.2-0.7c0.6,0.1,0.6,0.4,0.3,0.7c-0.3,0.4-1,0.7-1.3,0.7
						C143.7,174.9,143.4,174.5,143.7,174.2z"/>
					
						<linearGradient id="XMLID_52_" gradientUnits="userSpaceOnUse" x1="1947.8295" y1="-104.3757" x2="1943.7761" y2="-107.308" gradientTransform="matrix(0.8313 -0.5558 -0.5558 -0.8313 -1521.8445 1180.4169)">
						<stop  offset="0" style="stop-color:#FFC5BF"/>
						<stop  offset="1" style="stop-color:#FE88B6"/>
					</linearGradient>
					<path id="XMLID_510_" class="st34" d="M153.5,187.2c0,0,2-2.2,2.5-1.9C156.4,185.6,152.6,188.8,153.5,187.2z"/>
					<path id="XMLID_509_" class="st35" d="M139.6,202c0,0,0.9-3-1.7-4.8c-2.7-1.7-3.5-1.2-4.2-3.3c-1.4-4.5,5.1-4.2,4.5-10.3
						c-0.4-6.1-4.2-5.6-5.5-9.5c-1.2-3.8,4.3-5.9,5.1-8.5c0.7-2.6-2.7-0.7-3.5,0.1c-0.7,0.9-3.6,3.9-4,9.7c-0.4,5.8-4.3,7.1-4.3,7.1
						s-4.3,1.6-4,5.6c0.1,3,1.7,3.8,4,4.8s3.2,0.4,2.6,3c-0.6,2.5,0.4,4,2.9,4.5s3.5,2.6,3.5,2.6S137.2,203,139.6,202z"/>
					
						<linearGradient id="XMLID_53_" gradientUnits="userSpaceOnUse" x1="1951.7732" y1="-97.5638" x2="1917.7617" y2="-122.1679" gradientTransform="matrix(0.8313 -0.5558 -0.5558 -0.8313 -1521.8445 1180.4169)">
						<stop  offset="0" style="stop-color:#FFC5BF"/>
						<stop  offset="1" style="stop-color:#FE88B6"/>
					</linearGradient>
					<path id="XMLID_508_" class="st36" d="M152.5,178c0.3,0,2.3,1.7,2.6,2.6c0.4,0.9,0.6,1.4,0,1.4s-0.9-0.6-1.6-1.6
						C152.8,179.4,150.9,178,152.5,178z"/>
					<path id="XMLID_507_" class="st35" d="M149.3,166.4c0,0-0.6,0-0.4,0.9c0.1,0.9,0.4,1.6-0.1,2c-0.7,0.4-1.6,0.7-1.2,1.2
						c0,0-0.9,0-0.9-0.7c0-0.7,0.3-0.9,0.6-1.3c0.3-0.4,0.9-1.4,1.2-1.7C148.7,166.3,149,166.1,149.3,166.4z"/>
					<path id="XMLID_506_" class="st35" d="M124.7,175.5c0,0,0.6,1.9-0.4,3.2c-1.2,1.3-1.7,1-1.3,2.2c0.6,1,2,0.7,2,0.7
						s-1.6,1.2-2.5,1.3c-0.9,0.1-2.3,0-2.2-1.4c0.1-1.2,0.9-1.6,1.2-2C122.7,178.1,124,178.4,124.7,175.5z"/>
					<path id="XMLID_505_" class="st35" d="M126,193.7c0,0-1.7-1.2-2-1.2c-0.3,0-0.3,0.4,0.1,0.7C124.6,193.6,125.4,194.2,126,193.7
						z"/>
					<path id="XMLID_504_" class="st35" d="M144.1,172.5c0,0,0-1.4,0.7-2c0,0-1.2,0.4-1.4,1.2C143.1,172.5,143.4,173.1,144.1,172.5z
						"/>
					<path id="XMLID_503_" class="st35" d="M148.3,192.9c0,0,0-2.2,0.7-2.9c0.7-0.9-0.6-0.4-0.9,0.1
						C148,190.7,147.4,192,148.3,192.9z"/>
					
						<linearGradient id="XMLID_54_" gradientUnits="userSpaceOnUse" x1="1459.0974" y1="36.3557" x2="1455.0439" y2="33.4234" gradientTransform="matrix(0.4413 -0.5282 -0.5768 -0.4819 -466.045 972.077)">
						<stop  offset="0" style="stop-color:#FFC5BF"/>
						<stop  offset="1" style="stop-color:#FE88B6"/>
					</linearGradient>
					<path id="XMLID_502_" class="st37" d="M156.3,185.8c0,0,0.9-1.9,1.2-1.7C157.8,184.3,156,187.1,156.3,185.8z"/>
					
						<linearGradient id="XMLID_55_" gradientUnits="userSpaceOnUse" x1="1977.7466" y1="385.9297" x2="1973.6931" y2="382.9974" gradientTransform="matrix(0.6224 -1.1557 -1.4697 -0.7915 -532.7258 2754.0164)">
						<stop  offset="0" style="stop-color:#FFC5BF"/>
						<stop  offset="1" style="stop-color:#FE88B6"/>
					</linearGradient>
					<path id="XMLID_501_" class="st38" d="M130.8,167c0,0,0.7-3.9,1.6-3.8C133.1,163.5,130.8,169.6,130.8,167z"/>
					
						<linearGradient id="XMLID_56_" gradientUnits="userSpaceOnUse" x1="1816.4275" y1="171.1211" x2="1814.6747" y2="169.853" gradientTransform="matrix(0.6201 -0.7846 -0.7846 -0.6201 -848.7505 1698.5779)">
						<stop  offset="0" style="stop-color:#FFC5BF"/>
						<stop  offset="1" style="stop-color:#FE88B6"/>
					</linearGradient>
					<path id="XMLID_500_" class="st39" d="M143.7,164.7c0.4,0.3,0.7,0.7,0.6,0.9c-0.1,0.1-0.6,0-1-0.3c-0.4-0.3-0.7-0.7-0.6-0.9
						C142.8,164.1,143.2,164.2,143.7,164.7z"/>
				</g>
				<g id="XMLID_596_">
					<path id="XMLID_499_" class="st11" d="M159.4,209.9c0,0-5.2-1-6.1-1s-4.2-3.2-5.4-4c-1.3-0.9-1.9-0.7-1.9-0.7s1.3,3.3,0.7,4.6
						c-0.6,1.4-10.1,4-11.9,2.9c-1.7-1-2.2-4.5-2.2-4.5s-0.3,0.4-0.6,2.5c-0.3,2,0.3,2.9,0.4,3.3c0.1,0.4-0.3,1.4,0,2.6
						c0.1,0.4,0.6,1.2,0.7,1.9c0.3,1.3,0.1,2.3,0.9,3.3c0.6,0.9,3,2.5,4.3,2.7c1.9,0.4,8.8,0,11.4-0.9c2.6-0.7,8.8-2.6,8.8-2.6
						L159.4,209.9z"/>
					<path id="XMLID_498_" class="st40" d="M137.3,212c0,0-0.1,1.2,0.3,2c0,0-0.9,1.6,0.4,2.7c0,0-0.4,2.5,0.1,3.3
						c0,0-0.6,2.7,1.4,3.6c0,0-0.7,0-1.2-0.1c0,0-1.2-0.1-3-1.4c-1.9-1.3-1.7-2-1.9-2.6c-0.1-0.6-0.4-2.3-0.6-2.9
						c-0.3-0.6-0.6-1-0.4-2.9c0,0,0.1-0.4-0.1-1c-0.1-0.4-1-1.6,0.3-5.5c0,0,0.9,4,2.2,4.5C136.4,212.1,137.3,212,137.3,212z"/>
					<path id="XMLID_497_" class="st40" d="M146.1,204.2c0,0,2.2,2.7,2.2,4s-3,1.7-3,1.7s1.6-0.4,1.7-1.7
						C147.1,206.9,146.1,204.2,146.1,204.2z"/>
				</g>
			</g>
			
				<linearGradient id="XMLID_57_" gradientUnits="userSpaceOnUse" x1="-63.499" y1="399.8064" x2="-63.499" y2="399.8064" gradientTransform="matrix(0.9825 0.1865 0.1865 -0.9825 141.7642 664.2045)">
				<stop  offset="0" style="stop-color:#14003F"/>
				<stop  offset="1" style="stop-color:#992AFF"/>
			</linearGradient>
			<path id="XMLID_496_" class="st41" d="M153.9,259.6"/>
			<g id="XMLID_586_">
				
					<linearGradient id="XMLID_58_" gradientUnits="userSpaceOnUse" x1="84.8714" y1="363.1553" x2="161.5009" y2="943.5836" gradientTransform="matrix(0.9984 5.635421e-02 5.635602e-02 -0.9984 53.8293 768.0602)">
					<stop  offset="0" style="stop-color:#14003F"/>
					<stop  offset="1" style="stop-color:#992AFF"/>
				</linearGradient>
				<path id="XMLID_495_" class="st42" d="M221.9,152.4c0,0-4.2,19.4-6.5,49c0,0-48.5,6.9-56.4,6.8c0,0-4.6,5.5-0.7,12.9
					c0,0,60.3,2,68.7,0.6c8.4-1.4,8.8-9.4,10.3-15.2c1.4-5.8,8.1-47.7,8.8-51.6c0.7-4.3-1.9-12.4-8.4-14
					C229.9,139.1,222.6,144.9,221.9,152.4z"/>
				
					<linearGradient id="XMLID_59_" gradientUnits="userSpaceOnUse" x1="95.3533" y1="557.8579" x2="102.4249" y2="599.8946" gradientTransform="matrix(0.9984 5.635421e-02 5.635602e-02 -0.9984 53.8293 768.0602)">
					<stop  offset="0" style="stop-color:#FF2A3C"/>
					<stop  offset="1" style="stop-color:#FF7F94"/>
				</linearGradient>
				<polygon id="XMLID_494_" class="st43" points="172.3,207.2 173.9,209.2 192.7,207.2 193.4,204.6 				"/>
				
					<linearGradient id="XMLID_60_" gradientUnits="userSpaceOnUse" x1="97.9753" y1="545.8521" x2="103.8146" y2="580.5633" gradientTransform="matrix(0.9984 5.635421e-02 5.635602e-02 -0.9984 53.8293 768.0602)">
					<stop  offset="0" style="stop-color:#FF2A3C"/>
					<stop  offset="1" style="stop-color:#FF7F94"/>
				</linearGradient>
				<polygon id="XMLID_493_" class="st44" points="172.5,221.5 174.6,219.5 192.7,218.6 195.5,222.1 				"/>
				
					<linearGradient id="XMLID_61_" gradientUnits="userSpaceOnUse" x1="133.1943" y1="542.0216" x2="150.0317" y2="642.1107" gradientTransform="matrix(0.9984 5.635421e-02 5.635602e-02 -0.9984 53.8293 768.0602)">
					<stop  offset="0" style="stop-color:#FF2A3C"/>
					<stop  offset="1" style="stop-color:#FF7F94"/>
				</linearGradient>
				<path id="XMLID_492_" class="st45" d="M215.7,198.5l19.8,15.2c0,0-1.7,9-11.6,8.2l-12.7-19.8l4.3-0.6L215.7,198.5z"/>
				<path id="XMLID_491_" class="st7" d="M226.8,143.4c0,0,14.2-1.4,15.3,8.8c1.2,10.3-11,21.8-11.3,33.7s2.5,19.8-2.5,26.6
					c-4.9,6.9-12.7,6.8-18.4,4.8s-17.9-3.5-24.6-1.6c-6.7,1.9-24,5.5-24,5.5s58.4,1.9,65.4,0.4c6.7-1.4,6.8-3.3,8.5-8
					c3.2-8.4,8.8-48.7,10.6-58.7c0,0,1.4-11-8.4-14C230,138.6,226.8,143.4,226.8,143.4z"/>
				<path id="XMLID_490_" class="st8" d="M222.9,148.6c0,0-1,11.4-0.1,19.1c0.7,7.7,0.3,8.7-1.7,15.3c-2,6.5-1.7,14-1,17.6
					c0.7,3.6,0.7,5.2-4,4.9s-7.8-0.9-13.5-0.1c-5.6,0.7-18.7,2.3-21.3,0.9l34.3-4.6C215.4,201.6,219.9,155,222.9,148.6z"/>
				
					<linearGradient id="XMLID_62_" gradientUnits="userSpaceOnUse" x1="71.2339" y1="543.768" x2="81.7016" y2="605.9932" gradientTransform="matrix(0.9984 5.635421e-02 5.635602e-02 -0.9984 53.8293 768.0602)">
					<stop  offset="0" style="stop-color:#FF2A3C"/>
					<stop  offset="1" style="stop-color:#FF7F94"/>
				</linearGradient>
				<path id="XMLID_489_" class="st46" d="M159,208.4h1.6c0,0-5.4,5.9-0.7,12.9h-1.6C158.3,221.1,154.1,214.4,159,208.4z"/>
			</g>
			<path id="XMLID_488_" class="st7" d="M193,133.4c0,0-3.9,8.4,13.9,11.9c14.2,2.7,20.4-6.5,19.7-13.6l-8.7-5.6L193,133.4z"/>
			<g id="XMLID_578_">
				<path id="XMLID_487_" class="st11" d="M225.5,105.5c0,0-7.5,19.5-9,24.7c-2.3,8-21.7,3.2-22.6-0.1c0,0,3.9-15.3,6.1-18.8
					C202.2,107.7,225.5,105.5,225.5,105.5z"/>
				<path id="XMLID_486_" class="st40" d="M218.6,109c0,0,0.3,6.4-3.9,9.1s-9.8,4.3-11.3,6.9c-1.4,2.6-3,8.1-10,6.9
					c0,0,3.6-13.3,4.6-16.2C199.1,112.9,218.6,109,218.6,109z"/>
				<path id="XMLID_485_" class="st47" d="M187.1,71.4c0,0-1,8.4,1.4,12.9c2.5,4.5,6.5-10.1,6.5-10.1L187.1,71.4z"/>
				<path id="XMLID_484_" class="st11" d="M192.3,68.6c0,0-2.7,10.8-3,12.6c-0.3,1.7,0.7,4.9,0.1,5.8c-0.9,1.4-0.9,15-0.7,19.5
					c0.1,4.5,2,12.1,9.5,11.4c6.7-0.6,18.7-5.8,21.1-8.1c2.7-2.6,9.4-16.8,9.7-22.9c0.3-6.1-5.6-14.9-8.5-17.5
					C217.7,67,198.3,60.4,192.3,68.6z"/>
				<path id="XMLID_483_" class="st47" d="M185.8,63.9c0.3,3.9,0.7,11.4,7.7,13.7c6.9,2.3,20.7,2.3,25.9,0.4c0,0-3.3,4.8-2.7,8.2
					c0.6,3.5,0.6,10.3,2.5,10.8c1.9,0.6,1-5.1,3.3-6.4c2.3-1.3,4.3,0.1,4.5,2.2c0.1,2-4.2,11.6-4.6,13.2c-0.4,1.4,3.8,4.3,9.8-6.1
					c1-1.6,1.4-9.4,3.8-12.9s-0.4-15-6.8-16.8c0,0-3.3-4-6.4-5.8C219.3,62.8,184.7,50.1,185.8,63.9z"/>
				<linearGradient id="XMLID_63_" gradientUnits="userSpaceOnUse" x1="194.8942" y1="100.808" x2="198.1209" y2="126.8702">
					<stop  offset="0" style="stop-color:#14003F"/>
					<stop  offset="1" style="stop-color:#0048AA"/>
				</linearGradient>
				<path id="XMLID_482_" class="st48" d="M191.7,104.9l7.5,0.1c0.3,0,0.6,0.3,0.6,0.6c0,1.4-0.7,4.9-5.7,4.9c-2.2,0-2.8-3.5-3-5
					C191.1,105.2,191.4,104.9,191.7,104.9z"/>
				<linearGradient id="XMLID_64_" gradientUnits="userSpaceOnUse" x1="196.8209" y1="112.6802" x2="195.3275" y2="107.6113">
					<stop  offset="0" style="stop-color:#FF7FAD"/>
					<stop  offset="1" style="stop-color:#FF2A30"/>
				</linearGradient>
				<path id="XMLID_670_" class="st49" d="M199.1,108.2c-0.5,0.8-1.6,2.3-3.6,2.5c-2,0.2-2.8-0.5-3.1-1.1
					C192.2,109.2,196.2,108,199.1,108.2z"/>
				<path id="XMLID_672_" class="st50" d="M191.3,106.2c0,0,4.5,1,8.5,0l0-0.6c0,0,0-0.5-0.5-0.6c-0.8-0.1-7.5-0.1-7.5-0.1
					s-0.6-0.1-0.6,0.6C191.1,106,191.3,106.2,191.3,106.2z"/>
			</g>
			<path id="XMLID_481_" class="st7" d="M183,258c0,0-3.9,11.4-1.3,24.3c1.9,9.4,1.2,14.2-5.9,20.8c-4.6,4.5-14.8,3.3-20.7,11
				c-5.9,7.7-7.2,20.1-14.5,24c-7.2,3.9-7.1,11-2.6,8.7c4.5-2.3,3.5,11.4,0.6,16.8s-4.9,38-7.4,47.7c-1.2,4.8-5.6,19.2-5.5,23.9
				l5.1-0.4c0,0,4.2-34.7,7.7-47.2c3.5-12.3,7.1-37.3,8.2-47.7c0,0,0.6-2.9,10.7-11.4c10.1-8.5,28.3-23,35.9-32.4
				c9.5-11.9,12.9-27.6,16.2-38.2C198.8,260.4,183,258,183,258z"/>
			<path id="XMLID_480_" class="st7" d="M115.5,332c0,0,1.3,6.8,3.2,9.8s1.6,6.8-3.5,4.5L115.5,332z"/>
			<g id="XMLID_567_">
				
					<linearGradient id="XMLID_65_" gradientUnits="userSpaceOnUse" x1="113.9636" y1="314.556" x2="152.1415" y2="314.556" gradientTransform="matrix(1 0 0 -1 0 800.4405)">
					<stop  offset="0" style="stop-color:#FF2A3C"/>
					<stop  offset="1" style="stop-color:#FF7F94"/>
				</linearGradient>
				<path id="XMLID_479_" class="st51" d="M94.9,493.1c0,0-1.2,2.9,0,5.2c1.2,2.3,4.8,3.6,7.5,3.3c2.7-0.3,8.1-3.5,12.3-7.1
					c4.2-3.6,13.6-14,15.3-15.3c1.7-1.3,4.8-5.8,0.1-9.1C127.6,468.4,94.9,493.1,94.9,493.1z"/>
				<g id="XMLID_569_">
					<path id="XMLID_478_" class="st4" d="M127.8,459.9c0,0,0.3,3.2,1,5.2c0.7,1.9,2.5,7.8,1,11.3c-0.7,1.7-15.9,17.1-23.1,21.1
						c-10.6,6.1-13.3-2.5-11.1-5.8c2.2-3.3,4.2-7.2,8.5-14c6.9-10.6,7.2-19.5,7.2-19.5l0.6-24.9c3.5,1.3,10.8,2.9,18.8,1.6
						C130.8,434.7,127.8,455,127.8,459.9z"/>
					<g id="XMLID_572_" class="st52">
						<path id="XMLID_477_" class="st50" d="M118.6,488.2C118.5,488.2,118.5,488.2,118.6,488.2c-0.1,0-0.3-0.1-0.3-0.3l1-10.6
							c0.1-1,0.6-1.9,1.3-2.6l8.7-8c0.1-0.1,0.3-0.1,0.4,0c0.1,0.1,0.1,0.3,0,0.4l-8.7,8c-0.6,0.6-1,1.3-1.2,2.2l-1,10.6
							C118.9,488.1,118.8,488.2,118.6,488.2z"/>
					</g>
					
						<linearGradient id="XMLID_66_" gradientUnits="userSpaceOnUse" x1="1030.7495" y1="273.324" x2="1057.3457" y2="248.2563" gradientTransform="matrix(-0.9872 -0.1593 0.1593 -0.9872 1138.8313 845.7924)">
						<stop  offset="0" style="stop-color:#D31027"/>
						<stop  offset="1" style="stop-color:#FFE9EB"/>
					</linearGradient>
					<path id="XMLID_476_" class="st53" d="M129.9,441.4c0,0-7.8,3.6-18.1-1.2v1.7c0,0,10.1,5.2,17.8,1.2L129.9,441.4z"/>
					
						<linearGradient id="XMLID_67_" gradientUnits="userSpaceOnUse" x1="1026.9224" y1="273.1798" x2="1054.6619" y2="247.0343" gradientTransform="matrix(-0.9872 -0.1593 0.1593 -0.9872 1138.8313 845.7924)">
						<stop  offset="0" style="stop-color:#D31027"/>
						<stop  offset="1" style="stop-color:#FFE9EB"/>
					</linearGradient>
					<path id="XMLID_475_" class="st54" d="M129.4,445.1c0,0-8.2,3.8-17.6-1.2v1.2c0,0,7.4,5.4,17.4,1.3L129.4,445.1z"/>
				</g>
				<path id="XMLID_474_" class="st7" d="M125.7,435.1c0,0-5.1,13.7-3.3,21.7c1.9,8,6.5,13.3,2.3,25c0,0,4.2-4,5.1-5.6
					c0.9-1.6,0.7-6.5-1-11.3c-1.7-4.8-0.7-9.1-0.7-9.1l2.7-21.1L125.7,435.1z"/>
			</g>
		</g>
		
			<linearGradient id="XMLID_68_" gradientUnits="userSpaceOnUse" x1="212.0405" y1="650.4387" x2="204.8413" y2="696.0696" gradientTransform="matrix(1 0 0 -1 0 800.4405)">
			<stop  offset="0" style="stop-color:#FF2A3C"/>
			<stop  offset="1" style="stop-color:#FF7F94"/>
		</linearGradient>
		<path id="XMLID_473_" class="st55" d="M194.3,122.7c0,0,11.4,5.9,26.3,0.9l7.8,9.4c0,0-21.4,10-36-0.9c-3.2-2.3-3.3-7.1-3.3-7.1
			L194.3,122.7z"/>
		<path id="XMLID_472_" class="st7" d="M213.4,125.3v11.9c0,0,9.3-1.2,15.2-4.2l-7.8-9.4L213.4,125.3z"/>
		<g id="XMLID_558_">
			<g id="XMLID_560_" class="st56">
				<path id="XMLID_561_" class="st50" d="M207.6,126.2c-24.9,0-45.1-20.2-45.1-45.1s20.2-45.1,45.1-45.1s45.1,20.2,45.1,45.1
					S232.5,126.2,207.6,126.2z M207.6,37.4c-24,0-43.7,19.5-43.7,43.7c0,24,19.5,43.7,43.7,43.7s43.7-19.5,43.7-43.7
					S231.6,37.4,207.6,37.4z"/>
			</g>
			<path id="XMLID_469_" class="st57" d="M193.6,43.5c-6.5,1.9-23.4,11.3-18.4,22.6c3.9,8.7,7.7-7.7,12.4-11
				c9-6.4,18.8,1.3,19.1-6.8C206.9,42.3,196.9,42.5,193.6,43.5z"/>
		</g>
	</g>
</g>
</svg>
