<?xml version="1.0" encoding="utf-8"?>
<!-- Generator: Adobe Illustrator 19.0.0, SVG Export Plug-In . SVG Version: 6.00 Build 0)  -->
<svg version="1.1" id="Layer_1" xmlns="http://www.w3.org/2000/svg" xmlns:xlink="http://www.w3.org/1999/xlink" x="0px" y="0px"
	 viewBox="0 0 175.5 146.9" style="enable-background:new 0 0 175.5 146.9;" xml:space="preserve">
<style type="text/css">
	.st0{opacity:0.7;}
	.st1{opacity:0.6;}
	.st2{fill:url(#XMLID_28_);}
	.st3{fill:url(#XMLID_29_);}
	.st4{fill:url(#XMLID_30_);}
	.st5{fill:url(#XMLID_31_);}
	.st6{fill:url(#XMLID_32_);}
	.st7{fill:url(#XMLID_33_);}
	.st8{fill:url(#XMLID_34_);}
	.st9{fill:url(#XMLID_35_);}
	.st10{fill:url(#XMLID_36_);}
</style>
<g id="XMLID_556_">
	<g id="XMLID_574_" class="st0">
		<g id="XMLID_580_" class="st1">
			
				<linearGradient id="XMLID_28_" gradientUnits="userSpaceOnUse" x1="16.3622" y1="202.3749" x2="76.4275" y2="80.7945" gradientTransform="matrix(1 0 0 -1 0 163.7959)">
				<stop  offset="0" style="stop-color:#00F2FE"/>
				<stop  offset="1" style="stop-color:#352FB6;stop-opacity:0"/>
			</linearGradient>
			<path id="XMLID_581_" class="st2" d="M98.2,43.5c-2.9-7.7-8.3-14.5-16-19C64.5,14.1,41.7,20,31.3,37.6c-5.7,9.7-6.5,21-3.1,30.9
				c2.8,8.1,8.3,15.2,16.2,19.9C62,98.8,84.8,92.9,95.3,75.3C101.2,65.3,102,53.7,98.2,43.5z"/>
		</g>
		<g id="XMLID_577_">
			
				<linearGradient id="XMLID_29_" gradientUnits="userSpaceOnUse" x1="40.071" y1="123.4997" x2="81.2805" y2="94.7184" gradientTransform="matrix(1 0 0 -1 0 163.7959)">
				<stop  offset="0" style="stop-color:#BFECFF"/>
				<stop  offset="0.9995" style="stop-color:#12AEE7;stop-opacity:0"/>
			</linearGradient>
			<path id="XMLID_579_" class="st3" d="M90.7,46.3c-2.3-6-6.5-11.5-12.6-15c-14-8.2-31.9-3.5-40.1,10.3c-4.5,7.7-5.2,16.5-2.5,24.3
				c2.1,6.4,6.5,12.1,12.8,15.7c14,8.2,31.9,3.5,40.1-10.3C93.3,63.6,93.8,54.2,90.7,46.3z"/>
		</g>
		
			<linearGradient id="XMLID_30_" gradientUnits="userSpaceOnUse" x1="1234.0642" y1="3545.7378" x2="1224.2524" y2="3553.1511" gradientTransform="matrix(0.8024 -0.5968 -0.5968 -0.8024 1178.973 3642.3103)">
			<stop  offset="0" style="stop-color:#001E6A"/>
			<stop  offset="0.9995" style="stop-color:#5B769F;stop-opacity:0"/>
		</linearGradient>
		<path id="XMLID_576_" class="st4" d="M46.4,53.1c2.4,0.5,3.8,4.3,2.9,8.4c-0.9,4.2-3.4,7.2-5.9,6.7c-2.4-0.5-3.8-4.3-2.9-8.4
			C41.4,55.6,44,52.6,46.4,53.1z"/>
		
			<linearGradient id="XMLID_31_" gradientUnits="userSpaceOnUse" x1="1379.7316" y1="-3617.051" x2="1373.1837" y2="-3612.1038" gradientTransform="matrix(0.7655 0.6434 0.6434 -0.7655 1334.6323 -3618.3804)">
			<stop  offset="0" style="stop-color:#001E6A"/>
			<stop  offset="0.9995" style="stop-color:#5B769F;stop-opacity:0"/>
		</linearGradient>
		<path id="XMLID_575_" class="st5" d="M67.7,33.3c0.1,1.6-2.1,3-5,3.1s-5.2-1.1-5.3-2.8c-0.1-1.6,2.1-3,5-3.1
			C65.3,30.4,67.7,31.7,67.7,33.3z"/>
	</g>
	<g id="XMLID_559_">
		<g id="XMLID_563_" class="st0">
			<g id="XMLID_571_" class="st1">
				
					<linearGradient id="XMLID_32_" gradientUnits="userSpaceOnUse" x1="55.419" y1="183.9895" x2="122.5448" y2="48.1178" gradientTransform="matrix(1 0 0 -1 0 163.7959)">
					<stop  offset="0" style="stop-color:#00F2FE"/>
					<stop  offset="1" style="stop-color:#352FB6;stop-opacity:0"/>
				</linearGradient>
				<path id="XMLID_573_" class="st6" d="M146.8,71.6c-3.1-8.6-9.3-16.2-17.8-21.3c-19.8-11.6-45.2-5-56.8,14.7
					c-6.4,10.8-7.3,23.4-3.5,34.5c3.1,9.1,9.3,17.1,18.1,22.3c19.8,11.6,45.2,5,56.8-14.7C150.2,96.1,150.9,83,146.8,71.6z"/>
			</g>
			<g id="XMLID_568_">
				
					<linearGradient id="XMLID_33_" gradientUnits="userSpaceOnUse" x1="79.1935" y1="97.7067" x2="129.985" y2="62.2333" gradientTransform="matrix(1 0 0 -1 0 163.7959)">
					<stop  offset="0" style="stop-color:#20F6CF"/>
					<stop  offset="0.9995" style="stop-color:#12AEE7;stop-opacity:0"/>
				</linearGradient>
				<path id="XMLID_570_" class="st7" d="M141.6,73.5c-2.8-7.4-8.1-14.1-15.5-18.5C109,44.9,86.8,50.6,76.8,67.8
					c-5.5,9.4-6.3,20.4-3,30c2.6,7.8,8.1,14.9,15.9,19.4c17.1,10.1,39.3,4.4,49.4-12.8C144.6,94.7,145.4,83.3,141.6,73.5z"/>
			</g>
			
				<linearGradient id="XMLID_34_" gradientUnits="userSpaceOnUse" x1="208.0969" y1="-1164.8875" x2="197.2729" y2="-1154.8556" gradientTransform="matrix(0.977 0.213 0.213 -0.977 144.5906 -1109.1029)">
				<stop  offset="0" style="stop-color:#001E6A"/>
				<stop  offset="0.9995" style="stop-color:#63C3C3;stop-opacity:0"/>
			</linearGradient>
			<path id="XMLID_565_" class="st8" d="M103.1,59.9c1.6,2.9-1,7.6-6,10.5c-4.9,2.9-10.3,2.9-12,0c-1.6-2.9,1-7.6,6-10.5
				C96.2,57,101.4,57.1,103.1,59.9z"/>
			
				<linearGradient id="XMLID_35_" gradientUnits="userSpaceOnUse" x1="101.0887" y1="55.7665" x2="95.6377" y2="49.6614" gradientTransform="matrix(1 0 0 -1 0 163.7959)">
				<stop  offset="0" style="stop-color:#001E6A"/>
				<stop  offset="0.9995" style="stop-color:#253E70;stop-opacity:0"/>
			</linearGradient>
			<path id="XMLID_564_" class="st9" d="M91.4,107.8c1-1.6,4.7-1.1,8.2,1.1c3.4,2.3,5.4,5.4,4.4,7.1c-1,1.6-4.7,1.1-8.2-1.1
				C92.3,112.4,90.2,109.3,91.4,107.8z"/>
		</g>
		
			<linearGradient id="XMLID_36_" gradientUnits="userSpaceOnUse" x1="74.0109" y1="91.832" x2="91.3357" y2="84.8775" gradientTransform="matrix(1 0 0 -1 0 163.7959)">
			<stop  offset="9.415064e-04" style="stop-color:#D4FFF9"/>
			<stop  offset="1" style="stop-color:#206585;stop-opacity:0"/>
		</linearGradient>
		<path id="XMLID_562_" class="st10" d="M107,50.1c0,0-20.5-0.9-31.5,20c-10.8,20.8,4.9,39.6,4.9,39.6S101.7,64.3,107,50.1z"/>
	</g>
</g>
</svg>
