<?xml version="1.0" encoding="UTF-8"?>
<svg width="200px" height="52px" viewBox="0 0 200 52" version="1.1" xmlns="http://www.w3.org/2000/svg" xmlns:xlink="http://www.w3.org/1999/xlink">
    <!-- Generator: Sketch 63.1 (92452) - https://sketch.com -->
    <title>grow social</title>
    <desc>Created with Sketch.</desc>
    <defs>
        <polygon id="path-1" points="0.000139999998 0.250599996 62.3001389 0.250599996 62.3001389 51.0999094 0.000139999998 51.0999094"></polygon>
        <polygon id="path-3" points="0.0352099994 0.234297278 21.1448996 0.234297278 21.1448996 19.8342969 0.0352099994 19.8342969"></polygon>
    </defs>
    <g id="Page-1" stroke="none" stroke-width="1" fill="none" fill-rule="evenodd">
        <g id="Plainthing-Website" transform="translate(-1039.000000, -7220.000000)">
            <g id="trusted" transform="translate(135.000000, 6717.000000)">
                <g id="grow-social" transform="translate(904.000000, 503.000000)">
                    <g id="Group-11">
                        <g id="Group-8" transform="translate(0.000000, 0.449680)">
                            <g id="Group-3">
                                <mask id="mask-2" fill="white">
                                    <use xlink:href="#path-1"></use>
                                </mask>
                                <g id="Clip-2"></g>
                                <path d="M52.8592391,40.8503193 L42.9332393,40.8503193 C42.0519393,40.8503193 41.2203393,41.2626193 40.6862393,41.9647193 L34.5899394,49.9853191 C33.4251394,51.5183191 31.1011395,51.4602191 30.0133395,49.8712192 L24.6835396,42.0795193 C24.1571396,41.3102193 23.2849396,40.8503193 22.3532396,40.8503193 L9.44103984,40.8503193 C4.22673993,40.8503193 0.000139999998,36.6237194 0.000139999998,31.4101195 L0.000139999998,9.69121983 C0.000139999998,4.47691992 4.22673993,0.250319996 9.44103984,0.250319996 L52.8592391,0.250319996 C58.073539,0.250319996 62.3001389,4.47691992 62.3001389,9.69121983 L62.3001389,31.4101195 C62.3001389,36.6237194 58.073539,40.8503193 52.8592391,40.8503193" id="Fill-1" fill="#B3B3B3" mask="url(#mask-2)"></path>
                            </g>
                            <path d="M30.0692695,37.8951294 C30.0692695,37.8951294 29.0500695,21.6005299 38.8500693,10.4005298 C38.8500693,10.4005298 34.6500694,14.6005299 33.2500694,17.4005297 C33.2500694,17.4005297 29.7500695,6.90052988 46.5500692,4.10052993 C46.5500692,4.10052993 47.2500692,18.1005299 34.6500694,19.5005297 C34.6500694,19.5005297 31.6988695,22.5896296 32.2805695,30.4457295 C32.8629694,38.3018293 32.7236694,38.8527293 31.5826695,38.9423293 C30.3408695,39.0396293 30.0390524,38.8646293 30.0692695,37.8951294" id="Fill-4" fill="#FFFFFF"></path>
                            <path d="M31.1499995,17.0612397 C31.1499995,17.0612397 26.4032996,6.70263989 16.9756997,5.07303991 C16.9756997,5.07303991 17.1478997,19.8542397 30.0390995,20.5528396 C30.0390995,20.5528396 27.1011995,14.3844398 25.1229996,12.8129398 L31.1499995,17.0612397 Z" id="Fill-6" fill="#FFFFFF"></path>
                        </g>
                        <text id="GrowSoci" font-family="GothamPro-Bold, Gotham Pro" font-size="21.9657896" font-weight="bold" letter-spacing="-0.0175" fill="#B3B3B3">
                            <tspan x="72.1444488" y="24.3839771">G</tspan>
                            <tspan x="89.3481278" y="24.3839771" letter-spacing="-0.330401039">r</tspan>
                            <tspan x="97.86994" y="24.3839771" letter-spacing="-0.53900173">o</tspan>
                            <tspan x="111.367078" y="24.3839771">wSoci</tspan>
                        </text>
                        <g id="Group-10" transform="translate(178.499997, 8.149680)">
                            <mask id="mask-4" fill="white">
                                <use xlink:href="#path-3"></use>
                            </mask>
                            <g id="Clip-9"></g>
                            <text id=".al" mask="url(#mask-4)" font-family="GothamPro, Gotham Pro" font-size="21.9657896" font-weight="normal" letter-spacing="-0.0175" fill="#B3B3B3">
                                <tspan x="0.0352099994" y="16.2342973">.al</tspan>
                            </text>
                        </g>
                    </g>
                </g>
            </g>
        </g>
    </g>
</svg>