<?xml version="1.0" encoding="UTF-8"?>
<svg width="33px" height="34px" viewBox="0 0 33 34" version="1.1" xmlns="http://www.w3.org/2000/svg" xmlns:xlink="http://www.w3.org/1999/xlink">
    <!-- Generator: Sketch 63.1 (92452) - https://sketch.com -->
    <title>instagram</title>
    <desc>Created with Sketch.</desc>
    <g id="Page-1" stroke="none" stroke-width="1" fill="none" fill-rule="evenodd">
        <g id="Plainthing-Website" transform="translate(-418.000000, -8361.000000)" fill="#FFFFFF">
            <g id="Group-17" transform="translate(235.000000, 8361.000000)">
                <g id="instagram" transform="translate(183.275300, 0.914150)">
                    <path d="M29.0205,24.3485 C29.0205,26.924 26.9255,29.0205 24.35,29.0205 L8.2145,29.0205 C5.64,29.0205 3.544,26.924 3.544,24.3485 L3.544,8.2145 C3.544,5.639 5.64,3.544 8.2145,3.544 L24.35,3.544 C26.9255,3.544 29.0205,5.639 29.0205,8.2145 L29.0205,24.3485 Z M24.35,-7.60280727e-13 L8.2145,-7.60280727e-13 C3.685,-7.60280727e-13 1.0658141e-12,3.6845 1.0658141e-12,8.2145 L1.0658141e-12,24.3485 C1.0658141e-12,28.8795 3.685,32.564 8.2145,32.564 L24.35,32.564 C28.8795,32.564 32.564,28.8795 32.564,24.3485 L32.564,8.2145 C32.564,3.6845 28.8795,-7.60280727e-13 24.35,-7.60280727e-13 L24.35,-7.60280727e-13 Z" id="Fill-6"></path>
                    <path d="M26.92295,7.64455 C26.92295,8.73905 26.03245,9.62955 24.93895,9.62955 C23.84445,9.62955 22.95395,8.73905 22.95395,7.64455 C22.95395,6.55005 23.84445,5.66055 24.93895,5.66055 C26.03245,5.66055 26.92295,6.55105 26.92295,7.64455" id="Fill-8"></path>
                    <path d="M16.28155,21.1253 C13.61305,21.1253 11.43905,18.9513 11.43905,16.2813 C11.43905,13.6113 13.61305,11.4388 16.28155,11.4388 C18.95305,11.4388 21.12405,13.6113 21.12405,16.2813 C21.12405,18.9513 18.95305,21.1253 16.28155,21.1253 M16.28155,7.8953 C11.65755,7.8953 7.89555,11.6573 7.89555,16.2813 C7.89555,20.9058 11.65755,24.6688 16.28155,24.6688 C20.90705,24.6688 24.66905,20.9058 24.66905,16.2813 C24.66905,11.6573 20.90705,7.8953 16.28155,7.8953" id="Fill-10"></path>
                </g>
            </g>
        </g>
    </g>
</svg>