<?xml version="1.0" encoding="UTF-8"?>
<svg width="225px" height="50px" viewBox="0 0 225 50" version="1.1" xmlns="http://www.w3.org/2000/svg" xmlns:xlink="http://www.w3.org/1999/xlink">
    <!-- Generator: Sketch 63.1 (92452) - https://sketch.com -->
    <title>lion-parcel</title>
    <desc>Created with Sketch.</desc>
    <g id="Page-1" stroke="none" stroke-width="1" fill="none" fill-rule="evenodd">
        <g id="Plainthing-Website" transform="translate(-608.000000, -7058.000000)" fill="#BBBBBB" fill-rule="nonzero">
            <g id="trusted" transform="translate(135.000000, 6717.000000)">
                <g id="lion-parcel" transform="translate(473.000000, 341.000000)">
                    <path d="M107.306294,13.155759 C107.306294,13.155759 105.887568,10.656641 109.098368,11.3382186 C109.098368,11.3382186 108.389005,9.97506335 106.708936,10.5430447 C106.708936,10.5430447 105.626224,11.0731607 106.298252,12.3605851 C106.298252,12.3605851 106.596931,12.7771047 107.306294,13.155759 Z M114.026573,35.7614172 C115.07195,27.9990053 108.090326,25.5377527 108.090326,25.5377527 C102.564763,23.4172889 98.5699301,27.5446202 98.5699301,27.5446202 C93.1937063,23.1143655 92.633683,14.3295871 92.633683,14.3295871 L94.0150738,13.7237403 C92.2603341,12.5499122 93.0070319,10.126525 93.0070319,10.126525 C93.9030692,10.8838335 97.1512044,9.52067826 97.1512044,9.52067826 C96.7031857,7.66527248 97.7485625,7.32448366 97.7485625,7.32448366 C98.6819347,7.17302196 103.311461,7.32448366 103.311461,7.32448366 C103.311461,5.39334703 104.692852,5.5069433 104.692852,5.5069433 C105.14087,6.03705924 106.858275,6.30211721 106.858275,6.30211721 C109.658392,7.51381078 109.434382,7.7031379 109.434382,7.7031379 C109.583722,8.04392672 109.845066,7.89246502 109.845066,7.89246502 C109.807731,6.18852094 111.637141,6.90796399 111.637141,6.90796399 C111.823815,8.72550435 116.789355,11.1110261 116.789355,11.1110261 C117.536053,11.6032766 116.789355,12.5120468 116.789355,12.5120468 L117.573388,13.1178936 L118.35742,13.1178936 L118.768104,13.3072207 L120.746853,13.4965478 C121.530886,13.6858749 121.344211,14.8975685 121.344211,14.8975685 L121.157537,14.8975685 L121.157537,15.2762227 L121.344211,15.4655499 C121.493551,17.4724173 119.552137,18.6841109 119.552137,18.6841109 C119.514802,17.4345519 118.58143,17.2830902 118.58143,17.2830902 C116.266667,16.6772434 115.594639,19.4792848 115.594639,19.4792848 C115.333294,21.8269411 116.97603,21.8648065 116.97603,21.8648065 C117.909402,22.1298645 118.768104,21.0696326 118.768104,21.0696326 L118.768104,21.4861523 L118.58143,23.3036927 C118.096076,24.8940405 116.005322,24.2881937 116.005322,24.2881937 C115.07195,23.9095394 114.99728,24.4775208 114.99728,24.4775208 C115.109285,27.2795622 116.378671,28.2640632 116.378671,28.2640632 C117.872067,29.0213717 117.760062,29.2485643 117.760062,29.2485643 C118.096076,29.8922765 117.349378,30.2330653 117.349378,30.2330653 C116.67735,30.5738541 116.565346,31.0282392 116.565346,31.0282392 C116.304002,31.634086 117.349378,32.8079141 117.349378,32.8079141 C117.760062,32.8457796 117.946737,33.603088 117.946737,33.603088 C117.834732,34.5875891 116.97603,34.5875891 116.97603,34.5875891 C116.714685,34.7769162 116.191997,36.4051294 116.191997,36.4051294 C114.138578,43.1073095 107.194289,44.0539451 105.775563,44.2054068 C105.924903,45.83362 105.924903,47.9162184 105.103535,48.6356614 C105.103535,48.6356614 104.244833,49.7337587 102.116744,49.0143157 C102.116744,49.0143157 104.282168,47.1967753 103.908819,42.1985393 C103.908819,42.1985393 103.274126,42.0849431 102.938112,42.0092122 C102.938112,42.0092122 102.452758,49.8094896 98.3832556,49.9988167 C98.3832556,49.9988167 96.5538462,50.0745476 95.9938228,49.0143157 C95.9938228,49.0143157 100.39934,47.5754296 101.743395,41.5926925 L100.959363,41.1761729 C100.959363,41.1761729 98.0845765,48.862854 93.2310412,48.9764503 C93.2310412,48.9764503 91.4016317,49.2415082 90.2442502,46.9695828 C90.2442502,46.9695828 95.956488,46.5530631 99.9513209,40.380999 L99.1672883,39.7751522 C99.1672883,39.7751522 93.2683761,46.6666594 88.2655012,45.5685621 C88.2655012,45.5685621 84.7933566,44.8112536 84.9053613,41.7820197 C84.9053613,41.7820197 91.7003108,44.0539451 98.3832556,38.5634586 L97.7858974,37.5789576 C97.7858974,37.5789576 90.5802642,41.3276346 85.0920357,40.380999 C85.0920357,40.380999 77.9237374,38.9799783 80.1264957,33.7924152 C80.1264957,33.7924152 87.4814685,38.7149203 96.9645299,36.1779369 L96.9645299,34.9662433 C96.9645299,34.9662433 80.7611888,36.367264 78.4090909,28.1883324 L78.4090909,25.1590984 C78.5957653,24.4775208 78.9691142,23.7959432 79.5291375,23.7580778 C79.5291375,23.7580778 84.345338,31.2554317 96.9645299,33.5652226 L96.9645299,32.5807216 C96.9645299,32.5807216 79.2304584,26.4086574 79.1557887,15.389819 C79.1557887,15.389819 79.3051282,10.8081027 82.9266123,11.376084 C82.9266123,11.376084 83.2626263,21.9784028 97.3752137,31.1797009 L97.7858974,30.384527 C97.7858974,30.384527 84.4946775,21.902672 84.7186869,5.96132839 C84.7186869,5.96132839 85.5027195,-2.14187238 91.4389666,0.546572733 C91.4389666,0.546572733 87.5188034,17.4345519 98.7566045,28.7563137 C98.7566045,28.7563137 100.39934,25.651349 105.103535,25.7649452 C105.103535,25.7649452 112.383838,25.4620218 113.242541,33.5652226 C113.242541,33.5652226 113.877234,41.4033654 105.514219,42.1606739 C105.514219,42.1606739 105.588889,42.5393281 105.663559,43.1451749 C112.794522,42.8422515 114.026573,35.7614172 114.026573,35.7614172 Z M115.594639,14.7461068 L116.378671,13.155759 L116.005322,13.3450861 L114.623932,13.3450861 L114.623932,13.7616058 L115.594639,14.7461068 Z" id="Shape"></path>
                    <path d="M78.3068182,25.3424658 L78.3068182,28.7671233 C78.0340909,28.2106164 77.8977273,27.5684932 77.8295455,26.9263699 C77.8295455,26.8835616 77.8977273,26.1130137 78.3068182,25.3424658 Z" id="Path"></path>
                    <path d="M217.958271,17.8082192 C220.305514,17.8082192 222.652757,17.8082192 225,17.8082192 C223.025335,25.0272855 220.976155,32.1691425 218.628912,39.0021624 C216.281669,38.8477439 213.338301,39.3109995 211.363636,38.7705346 C213.561848,31.8217008 215.163934,24.2165882 217.958271,17.8082192 Z" id="Path"></path>
                    <path d="M191.605201,33.3496953 C190.971519,23.6653086 211.622112,17.6882261 211.361184,31.0420875 C207.111784,32.1013173 202.862384,33.1983767 198.650259,34.2576065 C201.073163,37.5109552 206.217173,34.7872214 209.571963,34.2576065 C208.04367,40.0077111 192.127057,41.5587262 191.605201,33.3496953 Z M204.539779,30.0963466 C203.458791,26.9186572 198.240229,29.0371168 198.165679,31.7230209 C200.514031,31.4203838 202.377803,30.5881319 204.539779,30.0963466 Z" id="Shape"></path>
                    <path d="M193.636364,23.6560736 C193.028307,25.8834229 191.356152,27.0537251 190.406063,28.9413092 C184.477512,25.8456712 181.171204,36.0386256 188.999932,33.3205044 C189.379968,34.8683235 189.912017,36.2651357 189.912017,38.1527199 C183.983466,40.4933242 174.634597,38.2659749 176.952812,30.7911417 C178.510957,25.6191611 186.643713,22.1082546 193.636364,23.6560736 Z" id="Path"></path>
                    <path d="M178.636364,24.7554904 C178.522727,26.3422357 176.325758,27.7778624 175.416667,29.3646077 C170.189394,28.2312182 171.477273,35.5604703 169.431818,38.3561644 C167.045455,38.3561644 164.659091,38.3561644 162.272727,38.3561644 C163.560606,33.2559116 165.378788,28.7223537 166.666667,23.6221009 C171.022727,24.4532532 176.174242,21.7331184 178.636364,24.7554904 Z" id="Path"></path>
                    <path d="M154.134529,23.3086777 C157.250423,23.0801457 160.062327,24.794136 164.318182,24.67987 C163.596206,29.1362447 161.43028,34.1639495 160.138324,38.8488562 C157.820403,38.8488562 155.502482,38.8488562 153.184562,38.8488562 C153.868538,35.1161663 155.540481,32.3737819 155.958467,28.4125599 C152.310591,25.3273774 148.472722,31.6120084 149.916673,35.154255 C150.790643,35.497053 152.500585,35.497053 153.374555,35.154255 C152.918571,39.229743 145.090838,40.8294672 143.874879,36.3350038 C143.608888,29.1743334 148.092735,23.8038305 154.134529,23.3086777 Z" id="Path"></path>
                    <path d="M142.466348,26.6217283 C145.927408,34.1620821 136.102463,41.7405185 128.622107,38.2369198 C127.654499,40.0268017 127.245126,42.4260052 126.575244,44.5205479 C124.156223,44.5205479 121.737202,44.5205479 119.318182,44.5205479 C121.513908,37.5514331 123.449125,30.31574 125.905361,23.6132033 C132.194814,24.0321118 140.047327,21.3282476 142.466348,26.6217283 Z M129.775794,34.2763299 C134.390541,37.1706071 139.340229,30.125327 136.139679,27.307215 C132.604187,24.2225248 129.81301,31.3439701 129.775794,34.2763299 Z" id="Shape"></path>
                    <path d="M70.6962848,25.4814777 C73.3070674,29.2288649 69.4281904,34.0151317 68.868737,38.3561644 C66.4444389,38.3561644 64.0201408,38.3561644 61.5958427,38.3561644 C62.0061085,35.1653198 63.4606874,32.9762521 63.8709532,29.7483047 C63.6098749,28.6352194 61.1482799,29.0433506 60.2158576,29.3030705 C58.6120912,31.7889611 58.2391222,35.4621426 57.0456216,38.3561644 C54.6213235,38.3561644 52.1970254,38.3561644 49.7727273,38.3561644 C51.2273061,33.4956919 52.7564788,28.6723222 54.3229483,23.8860554 C60.1039669,25.407272 67.3768612,20.7323137 70.6962848,25.4814777 Z" id="Path"></path>
                    <path d="M49.7035523,28.163366 C50.8208682,36.1362127 38.1207113,42.0686152 32.012718,37.3831508 C29.1821845,35.2293486 29.4801354,30.3171682 32.012718,27.483218 C33.9493988,25.2916298 37.0406393,23.6290457 41.3236834,23.3267576 C45.3460205,23.0622556 49.1076505,24.0824777 49.7035523,28.163366 Z M36.5192252,31.8663943 C36.9661516,35.2671346 44.2287046,33.5289785 43.1113888,29.7881642 C42.7017063,28.427868 41.2491957,28.352296 39.7221974,28.6545841 C37.5248095,29.0324441 36.2957621,29.9770942 36.5192252,31.8663943 Z" id="Shape"></path>
                    <path d="M23.8141669,23.2876712 C26.3306567,23.2876712 28.8471465,23.2876712 31.3636364,23.2876712 C30.0086034,28.4650509 28.1889877,33.1401475 26.8726699,38.3561644 C24.2787496,38.3561644 21.6848294,38.3561644 19.0909091,38.3561644 C20.6782334,33.3333333 22.1881273,28.233228 23.8141669,23.2876712 Z" id="Path"></path>
                    <path d="M27.2002456,17.3666174 C34.656713,15.7184386 32.7082893,22.9978949 26.7506094,22.5858502 C22.4041259,22.3111538 23.3033983,18.2250439 27.2002456,17.3666174 Z" id="Path"></path>
                    <path d="M18.4090909,32.1527603 C17.8435815,34.7293349 17.2403714,37.1905404 15.8831487,38.9595319 C9.28553832,38.3442305 0.38818951,41.1515431 0.0111832044,34.4985969 C-0.252721209,29.4608168 4.23365383,23.1924339 5.0630677,18.5392172 C5.0630677,18.1546538 5.25157085,17.9239158 5.51547526,17.8470031 C7.96601625,18.0008284 11.0197673,17.5393524 13.093302,18.0777411 C12.0376843,22.6540452 9.5117421,26.9226986 9.17243643,31.4220899 C11.3213724,32.6526927 15.8831487,31.3451773 18.4090909,32.1527603 Z" id="Path"></path>
                </g>
            </g>
        </g>
    </g>
</svg>