<svg width="630" height="158" viewBox="0 0 630 158" fill="none" xmlns="http://www.w3.org/2000/svg">
<path fill-rule="evenodd" clip-rule="evenodd" d="M25.6567 0.780945H97.9286C121.061 0.780945 139.814 19.5337 139.814 42.6663V81.833C139.814 104.966 121.061 123.718 97.9286 123.718H58.8161L37.1577 150.131C24.7088 165.313 0.0908203 156.51 0.0908203 136.877V26.3468C0.0908203 12.2272 11.537 0.780945 25.6567 0.780945ZM25.6567 14.69C19.2188 14.69 13.9999 19.909 13.9999 26.3468V136.877C13.9999 143.446 22.2369 146.391 26.4023 141.312L48.7364 114.075C50.9505 111.375 54.2584 109.809 57.7502 109.809H97.9286C113.379 109.809 125.905 97.2838 125.905 81.833V42.6663C125.905 27.2154 113.38 14.69 97.9286 14.69H25.6567Z" fill="url(#paint0_linear)"/>
<path fill-rule="evenodd" clip-rule="evenodd" d="M70.3609 82.5306C64.3673 82.5872 58.3121 81.3954 52.8383 78.9134C47.382 76.4394 42.3694 72.6098 38.845 67.4147C36.6764 64.2181 37.5098 59.8688 40.7064 57.7003C43.9029 55.5318 48.2522 56.3651 50.4207 59.5617C52.275 62.295 55.1127 64.5858 58.6147 66.1737C62.1151 67.7609 66.1382 68.5817 70.2287 68.5431C74.3193 68.5044 78.3135 67.6078 81.7594 65.955C85.207 64.3014 87.9669 61.9577 89.7287 59.1903C91.8031 55.9319 96.1262 54.972 99.3847 57.0465C102.643 59.1209 103.603 63.444 101.528 66.7024C98.1446 72.0177 93.2146 75.9746 87.8087 78.5675C82.3867 81.168 76.3536 82.4739 70.3609 82.5306Z" fill="url(#paint1_linear)"/>
<path d="M219.339 64.5718C219.339 67.7886 218.58 70.8233 217.063 73.676C215.545 76.5286 213.117 78.8653 209.779 80.6861C206.441 82.4463 202.162 83.3263 196.942 83.3263H185.471V109H175.093V45.7263H196.942C201.798 45.7263 205.895 46.576 209.233 48.2754C212.632 49.9142 215.151 52.1599 216.789 55.0125C218.489 57.8651 219.339 61.0516 219.339 64.5718ZM196.942 74.8595C200.888 74.8595 203.831 73.9794 205.773 72.2193C207.716 70.3985 208.687 67.8493 208.687 64.5718C208.687 57.6527 204.772 54.1931 196.942 54.1931H185.471V74.8595H196.942ZM239.616 41.6294V109H229.237V41.6294H239.616ZM249.783 83.6905C249.783 78.6529 250.814 74.1919 252.878 70.3074C255.002 66.423 257.855 63.4186 261.436 61.2943C265.078 59.1094 269.083 58.0169 273.453 58.0169C277.399 58.0169 280.828 58.8059 283.741 60.3839C286.715 61.9013 289.082 63.8132 290.842 66.1195V58.8362H301.312V109H290.842V101.535C289.082 103.902 286.685 105.874 283.65 107.452C280.615 109.03 277.156 109.819 273.271 109.819C268.962 109.819 265.017 108.727 261.436 106.542C257.855 104.296 255.002 101.201 252.878 97.2557C250.814 93.2499 249.783 88.7281 249.783 83.6905ZM290.842 83.8726C290.842 80.413 290.114 77.4087 288.657 74.8595C287.261 72.3103 285.41 70.3681 283.104 69.0329C280.797 67.6976 278.309 67.0299 275.638 67.0299C272.968 67.0299 270.479 67.6976 268.173 69.0329C265.867 70.3074 263.985 72.2193 262.528 74.7685C261.132 77.2569 260.434 80.2309 260.434 83.6905C260.434 87.1501 261.132 90.1848 262.528 92.7946C263.985 95.4045 265.867 97.4074 268.173 98.8034C270.54 100.139 273.029 100.806 275.638 100.806C278.309 100.806 280.797 100.139 283.104 98.8034C285.41 97.4681 287.261 95.5259 288.657 92.9767C290.114 90.3669 290.842 87.3322 290.842 83.8726ZM320.224 52.1902C318.343 52.1902 316.765 51.5529 315.49 50.2783C314.216 49.0038 313.578 47.4257 313.578 45.5442C313.578 43.6627 314.216 42.0846 315.49 40.81C316.765 39.5355 318.343 38.8982 320.224 38.8982C322.045 38.8982 323.593 39.5355 324.868 40.81C326.142 42.0846 326.779 43.6627 326.779 45.5442C326.779 47.4257 326.142 49.0038 324.868 50.2783C323.593 51.5529 322.045 52.1902 320.224 52.1902ZM325.323 58.8362V109H314.944V58.8362H325.323ZM364.259 58.0169C368.204 58.0169 371.724 58.8362 374.819 60.475C377.975 62.1137 380.434 64.5415 382.194 67.7583C383.954 70.9751 384.834 74.8595 384.834 79.4116V109H374.546V80.9593C374.546 76.4679 373.423 73.0387 371.178 70.6716C368.932 68.2438 365.867 67.0299 361.983 67.0299C358.098 67.0299 355.003 68.2438 352.696 70.6716C350.451 73.0387 349.328 76.4679 349.328 80.9593V109H338.949V58.8362H349.328V64.5718C351.027 62.5082 353.182 60.8998 355.792 59.7466C358.462 58.5935 361.285 58.0169 364.259 58.0169ZM410.181 67.3031V95.0707C410.181 96.9522 410.606 98.3178 411.456 99.1675C412.366 99.9566 413.883 100.351 416.008 100.351H422.381V109H414.187C409.513 109 405.933 107.908 403.444 105.723C400.956 103.538 399.711 99.9869 399.711 95.0707V67.3031H393.794V58.8362H399.711V46.3636H410.181V58.8362H422.381V67.3031H410.181ZM457.893 58.0169C461.717 58.0169 465.116 58.8362 468.09 60.475C471.125 62.1137 473.492 64.5415 475.191 67.7583C476.951 70.9751 477.831 74.8595 477.831 79.4116V109H467.544V80.9593C467.544 76.4679 466.421 73.0387 464.175 70.6716C461.929 68.2438 458.864 67.0299 454.98 67.0299C451.095 67.0299 448 68.2438 445.694 70.6716C443.448 73.0387 442.325 76.4679 442.325 80.9593V109H431.946V41.6294H442.325V64.6629C444.085 62.5386 446.301 60.8998 448.971 59.7466C451.702 58.5935 454.676 58.0169 457.893 58.0169ZM496.35 52.1902C494.469 52.1902 492.891 51.5529 491.616 50.2783C490.342 49.0038 489.704 47.4257 489.704 45.5442C489.704 43.6627 490.342 42.0846 491.616 40.81C492.891 39.5355 494.469 38.8982 496.35 38.8982C498.171 38.8982 499.719 39.5355 500.993 40.81C502.268 42.0846 502.905 43.6627 502.905 45.5442C502.905 47.4257 502.268 49.0038 500.993 50.2783C499.719 51.5529 498.171 52.1902 496.35 52.1902ZM501.449 58.8362V109H491.07V58.8362H501.449ZM540.384 58.0169C544.33 58.0169 547.85 58.8362 550.945 60.475C554.101 62.1137 556.559 64.5415 558.32 67.7583C560.08 70.9751 560.96 74.8595 560.96 79.4116V109H550.672V80.9593C550.672 76.4679 549.549 73.0387 547.304 70.6716C545.058 68.2438 541.993 67.0299 538.108 67.0299C534.224 67.0299 531.129 68.2438 528.822 70.6716C526.576 73.0387 525.454 76.4679 525.454 80.9593V109H515.075V58.8362H525.454V64.5718C527.153 62.5082 529.308 60.8998 531.918 59.7466C534.588 58.5935 537.41 58.0169 540.384 58.0169ZM594.41 58.0169C598.294 58.0169 601.723 58.8059 604.697 60.3839C607.732 61.9013 610.099 63.8132 611.798 66.1195V58.8362H622.268V109.819C622.268 114.432 621.297 118.529 619.355 122.11C617.413 125.752 614.59 128.604 610.888 130.668C607.246 132.731 602.876 133.763 597.778 133.763C590.98 133.763 585.336 132.155 580.844 128.938C576.353 125.782 573.804 121.473 573.197 116.01H583.485C584.274 118.62 585.943 120.714 588.492 122.292C591.102 123.931 594.197 124.75 597.778 124.75C601.966 124.75 605.335 123.476 607.884 120.926C610.494 118.377 611.798 114.675 611.798 109.819V101.444C610.038 103.811 607.641 105.814 604.606 107.452C601.632 109.03 598.233 109.819 594.41 109.819C590.04 109.819 586.034 108.727 582.392 106.542C578.811 104.296 575.959 101.201 573.834 97.2557C571.771 93.2499 570.739 88.7281 570.739 83.6905C570.739 78.6529 571.771 74.1919 573.834 70.3074C575.959 66.423 578.811 63.4186 582.392 61.2943C586.034 59.1094 590.04 58.0169 594.41 58.0169ZM611.798 83.8726C611.798 80.413 611.07 77.4087 609.614 74.8595C608.218 72.3103 606.366 70.3681 604.06 69.0329C601.754 67.6976 599.265 67.0299 596.595 67.0299C593.924 67.0299 591.436 67.6976 589.129 69.0329C586.823 70.3074 584.941 72.2193 583.485 74.7685C582.089 77.2569 581.391 80.2309 581.391 83.6905C581.391 87.1501 582.089 90.1848 583.485 92.7946C584.941 95.4045 586.823 97.4074 589.129 98.8034C591.496 100.139 593.985 100.806 596.595 100.806C599.265 100.806 601.754 100.139 604.06 98.8034C606.366 97.4681 608.218 95.5259 609.614 92.9767C611.07 90.3669 611.798 87.3322 611.798 83.8726Z" fill="white"/>
<defs>
<linearGradient id="paint0_linear" x1="112.577" y1="0.386242" x2="-14.108" y2="152.933" gradientUnits="userSpaceOnUse">
<stop offset="0.00824319" stop-color="#FB95DE"/>
<stop offset="0.2696" stop-color="#EC34D9"/>
<stop offset="0.6088" stop-color="#8214E3"/>
<stop offset="0.9847" stop-color="#681CE3"/>
</linearGradient>
<linearGradient id="paint1_linear" x1="48.0379" y1="23.8478" x2="111.636" y2="117.129" gradientUnits="userSpaceOnUse">
<stop stop-color="#24BCD7"/>
<stop offset="1" stop-color="#50E9FF"/>
</linearGradient>
</defs>
</svg>
