<?xml version="1.0" encoding="UTF-8"?>
<svg width="221px" height="52px" viewBox="0 0 221 52" version="1.1" xmlns="http://www.w3.org/2000/svg" xmlns:xlink="http://www.w3.org/1999/xlink">
    <!-- Generator: Sketch 63.1 (92452) - https://sketch.com -->
    <title>pertamina</title>
    <desc>Created with Sketch.</desc>
    <g id="Page-1" stroke="none" stroke-width="1" fill="none" fill-rule="evenodd">
        <g id="Plainthing-Website" transform="translate(-1019.000000, -7056.000000)" fill-rule="nonzero">
            <g id="trusted" transform="translate(135.000000, 6717.000000)">
                <g id="pertamina" transform="translate(884.000000, 339.000000)">
                    <path d="M58.8434959,3.31724138 C57.5857724,1.34482759 55.3398374,0.0896551724 52.8243902,0.0896551724 L36.2044715,0.0896551724 L45.3678862,14.1655172 C46.6256098,16.137931 48.8715447,17.3931034 51.3869919,17.3931034 L68.0069106,17.3931034 L58.8434959,3.31724138 Z" id="Path" fill="#D0CDCD"></path>
                    <path d="M45.3678862,25.0137931 C46.6256098,23.0413793 48.8715447,21.7862069 51.3869919,21.7862069 L68.0069106,21.7862069 L58.9333333,35.862069 C57.6756098,37.8344828 55.4296748,39.0896552 52.9142276,39.0896552 L36.2943089,39.0896552 L45.3678862,25.0137931 Z" id="Path" fill="#E1E0E0"></path>
                    <path d="M38.1808943,25.3724138 C39.0792683,24.0275862 40.2471545,22.7724138 41.5947154,21.7862069 L23.896748,21.7862069 C21.3813008,21.7862069 19.1353659,23.0413793 17.8776423,25.0137931 L0.808536585,51.2827586 L17.4284553,51.2827586 C19.9439024,51.2827586 22.1898374,50.0275862 23.447561,48.0551724 L38.1808943,25.3724138 Z" id="Path" fill="#BBBBBB"></path>
                    <path d="M84.3573171,29.5862069 C84.3573171,29.5862069 86.0642276,29.5862069 86.603252,29.5862069 C87.1422764,29.5862069 89.5678862,29.6758621 89.5678862,27.4344828 C89.5678862,25.1034483 87.5914634,25.1931034 86.0642276,25.1931034 C84.5369919,25.1931034 84.3573171,25.1931034 84.3573171,25.1931034 L84.3573171,29.5862069 L84.3573171,29.5862069 Z M80.2247967,21.7862069 L87.052439,21.7862069 C91.0052846,21.7862069 93.7902439,23.0413793 93.7902439,27.5241379 C93.7902439,31.6482759 91.3646341,33.4413793 87.2321138,33.4413793 L84.3573171,33.4413793 L84.3573171,39.1793103 L80.2247967,39.1793103 L80.2247967,21.7862069 Z" id="Shape" fill="#BBBBBB"></path>
                    <polygon id="Path" fill="#BBBBBB" points="100.078862 25.5517241 100.078862 28.5103448 107.176016 28.5103448 107.176016 32.2758621 100.078862 32.2758621 100.078862 35.2344828 107.355691 35.2344828 107.355691 39.0896552 95.9463415 39.0896552 95.9463415 21.7862069 107.355691 21.7862069 107.355691 25.5517241"></polygon>
                    <path d="M114.902033,29.4965517 L116.788618,29.4965517 C118.136179,29.4965517 119.663415,29.2275862 119.663415,27.3448276 C119.663415,25.462069 118.136179,25.1931034 116.788618,25.1931034 L114.902033,25.1931034 L114.902033,29.4965517 Z M125.772358,39.0896552 L120.651626,39.0896552 L115.710569,32.4551724 L114.99187,32.4551724 L114.99187,32.4551724 L114.99187,39.0896552 L110.85935,39.0896552 L110.85935,21.7862069 L118.495528,21.7862069 C121.639837,21.7862069 123.97561,23.4 123.97561,27.0758621 C123.97561,29.8551724 122.268699,31.5586207 120.022764,32.0068966 L125.772358,39.0896552 Z" id="Shape" fill="#BBBBBB"></path>
                    <polygon id="Path" fill="#BBBBBB" points="134.486585 39.0896552 130.354065 39.0896552 130.354065 25.5517241 125.592683 25.5517241 125.592683 21.7862069 139.15813 21.7862069 139.15813 25.5517241 134.486585 25.5517241"></polygon>
                    <path d="M146.255285,27.0758621 L146.255285,27.0758621 L144.548374,32.6344828 L147.962195,32.6344828 L146.255285,27.0758621 Z M143.380488,36.0413793 L142.302439,39.0896552 L137.900407,39.0896552 L144.00935,21.7862069 L148.50122,21.7862069 L154.430488,39.0896552 L150.028455,39.0896552 L149.040244,36.0413793 L143.380488,36.0413793 Z" id="Shape" fill="#BBBBBB"></path>
                    <polygon id="Path" fill="#BBBBBB" points="158.383333 21.7862069 162.426016 21.7862069 165.660163 31.0206897 168.984146 21.7862069 173.116667 21.7862069 175.452439 39.0896552 171.409756 39.0896552 170.24187 29.137931 170.152033 29.137931 166.378862 39.0896552 164.761789 39.0896552 161.168293 29.137931 161.078455 29.137931 159.820732 39.0896552 155.688211 39.0896552"></polygon>
                    <rect id="Rectangle" fill="#BBBBBB" x="178.147561" y="21.7862069" width="4.13252033" height="17.3034483"></rect>
                    <polygon id="Path" fill="#BBBBBB" points="185.873577 21.7862069 190.006098 21.7862069 197.462602 32.3655172 197.552439 32.3655172 197.552439 21.7862069 201.595122 21.7862069 201.595122 39.0896552 197.552439 39.0896552 190.006098 28.5103448 190.006098 28.5103448 190.006098 39.0896552 185.873577 39.0896552"></polygon>
                    <path d="M212.01626,27.0758621 L212.01626,27.0758621 L210.30935,32.6344828 L213.723171,32.6344828 L212.01626,27.0758621 Z M209.141463,36.0413793 L208.063415,39.0896552 L203.75122,39.0896552 L209.860163,21.7862069 L214.352033,21.7862069 L220.281301,39.0896552 L215.879268,39.0896552 L214.891057,36.0413793 L209.141463,36.0413793 Z" id="Shape" fill="#BBBBBB"></path>
                </g>
            </g>
        </g>
    </g>
</svg>