<?xml version="1.0" encoding="UTF-8"?>
<svg width="164px" height="59px" viewBox="0 0 164 59" version="1.1" xmlns="http://www.w3.org/2000/svg" xmlns:xlink="http://www.w3.org/1999/xlink">
    <!-- Generator: Sketch 63.1 (92452) - https://sketch.com -->
    <title>TUV</title>
    <desc>Created with Sketch.</desc>
    <g id="Page-1" stroke="none" stroke-width="1" fill="none" fill-rule="evenodd">
        <g id="Plainthing-Website" transform="translate(-239.000000, -7052.000000)" fill="#BBBBBB">
            <g id="trusted" transform="translate(135.000000, 6717.000000)">
                <g id="TUV" transform="translate(104.000000, 335.000000)">
                    <g id="Group">
                        <path d="M68.5243386,56.6765217 C60.8830688,53.5721739 56.315873,53.9713043 54.4275132,53.793913 C43.5804233,53.3947826 31.9428571,56.8982609 21.842328,58.2286957 C13.278836,59.3817391 2.95873016,57.4747826 0.499470899,54.9469565 L36.1587302,0 L62.1126984,45.3234783 C56.7550265,45.3234783 55.6132275,44.3478261 45.7322751,45.3234783 C40.1989418,45.9 35.8074074,46.8756522 31.9867725,47.8513043 C20.7444444,50.1573913 14.815873,49.4034783 14.815873,49.5808696 L18.8121693,43.2391304 C18.6365079,43.2391304 25.8825397,42.84 37.3005291,40.533913 C45.1174603,38.8043478 44.5465608,39.2034783 51.2216931,38.8043478 L35.9830688,11.7965217 L10.0291005,51.7095652 C10.0291005,51.7095652 16.7042328,54.0156522 33.4798942,50.1573913 C39.1888889,49.0043478 43.4047619,48.0286957 49.8603175,47.6295652 C55.3936508,47.4521739 63.7814815,48.3834783 63.7814815,48.3834783 L68.5243386,56.6765217 L68.5243386,56.6765217 Z" id="Path"></path>
                        <path d="M88.9925926,46.7243478 L96.6338624,46.7243478 L96.6338624,24.9495652 L104.846032,24.9495652 L104.846032,19.7608696 L81,19.7608696 L81,24.9495652 L88.9925926,24.9495652 L88.9925926,46.7243478 L88.9925926,46.7243478 Z M125.793651,19.7165217 L125.793651,36.48 C125.617989,39.9391304 123.905291,42.0678261 120.435979,42.0678261 C117.010582,42.0678261 115.078307,39.9391304 114.902646,36.48 L114.902646,19.7165217 L107.656614,19.7165217 L107.656614,36.7017391 C107.656614,44.4182609 113.760847,47.3008696 120.435979,47.3008696 C127.111111,47.3008696 133.039683,44.4182609 133.215344,36.7017391 L133.215344,19.7165217 L125.793651,19.7165217 L125.793651,19.7165217 Z M150.210582,39.3626087 L150.210582,39.3626087 L144.106349,19.7165217 L136.113757,19.7165217 L145.248148,46.7243478 L154.206878,46.7243478 L163.912169,19.7165217 L156.490476,19.7165217 L150.210582,39.3626087 L150.210582,39.3626087 Z" id="Shape" fill-rule="nonzero"></path>
                        <polygon id="Path" fill-rule="nonzero" points="112.048148 12 118.152381 12 118.152381 17.4104348 112.048148 17.4104348"></polygon>
                        <polygon id="Path" fill-rule="nonzero" points="121.973016 12 128.25291 12 128.25291 17.4104348 121.973016 17.4104348"></polygon>
                    </g>
                </g>
            </g>
        </g>
    </g>
</svg>