<?xml version="1.0" encoding="UTF-8"?>
<svg width="103px" height="40px" viewBox="0 0 103 40" version="1.1" xmlns="http://www.w3.org/2000/svg" xmlns:xlink="http://www.w3.org/1999/xlink">
    <!-- Generator: Sketch 63.1 (92452) - https://sketch.com -->
    <title>zahir</title>
    <desc>Created with Sketch.</desc>
    <defs>
        <polygon id="path-1" points="0.463345455 0.0742704918 20.4574545 0.0742704918 20.4574545 29.5037787 0.463345455 29.5037787"></polygon>
    </defs>
    <g id="Page-1" stroke="none" stroke-width="1" fill="none" fill-rule="evenodd">
        <g id="Plainthing-Website" transform="translate(-273.000000, -7238.000000)">
            <g id="trusted" transform="translate(135.000000, 6717.000000)">
                <g id="zahir" transform="translate(186.494831, 542.977441) rotate(39.000000) translate(-186.494831, -542.977441) translate(140.494831, 500.477441)">
                    <polygon id="Fill-1" fill="#BBBBBB" points="0 56.8930082 2.40872727 62.3580902 12.764303 54.1535 18.4599394 84.9262869 37.2279394 70.0554672 34.4790909 64.5973525 22.5065455 74.0825164 17.4228485 43.0881721"></polygon>
                    <g id="Group-13" transform="translate(26.484848, 1.319311)">
                        <path d="M18.2387212,57.2493115 C16.4070848,58.7012787 13.9091455,58.5995574 12.6587818,57.0235738 C11.4098121,55.4475902 11.8795697,52.9923443 13.7126,51.540377 C15.5442364,50.0898033 18.0421758,50.1915246 19.2925394,51.7661148 C20.5415091,53.3434918 20.0703576,55.7973443 18.2387212,57.2493115 M0.977569697,44.5118525 L3.37235758,50.1887377 C3.37235758,50.1887377 10.1343576,37.9752131 15.0675091,46.0934098 C15.0675091,46.0934098 5.45769091,47.5969344 5.98599394,56.023082 C6.51429697,64.4492295 16.1756909,65.9917705 19.8752061,62.7868525 C23.5747212,59.5819344 23.7141152,56.8744754 23.7141152,56.8744754 L25.1150242,58.6413607 L28.7908424,54.4331639 L16.7039939,39.1916885 C16.7039939,39.1916885 11.3847212,32.2676721 0.977569697,44.5118525" id="Fill-2" fill="#BBBBBB"></path>
                        <path d="M11.7959333,25.240959 L32.8639333,51.811123 L37.104297,47.8481721 L27.7467818,36.0471066 C27.7467818,36.0471066 25.1080545,31.1672705 28.1315091,28.7705492 C31.1549636,26.3752213 34.0864182,29.2122705 34.0864182,29.2122705 L44.9563576,42.9195656 L49.1130848,38.3323525 L37.8249636,24.0983361 C37.8249636,24.0983361 31.5968424,18.4841557 26.3249636,23.5618607 C26.3249636,23.5618607 22.7397515,25.9362869 22.9376909,30.1528443 L15.3992667,20.8181721 L11.7959333,25.240959 Z" id="Fill-4" fill="#BBBBBB"></path>
                        <polygon id="Fill-6" fill="#BBBBBB" points="37.1086182 15.7794836 52.9507394 35.7586639 57.0015273 31.7274344 41.1886788 11.7844836"></polygon>
                        <g id="Group-10" transform="translate(44.606061, 0.000000)">
                            <mask id="mask-2" fill="white">
                                <use xlink:href="#path-1"></use>
                            </mask>
                            <g id="Clip-9"></g>
                            <path d="M0.463345455,9.60959836 L16.2371636,29.5037787 L20.4580121,25.3401721 L12.1375879,14.8475492 C12.1375879,14.8475492 9.22564848,11.0044344 13.7322545,6.33918852 L11.3611636,0.0742704918 C11.3611636,0.0742704918 6.8057697,2.26058197 7.09292121,9.00345082 L4.33292121,5.52263115 L0.463345455,9.60959836 Z" id="Fill-8" fill="#BBBBBB" mask="url(#mask-2)"></path>
                        </g>
                        <path d="M38.1282848,4.99521311 C39.7452545,7.03521311 39.4023455,9.99906557 37.3616182,11.615459 C35.3208909,13.2318525 32.3559818,12.8890656 30.7390121,10.8490656 C29.1206485,8.80906557 29.4635576,5.84521311 31.5042848,4.22881967 C33.5450121,2.61242623 36.5113152,2.95521311 38.1282848,4.99521311" id="Fill-11" fill="#BBBBBB"></path>
                    </g>
                </g>
            </g>
        </g>
    </g>
</svg>